<?xml version="1.0" encoding="UTF-8"?>
<svg width="430px" height="430px" viewBox="0 0 430 430" version="1.1" xmlns="http://www.w3.org/2000/svg" xmlns:xlink="http://www.w3.org/1999/xlink">
    <!-- Generator: Sketch 64 (93537) - https://sketch.com -->
    <title>Group 336</title>
    <desc>Created with Sketch.</desc>
    <defs>
        <path d="M140.504769,103.478761 C11.529086,127.141306 45.115371,270.457562 45.115371,270.457562 L45.115371,270.457562 C9.344181,281.763529 0.0384479638,310.285818 0,336.812471 L0,336.812471 L0,337.149037 C0.0410995475,365.549899 10.6368281,391.564444 10.6368281,391.564444 L10.6368281,391.564444 L878.451122,391.564444 C878.513434,389.506774 878.549231,387.48738 878.549231,385.490424 L878.549231,385.490424 L878.549231,384.698505 C878.341081,277.580875 795.380982,257.596795 795.380982,257.596795 L795.380982,257.596795 C801.701032,116.826559 622.719131,109.023515 622.719131,109.023515 L622.719131,109.023515 C574.573,5.17255219 452.576285,45.7003367 452.576285,45.7003367 L452.576285,45.7003367 C394.668348,12.4582088 345.930914,0.110868264 305.454489,0.110868264 L305.454489,0.110868264 C188.371158,0.118787879 140.504769,103.478761 140.504769,103.478761" id="path-1"></path>
        <linearGradient x1="50.0000348%" y1="81.8563193%" x2="50.0000348%" y2="-31.227562%" id="linearGradient-3">
            <stop stop-color="#7EB2FF" offset="0%"></stop>
            <stop stop-color="#FFFFFF" offset="100%"></stop>
        </linearGradient>
        <path d="M26.6197807,0.194257588 C12.1316228,1.39392945 15.5374708,33.2259229 10.3635088,39.5314192 L10.3635088,39.5314192 C5.18821637,45.8382281 7.92752924,50.94274 5.70042398,65.5369975 L5.70042398,65.5369975 C3.47464912,80.12863 -0.611038012,73.4766202 0.145964912,87.1179655 L0.145964912,87.1179655 C0.904298246,100.757998 4.57888889,119.711239 26.6197807,119.711239 L26.6197807,119.711239 C48.6566813,119.711239 51.7591959,94.4853158 51.7591959,82.0567678 L51.7591959,82.0567678 C51.7591959,69.6282199 45.6712427,70.7622642 47.1919006,56.0472518 L47.1919006,56.0472518 C48.7138889,41.3335521 42.0179386,40.7324036 41.7132749,29.3210829 L41.7132749,29.3210829 C41.417924,18.2575882 41.0773392,0.139130435 27.8969737,0.140442986 L27.8969737,0.140442986 C27.4845468,0.140442986 27.0574854,0.157506153 26.6197807,0.194257588" id="path-4"></path>
        <path d="M37.4492173,0.306974517 C26.2521226,0.547992719 23.5335244,18.6856111 22.0043129,27.6538851 L22.0043129,27.6538851 C20.4764185,36.6208275 19.9060924,51.5386557 9.63100298,57.0647637 L9.63100298,57.0647637 C-0.641452195,62.5908716 4.2082952,87.0082792 5.89029613,94.2548044 L5.89029613,94.2548044 C7.57229706,101.502661 9.7495465,112.056862 3.47332533,118.37793 L3.47332533,118.37793 C-2.80553013,124.70033 1.22890123,132.825706 4.77598698,144.375938 L4.77598698,144.375938 C8.32175558,155.924837 1.98362835,180.786997 38.9178398,178.894804 L38.9178398,178.894804 C75.8507342,177.002612 58.3497582,154.743715 66.0419159,143.172178 L66.0419159,143.172178 C73.7314394,131.600641 74.3452314,118.080985 69.2544455,112.67472 L69.2544455,112.67472 C64.1649767,107.268456 65.2200141,93.8819585 67.0916847,79.1199266 L67.0916847,79.1199266 C68.9646724,64.3578946 61.1684598,59.0914471 56.691466,46.224271 L56.691466,46.224271 C52.2381808,33.4276692 54.474702,0.304311333 37.7258188,0.304311333 L37.7258188,0.304311333 C37.6349355,0.304311333 37.5427349,0.304311333 37.4492173,0.306974517" id="path-6"></path>
        <path d="M307.674936,36.5354521 C296.183047,40.5088564 274.549229,40.2492606 260.820228,69.5464947 L260.820228,69.5464947 C256.841961,78.0363351 239.194367,71.7874947 227.668,94.8133723 L227.668,94.8133723 C225.015821,100.111245 210.871755,96.8000745 203.356808,106.181282 L203.356808,106.181282 C195.84186,115.562489 199.820128,138.802931 194.958685,142.635941 L194.958685,142.635941 C190.239134,146.355048 186.341758,150.62116 184.100667,168.22334 L184.100667,168.22334 C184.576733,163.216851 184.999756,148.156324 173.741259,142.635941 L173.741259,142.635941 C173.741259,142.635941 172.838192,116.777027 162.183066,114.790324 L162.183066,114.790324 C151.529266,112.803622 151.529266,123.730484 146.223583,127.703888 L146.223583,127.703888 C140.920553,131.677293 131.30508,128.697239 126.663768,139.624101 L126.663768,139.624101 C122.022456,150.550963 125.337679,154.524367 119.038756,159.491122 L119.038756,159.491122 C112.741159,164.457878 111.745266,165.929362 110.087654,173.968883 L110.087654,173.968883 C109.810502,175.317191 109.643414,176.1675 109.555893,176.6655 L109.555893,176.6655 C107.652955,180.03892 96.0456964,180.977968 93.5128661,214.125431 L93.5128661,214.125431 C93.5128661,214.125431 88.9153151,190.977702 77.5984704,190.616122 L77.5984704,190.616122 C73.4623984,190.485 70.2678497,191.067766 67.7018672,191.651856 L67.7018672,191.651856 C63.2475338,192.665074 60.6842035,193.678293 58.3701779,190.947239 L58.3701779,190.947239 C54.7247589,186.642718 57.3769372,172.735803 48.7573578,172.073569 L48.7573578,172.073569 C40.1364523,171.411335 39.8062561,192.161777 33.5073327,202.976059 L33.5073327,202.976059 C27.2084093,213.794314 -0.639462559,228.229691 0.0222559202,248.826495 L0.0222559202,248.826495 L769.817887,248.826495 C769.817887,248.826495 770.377935,224.292048 743.295217,214.456548 L743.295217,214.456548 C736.003053,211.807612 734.676964,200.549633 718.762568,191.94059 L718.762568,191.94059 C702.849498,183.331548 692.905156,189.543303 684.285576,176.171473 L684.285576,176.171473 C675.664671,162.802293 656.436379,155.517718 639.860264,156.842186 L639.860264,156.842186 C623.28415,158.166654 613.338482,163.464527 596.100649,147.57091 L596.100649,147.57091 C578.860164,131.677293 587.453222,122.505351 559.631872,118.386255 L559.631872,118.386255 C527.144014,113.575787 519.408936,103.422415 512.557033,95.2544202 L512.557033,95.2544202 C505.995544,87.4334362 503.509127,67.5478723 471.596792,65.4538883 L471.596792,65.4538883 C461.502602,64.7916543 451.777064,63.908234 431.885727,55.96275 L431.885727,55.96275 C411.995716,48.014617 405.805532,24.1741915 389.893788,22.4086755 L389.893788,22.4086755 C373.980719,20.6431596 362.045916,33.0044202 362.045916,33.0044202 L362.045916,33.0044202 C362.045916,33.0044202 358.066323,1.21983511 340.385576,0.115228723 L340.385576,0.115228723 C340.099141,0.0966861702 339.816684,0.0887393617 339.538205,0.0887393617 L339.538205,0.0887393617 C322.588134,0.0887393617 318.981172,32.6269468 307.674936,36.5354521" id="path-8"></path>
        <path d="M146.815418,0.311705686 C142.767565,0.311705686 139.486813,3.6187291 139.486813,7.69899666 L139.486813,7.69899666 C139.486813,11.0207358 136.813903,13.716388 133.517225,13.716388 L133.517225,13.716388 L54.3239661,13.716388 C51.0272884,13.716388 48.3543783,11.0207358 48.3543783,7.69899666 L48.3543783,7.69899666 C48.3543783,3.6187291 45.0736265,0.311705686 41.0271006,0.311705686 L41.0271006,0.311705686 L28.3022432,0.311705686 C12.6841663,0.311705686 0.0243399472,13.0729097 0.0243399472,28.8160535 L0.0243399472,28.8160535 L0.0243399472,29.6816054 L187.816851,29.6816054 L187.816851,28.8173913 C187.816851,13.0742475 175.155698,0.311705686 159.537621,0.311705686 L159.537621,0.311705686 L146.815418,0.311705686 Z" id="path-10"></path>
        <path d="M36.2785505,0.131305355 C16.2563295,0.131305355 0.0232085493,16.109438 0.0232085493,35.8171519 L0.0232085493,35.8171519 L0.0232085493,47.898434 L203.818113,47.898434 L203.818113,35.8171519 C203.818113,16.109438 187.584992,0.131305355 167.562771,0.131305355 L167.562771,0.131305355 L36.2785505,0.131305355 Z" id="path-12"></path>
        <linearGradient x1="49.9999921%" y1="73.7884155%" x2="49.9999921%" y2="-16.5845419%" id="linearGradient-14">
            <stop stop-color="#004FB7" offset="0%"></stop>
            <stop stop-color="#004FB7" offset="100%"></stop>
        </linearGradient>
        <path d="M0.152418605,21.5507338 L17.3487442,88.9881755 L17.3487442,88.9894957 C17.0425581,92.3730511 18.8365116,95.588947 21.8713953,97.2378197 L21.8713953,97.2378197 C28.2163256,100.683422 34.932186,106.259754 39.9889767,110.900096 L39.9889767,110.900096 C39.3132093,99.6140974 38.611814,86.9590984 37.915814,72.9205776 L37.915814,72.9205776 L37.9144651,72.9192575 C15.245907,54.9876017 8.71213953,0.0982266152 6.33413953,0.0982266152 L6.33413953,0.0982266152 C3.86037209,0.0982266152 3.18730233,8.89969527 0.152418605,21.5507338" id="path-15"></path>
        <path d="M4.76278225,0.104675926 C4.76278225,0.104675926 2.48157063,3.54912963 0.449170831,9.07971296 L0.449170831,9.07971296 C6.36958287,10.5242407 22.3027068,14.3048889 28.7102662,14.7457593 L28.7102662,14.7457593 C33.8645997,15.1016574 41.7296726,17.553537 47.7417522,18.8983148 L47.7417522,18.8983148 C46.5330505,14.228537 45.7630433,11.7926667 45.7630433,11.7926667 L45.7630433,11.7926667 L45.7630433,0.104675926 L4.76278225,0.104675926 Z" id="path-17"></path>
        <polygon id="path-19" points="0 476 878.549231 476 878.549231 -0.000985130703 0 -0.000985130703"></polygon>
    </defs>
    <g id="Page-1" stroke="none" stroke-width="1" fill="none" fill-rule="evenodd" opacity="0.802571615">
        <g id="Web" transform="translate(-1490.000000, -2570.000000)">
            <g id="Group-336" transform="translate(1490.000000, 2570.000000)">
                <g id="Group-3" transform="translate(0.000000, 9.000000)">
                    <mask id="mask-2" fill="white">
                        <use xlink:href="#path-1"></use>
                    </mask>
                    <g id="Clip-2"></g>
                    <path d="M140.504769,103.478761 C11.529086,127.141306 45.115371,270.457562 45.115371,270.457562 L45.115371,270.457562 C9.344181,281.763529 0.0384479638,310.285818 0,336.812471 L0,336.812471 L0,337.149037 C0.0410995475,365.549899 10.6368281,391.564444 10.6368281,391.564444 L10.6368281,391.564444 L878.451122,391.564444 C878.513434,389.506774 878.549231,387.48738 878.549231,385.490424 L878.549231,385.490424 L878.549231,384.698505 C878.341081,277.580875 795.380982,257.596795 795.380982,257.596795 L795.380982,257.596795 C801.701032,116.826559 622.719131,109.023515 622.719131,109.023515 L622.719131,109.023515 C574.573,5.17255219 452.576285,45.7003367 452.576285,45.7003367 L452.576285,45.7003367 C394.668348,12.4582088 345.930914,0.110868264 305.454489,0.110868264 L305.454489,0.110868264 C188.371158,0.118787879 140.504769,103.478761 140.504769,103.478761" id="Fill-1" fill="url(#linearGradient-3)" mask="url(#mask-2)"></path>
                </g>
                <g id="Group-34" transform="translate(237.000000, 116.000000)">
                    <mask id="mask-5" fill="white">
                        <use xlink:href="#path-4"></use>
                    </mask>
                    <g id="Clip-33"></g>
                    <path d="M26.6197807,0.194257588 C12.1316228,1.39392945 15.5374708,33.2259229 10.3635088,39.5314192 L10.3635088,39.5314192 C5.18821637,45.8382281 7.92752924,50.94274 5.70042398,65.5369975 L5.70042398,65.5369975 C3.47464912,80.12863 -0.611038012,73.4766202 0.145964912,87.1179655 L0.145964912,87.1179655 C0.904298246,100.757998 4.57888889,119.711239 26.6197807,119.711239 L26.6197807,119.711239 C48.6566813,119.711239 51.7591959,94.4853158 51.7591959,82.0567678 L51.7591959,82.0567678 C51.7591959,69.6282199 45.6712427,70.7622642 47.1919006,56.0472518 L47.1919006,56.0472518 C48.7138889,41.3335521 42.0179386,40.7324036 41.7132749,29.3210829 L41.7132749,29.3210829 C41.417924,18.2575882 41.0773392,0.139130435 27.8969737,0.140442986 L27.8969737,0.140442986 C27.4845468,0.140442986 27.0574854,0.157506153 26.6197807,0.194257588" id="Fill-32" mask="url(#mask-5)"></path>
                </g>
                <g id="Group-45" transform="translate(246.000000, 145.000000)" stroke="#00337F" stroke-width="0.8">
                    <line x1="18.0714852" y1="0.0387558013" x2="18.0714852" y2="144.861203" id="Stroke-35"></line>
                    <line x1="27.2989198" y1="5.53211643" x2="18.0720267" y2="24.7965513" id="Stroke-37"></line>
                    <path d="M3.09778807,16.4300566 C3.09778807,16.4300566 6.81291564,31.7283231 18.0720267,39.1298178" id="Stroke-39"></path>
                    <path d="M34.9146605,40.4386138 C34.9146605,40.4386138 32.0294794,56.9039428 18.0720267,67.1124468" id="Stroke-41"></path>
                    <path d="M0.0514917695,53.9401836 C0.0514917695,53.9401836 8.67454115,74.6864981 18.0720267,81.437283" id="Stroke-43"></path>
                </g>
                <g id="Group-48" transform="translate(77.000000, 142.000000)">
                    <mask id="mask-7" fill="white">
                        <use xlink:href="#path-6"></use>
                    </mask>
                    <g id="Clip-47"></g>
                    <path d="M37.4492173,0.306974517 C26.2521226,0.547992719 23.5335244,18.6856111 22.0043129,27.6538851 L22.0043129,27.6538851 C20.4764185,36.6208275 19.9060924,51.5386557 9.63100298,57.0647637 L9.63100298,57.0647637 C-0.641452195,62.5908716 4.2082952,87.0082792 5.89029613,94.2548044 L5.89029613,94.2548044 C7.57229706,101.502661 9.7495465,112.056862 3.47332533,118.37793 L3.47332533,118.37793 C-2.80553013,124.70033 1.22890123,132.825706 4.77598698,144.375938 L4.77598698,144.375938 C8.32175558,155.924837 1.98362835,180.786997 38.9178398,178.894804 L38.9178398,178.894804 C75.8507342,177.002612 58.3497582,154.743715 66.0419159,143.172178 L66.0419159,143.172178 C73.7314394,131.600641 74.3452314,118.080985 69.2544455,112.67472 L69.2544455,112.67472 C64.1649767,107.268456 65.2200141,93.8819585 67.0916847,79.1199266 L67.0916847,79.1199266 C68.9646724,64.3578946 61.1684598,59.0914471 56.691466,46.224271 L56.691466,46.224271 C52.2381808,33.4276692 54.474702,0.304311333 37.7258188,0.304311333 L37.7258188,0.304311333 C37.6349355,0.304311333 37.5427349,0.304311333 37.4492173,0.306974517" id="Fill-46" mask="url(#mask-7)"></path>
                </g>
                <g id="Group-81" transform="translate(54.000000, 99.000000)">
                    <line x1="61.8516914" y1="58.8930421" x2="61.8516914" y2="298.548596" id="Stroke-49" stroke="#00337F"></line>
                    <path d="M50.6922906,67.0503163 C50.6922906,67.0503163 53.7854214,75.5899358 61.8516914,87.8234003" id="Stroke-51" stroke="#00337F"></path>
                    <path d="M78.5344454,102.702071 C78.5344454,102.702071 69.6952242,120.270648 61.8516914,128.183385" id="Stroke-53" stroke="#00337F"></path>
                    <line x1="72.2368151" y1="100.718265" x2="73.3253108" y2="112.151595" id="Stroke-55" stroke="#00337F"></line>
                    <path d="M30.473583,115.442992 C30.473583,115.442992 39.2014356,137.748897 61.8516914,164.199631" id="Stroke-57" stroke="#00337F"></path>
                    <line x1="43.0688435" y1="115.442992" x2="39.4506892" y2="132.989087" id="Stroke-59" stroke="#00337F"></line>
                    <path d="M86.1578925,156.595441 C86.1578925,156.595441 73.3412206,176.563101 61.8516914,185.756053" id="Stroke-61" stroke="#00337F"></path>
                    <path d="M21.709403,223.915602 C15.9659643,227.691444 13.6802559,230.753116 10.8602434,238.44499 C8.04023087,230.753116 5.75452254,227.691444 0.0110837639,223.915602 C5.75452254,220.139759 8.04023087,217.078087 10.8602434,209.387536 C13.6802559,217.078087 15.9659643,220.139759 21.709403,223.915602" id="Fill-63" fill="#F0A900"></path>
                    <path d="M183.771824,140.992286 C180.900105,142.880868 179.757251,144.411043 178.347907,148.25698 C176.937238,144.411043 175.794384,142.880868 172.922665,140.992286 C175.794384,139.103703 176.937238,137.573528 178.347907,133.728914 C179.757251,137.573528 180.900105,139.103703 183.771824,140.992286" id="Fill-69" fill="#F0A900"></path>
                    <path d="M302.135851,223.249175 C302.135851,234.839887 292.715922,244.23651 281.096463,244.23651 C269.477003,244.23651 260.057074,234.839887 260.057074,223.249175 C260.057074,211.657141 269.477003,202.26184 281.096463,202.26184 C292.715922,202.26184 302.135851,211.657141 302.135851,223.249175" id="Fill-71" fill="#FFB821"></path>
                    <path d="M290.154311,228.848002 C288.251764,230.72865 285.760554,232.008865 282.984293,232.416206 L284.188135,235.339013 C285.026051,237.374397 287.362141,238.347784 289.403899,237.510618 C291.444331,236.673452 292.418806,234.344465 291.58089,232.309081 L290.154311,228.848002 Z" id="Fill-73" fill="#FFFFFF"></path>
                    <path d="M269.476606,225.22002 C271.539577,229.560585 275.95985,232.570679 281.096065,232.570679 C286.232279,232.570679 290.652553,229.560585 292.715524,225.22002" id="Stroke-75" stroke="#093464" stroke-width="0.75" stroke-linecap="round" stroke-linejoin="round"></path>
                    <path d="M279.132132,218.606014 C279.132132,221.5394 277.755934,223.915998 276.060214,223.915998 C274.363169,223.915998 272.986971,221.5394 272.986971,218.606014 C272.986971,215.67395 274.363169,213.296029 276.060214,213.296029 C277.755934,213.296029 279.132132,215.67395 279.132132,218.606014" id="Fill-77" fill="#093464"></path>
                    <path d="M289.205291,218.606014 C289.205291,221.5394 287.829093,223.915998 286.133373,223.915998 C284.435002,223.915998 283.06013,221.5394 283.06013,218.606014 C283.06013,215.67395 284.435002,213.296029 286.133373,213.296029 C287.829093,213.296029 289.205291,215.67395 289.205291,218.606014" id="Fill-79" fill="#093464"></path>
                </g>
                <g id="Group-84" transform="translate(54.000000, 162.000000)">
                    <mask id="mask-9" fill="white">
                        <use xlink:href="#path-8"></use>
                    </mask>
                    <g id="Clip-83"></g>
                    <path d="M307.674936,36.5354521 C296.183047,40.5088564 274.549229,40.2492606 260.820228,69.5464947 L260.820228,69.5464947 C256.841961,78.0363351 239.194367,71.7874947 227.668,94.8133723 L227.668,94.8133723 C225.015821,100.111245 210.871755,96.8000745 203.356808,106.181282 L203.356808,106.181282 C195.84186,115.562489 199.820128,138.802931 194.958685,142.635941 L194.958685,142.635941 C190.239134,146.355048 186.341758,150.62116 184.100667,168.22334 L184.100667,168.22334 C184.576733,163.216851 184.999756,148.156324 173.741259,142.635941 L173.741259,142.635941 C173.741259,142.635941 172.838192,116.777027 162.183066,114.790324 L162.183066,114.790324 C151.529266,112.803622 151.529266,123.730484 146.223583,127.703888 L146.223583,127.703888 C140.920553,131.677293 131.30508,128.697239 126.663768,139.624101 L126.663768,139.624101 C122.022456,150.550963 125.337679,154.524367 119.038756,159.491122 L119.038756,159.491122 C112.741159,164.457878 111.745266,165.929362 110.087654,173.968883 L110.087654,173.968883 C109.810502,175.317191 109.643414,176.1675 109.555893,176.6655 L109.555893,176.6655 C107.652955,180.03892 96.0456964,180.977968 93.5128661,214.125431 L93.5128661,214.125431 C93.5128661,214.125431 88.9153151,190.977702 77.5984704,190.616122 L77.5984704,190.616122 C73.4623984,190.485 70.2678497,191.067766 67.7018672,191.651856 L67.7018672,191.651856 C63.2475338,192.665074 60.6842035,193.678293 58.3701779,190.947239 L58.3701779,190.947239 C54.7247589,186.642718 57.3769372,172.735803 48.7573578,172.073569 L48.7573578,172.073569 C40.1364523,171.411335 39.8062561,192.161777 33.5073327,202.976059 L33.5073327,202.976059 C27.2084093,213.794314 -0.639462559,228.229691 0.0222559202,248.826495 L0.0222559202,248.826495 L769.817887,248.826495 C769.817887,248.826495 770.377935,224.292048 743.295217,214.456548 L743.295217,214.456548 C736.003053,211.807612 734.676964,200.549633 718.762568,191.94059 L718.762568,191.94059 C702.849498,183.331548 692.905156,189.543303 684.285576,176.171473 L684.285576,176.171473 C675.664671,162.802293 656.436379,155.517718 639.860264,156.842186 L639.860264,156.842186 C623.28415,158.166654 613.338482,163.464527 596.100649,147.57091 L596.100649,147.57091 C578.860164,131.677293 587.453222,122.505351 559.631872,118.386255 L559.631872,118.386255 C527.144014,113.575787 519.408936,103.422415 512.557033,95.2544202 L512.557033,95.2544202 C505.995544,87.4334362 503.509127,67.5478723 471.596792,65.4538883 L471.596792,65.4538883 C461.502602,64.7916543 451.777064,63.908234 431.885727,55.96275 L431.885727,55.96275 C411.995716,48.014617 405.805532,24.1741915 389.893788,22.4086755 L389.893788,22.4086755 C373.980719,20.6431596 362.045916,33.0044202 362.045916,33.0044202 L362.045916,33.0044202 C362.045916,33.0044202 358.066323,1.21983511 340.385576,0.115228723 L340.385576,0.115228723 C340.099141,0.0966861702 339.816684,0.0887393617 339.538205,0.0887393617 L339.538205,0.0887393617 C322.588134,0.0887393617 318.981172,32.6269468 307.674936,36.5354521" id="Fill-82" mask="url(#mask-9)"></path>
                </g>
                <g id="Group-167" transform="translate(326.000000, 53.000000)">
                    <path d="M167.023506,374.770837 L36.1609647,374.770837 C16.2030541,374.770837 0.0233965997,358.594606 0.0233965997,338.639599 L0.0233965997,36.4393889 C0.0233965997,16.4843815 16.2030541,0.308150194 36.1609647,0.308150194 L167.023506,0.308150194 C186.981417,0.308150194 203.162398,16.4843815 203.162398,36.4393889 L203.162398,338.639599 C203.162398,358.594606 186.981417,374.770837 167.023506,374.770837" id="Fill-159" fill="#0050B7"></path>
                    <path d="M167.022183,8.24675546 L154.336252,8.24675546 C150.299939,8.24675546 147.028541,11.5174608 147.028541,15.5515954 C147.028541,18.8395011 144.363251,21.5042262 141.077296,21.5042262 L62.1084982,21.5042262 C58.8212196,21.5042262 56.15593,18.8395011 56.15593,15.5515954 C56.15593,11.5174608 52.8845319,8.24675546 48.8495428,8.24675546 L36.1609647,8.24675546 C20.5874158,8.24675546 7.96368329,20.8691378 7.96368329,36.4393889 L7.96368329,338.639599 C7.96368329,354.20985 20.5874158,366.832232 36.1609647,366.832232 L167.023506,366.832232 C182.597055,366.832232 195.222111,354.20985 195.222111,338.639599 L195.222111,36.4393889 C195.222111,20.8691378 182.597055,8.24675546 167.022183,8.24675546" id="Fill-161" fill="#FFFFFF"></path>
                    <path d="M7.96315394,311.261995 L7.96315394,338.639599 C7.96315394,354.20985 20.5882098,366.832232 36.1617587,366.832232 L167.022977,366.832232 C182.596526,366.832232 195.221582,354.20985 195.221582,338.639599 L195.221582,311.261995 L7.96315394,311.261995 Z" id="Fill-163" fill="#ED9B9B"></path>
                    <path d="M161.82553,348.215806 L41.358147,348.215806 C35.3896982,348.215806 30.5514168,343.378549 30.5514168,337.411364 C30.5514168,331.442856 35.3896982,326.605599 41.358147,326.605599 L161.82553,326.605599 C167.795302,326.605599 172.633584,331.442856 172.633584,337.411364 C172.633584,343.378549 167.795302,348.215806 161.82553,348.215806" id="Fill-165" fill="#000000"></path>
                </g>
                <g id="Group-170" transform="translate(334.000000, 60.000000)">
                    <mask id="mask-11" fill="white">
                        <use xlink:href="#path-10"></use>
                    </mask>
                    <g id="Clip-169"></g>
                    <path d="M146.815418,0.311705686 C142.767565,0.311705686 139.486813,3.6187291 139.486813,7.69899666 L139.486813,7.69899666 C139.486813,11.0207358 136.813903,13.716388 133.517225,13.716388 L133.517225,13.716388 L54.3239661,13.716388 C51.0272884,13.716388 48.3543783,11.0207358 48.3543783,7.69899666 L48.3543783,7.69899666 C48.3543783,3.6187291 45.0736265,0.311705686 41.0271006,0.311705686 L41.0271006,0.311705686 L28.3022432,0.311705686 C12.6841663,0.311705686 0.0243399472,13.0729097 0.0243399472,28.8160535 L0.0243399472,28.8160535 L0.0243399472,29.6816054 L187.816851,29.6816054 L187.816851,28.8173913 C187.816851,13.0742475 175.155698,0.311705686 159.537621,0.311705686 L159.537621,0.311705686 L146.815418,0.311705686 Z" id="Fill-168" mask="url(#mask-11)"></path>
                </g>
                <g id="Group-189" transform="translate(358.000000, 378.000000)">
                    <path d="M131.878127,20.9288215 L10.9613485,20.9288215 C4.97063476,20.9288215 0.114304514,16.256854 0.114304514,10.493568 C0.114304514,4.72900406 4.97063476,0.0570365112 10.9613485,0.0570365112 L131.878127,0.0570365112 C137.870169,0.0570365112 142.726499,4.72900406 142.726499,10.493568 C142.726499,16.256854 137.870169,20.9288215 131.878127,20.9288215" id="Fill-171" fill="#FFFFFF"></path>
                    <path d="M49.8006998,10.493568 C49.8006998,11.3663671 49.0648117,12.0743185 48.1575705,12.0743185 C47.2503294,12.0743185 46.5144413,11.3663671 46.5144413,10.493568 C46.5144413,9.61949087 47.2503294,8.91281744 48.1575705,8.91281744 C49.0648117,8.91281744 49.8006998,9.61949087 49.8006998,10.493568" id="Fill-179" fill="#ED9B9B"></path>
                    <path d="M58.1026867,10.493568 C58.1026867,11.3663671 57.3667985,12.0743185 56.4595574,12.0743185 C55.5523163,12.0743185 54.8164282,11.3663671 54.8164282,10.493568 C54.8164282,9.61949087 55.5523163,8.91281744 56.4595574,8.91281744 C57.3667985,8.91281744 58.1026867,9.61949087 58.1026867,10.493568" id="Fill-181" fill="#ED9B9B"></path>
                    <path d="M66.4046735,10.493568 C66.4046735,11.3663671 65.6687854,12.0743185 64.7615443,12.0743185 C63.8543032,12.0743185 63.118415,11.3663671 63.118415,10.493568 C63.118415,9.61949087 63.8543032,8.91281744 64.7615443,8.91281744 C65.6687854,8.91281744 66.4046735,9.61949087 66.4046735,10.493568" id="Fill-183" fill="#ED9B9B"></path>
                    <path d="M74.7066604,10.493568 C74.7066604,11.3663671 73.9707723,12.0743185 73.0635312,12.0743185 C72.15629,12.0743185 71.4204019,11.3663671 71.4204019,10.493568 C71.4204019,9.61949087 72.15629,8.91281744 73.0635312,8.91281744 C73.9707723,8.91281744 74.7066604,9.61949087 74.7066604,10.493568" id="Fill-185" fill="#ED9B9B"></path>
                </g>
                <g id="Group-192" transform="translate(326.000000, 428.000000)">
                    <mask id="mask-13" fill="white">
                        <use xlink:href="#path-12"></use>
                    </mask>
                    <g id="Clip-191"></g>
                    <path d="M36.2785505,0.131305355 C16.2563295,0.131305355 0.0232085493,16.109438 0.0232085493,35.8171519 L0.0232085493,35.8171519 L0.0232085493,47.898434 L203.818113,47.898434 L203.818113,35.8171519 C203.818113,16.109438 187.584992,0.131305355 167.562771,0.131305355 L167.562771,0.131305355 L36.2785505,0.131305355 Z" id="Fill-190" fill="url(#linearGradient-14)" mask="url(#mask-13)"></path>
                </g>
                <g id="Group-205" transform="translate(280.000000, 2.000000)">
                    <path d="M23.6363969,257.791292 L156.849503,257.791292 C160.71586,257.791292 163.850816,254.651631 163.850816,250.77947 L163.850816,200.597965 C163.850816,196.725804 160.71586,193.58747 156.849503,193.58747 L41.0787304,193.58747 C37.212373,193.58747 34.077417,196.725804 34.077417,200.597965 L34.077417,245.264494 C34.077417,246.510539 33.5262159,247.692888 32.5722141,248.493064 L23.135546,256.409894 C22.5763949,256.879649 22.9076455,257.791292 23.6363969,257.791292" id="Fill-193" fill="#000000"></path>
                    <path d="M0.0231290972,33.3989126 C0.0231290972,33.3989126 30.4981876,19.4655034 54.3482334,22.451234 C78.1982792,25.4369645 70.2482639,39.5787114 61.6357474,40.3032486 C53.0232309,41.0291129 45.4044662,18.1385121 80.8482843,18.4702599 C116.292102,18.8020078 149.417166,23.1147297 189.498493,31.4084256 C229.57982,39.7021216 258.729876,27.7525644 263.698635,18.466279 C268.667395,9.18132046 261.379881,-0.439366837 249.786109,0.224128839 C238.192336,0.887624515 234.033153,8.53242169 236.200858,17.1817513 C240.17984,33.0671648 288.873684,27.5747476 302.951836,54.206137" id="Stroke-195" stroke="#00337F" stroke-width="0.723"></path>
                    <path d="M31.0538937,114.086887 L31.0538937,127.643431 C31.0538937,131.600519 28.4674887,135.091833 24.6859315,136.238354 L10.8661549,140.427666 C9.87372801,140.728893 9.87372801,142.135503 10.8661549,142.43673 L24.6859315,146.626042 C28.4674887,147.772563 31.0538937,151.263877 31.0538937,155.220965 L31.0538937,168.777509 C31.0538937,173.149945 34.5929755,176.694339 38.9588589,176.694339 L110.992622,176.694339 C115.358506,176.694339 118.897587,173.149945 118.897587,168.777509 L118.897587,114.086887 C118.897587,109.714451 115.358506,106.170057 110.992622,106.170057 L38.9588589,106.170057 C34.5929755,106.170057 31.0538937,109.714451 31.0538937,114.086887" id="Fill-201" fill="#000000"></path>
                    <path d="M27.319639,110.315843 L27.319639,123.872387 C27.319639,127.829475 24.733234,131.320789 20.9503518,132.46731 L7.13190025,136.656621 C6.13947334,136.957849 6.13947334,138.364459 7.13190025,138.665686 L20.9503518,142.854998 C24.733234,144.001519 27.319639,147.492833 27.319639,151.449921 L27.319639,165.006465 C27.319639,169.378901 30.8587208,172.923295 35.2246042,172.923295 L107.258368,172.923295 C111.622926,172.923295 115.162008,169.378901 115.162008,165.006465 L115.162008,110.315843 C115.162008,105.943407 111.622926,102.399013 107.258368,102.399013 L35.2246042,102.399013 C30.8587208,102.399013 27.319639,105.943407 27.319639,110.315843" id="Fill-203" fill="#F95656"></path>
                </g>
                <text id="Hi!" font-family="Helvetica" font-size="23.1315" font-weight="normal" letter-spacing="0.1" fill="#FFFFFF">
                    <tspan x="326" y="132">Hi!</tspan>
                </text>
                <g id="Group-247" transform="translate(114.000000, 19.000000)">
                    <path d="M165.969048,55.7667238 L95.3026965,55.7667238 C94.1722363,55.7667238 93.5771875,54.4309987 94.3365705,53.5960053 L103.328566,43.6897073 C104.380835,42.5297007 104.962631,41.0222205 104.962631,39.4592503 L104.962631,12.9402834 C104.962631,8.13642914 108.870869,4.24023377 113.689572,4.24023377 L165.969048,4.24023377 C170.789075,4.24023377 174.695988,8.13642914 174.695988,12.9402834 L174.695988,47.0679954 C174.695988,51.8718497 170.789075,55.7667238 165.969048,55.7667238" id="Fill-211" fill="#0073EC"></path>
                    <path d="M158.059405,30.0041394 C158.059405,39.2022785 150.579549,46.6590864 141.352979,46.6590864 C132.12641,46.6590864 124.646554,39.2022785 124.646554,30.0041394 C124.646554,20.8060003 132.12641,13.3491924 141.352979,13.3491924 C150.579549,13.3491924 158.059405,20.8060003 158.059405,30.0041394" id="Fill-215" fill="#FFB821"></path>
                    <path d="M138.946411,23.0421179 C137.699327,22.6616146 136.768983,23.6749689 136.768983,23.6749689 C136.768983,23.6749689 135.838639,22.6616146 134.591555,23.0421179 C133.343145,23.4226212 133.253027,24.9459556 133.984579,26.0002669 C134.745287,27.0928927 135.6478,27.7006411 136.768983,28.312353 C137.888841,27.7006411 138.792679,27.0928927 139.553387,26.0002669 C140.284939,24.9459556 140.193495,23.4226212 138.946411,23.0421179" id="Fill-217" fill="#F95656"></path>
                    <path d="M148.114006,23.0421179 C146.866921,22.6616146 145.936578,23.6749689 145.936578,23.6749689 C145.936578,23.6749689 145.006234,22.6616146 143.75915,23.0421179 C142.51074,23.4226212 142.420621,24.9459556 143.152173,26.0002669 C143.912882,27.0928927 144.815394,27.7006411 145.936578,28.312353 C147.056436,27.7006411 147.960274,27.0928927 148.719657,26.0002669 C149.452534,24.9459556 149.36109,23.4226212 148.114006,23.0421179" id="Fill-219" fill="#F95656"></path>
                    <path d="M130.684907,32.0673129 C131.751754,36.9649719 136.119863,40.6352434 141.352051,40.6352434 C146.585565,40.6352434 150.952349,36.9649719 152.020521,32.0673129 L130.684907,32.0673129 Z" id="Fill-221" fill="#FFFFFF"></path>
                    <path d="M83.4208046,150.728724 L83.4208046,163.268158 C83.4208046,163.268158 96.0639349,205.596509 99.5454342,277.001654 C103.028259,348.405479 106.61313,384.320764 106.61313,384.320764 C106.61313,384.320764 112.135553,389.478697 117.602316,390.304442 C123.069078,391.130187 124.891332,392.451379 121.743802,394.268019 C118.596272,396.084658 107.994067,395.093764 104.846537,394.268019 C101.699007,393.442274 97.0605422,394.433168 97.2262017,392.121081 C97.3918611,389.808995 98.3858179,383.863631 98.3858179,383.863631 C98.3858179,383.863631 90.0723634,360.137664 85.6300392,346.539956 C76.904424,319.841307 79.3349796,292.977509 79.3349796,292.977509 L62.4377144,225.485734 C62.4377144,225.485734 44.5464923,293.692274 39.07973,311.858664 C33.6129678,330.025055 12.5742159,389.313548 12.5742159,389.313548 C12.5742159,389.313548 21.3541675,394.10287 23.6733999,394.268019 C25.9926324,394.433168 29.4714812,395.75436 28.4775244,397.736148 C27.4835676,399.717936 13.8994916,398.396744 10.4206429,397.736148 C6.94179415,397.075552 0.315415618,395.919509 0.315415618,395.919509 C0.315415618,395.919509 0.646734545,390.469591 3.95992381,386.671164 C3.95992381,386.671164 5.78217791,313.675303 23.6733999,287.912058 C23.6733999,287.912058 36.5855612,196.045611 34.9382435,185.189376 C32.090226,166.436376 41.9277475,150.728724 41.9277475,150.728724 L83.4208046,150.728724 Z" id="Fill-243" fill="#F37F7F"></path>
                    <path d="M99.5460968,277.001258 C96.0632722,205.597433 83.4214673,163.267761 83.4214673,163.267761 L83.4214673,150.728327 L41.9270849,150.728327 C41.9270849,150.728327 32.0908886,166.43598 34.9375808,185.190301 C36.5862238,196.046536 23.6727373,287.912983 23.6727373,287.912983 C15.9702349,299.00439 7.84364427,318.852659 4.31178451,337.860649 C3.73263903,340.978662 6.17909798,343.843006 9.35975968,343.843006 L28.4649343,343.843006 C32.8979815,330.942887 37.0553714,318.584457 39.0790674,311.859589 C44.5458297,293.693198 62.4370517,225.486659 62.4370517,225.486659 L79.334317,292.977112 C79.334317,292.977112 74.3724847,314.692225 79.9002097,338.480288 C80.6264608,341.608871 83.4002629,343.843006 86.6220081,343.843006 L103.415902,343.843006 C102.25231,326.872294 100.892577,304.60096 99.5460968,277.001258" id="Fill-245" fill="#006BDD"></path>
                </g>
                <g id="Group-250" transform="translate(175.000000, 224.000000)">
                    <mask id="mask-16" fill="white">
                        <use xlink:href="#path-15"></use>
                    </mask>
                    <g id="Clip-249"></g>
                    <path d="M0.152418605,21.5507338 L17.3487442,88.9881755 L17.3487442,88.9894957 C17.0425581,92.3730511 18.8365116,95.588947 21.8713953,97.2378197 L21.8713953,97.2378197 C28.2163256,100.683422 34.932186,106.259754 39.9889767,110.900096 L39.9889767,110.900096 C39.3132093,99.6140974 38.611814,86.9590984 37.915814,72.9205776 L37.915814,72.9205776 L37.9144651,72.9192575 C15.245907,54.9876017 8.71213953,0.0982266152 6.33413953,0.0982266152 L6.33413953,0.0982266152 C3.86037209,0.0982266152 3.18730233,8.89969527 0.152418605,21.5507338" id="Fill-248" mask="url(#mask-16)"></path>
                </g>
                <path d="M178,248 C178,248 183.865528,215.00777 186,206" id="Stroke-251" stroke="#004493" stroke-width="0.723" stroke-linecap="round" stroke-linejoin="round"></path>
                <g id="Group-255" transform="translate(151.000000, 171.000000)">
                    <mask id="mask-18" fill="white">
                        <use xlink:href="#path-17"></use>
                    </mask>
                    <g id="Clip-254"></g>
                    <path d="M4.76278225,0.104675926 C4.76278225,0.104675926 2.48157063,3.54912963 0.449170831,9.07971296 L0.449170831,9.07971296 C6.36958287,10.5242407 22.3027068,14.3048889 28.7102662,14.7457593 L28.7102662,14.7457593 C33.8645997,15.1016574 41.7296726,17.553537 47.7417522,18.8983148 L47.7417522,18.8983148 C46.5330505,14.228537 45.7630433,11.7926667 45.7630433,11.7926667 L45.7630433,11.7926667 L45.7630433,0.104675926 L4.76278225,0.104675926 Z" id="Fill-253" mask="url(#mask-18)"></path>
                </g>
                <g id="Group-335">
                    <path d="M196.283484,108.47956 C196.283484,108.47956 204.100353,108.947523 208.822824,116.108404 C212.752471,122.067653 224.207312,158.794766 224.207312,158.794766 C224.207312,158.794766 255.778394,124.293779 256.35909,122.128462 C256.938462,119.964467 258.01633,112.859106 258.513502,109.471006 C259.010674,106.084228 259.342122,104.183296 260.336466,104.430496 C261.33081,104.679019 260.336466,111.86766 261.247285,112.528624 C262.15943,113.189588 265.224661,103.687573 266.550452,103.934773 C267.876244,104.183296 263.485222,112.775825 264.727489,113.436788 C265.971081,114.097752 269.036312,108.644801 269.864932,109.222483 C270.693552,109.801488 265.556109,114.675435 266.468253,115.501639 C267.379072,116.327844 270.362104,112.280102 270.445629,114.014471 C270.527828,115.750162 266.384729,117.48453 265.47391,119.468744 C264.561765,121.451635 264.64529,123.020763 261.827982,124.425972 C261.827982,124.425972 243.266896,179.780365 222.88152,179.780365 C202.497471,179.780365 190.898118,130.703806 190.898118,130.703806 L196.283484,108.47956 Z" id="Fill-256" fill="#F37F7F"></path>
                    <path d="M258.761425,117.319951 C258.761425,117.319951 262.98805,113.601368 263.650946,115.089859 C264.312516,116.577027 260.584389,117.567151 260.252941,119.21956 C259.921493,120.873292 260.915837,121.781456 258.761425,123.350584" id="Stroke-258" stroke="#F95656" stroke-width="0.723" stroke-linecap="round" stroke-linejoin="round"></path>
                    <path d="M217.931146,148.571771 C219.251635,146.869129 219.646721,144.637715 218.965264,142.595337 C215.410816,131.940601 210.981345,119.38229 208.822956,116.107875 C204.100486,108.946994 196.283617,108.479031 196.283617,108.479031 L190.896924,130.704599 C190.896924,130.704599 195.578295,150.472703 204.207875,164.917405 C205.468703,161.957609 207.482581,158.351391 210.397997,156.316945 C213.045603,154.46889 215.788667,151.335922 217.931146,148.571771" id="Fill-260" fill="#F95656"></path>
                    <path d="M224.207975,158.795427 C224.207975,158.795427 221.666432,160.948847 220.672088,164.195501" id="Stroke-262" stroke="#F95656" stroke-width="0.723" stroke-linecap="round" stroke-linejoin="round"></path>
                    <path d="M197.609276,72.4570351 C198.354371,75.4591326 195.705439,78.7454444 196.11776,81.9577283 C196.339167,83.6868095 197.013995,86.1667455 196.58709,89.642093 C196.252991,92.3692294 193.548376,96.0032082 189.075154,95.9212487 L189.075154,105.388894 C189.075154,106.217742 189.678389,106.92233 190.499054,107.051878 L191.726738,107.24488 C191.975986,107.284538 192.111217,107.554211 191.985267,107.772329 C191.168579,109.185469 188.153729,113.436788 181.450525,113.436788 C173.413575,113.436788 168.441855,106.413387 168.441855,106.413387 L170.765968,105.796047 C171.617127,105.569998 172.248204,104.856157 172.366199,103.98765 L173.828548,93.2773937 C173.828548,93.2773937 171.424887,83.7410085 171.756335,77.5623192 C172.087783,71.38363 176.56233,65.1864338 184.267833,66.0126385 C191.974661,66.8388432 197.609276,72.4570351 197.609276,72.4570351" id="Fill-264" fill="#F37F7F"></path>
                    <path d="M179.545362,91.046641 C177.474475,88.6513083 175.484462,92.1200461 179.545362,94.8471826 C183.235041,97.3257967 184.677502,101.96444 189.073828,100.561875 L189.073828,95.9219097 C184.351357,95.8386282 181.616249,93.4419736 179.545362,91.046641" id="Fill-266" fill="#F95656"></path>
                    <path d="M190.400283,107.818596 C190.400283,107.818596 190.15236,106.000946 191.64255,106.084228 C192.508292,106.131817 194.207957,106.414709 195.483369,106.644725 C196.489645,106.825829 197.320916,107.513231 197.684183,108.465019 C198.893305,111.632357 201.760993,118.957158 203.741726,122.52504 C206.309785,127.151786 210.950057,135.826275 207.719102,146.154495 C204.486821,156.481392 197.857862,163.835275 199.100129,169.700668 C200.343722,175.567382 197.277165,173.996932 192.802618,174.327414 C188.329396,174.657896 159.493423,175.153619 154.438179,174.823137 C149.38426,174.492655 154.024532,127.730791 154.024532,127.730791 C154.024532,127.730791 157.761939,115.567736 157.478219,109.916495 C157.422536,108.786247 158.127857,107.763075 159.185839,107.350634 C161.788369,106.336716 166.094541,104.730574 166.951002,104.84426 C168.193269,105.0095 169.814713,106.248147 172.08712,108.892002 C174.360853,111.537179 187.49945,112.693865 190.400283,107.818596" id="Fill-268" fill="#00337F"></path>
                    <path d="M217.865122,141.951823 L207.397995,142.100083 C206.118606,142.118386 205.201158,140.875774 205.600221,139.662244 L212.340547,119.16047 C212.58847,118.40565 213.288488,117.89142 214.083963,117.880844 L224.552416,117.732584 C225.831805,117.714282 226.749253,118.956893 226.35019,120.169101 L219.609864,140.672197 C219.361941,141.427017 218.661923,141.941247 217.865122,141.951823" id="Fill-270" fill="#0073EC"></path>
                    <path d="M215.884256,121.003634 C215.682736,121.615686 215.022491,122.119341 214.40865,122.128594 C213.794808,122.136526 213.459383,121.647412 213.660903,121.034038 C213.862424,120.421986 214.523994,119.918331 215.137835,119.9104 C215.751677,119.901146 216.085776,120.391581 215.884256,121.003634" id="Fill-272" fill="#00337F"></path>
                    <path d="M220.568544,121.428369 L217.151978,121.475958 C216.878865,121.479924 216.729051,121.263128 216.819205,120.989489 C216.909358,120.718494 217.202358,120.493766 217.475471,120.491122 L220.893363,120.442211 C221.16515,120.438245 221.313639,120.656363 221.224811,120.92868 C221.134657,121.200998 220.841657,121.424403 220.568544,121.428369" id="Fill-274" fill="#00337F"></path>
                    <path d="M212.441572,404.012983 C212.441572,404.012983 211.447229,409.961656 211.281505,412.27503 C211.115781,414.588403 215.756052,413.596957 218.904808,414.423162 C222.053563,415.249366 232.659898,416.240812 235.808654,414.423162 C238.95741,412.605511 237.134446,411.283584 231.665554,410.457379 C226.196663,409.631174 220.672088,404.470369 220.672088,404.470369 C215.732188,409.268966 212.441572,404.012983 212.441572,404.012983" id="Fill-276" fill="#00337F"></path>
                    <path d="M124.442138,417.893222 C127.922342,418.554185 141.511708,419.876113 142.506052,417.893222 C143.500396,415.91033 140.020192,414.588403 137.700057,414.423162 C135.379921,414.257921 126.59655,409.465934 126.59655,409.465934 C118.541038,411.345714 117.978903,406.822078 117.978903,406.822078 C114.664423,410.62262 114.332975,416.075571 114.332975,416.075571 C114.332975,416.075571 120.961934,417.232258 124.442138,417.893222" id="Fill-278" fill="#00337F"></path>
                    <path d="M159.706345,107.149305 C159.706345,107.149305 148.022142,108.894249 144.328486,124.507535 C139.52249,144.828205 147.406974,177.076627 149.134481,182.507105 C151.841748,191.017674 162.448083,193.110286 171.507219,184.738519 C180.56768,176.36543 210.28663,140.453947 210.28663,140.453947 C210.28663,140.453947 215.038268,140.949669 216.584142,138.690495 C219.898621,137.533809 220.341436,135.8272 220.341436,135.8272 C220.341436,135.8272 222.827295,135.166236 222.937336,132.797342 C224.981707,130.869972 225.367513,127.674873 224.373169,127.730394 C223.378825,127.784593 221.170056,131.696177 220.230069,132.41134 C219.291409,133.127824 215.038268,134.945475 213.712476,134.340032 C212.386685,133.733267 212.109594,133.072303 212.77249,130.75893 C213.435386,128.445557 215.092626,128.280316 214.70682,127.509632 C214.319689,126.738949 212.883857,127.123629 211.778146,128.666319 C210.673762,130.209008 207.193558,136.983887 207.193558,136.983887 L164.910078,164.195765 C164.910078,164.195765 160.105409,136.911181 159.018259,130.687546 C158.881703,129.906287 158.924128,129.114452 159.149513,128.353022 C160.049725,125.305979 162.228001,116.294399 159.706345,107.149305" id="Fill-280" fill="#F37F7F"></path>
                    <path d="M164.909813,164.196029 C164.909813,164.196029 160.239048,167.223243 157.753189,169.701857" id="Stroke-282" stroke="#F95656" stroke-width="0.723" stroke-linecap="round" stroke-linejoin="round"></path>
                    <path d="M157.752658,185.399218 C157.752658,185.399218 159.657821,187.794551 164.132369,185.399218" id="Stroke-284" stroke="#F95656" stroke-width="0.723" stroke-linecap="round" stroke-linejoin="round"></path>
                    <path d="M197.609276,72.4570351 L184.848529,72.4570351 C184.848529,72.4570351 184.01991,76.7532996 179.87681,81.3800459 C179.87681,81.3800459 178.633217,78.6529095 176.56233,80.0581184 C174.491443,81.4620054 174.159995,87.4939607 177.225226,87.3287198 L173.828548,93.2773937 C173.828548,93.2773937 169.851172,88.7339288 169.436199,78.9833913 C169.022552,69.2341758 174.657167,60.3944465 186.25652,62.0468559 C193.84005,63.1268707 196.94638,69.5646577 197.609276,72.4570351" id="Fill-286" fill="#510F0E"></path>
                    <path d="M172.756512,69.7957306 C169.017779,72.8440955 164.05534,72.9591032 161.671567,70.0521846 C159.289119,67.1465879 160.3882,62.3202305 164.126933,59.2718656 C167.866992,56.2235007 172.829431,56.1084931 175.211879,59.0154117 C177.594327,61.9210084 176.495245,66.7473658 172.756512,69.7957306" id="Fill-288" fill="#510F0E"></path>
                    <path d="M555.270133,160.398132 L412.90793,160.398132 C410.399532,160.398132 408.365767,158.370295 408.365767,155.87053 L408.365767,113.496143 C408.365767,110.995056 410.399532,108.968541 412.90793,108.968541 L540.282057,108.968541 C542.790455,108.968541 544.824219,110.995056 544.824219,113.496143 L544.824219,147.919136 C544.824219,149.160426 545.375749,150.338263 546.330319,151.135385 L555.772609,159.022005 C556.332093,159.489967 556.000645,160.398132 555.270133,160.398132" id="Fill-290" fill="#000000"></path>
                    <path d="M558.479743,155.631261 L416.116214,155.631261 C413.609141,155.631261 411.575376,153.603424 411.575376,151.103659 L411.575376,108.729272 C411.575376,106.228185 413.609141,104.201671 416.116214,104.201671 L543.49034,104.201671 C546.000064,104.201671 548.032503,106.228185 548.032503,108.729272 L548.032503,143.152265 C548.032503,144.393555 548.584033,145.571392 549.538603,146.368515 L558.980892,154.255134 C559.540376,154.723097 559.208929,155.631261 558.479743,155.631261" id="Fill-292" fill="#0073EC"></path>
                    <line x1="428.379921" y1="115.615986" x2="531.653803" y2="115.615986" id="Stroke-294" stroke="#FFFFFF" stroke-linecap="round" stroke-linejoin="round"></line>
                    <line x1="428.379921" y1="125.149595" x2="531.653803" y2="125.149595" id="Stroke-296" stroke="#FFFFFF" stroke-linecap="round" stroke-linejoin="round"></line>
                    <line x1="428.379921" y1="134.683204" x2="531.653803" y2="134.683204" id="Stroke-298" stroke="#FFFFFF" stroke-linecap="round" stroke-linejoin="round"></line>
                    <line x1="428.379921" y1="144.216813" x2="473.566885" y2="144.216813" id="Stroke-300" stroke="#FFFFFF" stroke-linecap="round" stroke-linejoin="round"></line>
                    <path d="M298.97667,254.790102 L432.269131,254.790102 C436.139118,254.790102 439.274615,251.663743 439.274615,247.806359 L439.274615,197.816348 C439.274615,193.958963 436.139118,190.831283 432.269131,190.831283 L316.429394,190.831283 C312.560733,190.831283 309.42391,193.958963 309.42391,197.816348 L309.42391,242.311106 C309.42391,243.552396 308.87238,244.730234 307.91781,245.527356 L298.47552,253.415297 C297.916036,253.881938 298.247484,254.790102 298.97667,254.790102" id="Fill-302" fill="#F95656"></path>
                    <line x1="421.750962" y1="208.510345" x2="326.100382" y2="208.510345" id="Stroke-304" stroke="#FFFFFF" stroke-linecap="round" stroke-linejoin="round"></line>
                    <line x1="421.750962" y1="218.043954" x2="326.100382" y2="218.043954" id="Stroke-306" stroke="#FFFFFF" stroke-linecap="round" stroke-linejoin="round"></line>
                    <line x1="421.750962" y1="227.577563" x2="326.100382" y2="227.577563" id="Stroke-308" stroke="#FFFFFF" stroke-linecap="round" stroke-linejoin="round"></line>
                    <line x1="421.750962" y1="237.111833" x2="379.89969" y2="237.111833" id="Stroke-310" stroke="#FFFFFF" stroke-linecap="round" stroke-linejoin="round"></line>
                    <path d="M306.134487,307.935687 L320.394705,302.124493 C321.798718,301.552099 322.717492,300.189191 322.717492,298.676906 L322.717492,284.907709 C322.717492,281.126996 325.792003,278.061446 329.583768,278.061446 L395.658582,278.061446 C399.451673,278.061446 402.526184,281.126996 402.526184,284.907709 L402.526184,332.793212 C402.526184,336.575246 399.451673,339.639474 395.658582,339.639474 L329.583768,339.639474 C325.792003,339.639474 322.717492,336.575246 322.717492,332.793212 L322.717492,319.025337 C322.717492,317.51173 321.798718,316.150144 320.394705,315.57775 L306.134487,309.766556 C305.312496,309.430787 305.312496,308.270134 306.134487,307.935687" id="Fill-312" fill="#000000"></path>
                    <path d="M301.954531,303.639422 L316.214748,297.828229 C317.620087,297.255834 318.537535,295.892927 318.537535,294.380642 L318.537535,280.611445 C318.537535,276.830732 321.612047,273.765182 325.403811,273.765182 L391.478626,273.765182 C395.271716,273.765182 398.346228,276.830732 398.346228,280.611445 L398.346228,328.496947 C398.346228,332.278982 395.271716,335.34321 391.478626,335.34321 L325.403811,335.34321 C321.612047,335.34321 318.537535,332.278982 318.537535,328.496947 L318.537535,314.729072 C318.537535,313.215465 317.620087,311.85388 316.214748,311.281485 L301.954531,305.470292 C301.13254,305.134522 301.13254,303.97387 301.954531,303.639422" id="Fill-314" fill="#FFB821"></path>
                    <path d="M354.855482,316.561792 L364.166518,316.561792 C368.166432,316.561792 371.537921,313.698497 372.027138,309.88738 L374.046319,294.172306 L344.977007,294.172306 L346.994862,309.88738 C347.484079,313.698497 350.855568,316.561792 354.855482,316.561792" id="Fill-316" fill="#FFFFFF"></path>
                    <path d="M336.776586,305.315097 C336.776586,309.964317 340.895822,313.730488 345.976256,313.730488 C351.058016,313.730488 355.175926,309.964317 355.175926,305.315097 C355.175926,300.6672 351.058016,296.901029 345.976256,296.901029 C340.895822,296.901029 336.776586,300.6672 336.776586,305.315097 Z" id="Stroke-318" stroke="#FFFFFF"></path>
                    <path d="M345.382567,319.763369 C345.382567,320.569745 351.707919,321.225421 359.51153,321.225421 C367.313815,321.225421 373.639168,320.569745 373.639168,319.763369 C373.639168,318.955671 367.313815,318.299995 359.51153,318.299995 C351.707919,318.299995 345.382567,318.955671 345.382567,319.763369" id="Fill-320" fill="#FFFFFF"></path>
                    <polygon id="Fill-322" fill="#FFFFFF" points="371.899729 291.057845 370.951788 291.057845 371.898404 286.435064 372.846345 286.435064"></polygon>
                    <polygon id="Fill-324" fill="#FFFFFF" points="365.474677 286.435064 366.410686 286.435064 365.936052 291.057845 365.000043 291.057845"></polygon>
                    <mask id="mask-20" fill="white">
                        <use xlink:href="#path-19"></use>
                    </mask>
                    <g id="Clip-327"></g>
                    <polygon id="Fill-326" fill="#FFFFFF" mask="url(#mask-20)" points="359.046973 291.058373 359.976353 291.058373 359.976353 286.435593 359.046973 286.435593"></polygon>
                    <polygon id="Fill-328" fill="#FFFFFF" mask="url(#mask-20)" points="352.613038 286.435064 353.549047 286.435064 354.021029 291.057845 353.086345 291.057845"></polygon>
                    <polygon id="Fill-329" fill="#FFFFFF" mask="url(#mask-20)" points="346.175655 286.435064 347.123596 286.435064 348.070212 291.057845 347.122271 291.057845"></polygon>
                    <path d="M454.740375,5.37436876 L402.020262,5.37436876 C393.97138,5.37436876 387.445832,11.8795741 387.445832,19.9049961 L387.445832,58.1946269 C387.445832,66.2200489 393.97138,72.7265762 402.020262,72.7265762 L407.585936,72.7265762 C412.513905,72.7265762 417.107773,75.2091561 419.797805,79.3256384 L427.081705,90.4734532 C427.692895,91.4093779 429.067742,91.4093779 429.678932,90.4734532 L436.962832,79.3256384 C439.651538,75.2091561 444.246733,72.7265762 449.174701,72.7265762 L454.740375,72.7265762 C462.787932,72.7265762 469.313479,66.2200489 469.313479,58.1946269 L469.313479,19.9049961 C469.313479,11.8795741 462.787932,5.37436876 454.740375,5.37436876" id="Fill-331" fill="#000000" mask="url(#mask-20)"></path>
                    <path d="M454.740375,-0.00111732346 L402.020262,-0.00111732346 C393.97138,-0.00111732346 387.445832,6.50408803 387.445832,14.530832 L387.445832,52.8204627 C387.445832,60.8445628 393.97138,67.3510901 402.020262,67.3510901 L407.585936,67.3510901 C412.513905,67.3510901 417.107773,69.83367 419.797805,73.9501523 L427.081705,85.0979671 C427.692895,86.0338918 429.067742,86.0338918 429.678932,85.0979671 L436.962832,73.9501523 C439.651538,69.83367 444.246733,67.3510901 449.174701,67.3510901 L454.740375,67.3510901 C462.787932,67.3510901 469.313479,60.8445628 469.313479,52.8204627 L469.313479,14.530832 C469.313479,6.50408803 462.787932,-0.00111732346 454.740375,-0.00111732346" id="Fill-332" fill="#FFB821" mask="url(#mask-20)"></path>
                    <path d="M443.972161,22.0952978 C435.040301,19.3721271 428.379523,26.6281873 428.379523,26.6281873 C428.379523,26.6281873 421.718745,19.3721271 412.788211,22.0952978 C403.856351,24.8171466 403.20141,35.734946 408.448894,43.2818303 C413.887292,51.1023535 420.357157,55.4567828 428.379523,59.8336848 C436.403215,55.4567828 442.87308,51.1023535 448.310152,43.2818303 C453.557636,35.734946 452.902695,24.8171466 443.972161,22.0952978" id="Fill-333" fill="#000000" mask="url(#mask-20)"></path>
                    <path d="M443.972161,19.0107121 C435.040301,16.2888634 428.379523,23.5436016 428.379523,23.5436016 C428.379523,23.5436016 421.718745,16.2888634 412.788211,19.0107121 C403.856351,21.7325609 403.20141,32.6503604 408.448894,40.1972446 C413.887292,48.0177678 420.357157,52.3721971 428.379523,56.7490991 C436.403215,52.3721971 442.87308,48.0177678 448.310152,40.1972446 C453.557636,32.6503604 452.902695,21.7325609 443.972161,19.0107121" id="Fill-334" fill="#F95656" mask="url(#mask-20)"></path>
                </g>
            </g>
        </g>
    </g>
</svg>