<?xml version="1.0" encoding="UTF-8"?>
<svg width="446px" height="430px" viewBox="0 0 446 430" version="1.1" xmlns="http://www.w3.org/2000/svg" xmlns:xlink="http://www.w3.org/1999/xlink">
    <!-- Generator: Sketch 64 (93537) - https://sketch.com -->
    <title>Group 336</title>
    <desc>Created with Sketch.</desc>
    <defs>
        <path d="M140.185077,103.478761 C11.5028537,127.141306 45.0127195,270.457562 45.0127195,270.457562 L45.0127195,270.457562 C9.32292006,281.763529 0.0383604827,310.285818 0,336.812471 L0,336.812471 L0,337.149037 C0.0410060332,365.549899 10.6126259,391.564444 10.6126259,391.564444 L10.6126259,391.564444 L876.452371,391.564444 C876.514541,389.506774 876.550256,387.48738 876.550256,385.490424 L876.550256,385.490424 L876.550256,384.698505 C876.342581,277.580875 793.571241,257.596795 793.571241,257.596795 L793.571241,257.596795 C799.876911,116.826559 621.30225,109.023515 621.30225,109.023515 L621.30225,109.023515 C573.265667,5.17255219 451.546532,45.7003367 451.546532,45.7003367 L451.546532,45.7003367 C393.770354,12.4582088 345.143813,0.110868264 304.759484,0.110868264 L304.759484,0.110868264 C187.942555,0.118787879 140.185077,103.478761 140.185077,103.478761" id="path-1"></path>
        <linearGradient x1="50.0000348%" y1="81.8563193%" x2="50.0000348%" y2="-31.227562%" id="linearGradient-3">
            <stop stop-color="#7EB2FF" offset="0%"></stop>
            <stop stop-color="#FFFFFF" offset="100%"></stop>
        </linearGradient>
        <path d="M21.9972264,39.360399 C21.3460356,57.7783135 6.04305095,69.2895101 1.80900814,90.4806364 L1.80900814,90.4806364 C-2.42373229,111.670447 5.39186011,118.952101 5.80080796,127.832167 L5.80080796,127.832167 C6.21105819,136.712233 -8.2844498,152.170126 7.66972566,174.863627 L7.66972566,174.863627 C23.6252035,197.557129 45.6536871,190.400454 53.2530841,181.221755 L53.2530841,181.221755 C63.2397468,169.163283 67.6704492,163.801039 75.1604462,154.26319 L75.1604462,154.26319 C82.6478384,144.725341 78.9764245,128.818841 76.0460657,116.649862 L76.0460657,116.649862 C73.115707,104.480883 79.9532107,98.5608386 78.6508291,81.5124275 L78.6508291,81.5124275 C77.3484474,64.4627009 65.6035695,59.2214887 63.9990353,43.0887111 L63.9990353,43.0887111 C62.3945011,26.9533024 61.3942719,0.22233054 40.7736629,0.22233054 L40.7736629,0.22233054 C25.0356828,0.22233054 22.6484172,20.9424844 21.9972264,39.360399" id="path-4"></path>
        <path d="M15.147197,25.2781778 C16.0492395,33.9886469 11.9873394,38.3451881 6.34483341,43.6399407 L6.34483341,43.6399407 C0.70097296,48.936 2.95743361,62.5191572 3.8594761,69.6864124 L3.8594761,69.6864124 C4.76287301,76.8523608 3.18362144,82.7730232 0.70097296,94.9736907 L0.70097296,94.9736907 C-1.78302994,107.174358 2.73260019,125.894157 25.0994616,125.894157 L25.0994616,125.894157 C47.4676775,125.894157 48.7814631,104.33359 46.1606639,93.2266314 L46.1606639,93.2266314 C43.5385104,82.1196727 48.5566296,80.5947526 50.5869025,67.1461856 L50.5869025,67.1461856 C52.6185297,53.6950052 43.5899783,52.2824613 43.8161661,47.0569639 L43.8161661,47.0569639 C44.6857026,26.9193943 43.8066852,0.663850515 25.0994616,0.113729381 L25.0994616,0.113729381 C24.9545389,0.109809278 24.812325,0.108502577 24.6714655,0.108502577 L24.6714655,0.108502577 C12.1742492,0.108502577 14.2546354,16.6644046 15.147197,25.2781778" id="path-6"></path>
        <path d="M306.87578,36.2419947 C295.413741,40.183484 273.836114,39.9259734 260.142773,68.9878883 L260.142773,68.9878883 C256.174839,77.4095372 238.573082,71.2108883 227.076654,94.0518191 L227.076654,94.0518191 C224.431365,99.3071383 210.324036,96.0225638 202.828608,105.32842 L202.828608,105.32842 C195.33318,114.634277 199.301115,137.688048 194.452299,141.490271 L194.452299,141.490271 C189.745006,145.179505 185.857753,149.411351 183.622484,166.872149 L183.622484,166.872149 C184.097313,161.905872 184.519237,146.966314 173.289983,141.490271 L173.289983,141.490271 C173.289983,141.490271 172.389262,115.839059 161.761811,113.868314 L161.761811,113.868314 C151.135683,111.897569 151.135683,122.736665 145.843782,126.678154 L145.843782,126.678154 C140.554525,130.619644 130.964028,127.663527 126.334772,138.502622 L126.334772,138.502622 C121.705515,149.341718 125.012127,153.283207 118.729564,158.210069 L118.729564,158.210069 C112.448324,163.136931 111.455018,164.596596 109.801712,172.571543 L109.801712,172.571543 C109.52528,173.909021 109.358626,174.7525 109.271332,175.2465 L109.271332,175.2465 C107.373337,178.592824 95.796227,179.52433 93.2699756,212.405548 L93.2699756,212.405548 C93.2699756,212.405548 88.6843662,189.443745 77.3969159,189.085069 L77.3969159,189.085069 C73.271587,188.955 70.0853358,189.533085 67.5260182,190.112484 L67.5260182,190.112484 C63.0832545,191.117564 60.5265822,192.122644 58.2185671,189.413527 L58.2185671,189.413527 C54.5826167,185.14358 57.2279062,171.348367 48.6307153,170.691452 L48.6307153,170.691452 C40.0322018,170.034537 39.7028632,190.618309 33.4203007,201.345729 L33.4203007,201.345729 C27.1377381,212.07709 -0.637801617,226.396521 0.0221981126,246.827888 L0.0221981126,246.827888 L767.81836,246.827888 C767.81836,246.827888 768.376954,222.490505 741.36458,212.734005 L741.36458,212.734005 C734.091357,210.106346 732.768712,198.938793 716.895652,190.398899 L716.895652,190.398899 C701.023915,181.859005 691.105402,188.020867 682.508211,174.756441 L682.508211,174.756441 C673.909698,161.494644 654.731349,154.26858 638.19829,155.58241 L638.19829,155.58241 C621.66523,156.896239 611.745395,162.151559 594.552336,146.385601 L594.552336,146.385601 C577.356631,130.619644 585.927369,121.521372 558.178282,117.435362 L558.178282,117.435362 C525.774809,112.663532 518.059822,102.591713 511.225716,94.4893245 L511.225716,94.4893245 C504.68127,86.7311596 502.201311,67.0053191 470.371865,64.9281543 L470.371865,64.9281543 C460.303893,64.2712394 450.603617,63.3949149 430.763946,55.51325 L430.763946,55.51325 C410.925597,47.6289574 404.751491,23.9800213 388.881077,22.2286862 L388.881077,22.2286862 C373.00934,20.4773511 361.105537,32.7393245 361.105537,32.7393245 L361.105537,32.7393245 C361.105537,32.7393245 357.13628,1.21003723 339.501458,0.114303191 L339.501458,0.114303191 C339.215767,0.0959095745 338.934043,0.0880265957 338.656288,0.0880265957 L338.656288,0.0880265957 C321.750243,0.0880265957 318.152649,32.364883 306.87578,36.2419947" id="path-8"></path>
        <path d="M11.1624386,54.3761004 C6.67078626,57.974373 3.65768612,63.0828356 2.80308559,68.7467097 L2.80308559,68.7467097 C1.7818313,75.5187618 1.01389073,81.9668239 0.587257081,87.8555074 L0.587257081,87.8555074 C-0.407332611,101.555656 0.0672973224,115.647237 1.14321405,128.376738 L1.14321405,128.376738 C9.31191518,123.422997 13.2236124,104.135674 21.9189395,102.732599 L21.9189395,102.732599 C25.9706259,102.079329 30.4116155,99.9158696 34.1939895,97.6466172 L34.1939895,97.6466172 C34.2113215,97.4284199 34.2299867,97.2446052 34.2513184,97.111042 L34.2513184,97.111042 C34.9192667,93.1438175 34.2513184,91.1602053 34.2513184,91.1602053 L34.2513184,91.1602053 L53.5831555,21.4031758 L52.0526073,0.0290929791 C40.3868435,27.4624499 22.9255282,44.9512976 11.1624386,54.3761004" id="path-10"></path>
        <linearGradient x1="0.00120892778%" y1="50.000522%" x2="100.001262%" y2="50.000522%" id="linearGradient-12">
            <stop stop-color="#001F55" offset="0%"></stop>
            <stop stop-color="#001F55" offset="100%"></stop>
        </linearGradient>
        <path d="M3.63957968,1.6367065 C2.64646345,3.68256495 1.44683167,6.63135143 0.109084383,10.2871721 L0.109084383,10.2871721 C3.30152555,12.9635233 10.1560006,16.7088584 23.371681,16.393612 L23.371681,16.393612 C31.0877337,16.2106912 37.697547,17.9062759 43.6088904,19.6031578 L43.6088904,19.6031578 C51.2696969,21.7995043 57.7611255,23.9971481 63.9750077,22.1043722 L63.9750077,22.1043722 C61.4678825,6.80648833 58.2280874,0.0150685307 58.2280874,0.0150685307 L58.2280874,0.0150685307 L3.63957968,1.6367065 Z" id="path-13"></path>
        <linearGradient x1="0.000395650114%" y1="50.0006515%" x2="99.9983321%" y2="50.0006515%" id="linearGradient-15">
            <stop stop-color="#001F55" offset="0%"></stop>
            <stop stop-color="#001F55" offset="100%"></stop>
        </linearGradient>
        <path d="M0.578148148,4.96696676 C0.667592593,10.5091167 -1.03833333,23.4197629 1.19907407,28.9438812 L1.19907407,28.9438812 L6.67074074,13.7148827 C5.43796296,9.47487396 4.57462963,6.14803845 4.68351852,2.71301316 L4.68351852,2.71301316 C4.73407407,1.10691023 3.8162963,0.0404681818 2.835,0.0404681818 L2.835,0.0404681818 C1.71888889,0.0404681818 0.521111111,1.4237517 0.578148148,4.96696676" id="path-16"></path>
        <path d="M26.3733333,0.227539526 C24.2613333,0.556096838 25.928,17.7501581 25.1493333,23.4460277 L25.1493333,23.4460277 C24.372,29.140583 16.5933333,41.8439229 15.9266667,48.5254644 L15.9266667,48.5254644 C15.2706667,55.1110672 5.17333333,58.7751383 0.606666667,59.638587 L0.606666667,59.638587 C14.9293333,57.0219565 28.6986667,57.895919 30.1506667,56.4647233 L30.1506667,56.4647233 C31.6506667,54.9862154 29.4826667,54.6589723 29.4826667,54.6589723 L29.4826667,54.6589723 L32.8173333,19.5020257 C35.316,21.1448123 35.8173333,18.8462253 35.8173333,18.8462253 L35.8173333,18.8462253 C33.292,13.4355435 28.5986667,0.222282609 26.4506667,0.220968379 L26.4506667,0.220968379 C26.424,0.220968379 26.3986667,0.223596838 26.3733333,0.227539526 M0.418666667,59.6727569 C0.48,59.6622431 0.542666667,59.650415 0.606666667,59.638587 L0.606666667,59.638587 C0.544,59.650415 0.481333333,59.6609289 0.418666667,59.6727569" id="path-18"></path>
        <path d="M146.034485,0.301315496 C142.008163,0.301315496 138.744862,3.49810479 138.744862,7.44236343 L138.744862,7.44236343 C138.744862,10.6533779 136.086169,13.259175 132.807027,13.259175 L132.807027,13.259175 L54.0350089,13.259175 C50.7558667,13.259175 48.0971741,10.6533779 48.0971741,7.44236343 L48.0971741,7.44236343 C48.0971741,3.49810479 44.8338732,0.301315496 40.8088714,0.301315496 L40.8088714,0.301315496 L28.1516994,0.301315496 C12.6166973,0.301315496 0.0242104794,12.637146 0.0242104794,27.8555184 L0.0242104794,27.8555184 L0.0242104794,28.6922185 L186.817825,28.6922185 L186.817825,27.8568116 C186.817825,12.6384392 174.224019,0.301315496 158.689016,0.301315496 L158.689016,0.301315496 L146.034485,0.301315496 Z" id="path-20"></path>
        <path d="M36.1007144,0.134040883 C16.1766416,0.134040883 0.0230947819,16.4450513 0.0230947819,36.5633426 L0.0230947819,36.5633426 L0.0230947819,48.8963181 L202.819004,48.8963181 L202.819004,36.5633426 C202.819004,16.4450513 186.665457,0.134040883 166.741385,0.134040883 L166.741385,0.134040883 L36.1007144,0.134040883 Z" id="path-22"></path>
        <linearGradient x1="49.9999921%" y1="73.7884155%" x2="49.9999921%" y2="-16.5845419%" id="linearGradient-24">
            <stop stop-color="#004FB7" offset="0%"></stop>
            <stop stop-color="#004FB7" offset="100%"></stop>
        </linearGradient>
        <polygon id="path-25" points="0 474 876.550256 474 876.550256 -0.000980991498 0 -0.000980991498"></polygon>
    </defs>
    <g id="Page-1" stroke="none" stroke-width="1" fill="none" fill-rule="evenodd" opacity="0.794317336">
        <g id="Web" transform="translate(0.000000, -2570.000000)">
            <g id="Group-336" transform="translate(-431.000000, 2570.000000)">
                <g id="Group-3" transform="translate(0.000000, 9.000000)">
                    <mask id="mask-2" fill="white">
                        <use xlink:href="#path-1"></use>
                    </mask>
                    <g id="Clip-2"></g>
                    <path d="M140.185077,103.478761 C11.5028537,127.141306 45.0127195,270.457562 45.0127195,270.457562 L45.0127195,270.457562 C9.32292006,281.763529 0.0383604827,310.285818 0,336.812471 L0,336.812471 L0,337.149037 C0.0410060332,365.549899 10.6126259,391.564444 10.6126259,391.564444 L10.6126259,391.564444 L876.452371,391.564444 C876.514541,389.506774 876.550256,387.48738 876.550256,385.490424 L876.550256,385.490424 L876.550256,384.698505 C876.342581,277.580875 793.571241,257.596795 793.571241,257.596795 L793.571241,257.596795 C799.876911,116.826559 621.30225,109.023515 621.30225,109.023515 L621.30225,109.023515 C573.265667,5.17255219 451.546532,45.7003367 451.546532,45.7003367 L451.546532,45.7003367 C393.770354,12.4582088 345.143813,0.110868264 304.759484,0.110868264 L304.759484,0.110868264 C187.942555,0.118787879 140.185077,103.478761 140.185077,103.478761" id="Fill-1" fill="url(#linearGradient-3)" mask="url(#mask-2)"></path>
                </g>
                <g id="Group-6" transform="translate(708.000000, 118.000000)">
                    <mask id="mask-5" fill="white">
                        <use xlink:href="#path-4"></use>
                    </mask>
                    <g id="Clip-5"></g>
                    <path d="M21.9972264,39.360399 C21.3460356,57.7783135 6.04305095,69.2895101 1.80900814,90.4806364 L1.80900814,90.4806364 C-2.42373229,111.670447 5.39186011,118.952101 5.80080796,127.832167 L5.80080796,127.832167 C6.21105819,136.712233 -8.2844498,152.170126 7.66972566,174.863627 L7.66972566,174.863627 C23.6252035,197.557129 45.6536871,190.400454 53.2530841,181.221755 L53.2530841,181.221755 C63.2397468,169.163283 67.6704492,163.801039 75.1604462,154.26319 L75.1604462,154.26319 C82.6478384,144.725341 78.9764245,128.818841 76.0460657,116.649862 L76.0460657,116.649862 C73.115707,104.480883 79.9532107,98.5608386 78.6508291,81.5124275 L78.6508291,81.5124275 C77.3484474,64.4627009 65.6035695,59.2214887 63.9990353,43.0887111 L63.9990353,43.0887111 C62.3945011,26.9533024 61.3942719,0.22233054 40.7736629,0.22233054 L40.7736629,0.22233054 C25.0356828,0.22233054 22.6484172,20.9424844 21.9972264,39.360399" id="Fill-4" mask="url(#mask-5)"></path>
                </g>
                <g id="Group-21" transform="translate(713.000000, 149.000000)" stroke="#00337F" stroke-width="0.8">
                    <line x1="32.4314187" y1="0.12380357" x2="32.4314187" y2="201.966055" id="Stroke-7"></line>
                    <path d="M61.6375835,45.5076978 C61.6375835,45.5076978 46.5865795,76.3534123 32.4311572,90.9935896" id="Stroke-9"></path>
                    <line x1="51.1782339" y1="45.5076978" x2="51.9352294" y2="63.4582045" id="Stroke-11"></line>
                    <path d="M0.188904675,59.3105258 C0.188904675,59.3105258 10.4142263,83.7833645 32.4311572,98.860112" id="Stroke-13"></path>
                    <path d="M11.7386415,54.4832134 C11.7386415,54.4832134 10.4534489,65.3437157 8.15500681,73.5795529" id="Stroke-15"></path>
                    <path d="M55.6456836,98.8594565 C55.6456836,98.8594565 44.5156283,123.987806 32.4311572,139.064554" id="Stroke-17"></path>
                    <path d="M0.188904675,114.810655 C1.06095295,115.793922 16.4061262,140.04782 32.4311572,148.897215" id="Stroke-19"></path>
                </g>
                <g id="Group-24" transform="translate(554.000000, 133.000000)">
                    <mask id="mask-7" fill="white">
                        <use xlink:href="#path-6"></use>
                    </mask>
                    <g id="Clip-23"></g>
                    <path d="M15.147197,25.2781778 C16.0492395,33.9886469 11.9873394,38.3451881 6.34483341,43.6399407 L6.34483341,43.6399407 C0.70097296,48.936 2.95743361,62.5191572 3.8594761,69.6864124 L3.8594761,69.6864124 C4.76287301,76.8523608 3.18362144,82.7730232 0.70097296,94.9736907 L0.70097296,94.9736907 C-1.78302994,107.174358 2.73260019,125.894157 25.0994616,125.894157 L25.0994616,125.894157 C47.4676775,125.894157 48.7814631,104.33359 46.1606639,93.2266314 L46.1606639,93.2266314 C43.5385104,82.1196727 48.5566296,80.5947526 50.5869025,67.1461856 L50.5869025,67.1461856 C52.6185297,53.6950052 43.5899783,52.2824613 43.8161661,47.0569639 L43.8161661,47.0569639 C44.6857026,26.9193943 43.8066852,0.663850515 25.0994616,0.113729381 L25.0994616,0.113729381 C24.9545389,0.109809278 24.812325,0.108502577 24.6714655,0.108502577 L24.6714655,0.108502577 C12.1742492,0.108502577 14.2546354,16.6644046 15.147197,25.2781778" id="Fill-22" mask="url(#mask-7)"></path>
                </g>
                <g id="Group-31" transform="translate(564.000000, 144.000000)" stroke="#00337F" stroke-width="0.8">
                    <line x1="17.5994654" y1="0.151416297" x2="17.5994654" y2="147.894047" id="Stroke-25"></line>
                    <path d="M0.213653071,76.8469182 C0.213653071,76.8469182 8.7583312,86.6410149 17.5997268,98.0426692" id="Stroke-27"></path>
                    <path d="M27.9223568,71.4388962 C27.7106025,72.2831249 21.9880079,80.38224 17.5999882,86.4288486" id="Stroke-29"></path>
                </g>
                <g id="Group-81" transform="translate(54.000000, 99.000000)" fill="#F0A900">
                    <path d="M739.770459,221.75587 C734.042501,225.505142 731.762953,228.546335 728.950542,236.186758 C726.138131,228.546335 723.859905,225.505142 718.131948,221.75587 C723.859905,218.005284 726.138131,214.964091 728.950542,207.323668 C731.762953,214.964091 734.042501,218.005284 739.770459,221.75587" id="Fill-65"></path>
                    <path d="M518.382509,7.34282576 C515.51853,9.21877552 514.380079,10.7387152 512.973212,14.5589266 C511.567667,10.7387152 510.426571,9.21877552 507.562592,7.34282576 C510.426571,5.46818969 511.567667,3.94693631 512.973212,0.126724893 C514.380079,3.94693631 515.51853,5.46818969 518.382509,7.34282576" id="Fill-67"></path>
                </g>
                <g id="Group-84" transform="translate(54.000000, 161.000000)">
                    <mask id="mask-9" fill="white">
                        <use xlink:href="#path-8"></use>
                    </mask>
                    <g id="Clip-83"></g>
                    <path d="M306.87578,36.2419947 C295.413741,40.183484 273.836114,39.9259734 260.142773,68.9878883 L260.142773,68.9878883 C256.174839,77.4095372 238.573082,71.2108883 227.076654,94.0518191 L227.076654,94.0518191 C224.431365,99.3071383 210.324036,96.0225638 202.828608,105.32842 L202.828608,105.32842 C195.33318,114.634277 199.301115,137.688048 194.452299,141.490271 L194.452299,141.490271 C189.745006,145.179505 185.857753,149.411351 183.622484,166.872149 L183.622484,166.872149 C184.097313,161.905872 184.519237,146.966314 173.289983,141.490271 L173.289983,141.490271 C173.289983,141.490271 172.389262,115.839059 161.761811,113.868314 L161.761811,113.868314 C151.135683,111.897569 151.135683,122.736665 145.843782,126.678154 L145.843782,126.678154 C140.554525,130.619644 130.964028,127.663527 126.334772,138.502622 L126.334772,138.502622 C121.705515,149.341718 125.012127,153.283207 118.729564,158.210069 L118.729564,158.210069 C112.448324,163.136931 111.455018,164.596596 109.801712,172.571543 L109.801712,172.571543 C109.52528,173.909021 109.358626,174.7525 109.271332,175.2465 L109.271332,175.2465 C107.373337,178.592824 95.796227,179.52433 93.2699756,212.405548 L93.2699756,212.405548 C93.2699756,212.405548 88.6843662,189.443745 77.3969159,189.085069 L77.3969159,189.085069 C73.271587,188.955 70.0853358,189.533085 67.5260182,190.112484 L67.5260182,190.112484 C63.0832545,191.117564 60.5265822,192.122644 58.2185671,189.413527 L58.2185671,189.413527 C54.5826167,185.14358 57.2279062,171.348367 48.6307153,170.691452 L48.6307153,170.691452 C40.0322018,170.034537 39.7028632,190.618309 33.4203007,201.345729 L33.4203007,201.345729 C27.1377381,212.07709 -0.637801617,226.396521 0.0221981126,246.827888 L0.0221981126,246.827888 L767.81836,246.827888 C767.81836,246.827888 768.376954,222.490505 741.36458,212.734005 L741.36458,212.734005 C734.091357,210.106346 732.768712,198.938793 716.895652,190.398899 L716.895652,190.398899 C701.023915,181.859005 691.105402,188.020867 682.508211,174.756441 L682.508211,174.756441 C673.909698,161.494644 654.731349,154.26858 638.19829,155.58241 L638.19829,155.58241 C621.66523,156.896239 611.745395,162.151559 594.552336,146.385601 L594.552336,146.385601 C577.356631,130.619644 585.927369,121.521372 558.178282,117.435362 L558.178282,117.435362 C525.774809,112.663532 518.059822,102.591713 511.225716,94.4893245 L511.225716,94.4893245 C504.68127,86.7311596 502.201311,67.0053191 470.371865,64.9281543 L470.371865,64.9281543 C460.303893,64.2712394 450.603617,63.3949149 430.763946,55.51325 L430.763946,55.51325 C410.925597,47.6289574 404.751491,23.9800213 388.881077,22.2286862 L388.881077,22.2286862 C373.00934,20.4773511 361.105537,32.7393245 361.105537,32.7393245 L361.105537,32.7393245 C361.105537,32.7393245 357.13628,1.21003723 339.501458,0.114303191 L339.501458,0.114303191 C339.215767,0.0959095745 338.934043,0.0880265957 338.656288,0.0880265957 L338.656288,0.0880265957 C321.750243,0.0880265957 318.152649,32.364883 306.87578,36.2419947" id="Fill-82" mask="url(#mask-9)"></path>
                </g>
                <g id="Group-91" transform="translate(602.000000, 178.000000)">
                    <path d="M28.3591153,211.829851 L31.0132764,237.481134 L23.6041856,237.481134 L22.9406453,235.389875 L20.3966319,237.921052 L0.499713026,237.921052 C0.499713026,237.921052 -0.393412193,234.729338 1.15396374,233.738533 C2.70266676,232.747728 6.79405613,231.866572 6.79405613,231.866572 L15.6284314,225.591473 L13.9828515,211.829851 L28.3591153,211.829851 Z" id="Fill-85" fill="#510F0E"></path>
                    <path d="M113.596836,211.829851 L118.582678,237.481134 L111.17226,237.481134 L110.50872,235.389875 L107.966033,237.921052 L88.0691146,237.921052 C88.0691146,237.921052 87.1746623,234.729338 88.7233653,233.738533 C90.2707412,232.747728 94.3634577,231.866572 94.3634577,231.866572 L103.196506,225.591473 L99.2205725,211.829851 L113.596836,211.829851 Z" id="Fill-87" fill="#510F0E"></path>
                    <path d="M86.3087422,0.0181789806 C86.3087422,0.0181789806 91.6170645,11.2473034 93.9394554,37.3385043 C96.2618464,63.4297053 99.2477777,126.180695 99.2477777,126.180695 C99.2477777,126.180695 115.172744,183.317122 119.817526,213.701812 L93.9394554,213.701812 C93.9394554,213.701812 70.3837755,166.803704 64.0801428,137.079551 C57.7765101,107.355398 53.7952684,61.1178267 53.7952684,61.1178267 L34.5526003,130.804452 C34.5526003,130.804452 35.2161405,132.786062 34.5526003,136.749283 C33.88906,140.712503 36.211451,182.326317 32.2302093,213.701812 L8.34275915,213.701812 C8.34275915,213.701812 -1.94211521,168.785314 1.04381606,127.501768 C4.02974732,86.2182225 23.6041856,17.5224024 31.2348989,1.66952081 L86.3087422,0.0181789806 Z" id="Fill-89" fill="#093464"></path>
                </g>
                <g id="Group-94" transform="translate(604.000000, 219.000000)">
                    <mask id="mask-11" fill="white">
                        <use xlink:href="#path-10"></use>
                    </mask>
                    <g id="Clip-93"></g>
                    <path d="M11.1624386,54.3761004 C6.67078626,57.974373 3.65768612,63.0828356 2.80308559,68.7467097 L2.80308559,68.7467097 C1.7818313,75.5187618 1.01389073,81.9668239 0.587257081,87.8555074 L0.587257081,87.8555074 C-0.407332611,101.555656 0.0672973224,115.647237 1.14321405,128.376738 L1.14321405,128.376738 C9.31191518,123.422997 13.2236124,104.135674 21.9189395,102.732599 L21.9189395,102.732599 C25.9706259,102.079329 30.4116155,99.9158696 34.1939895,97.6466172 L34.1939895,97.6466172 C34.2113215,97.4284199 34.2299867,97.2446052 34.2513184,97.111042 L34.2513184,97.111042 C34.9192667,93.1438175 34.2513184,91.1602053 34.2513184,91.1602053 L34.2513184,91.1602053 L53.5831555,21.4031758 L52.0526073,0.0290929791 C40.3868435,27.4624499 22.9255282,44.9512976 11.1624386,54.3761004" id="Fill-92" fill="url(#linearGradient-12)" mask="url(#mask-11)"></path>
                </g>
                <g id="Group-101" transform="translate(648.000000, 181.000000)" stroke="#1A63B4" stroke-width="0.723">
                    <path d="M8.06133056,58.6824963 C7.40990991,50.7283339 4.5045738,13.1674531 6.2959806,3.13857993" id="Stroke-95"></path>
                    <path d="M30.535343,0.020548253 C30.535343,0.020548253 29.279404,26.694832 46.6827581,27.1946186" id="Stroke-97"></path>
                    <path d="M0.889319473,5.21010898 C0.889319473,5.21010898 -1.07145669,21.8939647 0.889319473,25.8710459 C2.85009563,29.8481272 6.22445461,30.9100079 6.22445461,30.9100079" id="Stroke-99"></path>
                </g>
                <g id="Group-104" transform="translate(629.000000, 179.000000)">
                    <mask id="mask-14" fill="white">
                        <use xlink:href="#path-13"></use>
                    </mask>
                    <g id="Clip-103"></g>
                    <path d="M3.63957968,1.6367065 C2.64646345,3.68256495 1.44683167,6.63135143 0.109084383,10.2871721 L0.109084383,10.2871721 C3.30152555,12.9635233 10.1560006,16.7088584 23.371681,16.393612 L23.371681,16.393612 C31.0877337,16.2106912 37.697547,17.9062759 43.6088904,19.6031578 L43.6088904,19.6031578 C51.2696969,21.7995043 57.7611255,23.9971481 63.9750077,22.1043722 L63.9750077,22.1043722 C61.4678825,6.80648833 58.2280874,0.0150685307 58.2280874,0.0150685307 L58.2280874,0.0150685307 L3.63957968,1.6367065 Z" id="Fill-102" fill="url(#linearGradient-15)" mask="url(#mask-14)"></path>
                </g>
                <g id="Group-121" transform="translate(581.000000, 44.000000)">
                    <path d="M123.834725,110.170416 C123.834725,110.170416 128.816884,121.822795 137.013211,136.029515 C145.210862,150.236236 164.657439,147.203119 175.10514,136.029515 C185.551517,124.855912 201.622356,101.54984 201.622356,101.54984 C201.622356,101.54984 205.527829,100.755389 206.024455,99.0573171 C208.010962,98.0708306 208.838673,96.9738577 209.114135,95.8229568 C210.604015,94.8917135 212.31506,92.5346685 211.818433,91.7678396 C211.321807,91.0010108 209.776304,92.9187405 209.004215,93.521155 C208.232126,94.1248847 205.252366,94.6720559 205.252366,94.6720559 C205.252366,94.6720559 209.666384,92.0414252 210.384175,90.5616955 C211.100642,89.0819658 210.438473,88.3151369 209.887549,88.4795514 C209.3353,88.6439658 208.232126,90.672182 207.127629,91.3837676 C206.024455,92.0966685 202.657989,93.4119838 201.941522,93.5763982 C201.223731,93.7408126 199.899393,92.8634973 201.444895,90.9457676 C202.989073,89.0280378 203.044695,88.0415514 202.603691,87.9310649 C202.161362,87.8218937 200.727104,89.7396234 199.955015,90.5616955 C199.181602,91.3837676 197.306339,93.3567405 197.195095,96.8646865 L159.397169,117.745317 L155.312911,108.53811 L123.834725,110.170416 Z" id="Fill-105" fill="#F37F7F"></path>
                    <path d="M200.933436,99.2214685 C200.933436,99.2214685 203.292081,99.3858829 203.747654,98.0297928 C204.203226,96.6737027 204.438958,95.0124595 205.113046,95.1518829 C206.13411,95.3636486 206.02419,99.0570541 206.02419,99.0570541 C206.02419,99.0570541 208.080887,93.1789099 208.617244,93.3354324 C209.152276,93.491955 209.003951,95.581991 209.003951,95.581991" id="Stroke-107" stroke="#F95656" stroke-width="0.723" stroke-linecap="round" stroke-linejoin="round"></path>
                    <path d="M159.396639,117.745712 C159.396639,117.745712 153.961557,119.938342 151.643966,122.568973" id="Stroke-109" stroke="#F95656" stroke-width="0.723" stroke-linecap="round" stroke-linejoin="round"></path>
                    <path d="M142.124625,118.786784 C145.530822,116.417901 151.397639,115.414315 155.652736,114.989468 C156.845965,114.869775 157.573026,113.634694 157.089643,112.545613 L155.312381,108.537847 L123.834195,110.170153 C123.834195,110.170153 125.547889,114.179234 128.620352,120.358586 C129.595065,122.322351 131.883521,123.308838 133.977299,122.618297 C136.671002,121.730459 139.69579,120.475649 142.124625,118.786784" id="Fill-111" fill="#F95656"></path>
                    <path d="M66.5817466,27.8656126 C67.9617066,26.6331622 66.7751,25.234982 66.5817466,22.3583874 C66.3883933,19.4804775 69.1761244,15.2057027 66.5817466,13.1498649 C66.9684533,8.95795495 68.5576587,6.65615315 62.1346202,4.84759459 C55.7115817,3.03903604 50.9108571,2.54579279 46.3577836,0.655684685 C41.8060345,-1.23573874 34.9353698,0.820099099 36.4252499,8.71067568 C36.4252499,8.71067568 32.9488631,8.13588288 32.7012119,14.4651802 C32.4522364,20.7957928 41.0604323,20.0565856 46.0266992,24.4944595 C50.992966,28.9336486 66.5817466,27.8656126 66.5817466,27.8656126" id="Fill-113" fill="#00337F"></path>
                    <path d="M42.85491,13.944973 C42.85491,13.944973 48.7031859,18.0000901 55.4361194,18.2197477 C55.4361194,18.2197477 57.3113818,25.5631532 58.5257996,25.7828108 C59.7402174,26.0024685 60.5123063,20.4123784 60.5123063,20.4123784 C60.5123063,20.4123784 62.2776487,18.9931532 64.0443153,19.8665225 C65.8096577,20.7412072 64.3753998,25.6736396 62.6087331,26.6601261 L66.5817466,27.864955 C66.5817466,27.864955 72.5412669,38.7163063 75.6322714,39.7027928 C78.7219515,40.6892793 82.9161294,41.1285946 82.9161294,41.1285946 C82.9161294,41.1285946 82.4764493,55.3366306 67.0240755,55.8154054 C56.4293728,56.1442342 53.8906172,45.9505405 53.8906172,45.9505405 L57.5325462,44.1972252 L54.2217016,37.6206486 C54.2217016,37.6206486 50.0275237,40.1421081 47.268928,39.7027928 C44.5103323,39.2647928 41.4193278,31.4820721 42.0814968,29.0710991 C42.7436657,26.6601261 42.4377436,22.9141081 41.7159795,20.878 C40.8127811,18.3289189 41.7504123,14.9314595 42.85491,13.944973" id="Fill-115" fill="#F37F7F"></path>
                    <path d="M57.5325462,41.6764234 C58.8065592,38.542027 61.3400175,36.8255405 62.1346202,31.8944234 C62.9292229,26.9606757 61.5055597,27.6183333 61.2579085,28.7692342 C59.7812719,35.6075586 57.0359195,36.1691982 54.2217016,37.6213063 L56.8015117,42.7444595 C57.1100825,42.4432523 57.363031,42.0920631 57.5325462,41.6764234" id="Fill-117" fill="#F95656"></path>
                    <path d="M69.1205022,53.6786757 C79.6172039,52.2502432 82.0327961,39.539036 82.0327961,39.539036 C82.0327961,39.539036 118.121002,42.4984955 130.536669,52.8566036 C142.952336,63.2147117 163.810657,109.743991 163.810657,109.743991 C163.810657,109.743991 144.276674,115.66291 122.590642,112.374622 L116.46558,100.865613 C116.46558,100.865613 115.968953,103.167414 113.48582,101.52327 L110.174975,136.707955 C110.174975,136.707955 112.327024,137.036784 110.837144,138.516514 C109.347264,139.996243 94.7795477,139.009757 80.0462894,141.969216 C65.313031,144.928676 49.2554348,142.298045 48.2621814,135.885883 C47.268928,129.473721 48.9243503,127.007505 48.2621814,122.075072 C47.6000125,117.14264 41.3531109,98.0705676 41.3531109,98.0705676 L34.8532609,116.156153 C34.8532609,116.156153 13.3327711,113.361108 0.0893928036,108.757505 C0.0893928036,108.757505 9.35975762,81.7935405 13.1672289,70.4489459 C16.9747001,59.1043514 22.6031359,47.5953423 55.214955,44.3070541 C55.214955,44.3070541 57.0359195,55.3228198 69.1205022,53.6786757" id="Fill-119" fill="#FFB821"></path>
                </g>
                <g id="Group-124" transform="translate(616.000000, 128.000000)">
                    <mask id="mask-17" fill="white">
                        <use xlink:href="#path-16"></use>
                    </mask>
                    <g id="Clip-123"></g>
                    <path d="M0.578148148,4.96696676 C0.667592593,10.5091167 -1.03833333,23.4197629 1.19907407,28.9438812 L1.19907407,28.9438812 L6.67074074,13.7148827 C5.43796296,9.47487396 4.57462963,6.14803845 4.68351852,2.71301316 L4.68351852,2.71301316 C4.73407407,1.10691023 3.8162963,0.0404681818 2.835,0.0404681818 L2.835,0.0404681818 C1.71888889,0.0404681818 0.521111111,1.4237517 0.578148148,4.96696676" id="Fill-122" mask="url(#mask-17)"></path>
                </g>
                <g id="Group-131" transform="translate(608.000000, 119.000000)" stroke="#DF8200" stroke-linecap="round" stroke-linejoin="round" stroke-width="0.75">
                    <path d="M13.0252677,0.861318027 C13.0252677,0.861318027 11.7772172,11.5120107 13.375904,17.347581" id="Stroke-125"></path>
                    <path d="M7.6515303,12.2552846 C7.6515303,12.2552846 0.5985,1.58719089 2.16628788,0.239851539 C3.73407576,-1.10624488 5.6995202,4.38379008 5.6995202,4.38379008" id="Stroke-127"></path>
                    <path d="M6.42094444,19.6090976 C6.42094444,19.6090976 -0.184722222,14.6373657 0.262641414,12.2559061" id="Stroke-129"></path>
                </g>
                <g id="Group-134" transform="translate(663.000000, 126.000000)">
                    <mask id="mask-19" fill="white">
                        <use xlink:href="#path-18"></use>
                    </mask>
                    <g id="Clip-133"></g>
                    <path d="M26.3733333,0.227539526 C24.2613333,0.556096838 25.928,17.7501581 25.1493333,23.4460277 L25.1493333,23.4460277 C24.372,29.140583 16.5933333,41.8439229 15.9266667,48.5254644 L15.9266667,48.5254644 C15.2706667,55.1110672 5.17333333,58.7751383 0.606666667,59.638587 L0.606666667,59.638587 C14.9293333,57.0219565 28.6986667,57.895919 30.1506667,56.4647233 L30.1506667,56.4647233 C31.6506667,54.9862154 29.4826667,54.6589723 29.4826667,54.6589723 L29.4826667,54.6589723 L32.8173333,19.5020257 C35.316,21.1448123 35.8173333,18.8462253 35.8173333,18.8462253 L35.8173333,18.8462253 C33.292,13.4355435 28.5986667,0.222282609 26.4506667,0.220968379 L26.4506667,0.220968379 C26.424,0.220968379 26.3986667,0.223596838 26.3733333,0.227539526 M0.418666667,59.6727569 C0.48,59.6622431 0.542666667,59.650415 0.606666667,59.638587 L0.606666667,59.638587 C0.544,59.650415 0.481333333,59.6609289 0.418666667,59.6727569" id="Fill-132" mask="url(#mask-19)"></path>
                </g>
                <g id="Group-167" transform="translate(326.000000, 53.000000)">
                    <path d="M363.954499,74.3352664 C360.184074,68.6586344 359.85403,59.1428929 365.38161,52.497624" id="Stroke-135" stroke="#DF8200" stroke-width="0.75" stroke-linecap="round" stroke-linejoin="round"></path>
                    <path d="M355.480416,61.931727 C355.480416,61.931727 355.88307,70.2163285 361.169058,73.9911247" id="Stroke-137" stroke="#DF8200" stroke-width="0.75" stroke-linecap="round" stroke-linejoin="round"></path>
                    <path d="M406.472245,132.237175 C406.472245,132.237175 408.204317,130.183088 411.671101,131.412915" id="Stroke-139" stroke="#F95656" stroke-width="0.723" stroke-linecap="round" stroke-linejoin="round"></path>
                    <line x1="368.682184" y1="330.177199" x2="394.18668" y2="330.177199" id="Stroke-141" stroke="#1A63B4" stroke-width="0.723"></line>
                    <line x1="309.154356" y1="330.177199" x2="285.841354" y2="330.177199" id="Stroke-143" stroke="#1A63B4" stroke-width="0.723"></line>
                    <path d="M255.758089,90.5052019 L266.277258,90.6536851 C267.400728,90.6692664 268.207356,89.5811906 267.856189,88.5193651 L261.115366,68.0716772 C260.828888,67.2041041 260.02094,66.6121593 259.100776,66.5990342 L248.581608,66.4505511 C247.458137,66.4349697 246.65415,67.524358 247.002676,68.5861835 L253.744819,89.0325588 C254.029977,89.9014445 254.839246,90.4920767 255.758089,90.5052019" id="Fill-145" fill="#0050B7"></path>
                    <path d="M257.520393,69.7030034 C257.71974,70.3106984 258.378508,70.8120795 258.98975,70.8199546 C259.600991,70.8278297 259.933676,70.3421987 259.734329,69.7345038 C259.532342,69.1268089 258.874894,68.6267402 258.263652,68.6175526 C257.653731,68.6096775 257.319726,69.0953085 257.520393,69.7030034" id="Fill-147" fill="#00337F"></path>
                    <path d="M252.855944,70.1247148 L256.25804,70.1732779 C256.529996,70.1772155 256.679176,69.9606503 256.589404,69.690272 C256.499632,69.4198937 256.206553,69.196766 255.935917,69.1941409 L252.532501,69.1455778 C252.261865,69.1416403 252.114005,69.3582055 252.202457,69.6285838 C252.290908,69.8989621 252.583988,70.1207773 252.855944,70.1247148" id="Fill-149" fill="#00337F"></path>
                    <path d="M260.000873,100.712508 L258.575082,104.890247 L255.037008,88.8381752 C255.037008,88.8381752 256.24629,87.8537882 256.687229,85.556885 C256.687229,85.556885 260.400887,82.6640996 260.000873,81.9776537 C259.60218,81.2912078 255.586202,83.7521754 255.037008,84.3270575 C254.486495,84.900627 255.217872,82.4396594 257.534783,80.3068208 C259.850373,78.1739821 260.180417,76.205208 259.685351,75.795703 C259.190284,75.3848855 257.540063,77.8458531 255.641649,79.6505627 C253.744555,81.4552723 253.001296,82.6037239 253.001296,82.6037239 C253.001296,82.6037239 253.744555,79.0769932 254.816539,77.6817886 C255.889842,76.2878965 257.951959,74.5645629 257.375041,73.8269289 C256.796804,73.0879824 254.981561,74.811316 253.496362,76.8614661 C252.011163,78.9129287 251.269224,81.2912078 251.269224,81.2912078 C251.269224,81.2912078 250.609135,78.5021112 251.269224,76.9441546 C251.929312,75.3848855 253.496362,73.0879824 252.424378,73.0879824 C251.351075,73.0879824 249.619003,76.5333371 249.123936,78.0926061 C248.62887,79.6505627 247.390544,83.3426704 249.700854,88.7567992 C249.700854,88.7567992 244.915213,118.151909 247.0605,133.688162 C249.011721,147.814772 263.948202,151.07375 270.493638,142.979463 C281.670255,129.159981 287.662538,106.351077 287.662538,106.351077 C287.662538,106.351077 268.073754,103.563293 260.000873,100.712508" id="Fill-151" fill="#F37F7F"></path>
                    <path d="M258.575082,104.890378 C258.575082,104.890378 261.142826,113.174979 262.682152,122.79966" id="Stroke-153" stroke="#F95656" stroke-width="0.723" stroke-linecap="round" stroke-linejoin="round"></path>
                    <path d="M259.106189,103.333078 C260.386761,104.404091 264.068734,107.019935 270.773912,108.270763 C276.845405,109.402152 281.242914,112.669004 285.196843,114.242711 C286.825942,109.534716 287.662934,106.350552 287.662934,106.350552 C287.662934,106.350552 268.07415,103.564081 260.001269,100.711983 L259.106189,103.333078 Z" id="Fill-155" fill="#F95656"></path>
                    <path d="M258.626569,140.824968 C258.626569,140.824968 261.84516,139.675204 264.820839,142.541739" id="Stroke-157" stroke="#F95656" stroke-width="0.723" stroke-linecap="round" stroke-linejoin="round"></path>
                    <path d="M166.619091,371.772671 L36.0734079,371.772671 C16.1638215,371.772671 0.0233399493,355.725849 0.0233399493,335.930482 L0.0233399493,36.1478738 C0.0233399493,16.3525065 16.1638215,0.305684993 36.0734079,0.305684993 L166.619091,0.305684993 C186.528677,0.305684993 202.670479,16.3525065 202.670479,36.1478738 L202.670479,335.930482 C202.670479,355.725849 186.528677,371.772671 166.619091,371.772671" id="Fill-159" fill="#0050B7"></path>
                    <path d="M166.617771,8.18078141 L153.962556,8.18078141 C149.936017,8.18078141 146.67254,11.4253211 146.67254,15.4271826 C146.67254,18.6887851 144.013704,21.3321924 140.735705,21.3321924 L61.9581145,21.3321924 C58.6787953,21.3321924 56.0199592,18.6887851 56.0199592,15.4271826 C56.0199592,11.4253211 52.7564822,8.18078141 48.7312631,8.18078141 L36.0734079,8.18078141 C20.5375673,8.18078141 7.94440077,20.7021847 7.94440077,36.1478738 L7.94440077,335.930482 C7.94440077,351.376171 20.5375673,363.897574 36.0734079,363.897574 L166.619091,363.897574 C182.154932,363.897574 194.749418,351.376171 194.749418,335.930482 L194.749418,36.1478738 C194.749418,20.7021847 182.154932,8.18078141 166.617771,8.18078141" id="Fill-161" fill="#FFFFFF"></path>
                    <path d="M7.94387269,308.771899 L7.94387269,335.930482 C7.94387269,351.376171 20.5383594,363.897574 36.0742,363.897574 L166.618563,363.897574 C182.154404,363.897574 194.74889,351.376171 194.74889,335.930482 L194.74889,308.771899 L7.94387269,308.771899 Z" id="Fill-163" fill="#ED9B9B"></path>
                    <path d="M161.433701,345.430079 L41.2580062,345.430079 C35.3040089,345.430079 30.4774425,340.631521 30.4774425,334.712073 C30.4774425,328.791313 35.3040089,323.992754 41.2580062,323.992754 L161.433701,323.992754 C167.389018,323.992754 172.215585,328.791313 172.215585,334.712073 C172.215585,340.631521 167.389018,345.430079 161.433701,345.430079" id="Fill-165" fill="#000000"></path>
                </g>
                <g id="Group-170" transform="translate(334.000000, 60.000000)">
                    <mask id="mask-21" fill="white">
                        <use xlink:href="#path-20"></use>
                    </mask>
                    <g id="Clip-169"></g>
                    <path d="M146.034485,0.301315496 C142.008163,0.301315496 138.744862,3.49810479 138.744862,7.44236343 L138.744862,7.44236343 C138.744862,10.6533779 136.086169,13.259175 132.807027,13.259175 L132.807027,13.259175 L54.0350089,13.259175 C50.7558667,13.259175 48.0971741,10.6533779 48.0971741,7.44236343 L48.0971741,7.44236343 C48.0971741,3.49810479 44.8338732,0.301315496 40.8088714,0.301315496 L40.8088714,0.301315496 L28.1516994,0.301315496 C12.6166973,0.301315496 0.0242104794,12.637146 0.0242104794,27.8555184 L0.0242104794,27.8555184 L0.0242104794,28.6922185 L186.817825,28.6922185 L186.817825,27.8568116 C186.817825,12.6384392 174.224019,0.301315496 158.689016,0.301315496 L158.689016,0.301315496 L146.034485,0.301315496 Z" id="Fill-168" mask="url(#mask-21)"></path>
                </g>
                <g id="Group-189" transform="translate(357.000000, 377.000000)">
                    <path d="M130.955902,20.9288215 L10.8846957,20.9288215 C4.93587508,20.9288215 0.113505182,16.256854 0.113505182,10.493568 C0.113505182,4.72900406 4.93587508,0.0570365112 10.8846957,0.0570365112 L130.955902,0.0570365112 C136.906042,0.0570365112 141.728412,4.72900406 141.728412,10.493568 C141.728412,16.256854 136.906042,20.9288215 130.955902,20.9288215" id="Fill-171" fill="#FFFFFF"></path>
                    <path d="M130.955902,20.9288215 L120.127994,20.9288215 C114.177854,20.9288215 109.355484,16.256854 109.355484,10.493568 C109.355484,4.72900406 114.177854,0.0570365112 120.127994,0.0570365112 L130.955902,0.0570365112 C136.906042,0.0570365112 141.728412,4.72900406 141.728412,10.493568 C141.728412,16.256854 136.906042,20.9288215 130.955902,20.9288215" id="Fill-173" fill="#E33E3E"></path>
                    <polygon id="Fill-175" fill="#FFDFDF" points="122.310063 10.493568 134.927894 10.493568 121.450056 4.17056592"></polygon>
                    <polygon id="Fill-177" fill="#FFFFFF" points="122.310063 10.493568 134.927894 10.493568 121.450056 16.81657"></polygon>
                    <path d="M74.1842362,10.493568 C74.1842362,11.3663671 73.4534942,12.0743185 72.5525974,12.0743185 C71.6517006,12.0743185 70.9209586,11.3663671 70.9209586,10.493568 C70.9209586,9.61949087 71.6517006,8.91281744 72.5525974,8.91281744 C73.4534942,8.91281744 74.1842362,9.61949087 74.1842362,10.493568" id="Fill-185" fill="#ED9B9B"></path>
                    <path d="M82.4288268,10.493568 C82.4288268,11.3663671 81.6967657,12.0743185 80.7971879,12.0743185 C79.8949721,12.0743185 79.1642301,11.3663671 79.1642301,10.493568 C79.1642301,9.61949087 79.8949721,8.91281744 80.7971879,8.91281744 C81.6967657,8.91281744 82.4288268,9.61949087 82.4288268,10.493568" id="Fill-187" fill="#ED9B9B"></path>
                </g>
                <g id="Group-192" transform="translate(326.000000, 425.000000)">
                    <mask id="mask-23" fill="white">
                        <use xlink:href="#path-22"></use>
                    </mask>
                    <g id="Clip-191"></g>
                    <path d="M36.1007144,0.134040883 C16.1766416,0.134040883 0.0230947819,16.4450513 0.0230947819,36.5633426 L0.0230947819,36.5633426 L0.0230947819,48.8963181 L202.819004,48.8963181 L202.819004,36.5633426 C202.819004,16.4450513 186.665457,0.134040883 166.741385,0.134040883 L166.741385,0.134040883 L36.1007144,0.134040883 Z" id="Fill-190" fill="url(#linearGradient-24)" mask="url(#mask-23)"></path>
                </g>
                <g id="Group-205" transform="translate(280.000000, 2.000000)">
                    <path d="M23.6363969,255.79291 L156.849503,255.79291 C160.71586,255.79291 163.850816,252.677587 163.850816,248.835443 L163.850816,199.042942 C163.850816,195.200798 160.71586,192.086792 156.849503,192.086792 L41.0787304,192.086792 C37.212373,192.086792 34.077417,195.200798 34.077417,199.042942 L34.077417,243.363219 C34.077417,244.599605 33.5262159,245.772788 32.5722141,246.566761 L23.135546,254.422221 C22.5763949,254.888334 22.9076455,255.79291 23.6363969,255.79291" id="Fill-193" fill="#000000"></path>
                    <path d="M0.0231290972,33.1400063 C0.0231290972,33.1400063 30.4981876,19.3146081 54.3482334,22.2771934 C78.1982792,25.2397788 70.2482639,39.2718996 61.6357474,39.9908204 C53.0232309,40.7110578 45.4044662,17.9979035 80.8482843,18.3270796 C116.292102,18.6562558 149.417166,22.9355457 189.498493,31.1649494 C229.57982,39.3943532 258.729876,27.5374283 263.698635,18.3231295 C268.667395,9.11014744 261.379881,-0.435960892 249.786109,0.222391406 C238.192336,0.880743705 234.033153,8.46627889 236.200858,17.0485595 C240.17984,32.8108302 288.873684,27.3609899 302.951836,53.7859344" id="Stroke-195" stroke="#00337F" stroke-width="0.723"></path>
                    <polygon id="Fill-197" fill="#FFB821" points="296.937517 46.4459646 314.978751 70.3612702 307.764113 30.3216001"></polygon>
                    <polygon id="Fill-199" fill="#FF8F2B" points="296.937517 46.4459646 314.978751 70.3612702 278.896282 51.1571337"></polygon>
                </g>
                <g id="Group-210" transform="translate(454.000000, 220.000000)">
                    <path d="M86.82464,67.8602637 L86.82464,54.4563796 C86.82464,50.5442665 89.3756047,47.0927134 93.1045459,45.9585182 L106.190099,41.9789092 C107.331181,41.6334892 107.331181,40.0135886 106.190099,39.6668451 L93.1045459,35.6859127 C89.3756047,34.553041 86.82464,31.1028113 86.82464,27.1893748 L86.82464,13.7854906 C86.82464,9.4617851 83.3368282,5.95729407 79.0320753,5.95729407 L8.01353412,5.95729407 C3.71141647,5.95729407 0.220969412,9.4617851 0.220969412,13.7854906 L0.220969412,67.8602637 C0.220969412,72.1839692 3.71141647,75.6871368 8.01353412,75.6871368 L79.0320753,75.6871368 C83.3368282,75.6871368 86.82464,72.1839692 86.82464,67.8602637" id="Fill-206" fill="#000000"></path>
                    <path d="M91.5856941,61.903423 L91.5856941,48.4995389 C91.5856941,44.5861023 94.1366588,41.1358727 97.8656,40.0016775 L110.951153,36.0220686 C112.090918,35.6766486 112.090918,34.0554244 110.951153,33.7100044 L97.8642824,29.729072 C94.1366588,28.5962003 91.5856941,25.1459706 91.5856941,21.2325341 L91.5856941,7.82864993 C91.5856941,3.50494441 88.0965647,0.00045337931 83.7931294,0.00045337931 L12.7745882,0.00045337931 C8.47115294,0.00045337931 4.98202353,3.50494441 4.98202353,7.82864993 L4.98202353,61.903423 C4.98202353,66.2271286 8.47115294,69.7302961 12.7745882,69.7302961 L83.7931294,69.7302961 C88.0965647,69.7302961 91.5856941,66.2271286 91.5856941,61.903423" id="Fill-208" fill="#0073EC"></path>
                </g>
                <text id="Hi!" font-family="Helvetica" font-size="22.9323" font-weight="normal" letter-spacing="0.1" fill="#FFFFFF">
                    <tspan x="479" y="248">Hi!</tspan>
                </text>
                <g id="Group-247" transform="translate(114.000000, 19.000000)">
                    <path d="M625.366165,55.4871914 L552.287383,55.4871914 C551.069315,55.4871914 550.427253,54.0503669 551.246345,53.1512013 L560.943327,42.4860987 C562.079485,41.2385722 562.707015,39.6150788 562.707015,37.9324298 L562.707015,9.38392318 C562.707015,4.21240662 566.921371,0.0189298013 572.118636,0.0189298013 L625.366165,0.0189298013 C630.564751,0.0189298013 634.777786,4.21240662 634.777786,9.38392318 L634.777786,46.122198 C634.777786,51.2950291 630.564751,55.4871914 625.366165,55.4871914" id="Fill-213" fill="#FFB821"></path>
                    <path d="M388.753726,305.118688 C388.753726,316.196566 379.727871,325.177705 368.594837,325.177705 C357.461803,325.177705 348.437269,316.196566 348.437269,305.118688 C348.437269,294.040811 357.461803,285.060986 368.594837,285.060986 C379.727871,285.060986 388.753726,294.040811 388.753726,305.118688" id="Fill-223" fill="#FFAE00"></path>
                    <path d="M368.595101,311.845603 C364.128412,311.845603 359.957653,311.094984 356.376111,309.804077 C356.199082,309.740977 356.051117,309.952623 356.175302,310.093282 C359.093644,313.420458 363.565617,315.559262 368.595101,315.559262 C373.624585,315.559262 378.096558,313.420458 381.016222,310.093282 C381.140406,309.952623 380.99112,309.740977 380.814091,309.804077 C377.232549,311.094984 373.063111,311.845603 368.595101,311.845603" id="Fill-225" fill="#664209"></path>
                    <polyline id="Stroke-227" stroke="#664209" stroke-width="0.962" stroke-linecap="round" stroke-linejoin="round" points="360.204041 297.689661 364.96666 301.404635 360.204041 305.118294"></polyline>
                    <polyline id="Stroke-229" stroke="#664209" stroke-width="0.962" stroke-linecap="round" stroke-linejoin="round" points="376.986293 297.689661 372.223675 301.404635 376.986293 305.118294"></polyline>
                    <path d="M368.595101,311.845603 C366.515667,311.845603 364.507572,311.668136 362.58535,311.364471 L362.58535,314.458968 L362.58535,317.09205 C362.58535,319.740908 365.276461,321.8876 368.595101,321.8876 C371.915062,321.8876 374.604852,319.740908 374.604852,317.09205 L374.604852,314.458968 L374.604852,311.364471 C372.68263,311.668136 370.675857,311.845603 368.595101,311.845603" id="Fill-231" fill="#F95656"></path>
                    <path d="M368.595101,311.845603 C368.379759,311.845603 368.174987,311.821941 367.960966,311.817997 L367.960966,317.172239 C367.960966,317.5206 368.243685,317.804547 368.595101,317.804547 C368.946518,317.804547 369.229236,317.5206 369.229236,317.172239 L369.229236,311.817997 C369.015216,311.821941 368.810443,311.845603 368.595101,311.845603" id="Fill-233" fill="#A92B2B"></path>
                    <path d="M388.752405,169.945315 C388.752405,181.023192 379.727871,190.003017 368.594837,190.003017 C357.461803,190.003017 348.437269,181.023192 348.437269,169.945315 C348.437269,158.867437 357.461803,149.887613 368.594837,149.887613 C379.727871,149.887613 388.752405,158.867437 388.752405,169.945315" id="Fill-235" fill="#FFB821"></path>
                    <path d="M365.122023,164.744089 C365.122023,167.253602 363.940946,169.288556 362.485078,169.288556 C361.029209,169.288556 359.849454,167.253602 359.849454,164.744089 C359.849454,162.233261 361.029209,160.199622 362.485078,160.199622 C363.940946,160.199622 365.122023,162.233261 365.122023,164.744089" id="Fill-237" fill="#093464"></path>
                    <path d="M371.055413,166.117157 C371.055413,166.117157 373.784836,162.669041 378.575198,164.664558" id="Stroke-239" stroke="#093464" stroke-width="0.793" stroke-linecap="round" stroke-linejoin="round"></path>
                    <path d="M354.887215,170.596158 C356.691857,176.42496 362.145419,180.661817 368.595101,180.661817 C375.046104,180.661817 380.499666,176.42496 382.304308,170.596158" id="Stroke-241" stroke="#093464" stroke-width="0.723" stroke-linecap="round" stroke-linejoin="round"></path>
                </g>
                <g id="Group-335">
                    <path d="M554.00672,159.72419 L411.968435,159.72419 C409.465744,159.72419 407.436607,157.704873 407.436607,155.215612 L407.436607,113.019268 C407.436607,110.52869 409.465744,108.51069 411.968435,108.51069 L539.052746,108.51069 C541.555437,108.51069 543.584574,110.52869 543.584574,113.019268 L543.584574,147.297627 C543.584574,148.533701 544.134848,149.70659 545.087247,150.500363 L554.508052,158.353845 C555.066263,158.819841 554.735569,159.72419 554.00672,159.72419" id="Fill-290" fill="#000000"></path>
                    <path d="M557.209027,154.977348 L415.169419,154.977348 C412.668051,154.977348 410.638914,152.958032 410.638914,150.46877 L410.638914,108.272427 C410.638914,105.781849 412.668051,103.763848 415.169419,103.763848 L542.25373,103.763848 C544.757743,103.763848 546.785558,105.781849 546.785558,108.272427 L546.785558,142.550785 C546.785558,143.786859 547.335832,144.959748 548.28823,145.753521 L557.709036,153.607004 C558.267247,154.073 557.936553,154.977348 557.209027,154.977348" id="Fill-292" fill="#0073EC"></path>
                    <line x1="427.405222" y1="115.130204" x2="530.444124" y2="115.130204" id="Stroke-294" stroke="#FFFFFF" stroke-linecap="round" stroke-linejoin="round"></line>
                    <line x1="427.405222" y1="124.623756" x2="530.444124" y2="124.623756" id="Stroke-296" stroke="#FFFFFF" stroke-linecap="round" stroke-linejoin="round"></line>
                    <line x1="427.405222" y1="134.117308" x2="530.444124" y2="134.117308" id="Stroke-298" stroke="#FFFFFF" stroke-linecap="round" stroke-linejoin="round"></line>
                    <line x1="427.405222" y1="143.61086" x2="472.489372" y2="143.61086" id="Stroke-300" stroke="#FFFFFF" stroke-linecap="round" stroke-linejoin="round"></line>
                    <path d="M298.296404,253.719555 L431.285584,253.719555 C435.146765,253.719555 438.275128,250.606333 438.275128,246.765156 L438.275128,196.985187 C438.275128,193.14401 435.146765,190.029471 431.285584,190.029471 L315.709418,190.029471 C311.84956,190.029471 308.719873,193.14401 308.719873,196.985187 L308.719873,241.292992 C308.719873,242.529067 308.169599,243.701955 307.217201,244.495728 L297.796395,252.350527 C297.238184,252.815207 297.568878,253.719555 298.296404,253.719555" id="Fill-302" fill="#F95656"></path>
                    <mask id="mask-26" fill="white">
                        <use xlink:href="#path-25"></use>
                    </mask>
                    <g id="Clip-327"></g>
                    <path d="M713.931969,45.1959033 C711.07742,45.1959033 708.762563,42.8922502 708.762563,40.0515168 C708.762563,37.2107834 711.07742,34.9071303 713.931969,34.9071303 C716.786518,34.9071303 719.101375,37.2107834 719.101375,40.0515168 C719.101375,42.8922502 716.786518,45.1959033 713.931969,45.1959033 M711.351235,27.4762035 C706.294265,28.4529524 702.233345,32.5258111 701.280947,37.5648878 C700.496541,41.7127798 701.724076,45.5842334 704.155337,48.3999557 C704.635505,48.9541488 705.123609,49.5057092 705.52441,50.1191391 C709.867081,56.7668238 712.217652,63.8146859 713.258677,67.5505531 C713.447833,68.2271689 714.416105,68.2271689 714.605262,67.5505531 C715.646286,63.8160023 717.995535,56.7720893 722.336883,50.1270373 C722.739007,49.5083419 723.232402,48.9528324 723.715215,48.3933738 C725.64779,46.1515902 726.819769,43.2384563 726.819769,40.0515168 C726.819769,32.1295828 719.600061,25.8847083 711.351235,27.4762035" id="Fill-330" fill="#F95656" mask="url(#mask-26)"></path>
                    <path d="M453.705698,5.35178738 L401.10554,5.35178738 C393.074971,5.35178738 386.564272,11.8296599 386.564272,19.8213617 L386.564272,57.9501116 C386.564272,65.9418134 393.074971,72.4210023 401.10554,72.4210023 L406.658551,72.4210023 C411.575306,72.4210023 416.158723,74.8931512 418.842634,78.9923374 L426.109961,90.0933126 C426.71976,91.0253049 428.091478,91.0253049 428.701278,90.0933126 L435.968605,78.9923374 C438.651193,74.8931512 443.235932,72.4210023 448.152688,72.4210023 L453.705698,72.4210023 C461.734944,72.4210023 468.245644,65.9418134 468.245644,57.9501116 L468.245644,19.8213617 C468.245644,11.8296599 461.734944,5.35178738 453.705698,5.35178738" id="Fill-331" fill="#000000" mask="url(#mask-26)"></path>
                    <path d="M453.705698,-0.00111262882 L401.10554,-0.00111262882 C393.074971,-0.00111262882 386.564272,6.47675993 386.564272,14.469778 L386.564272,52.598528 C386.564272,60.5889134 393.074971,67.0681023 401.10554,67.0681023 L406.658551,67.0681023 C411.575306,67.0681023 416.158723,69.5402512 418.842634,73.6394374 L426.109961,84.7404126 C426.71976,85.6724048 428.091478,85.6724048 428.701278,84.7404126 L435.968605,73.6394374 C438.651193,69.5402512 443.235932,67.0681023 448.152688,67.0681023 L453.705698,67.0681023 C461.734944,67.0681023 468.245644,60.5889134 468.245644,52.598528 L468.245644,14.469778 C468.245644,6.47675993 461.734944,-0.00111262882 453.705698,-0.00111262882" id="Fill-332" fill="#FFB821" mask="url(#mask-26)"></path>
                    <path d="M442.961986,22.0024604 C434.050449,19.2907316 427.404826,26.5163042 427.404826,26.5163042 C427.404826,26.5163042 420.759203,19.2907316 411.848989,22.0024604 C402.937452,24.7128729 402.284001,35.5847992 407.519545,43.0999738 C412.945569,50.8876377 419.400713,55.2237711 427.404826,59.5822828 C435.410262,55.2237711 441.865405,50.8876377 447.290106,43.0999738 C452.525651,35.5847992 451.8722,24.7128729 442.961986,22.0024604" id="Fill-333" fill="#000000" mask="url(#mask-26)"></path>
                    <path d="M442.961986,18.9308352 C434.050449,16.2204228 427.404826,23.4446789 427.404826,23.4446789 C427.404826,23.4446789 420.759203,16.2204228 411.848989,18.9308352 C402.937452,21.6412476 402.284001,32.513174 407.519545,40.0283486 C412.945569,47.8160125 419.400713,52.1521458 427.404826,56.5106575 C435.410262,52.1521458 441.865405,47.8160125 447.290106,40.0283486 C452.525651,32.513174 451.8722,21.6412476 442.961986,18.9308352" id="Fill-334" fill="#F95656" mask="url(#mask-26)"></path>
                </g>
            </g>
        </g>
    </g>
</svg>