<?xml version="1.0" encoding="UTF-8"?>
<svg width="458px" height="583px" viewBox="0 0 458 583" version="1.1" xmlns="http://www.w3.org/2000/svg" xmlns:xlink="http://www.w3.org/1999/xlink">
    <!-- Generator: Sketch 64 (93537) - https://sketch.com -->
    <title>Group 336</title>
    <desc>Created with Sketch.</desc>
    <defs>
        <path d="M204.922769,151.786448 C16.8148899,186.495539 65.7996652,396.717088 65.7996652,396.717088 L65.7996652,396.717088 C13.6282594,413.301094 0.0560754148,455.138636 0,494.048906 L0,494.048906 L0,494.542593 C0.0599426848,536.20202 15.5135535,574.361111 15.5135535,574.361111 L15.5135535,574.361111 L1281.19948,574.361111 C1281.29036,571.342845 1281.34256,568.380724 1281.34256,565.451515 L1281.34256,565.451515 L1281.34256,564.289899 C1281.03898,407.165825 1160.04371,377.852441 1160.04371,377.852441 L1160.04371,377.852441 C1169.26135,171.365488 908.220621,159.919697 908.220621,159.919697 L908.220621,159.919697 C838.000667,7.58728956 660.071442,67.0349327 660.071442,67.0349327 L660.071442,67.0349327 C575.614133,18.2741582 504.531777,0.162625642 445.4979,0.162625642 L445.4979,0.162625642 C274.734727,0.174242424 204.922769,151.786448 204.922769,151.786448" id="path-1"></path>
        <linearGradient x1="50.0000348%" y1="81.8563193%" x2="50.0000348%" y2="-31.227562%" id="linearGradient-3">
            <stop stop-color="#7EB2FF" offset="0%"></stop>
            <stop stop-color="#FFFFFF" offset="100%"></stop>
        </linearGradient>
        <path d="M32.7208743,57.7976385 C31.7522279,84.8428919 8.98903829,101.746175 2.69089961,132.863671 L2.69089961,132.863671 C-3.60530178,163.979235 8.02039192,174.67177 8.62870184,187.711445 L8.62870184,187.711445 C9.23894905,200.751121 -12.3231191,223.449816 11.4087169,256.773432 L11.4087169,256.773432 C35.1424902,290.097048 67.9098595,279.588035 79.2139626,266.10984 L79.2139626,266.10984 C94.0691233,248.402926 100.659793,240.528894 111.801164,226.523316 L111.801164,226.523316 C122.93866,212.517738 117.477431,189.160298 113.118523,171.291113 L113.118523,171.291113 C108.759614,153.421928 118.930401,144.72881 116.993108,119.694565 L116.993108,119.694565 C115.055815,94.6583871 97.5853096,86.9620807 95.198565,63.2723705 L95.198565,63.2723705 C92.8118203,39.5787966 91.3239795,0.326474845 60.6508236,0.326474845 L60.6508236,0.326474845 C37.2405782,0.326474845 33.6895207,30.752385 32.7208743,57.7976385" id="path-4"></path>
        <path d="M21.681282,37.5160258 C22.9724408,50.443468 17.1583486,56.9091284 9.08182038,64.7672136 L9.08182038,64.7672136 C1.00335345,72.6272381 4.23318928,92.7863682 5.52434814,103.423485 L5.52434814,103.423485 C6.81744568,114.058662 4.55694833,122.845677 1.00335345,140.953017 L1.00335345,140.953017 C-2.55218011,159.060357 3.9113689,186.842916 35.9266803,186.842916 L35.9266803,186.842916 C67.9439305,186.842916 69.8244471,154.844297 66.0731072,138.360159 L66.0731072,138.360159 C62.3198286,121.876022 69.5026268,119.612847 72.4087035,99.6534659 L72.4087035,99.6534659 C75.316719,79.6902061 62.3934983,77.5938117 62.7172574,69.8385099 L62.7172574,69.8385099 C63.961888,39.9517995 62.7036866,0.985238463 35.9266803,0.168788844 L35.9266803,0.168788844 C35.7192419,0.162970913 35.5156808,0.161031603 35.3140584,0.161031603 L35.3140584,0.161031603 C17.425886,0.161031603 20.4036939,24.7320926 21.681282,37.5160258" id="path-6"></path>
        <path d="M448.725913,53.4092553 C431.965665,59.217766 400.414005,58.8382766 380.39106,101.666362 L380.39106,101.666362 C374.588989,114.077213 348.851005,104.942362 332.040472,138.602681 L332.040472,138.602681 C328.172425,146.347362 307.544131,141.506936 296.584019,155.22083 L296.584019,155.22083 C285.623908,168.934723 291.425979,202.908702 284.335849,208.511979 L284.335849,208.511979 C277.452659,213.948745 271.768564,220.185149 268.500064,245.916851 L268.500064,245.916851 C269.194378,238.598128 269.811332,216.581936 253.391472,208.511979 L253.391472,208.511979 C253.391472,208.511979 252.074402,170.710191 236.534524,167.805936 L236.534524,167.805936 C220.996579,164.901681 220.996579,180.875085 213.258551,186.683596 L213.258551,186.683596 C205.524391,192.492106 191.500786,188.135723 184.731704,204.109128 L184.731704,204.109128 C177.962622,220.082532 182.79768,225.891043 173.611069,233.151681 L173.611069,233.151681 C164.426391,240.412319 162.973939,242.563404 160.55641,254.315957 L160.55641,254.315957 C160.152199,256.286979 159.908512,257.53 159.780867,258.258 L159.780867,258.258 C157.005543,263.189426 140.077035,264.56217 136.38305,313.018702 L136.38305,313.018702 C136.38305,313.018702 129.677791,279.180255 113.172834,278.651681 L113.172834,278.651681 C107.140615,278.46 102.481552,279.311915 98.7392167,280.165766 L98.7392167,280.165766 C92.2428317,281.646936 88.5043643,283.128106 85.1294933,279.135723 L85.1294933,279.135723 C79.8128626,272.84317 83.6809097,252.513383 71.1097569,251.545298 L71.1097569,251.545298 C58.53667,250.577213 58.0550982,280.911191 48.8684865,296.720021 L48.8684865,296.720021 C39.6818749,312.53466 -0.932618771,333.636979 0.032458959,363.746362 L0.032458959,363.746362 L1122.7344,363.746362 C1122.7344,363.746362 1123.5512,327.880745 1084.05263,313.502745 L1084.05263,313.502745 C1073.41744,309.630404 1071.48342,293.172957 1048.2732,280.587851 L1048.2732,280.587851 C1025.06492,268.002745 1010.56168,277.083383 997.990523,257.535809 L997.990523,257.535809 C985.417436,237.992106 957.374095,227.34317 933.198801,229.27934 L933.198801,229.27934 C909.023507,231.215511 894.518331,238.960191 869.377959,215.726149 L869.377959,215.726149 C844.23372,192.492106 856.766192,179.084128 816.190379,173.062638 L816.190379,173.062638 C768.808737,166.030468 757.527578,151.187787 747.534478,139.247426 L747.534478,139.247426 C737.96493,127.81434 734.338636,98.7446809 687.79636,95.6835957 L687.79636,95.6835957 C673.074573,94.7155106 658.890445,93.4240851 629.880092,81.809 L629.880092,81.809 C600.871674,70.1900426 591.843652,35.3389787 568.637304,32.7580638 L568.637304,32.7580638 C545.429022,30.1771489 528.02281,48.2474255 528.02281,48.2474255 L528.02281,48.2474255 C528.02281,48.2474255 522.218806,1.78321277 496.43247,0.168446809 L496.43247,0.168446809 C496.014721,0.141340426 495.602774,0.129723404 495.196629,0.129723404 L495.196629,0.129723404 C470.475941,0.129723404 465.215397,47.695617 448.725913,53.4092553" id="path-8"></path>
        <path d="M16.1235225,79.2457898 C9.63558015,84.4897839 5.28332439,91.9346752 4.04890141,100.189003 L4.04890141,100.189003 C2.57375632,110.058351 1.46450883,119.455526 0.848260228,128.037484 L0.848260228,128.037484 C-0.588369327,148.003591 0.0972072435,168.540159 1.65130919,187.09168 L1.65130919,187.09168 C13.4505442,179.872274 19.1007735,151.763618 31.6606904,149.718826 L31.6606904,149.718826 C37.5131263,148.766775 43.9278891,145.613825 49.3913181,142.306698 L49.3913181,142.306698 C49.4163532,141.988705 49.4433141,141.72082 49.4741265,141.52617 L49.4741265,141.52617 C50.4389408,135.744478 49.4741265,132.853633 49.4741265,132.853633 L49.4741265,132.853633 L77.3978913,31.1922252 L75.1870995,0.0423990704 C58.3365518,40.0227952 33.1146519,65.5104182 16.1235225,79.2457898" id="path-10"></path>
        <linearGradient x1="0.00120892778%" y1="50.000522%" x2="100.001262%" y2="50.000522%" id="linearGradient-12">
            <stop stop-color="#001F55" offset="0%"></stop>
            <stop stop-color="#001F55" offset="100%"></stop>
        </linearGradient>
        <path d="M5.34563265,2.41947917 C3.8869932,5.44379167 2.12503401,9.80286732 0.160217687,15.2071239 L0.160217687,15.2071239 C4.84911565,19.1634693 14.9166259,24.7000515 34.3271565,24.2340351 L34.3271565,24.2340351 C45.6601088,23.9636305 55.3682721,26.4701469 64.0505578,28.9785811 L64.0505578,28.9785811 C75.3023673,32.2253542 84.8366531,35.474045 93.9632925,32.6760285 L93.9632925,32.6760285 C90.2809524,10.0617654 85.5225034,0.0222752193 85.5225034,0.0222752193 L85.5225034,0.0222752193 L5.34563265,2.41947917 Z" id="path-13"></path>
        <linearGradient x1="0.000395650114%" y1="50.0006515%" x2="99.9983321%" y2="50.0006515%" id="linearGradient-15">
            <stop stop-color="#001F55" offset="0%"></stop>
            <stop stop-color="#001F55" offset="100%"></stop>
        </linearGradient>
        <path d="M0.825925926,7.5360875 C0.953703704,15.9448667 -1.48333333,35.5334333 1.71296296,43.9148542 L1.71296296,43.9148542 L9.52962963,20.8087875 C7.76851852,14.3756708 6.53518519,9.32805833 6.69074074,4.11629583 L6.69074074,4.11629583 C6.76296296,1.67945 5.45185185,0.0614 4.05,0.0614 L4.05,0.0614 C2.45555556,0.0614 0.744444444,2.160175 0.825925926,7.5360875" id="path-16"></path>
        <path d="M38.0948148,0.333724638 C35.0441481,0.815608696 37.4515556,26.0335652 36.3268148,34.3875072 L36.3268148,34.3875072 C35.204,42.7395217 23.9681481,61.371087 23.0051852,71.1706812 L23.0051852,71.1706812 C22.0576296,80.8295652 7.47259259,86.2035362 0.876296296,87.4699275 L0.876296296,87.4699275 C21.5645926,83.6322029 41.4536296,84.9140145 43.550963,82.8149275 L43.550963,82.8149275 C45.7176296,80.6464493 42.5860741,80.1664928 42.5860741,80.1664928 L42.5860741,80.1664928 L47.4028148,28.602971 C51.012,31.0123913 51.7361481,27.6411304 51.7361481,27.6411304 L51.7361481,27.6411304 C48.0884444,19.7054638 41.3091852,0.326014493 38.2065185,0.324086957 L38.2065185,0.324086957 C38.168,0.324086957 38.1314074,0.327942029 38.0948148,0.333724638 M0.604740741,87.5200435 C0.693333333,87.5046232 0.783851852,87.4872754 0.876296296,87.4699275 L0.876296296,87.4699275 C0.785777778,87.4872754 0.695259259,87.5026957 0.604740741,87.5200435" id="path-18"></path>
        <polygon id="path-20" points="0 697 1281.34256 697 1281.34256 -0.00144251282 0 -0.00144251282"></polygon>
    </defs>
    <g id="Page-1" stroke="none" stroke-width="1" fill="none" fill-rule="evenodd" opacity="0.498349144">
        <g id="Web" transform="translate(0.000000, -5423.000000)">
            <g id="get-in-touch" transform="translate(0.000000, 5142.000000)">
                <g id="Group-336-+-Group-336-Mask">
                    <g id="Group-336" transform="translate(-824.000000, 252.000000)">
                        <g id="Group-3" transform="translate(0.000000, 13.000000)">
                            <mask id="mask-2" fill="white">
                                <use xlink:href="#path-1"></use>
                            </mask>
                            <g id="Clip-2"></g>
                            <path d="M204.922769,151.786448 C16.8148899,186.495539 65.7996652,396.717088 65.7996652,396.717088 L65.7996652,396.717088 C13.6282594,413.301094 0.0560754148,455.138636 0,494.048906 L0,494.048906 L0,494.542593 C0.0599426848,536.20202 15.5135535,574.361111 15.5135535,574.361111 L15.5135535,574.361111 L1281.19948,574.361111 C1281.29036,571.342845 1281.34256,568.380724 1281.34256,565.451515 L1281.34256,565.451515 L1281.34256,564.289899 C1281.03898,407.165825 1160.04371,377.852441 1160.04371,377.852441 L1160.04371,377.852441 C1169.26135,171.365488 908.220621,159.919697 908.220621,159.919697 L908.220621,159.919697 C838.000667,7.58728956 660.071442,67.0349327 660.071442,67.0349327 L660.071442,67.0349327 C575.614133,18.2741582 504.531777,0.162625642 445.4979,0.162625642 L445.4979,0.162625642 C274.734727,0.174242424 204.922769,151.786448 204.922769,151.786448" id="Fill-1" fill="url(#linearGradient-3)" mask="url(#mask-2)"></path>
                        </g>
                        <g id="Group-6" transform="translate(1032.000000, 174.000000)">
                            <mask id="mask-5" fill="white">
                                <use xlink:href="#path-4"></use>
                            </mask>
                            <g id="Clip-5"></g>
                            <path d="M32.7208743,57.7976385 C31.7522279,84.8428919 8.98903829,101.746175 2.69089961,132.863671 L2.69089961,132.863671 C-3.60530178,163.979235 8.02039192,174.67177 8.62870184,187.711445 L8.62870184,187.711445 C9.23894905,200.751121 -12.3231191,223.449816 11.4087169,256.773432 L11.4087169,256.773432 C35.1424902,290.097048 67.9098595,279.588035 79.2139626,266.10984 L79.2139626,266.10984 C94.0691233,248.402926 100.659793,240.528894 111.801164,226.523316 L111.801164,226.523316 C122.93866,212.517738 117.477431,189.160298 113.118523,171.291113 L113.118523,171.291113 C108.759614,153.421928 118.930401,144.72881 116.993108,119.694565 L116.993108,119.694565 C115.055815,94.6583871 97.5853096,86.9620807 95.198565,63.2723705 L95.198565,63.2723705 C92.8118203,39.5787966 91.3239795,0.326474845 60.6508236,0.326474845 L60.6508236,0.326474845 C37.2405782,0.326474845 33.6895207,30.752385 32.7208743,57.7976385" id="Fill-4" mask="url(#mask-5)"></path>
                        </g>
                        <g id="Group-21" transform="translate(1042.000000, 218.000000)" stroke="#00337F" stroke-width="0.8">
                            <line x1="47.6009533" y1="0.18264091" x2="47.6009533" y2="297.949923" id="Stroke-7"></line>
                            <path d="M90.4680662,67.1351186 C90.4680662,67.1351186 68.3770763,112.640182 47.6005695,134.238068" id="Stroke-9"></path>
                            <line x1="75.1164401" y1="67.1351186" x2="76.2275141" y2="93.6165592" id="Stroke-11"></line>
                            <path d="M0.277263313,87.4977063 C0.277263313,87.4977063 15.2853967,123.601201 47.6005695,145.843136" id="Stroke-13"></path>
                            <path d="M17.2292963,80.3762257 C17.2292963,80.3762257 15.3429653,96.3981548 11.9694455,108.548053" id="Stroke-15"></path>
                            <path d="M81.6735034,145.842169 C81.6735034,145.842169 65.3374544,182.912704 47.6005695,205.154638" id="Stroke-17"></path>
                            <path d="M0.277263313,169.374135 C1.55720513,170.824696 24.0799595,206.605199 47.6005695,219.660248" id="Stroke-19"></path>
                        </g>
                        <g id="Group-24" transform="translate(811.000000, 195.000000)">
                            <mask id="mask-7" fill="white">
                                <use xlink:href="#path-6"></use>
                            </mask>
                            <g id="Clip-23"></g>
                            <path d="M21.681282,37.5160258 C22.9724408,50.443468 17.1583486,56.9091284 9.08182038,64.7672136 L9.08182038,64.7672136 C1.00335345,72.6272381 4.23318928,92.7863682 5.52434814,103.423485 L5.52434814,103.423485 C6.81744568,114.058662 4.55694833,122.845677 1.00335345,140.953017 L1.00335345,140.953017 C-2.55218011,159.060357 3.9113689,186.842916 35.9266803,186.842916 L35.9266803,186.842916 C67.9439305,186.842916 69.8244471,154.844297 66.0731072,138.360159 L66.0731072,138.360159 C62.3198286,121.876022 69.5026268,119.612847 72.4087035,99.6534659 L72.4087035,99.6534659 C75.316719,79.6902061 62.3934983,77.5938117 62.7172574,69.8385099 L62.7172574,69.8385099 C63.961888,39.9517995 62.7036866,0.985238463 35.9266803,0.168788844 L35.9266803,0.168788844 C35.7192419,0.162970913 35.5156808,0.161031603 35.3140584,0.161031603 L35.3140584,0.161031603 C17.425886,0.161031603 20.4036939,24.7320926 21.681282,37.5160258" id="Fill-22" mask="url(#mask-7)"></path>
                        </g>
                        <g id="Group-31" transform="translate(824.000000, 212.000000)" stroke="#00337F" stroke-width="0.8">
                            <line x1="25.7706457" y1="0.224055196" x2="25.7706457" y2="218.843219" id="Stroke-25"></line>
                            <path d="M0.31284914,113.712669 C0.31284914,113.712669 12.8246993,128.205286 25.7710285,145.076652" id="Stroke-27"></path>
                            <path d="M40.8863081,105.710259 C40.5762393,106.959489 32.1967258,118.94399 25.7714113,127.891337" id="Stroke-29"></path>
                        </g>
                        <g id="Group-81" transform="translate(78.000000, 146.000000)" fill="#F0A900">
                            <path d="M1082.66406,326.287256 C1074.28112,331.803862 1070.94497,336.278614 1066.82897,347.520583 C1062.71297,336.278614 1059.37875,331.803862 1050.99581,326.287256 C1059.37875,320.768718 1062.71297,316.293966 1066.82897,305.051997 C1070.94497,316.293966 1074.28112,320.768718 1082.66406,326.287256" id="Fill-65"></path>
                            <path d="M758.659807,10.8040904 C754.468335,13.5643263 752.802196,15.8007358 750.743228,21.4217203 C748.686194,15.8007358 747.016185,13.5643263 742.824713,10.8040904 C747.016185,8.04578752 748.686194,5.80744501 750.743228,0.186460532 C752.802196,5.80744501 754.468335,8.04578752 758.659807,10.8040904" id="Fill-67"></path>
                        </g>
                        <g id="Group-84" transform="translate(78.000000, 237.000000)">
                            <mask id="mask-9" fill="white">
                                <use xlink:href="#path-8"></use>
                            </mask>
                            <g id="Clip-83"></g>
                            <path d="M448.725913,53.4092553 C431.965665,59.217766 400.414005,58.8382766 380.39106,101.666362 L380.39106,101.666362 C374.588989,114.077213 348.851005,104.942362 332.040472,138.602681 L332.040472,138.602681 C328.172425,146.347362 307.544131,141.506936 296.584019,155.22083 L296.584019,155.22083 C285.623908,168.934723 291.425979,202.908702 284.335849,208.511979 L284.335849,208.511979 C277.452659,213.948745 271.768564,220.185149 268.500064,245.916851 L268.500064,245.916851 C269.194378,238.598128 269.811332,216.581936 253.391472,208.511979 L253.391472,208.511979 C253.391472,208.511979 252.074402,170.710191 236.534524,167.805936 L236.534524,167.805936 C220.996579,164.901681 220.996579,180.875085 213.258551,186.683596 L213.258551,186.683596 C205.524391,192.492106 191.500786,188.135723 184.731704,204.109128 L184.731704,204.109128 C177.962622,220.082532 182.79768,225.891043 173.611069,233.151681 L173.611069,233.151681 C164.426391,240.412319 162.973939,242.563404 160.55641,254.315957 L160.55641,254.315957 C160.152199,256.286979 159.908512,257.53 159.780867,258.258 L159.780867,258.258 C157.005543,263.189426 140.077035,264.56217 136.38305,313.018702 L136.38305,313.018702 C136.38305,313.018702 129.677791,279.180255 113.172834,278.651681 L113.172834,278.651681 C107.140615,278.46 102.481552,279.311915 98.7392167,280.165766 L98.7392167,280.165766 C92.2428317,281.646936 88.5043643,283.128106 85.1294933,279.135723 L85.1294933,279.135723 C79.8128626,272.84317 83.6809097,252.513383 71.1097569,251.545298 L71.1097569,251.545298 C58.53667,250.577213 58.0550982,280.911191 48.8684865,296.720021 L48.8684865,296.720021 C39.6818749,312.53466 -0.932618771,333.636979 0.032458959,363.746362 L0.032458959,363.746362 L1122.7344,363.746362 C1122.7344,363.746362 1123.5512,327.880745 1084.05263,313.502745 L1084.05263,313.502745 C1073.41744,309.630404 1071.48342,293.172957 1048.2732,280.587851 L1048.2732,280.587851 C1025.06492,268.002745 1010.56168,277.083383 997.990523,257.535809 L997.990523,257.535809 C985.417436,237.992106 957.374095,227.34317 933.198801,229.27934 L933.198801,229.27934 C909.023507,231.215511 894.518331,238.960191 869.377959,215.726149 L869.377959,215.726149 C844.23372,192.492106 856.766192,179.084128 816.190379,173.062638 L816.190379,173.062638 C768.808737,166.030468 757.527578,151.187787 747.534478,139.247426 L747.534478,139.247426 C737.96493,127.81434 734.338636,98.7446809 687.79636,95.6835957 L687.79636,95.6835957 C673.074573,94.7155106 658.890445,93.4240851 629.880092,81.809 L629.880092,81.809 C600.871674,70.1900426 591.843652,35.3389787 568.637304,32.7580638 L568.637304,32.7580638 C545.429022,30.1771489 528.02281,48.2474255 528.02281,48.2474255 L528.02281,48.2474255 C528.02281,48.2474255 522.218806,1.78321277 496.43247,0.168446809 L496.43247,0.168446809 C496.014721,0.141340426 495.602774,0.129723404 495.196629,0.129723404 L495.196629,0.129723404 C470.475941,0.129723404 465.215397,47.695617 448.725913,53.4092553" id="Fill-82" mask="url(#mask-9)"></path>
                        </g>
                        <g id="Group-91" transform="translate(881.000000, 264.000000)">
                            <path d="M41.3570431,309.734404 L45.2276948,347.241322 L34.4227707,347.241322 L33.4551078,344.183515 L29.7450882,347.884563 L0.728748163,347.884563 C0.728748163,347.884563 -0.573726115,343.217688 1.68286379,341.768947 C3.94138902,340.320207 9.90799853,339.031794 9.90799853,339.031794 L22.7914625,329.85644 L20.3916585,309.734404 L41.3570431,309.734404 Z" id="Fill-85" fill="#510F0E"></path>
                            <path d="M165.662053,309.734404 L172.933072,347.241322 L162.126213,347.241322 L161.15855,344.183515 L157.450465,347.884563 L128.434125,347.884563 C128.434125,347.884563 127.129716,343.217688 129.388241,341.768947 C131.644831,340.320207 137.613376,339.031794 137.613376,339.031794 L150.494904,329.85644 L144.696668,309.734404 L165.662053,309.734404 Z" id="Fill-87" fill="#510F0E"></path>
                            <path d="M125.866916,0.0265810305 C125.866916,0.0265810305 133.608219,16.4456369 136.995039,54.5957963 C140.381859,92.7459556 144.736342,184.499503 144.736342,184.499503 C144.736342,184.499503 167.960252,268.043523 174.733893,312.471557 L136.995039,312.471557 C136.995039,312.471557 102.643006,243.897853 93.4502082,200.435646 C84.2574106,156.973439 78.4514331,89.3655617 78.4514331,89.3655617 L50.3892087,191.260291 C50.3892087,191.260291 51.3568716,194.157772 50.3892087,199.952732 C49.4215458,205.747693 52.808366,266.594783 47.0023885,312.471557 L12.1665238,312.471557 C12.1665238,312.471557 -2.83225135,246.795333 1.52223175,186.431157 C5.87671485,126.066981 34.4227707,25.6209917 45.5508942,2.44114808 L125.866916,0.0265810305 Z" id="Fill-89" fill="#093464"></path>
                        </g>
                        <g id="Group-94" transform="translate(882.000000, 322.000000)">
                            <mask id="mask-11" fill="white">
                                <use xlink:href="#path-10"></use>
                            </mask>
                            <g id="Clip-93"></g>
                            <path d="M16.1235225,79.2457898 C9.63558015,84.4897839 5.28332439,91.9346752 4.04890141,100.189003 L4.04890141,100.189003 C2.57375632,110.058351 1.46450883,119.455526 0.848260228,128.037484 L0.848260228,128.037484 C-0.588369327,148.003591 0.0972072435,168.540159 1.65130919,187.09168 L1.65130919,187.09168 C13.4505442,179.872274 19.1007735,151.763618 31.6606904,149.718826 L31.6606904,149.718826 C37.5131263,148.766775 43.9278891,145.613825 49.3913181,142.306698 L49.3913181,142.306698 C49.4163532,141.988705 49.4433141,141.72082 49.4741265,141.52617 L49.4741265,141.52617 C50.4389408,135.744478 49.4741265,132.853633 49.4741265,132.853633 L49.4741265,132.853633 L77.3978913,31.1922252 L75.1870995,0.0423990704 C58.3365518,40.0227952 33.1146519,65.5104182 16.1235225,79.2457898" id="Fill-92" fill="url(#linearGradient-12)" mask="url(#mask-11)"></path>
                        </g>
                        <g id="Group-101" transform="translate(948.000000, 266.000000)" stroke="#1A63B4" stroke-width="0.723">
                            <path d="M11.8347193,85.5371981 C10.8783784,73.9429952 6.61309771,19.1932367 9.24303534,4.57487923" id="Stroke-95"></path>
                            <path d="M44.8284823,0.0299516908 C44.8284823,0.0299516908 42.984657,38.9111111 68.534262,39.6396135" id="Stroke-97"></path>
                            <path d="M1.30559667,7.59439614 C1.30559667,7.59439614 -1.5729896,31.9132367 1.30559667,37.7103382 C4.18418295,43.5074396 9.13802911,45.0552657 9.13802911,45.0552657" id="Stroke-99"></path>
                        </g>
                        <g id="Group-104" transform="translate(920.000000, 264.000000)">
                            <mask id="mask-14" fill="white">
                                <use xlink:href="#path-13"></use>
                            </mask>
                            <g id="Clip-103"></g>
                            <path d="M5.34563265,2.41947917 C3.8869932,5.44379167 2.12503401,9.80286732 0.160217687,15.2071239 L0.160217687,15.2071239 C4.84911565,19.1634693 14.9166259,24.7000515 34.3271565,24.2340351 L34.3271565,24.2340351 C45.6601088,23.9636305 55.3682721,26.4701469 64.0505578,28.9785811 L64.0505578,28.9785811 C75.3023673,32.2253542 84.8366531,35.474045 93.9632925,32.6760285 L93.9632925,32.6760285 C90.2809524,10.0617654 85.5225034,0.0222752193 85.5225034,0.0222752193 L85.5225034,0.0222752193 L5.34563265,2.41947917 Z" id="Fill-102" fill="url(#linearGradient-15)" mask="url(#mask-14)"></path>
                        </g>
                        <g id="Group-121" transform="translate(850.000000, 65.000000)">
                            <path d="M180.494953,161.482665 C180.494953,161.482665 187.756685,178.562178 199.703218,199.385728 C211.651681,220.209277 239.995984,215.763476 255.224001,199.385728 C270.450088,183.00798 293.874095,148.847025 293.874095,148.847025 C293.874095,148.847025 299.566505,147.682557 300.290362,145.193602 C303.185789,143.747656 304.392217,142.139764 304.793716,140.452827 C306.965287,139.087854 309.459215,135.633007 308.735358,134.509025 C308.011501,133.385043 305.758859,136.195962 304.633503,137.078953 C303.508147,137.963872 299.165006,138.76589 299.165006,138.76589 C299.165006,138.76589 305.598645,134.910034 306.644859,132.741115 C307.689144,130.572196 306.724001,129.448214 305.921003,129.689205 C305.116074,129.930196 303.508147,132.903061 301.898289,133.94607 C300.290362,134.991007 295.383578,136.918935 294.339293,137.159926 C293.293079,137.400917 291.362794,136.114989 293.615437,133.30407 C295.866149,130.493151 295.947221,129.047205 295.304436,128.885259 C294.659721,128.725241 292.569222,131.53616 291.443866,132.741115 C290.31658,133.94607 287.583296,136.837962 287.421153,141.979746 L232.328892,172.585602 L226.375894,159.090106 L180.494953,161.482665 Z" id="Fill-105" fill="#F37F7F"></path>
                            <path d="M292.869961,145.434207 C292.869961,145.434207 296.307798,145.675198 296.971816,143.687505 C297.635834,141.699811 297.979425,139.264838 298.96194,139.469198 C300.450189,139.779595 300.289976,145.193216 300.289976,145.193216 C300.289976,145.193216 303.287708,136.577306 304.069473,136.80673 C304.849308,137.036153 304.633117,140.099631 304.633117,140.099631" id="Stroke-107" stroke="#F95656" stroke-width="0.723" stroke-linecap="round" stroke-linejoin="round"></path>
                            <path d="M232.32812,172.58618 C232.32812,172.58618 224.406231,175.800036 221.028233,179.655892" id="Stroke-109" stroke="#F95656" stroke-width="0.723" stroke-linecap="round" stroke-linejoin="round"></path>
                            <path d="M207.153345,174.112135 C212.118038,170.639937 220.6692,169.168928 226.871205,168.546207 C228.610392,168.370766 229.670118,166.560441 228.965564,164.964117 L226.375122,159.089721 L180.494181,161.482279 C180.494181,161.482279 182.99197,167.358604 187.470231,176.416009 C188.89092,179.294405 192.226452,180.740351 195.278233,179.728189 C199.204432,178.426838 203.613203,176.587595 207.153345,174.112135" id="Fill-111" fill="#F95656"></path>
                            <path d="M97.0460364,40.8441171 C99.0573932,39.0376486 97.3278579,36.9882613 97.0460364,32.7718829 C96.7642148,28.5535766 100.827464,22.2878108 97.0460364,19.2744595 C97.6096795,13.1301532 99.9260214,9.75627928 90.5641398,7.10537838 C81.2022582,4.45447748 74.2049756,3.7315045 67.5686563,0.961072072 C60.9342672,-1.81128829 50.9199494,1.20206306 53.0915199,12.7677027 C53.0915199,12.7677027 48.0245221,11.9251982 47.6635588,21.2023874 C47.3006653,30.4815045 59.8475169,29.398009 67.0860851,35.9028378 C74.3246533,42.4095946 97.0460364,40.8441171 97.0460364,40.8441171" id="Fill-113" fill="#00337F"></path>
                            <path d="M62.4630528,20.4398919 C62.4630528,20.4398919 70.9871908,26.3836937 80.800759,26.7056577 C80.800759,26.7056577 83.5340424,37.4692793 85.3041136,37.7912432 C87.0741848,38.1132072 88.1995409,29.9195135 88.1995409,29.9195135 C88.1995409,29.9195135 90.7726106,27.8392793 93.3476106,29.1194234 C95.9206803,30.4014955 93.8301818,37.6312252 91.2551818,39.0771712 L97.0460364,40.8431532 C97.0460364,40.8431532 105.732318,56.7485586 110.237603,58.1945045 C114.740958,59.6404505 120.85417,60.2843784 120.85417,60.2843784 C120.85417,60.2843784 120.213315,81.1098559 97.6907515,81.8116216 C82.2484726,82.2936036 78.5481166,67.3521622 78.5481166,67.3521622 L83.8563999,64.7822342 L79.0306878,55.1425946 C79.0306878,55.1425946 72.9174756,58.8384324 68.8966923,58.1945045 C64.8759089,57.5525045 60.3706241,46.144955 61.3357665,42.6110631 C62.3009089,39.0771712 61.8550131,33.5864324 60.8030079,30.602 C59.4865536,26.8656757 60.8531953,21.8858378 62.4630528,20.4398919" id="Fill-115" fill="#F37F7F"></path>
                            <path d="M83.8563999,61.0873604 C85.713334,56.4931081 89.4059689,53.9771622 90.5641398,46.7493604 C91.7223107,39.5177027 89.6472545,40.4816667 89.2862912,42.1686036 C87.1340236,52.1919009 83.1325431,53.0151261 79.0306878,55.1435586 L82.7908827,62.6528378 C83.2406391,62.2113423 83.6093235,61.6965856 83.8563999,61.0873604" id="Fill-117" fill="#F95656"></path>
                            <path d="M100.746392,78.6797027 C116.04583,76.585973 119.56667,57.9544775 119.56667,57.9544775 C119.56667,57.9544775 172.166932,62.2923153 190.263353,77.4747477 C208.359773,92.6571802 238.76176,160.857631 238.76176,160.857631 C238.76176,160.857631 210.290058,169.533306 178.681644,164.713486 L169.754076,147.844117 C169.754076,147.844117 169.030219,151.217991 165.410935,148.808081 L160.585223,200.380153 C160.585223,200.380153 163.721936,200.862135 161.550365,203.031054 C159.378795,205.199973 138.145662,203.754027 116.671243,208.091865 C95.1968235,212.429703 71.7921196,208.573847 70.3444059,199.175198 C68.8966923,189.77655 71.3095484,186.161685 70.3444059,178.931955 C69.3792635,171.702225 60.2741098,143.74727 60.2741098,143.74727 L50.8002717,170.256279 C50.8002717,170.256279 19.4331428,166.159432 0.130294228,159.411685 C0.130294228,159.411685 13.6422882,119.889162 19.1918572,103.260784 C24.7414262,86.6324054 32.9451368,69.763036 80.4784014,64.9432162 C80.4784014,64.9432162 83.1325431,81.0896126 100.746392,78.6797027" id="Fill-119" fill="#FFB821"></path>
                        </g>
                        <g id="Group-124" transform="translate(901.000000, 188.000000)">
                            <mask id="mask-17" fill="white">
                                <use xlink:href="#path-16"></use>
                            </mask>
                            <g id="Clip-123"></g>
                            <path d="M0.825925926,7.5360875 C0.953703704,15.9448667 -1.48333333,35.5334333 1.71296296,43.9148542 L1.71296296,43.9148542 L9.52962963,20.8087875 C7.76851852,14.3756708 6.53518519,9.32805833 6.69074074,4.11629583 L6.69074074,4.11629583 C6.76296296,1.67945 5.45185185,0.0614 4.05,0.0614 L4.05,0.0614 C2.45555556,0.0614 0.744444444,2.160175 0.825925926,7.5360875" id="Fill-122" mask="url(#mask-17)"></path>
                        </g>
                        <g id="Group-131" transform="translate(890.000000, 173.000000)" stroke="#DF8200" stroke-linecap="round" stroke-linejoin="round" stroke-width="0.75">
                            <path d="M18.6075253,1.33504294 C18.6075253,1.33504294 16.824596,17.8436166 19.1084343,26.8887506" id="Stroke-125"></path>
                            <path d="M10.9307576,18.9956912 C10.9307576,18.9956912 0.855,2.46014587 3.09469697,0.371769885 C5.33439394,-1.71467956 8.14217172,6.79487463 8.14217172,6.79487463" id="Stroke-127"></path>
                            <path d="M9.17277778,30.3941012 C9.17277778,30.3941012 -0.263888889,22.6879168 0.37520202,18.9966544" id="Stroke-129"></path>
                        </g>
                        <g id="Group-134" transform="translate(968.000000, 185.000000)">
                            <mask id="mask-19" fill="white">
                                <use xlink:href="#path-18"></use>
                            </mask>
                            <g id="Clip-133"></g>
                            <path d="M38.0948148,0.333724638 C35.0441481,0.815608696 37.4515556,26.0335652 36.3268148,34.3875072 L36.3268148,34.3875072 C35.204,42.7395217 23.9681481,61.371087 23.0051852,71.1706812 L23.0051852,71.1706812 C22.0576296,80.8295652 7.47259259,86.2035362 0.876296296,87.4699275 L0.876296296,87.4699275 C21.5645926,83.6322029 41.4536296,84.9140145 43.550963,82.8149275 L43.550963,82.8149275 C45.7176296,80.6464493 42.5860741,80.1664928 42.5860741,80.1664928 L42.5860741,80.1664928 L47.4028148,28.602971 C51.012,31.0123913 51.7361481,27.6411304 51.7361481,27.6411304 L51.7361481,27.6411304 C48.0884444,19.7054638 41.3091852,0.326014493 38.2065185,0.324086957 L38.2065185,0.324086957 C38.168,0.324086957 38.1314074,0.327942029 38.0948148,0.333724638 M0.604740741,87.5200435 C0.693333333,87.5046232 0.783851852,87.4872754 0.876296296,87.4699275 L0.876296296,87.4699275 C0.785777778,87.4872754 0.695259259,87.5026957 0.604740741,87.5200435" id="Fill-132" mask="url(#mask-19)"></path>
                        </g>
                        <g id="Group-167" transform="translate(477.000000, 77.000000)">
                            <path d="M532.680978,109.704466 C527.162613,101.326856 526.679563,87.2834629 534.769686,77.4763322" id="Stroke-135" stroke="#DF8200" stroke-width="0.75" stroke-linecap="round" stroke-linejoin="round"></path>
                            <path d="M520.278376,91.3992423 C520.278376,91.3992423 520.867697,103.625711 528.604228,109.196579" id="Stroke-137" stroke="#DF8200" stroke-width="0.75" stroke-linecap="round" stroke-linejoin="round"></path>
                            <path d="M594.909621,195.156476 C594.909621,195.156476 597.444668,192.125041 602.518626,193.940028" id="Stroke-139" stroke="#F95656" stroke-width="0.723" stroke-linecap="round" stroke-linejoin="round"></path>
                            <line x1="539.600381" y1="487.27764" x2="576.928563" y2="487.27764" id="Stroke-141" stroke="#1A63B4" stroke-width="0.723"></line>
                            <line x1="452.475914" y1="487.27764" x2="418.355185" y2="487.27764" id="Stroke-143" stroke="#1A63B4" stroke-width="0.723"></line>
                            <path d="M374.325552,133.568152 L389.721326,133.787293 C391.365629,133.810288 392.546203,132.204499 392.032238,130.63745 L382.166422,100.46062 C381.747135,99.1802504 380.564628,98.3066545 379.217884,98.2872843 L363.82211,98.068152 C362.177808,98.0451568 361.001098,99.6528832 361.511199,101.219932 L371.378947,131.394825 C371.796302,132.677132 372.980741,133.548791 374.325552,133.568152" id="Fill-145" fill="#0050B7"></path>
                            <path d="M376.904847,102.868142 C377.196609,103.764982 378.160777,104.504924 379.055386,104.516546 C379.949995,104.528168 380.436909,103.811471 380.145147,102.914631 C379.84952,102.017791 378.887285,101.279786 377.992676,101.266227 C377.099999,101.254605 376.611152,101.971302 376.904847,102.868142" id="Fill-147" fill="#00337F"></path>
                            <path d="M370.077996,103.490507 L375.057277,103.562176 C375.45531,103.567987 375.673649,103.248379 375.542259,102.849353 C375.410869,102.450327 374.981921,102.121034 374.58582,102.11716 L369.604607,102.04549 C369.208506,102.039679 368.992099,102.359287 369.121557,102.758313 C369.251014,103.157339 369.679963,103.484696 370.077996,103.490507" id="Fill-149" fill="#00337F"></path>
                            <path d="M380.535258,148.632169 L378.448482,154.797703 L373.270184,131.107952 C373.270184,131.107952 375.04008,129.655187 375.685435,126.265403 C375.685435,126.265403 381.120715,121.996212 380.535258,120.98315 C379.951734,119.970089 374.07398,123.602001 373.270184,124.450415 C372.464457,125.296893 373.534896,121.664981 376.925908,118.517324 C380.314988,115.369667 380.798038,112.464138 380.073462,111.859788 C379.348887,111.2535 376.933637,114.885412 374.155132,117.548814 C371.37856,120.212216 370.290731,121.907109 370.290731,121.907109 C370.290731,121.907109 371.37856,116.702337 372.947507,114.643285 C374.518386,112.58617 377.536483,110.042863 376.692112,108.954258 C375.845808,107.863716 373.189032,110.407023 371.015306,113.432648 C368.841581,116.460209 367.755684,119.970089 367.755684,119.970089 C367.755684,119.970089 366.789584,115.853922 367.755684,113.55468 C368.721784,111.2535 371.015306,107.863716 369.44636,107.863716 C367.875481,107.863716 365.340434,112.948393 364.615858,115.249572 C363.891283,117.548814 362.078879,122.997651 365.46023,130.987857 C365.46023,130.987857 358.456003,174.36935 361.595829,197.297852 C364.451621,218.145995 386.312538,222.955614 395.892388,211.010014 C412.250398,190.615134 421.020656,156.953606 421.020656,156.953606 C421.020656,156.953606 392.350665,152.839376 380.535258,148.632169" id="Fill-151" fill="#F37F7F"></path>
                            <path d="M378.448482,154.797897 C378.448482,154.797897 382.206612,167.024365 384.459558,181.22853" id="Stroke-153" stroke="#F95656" stroke-width="0.723" stroke-linecap="round" stroke-linejoin="round"></path>
                            <path d="M379.225806,152.499623 C381.100041,154.080231 386.488948,157.940711 396.302594,159.786691 C405.188784,161.456402 411.624944,166.277644 417.411885,168.60013 C419.79622,161.652041 421.021235,156.952831 421.021235,156.952831 C421.021235,156.952831 392.351244,152.840538 380.535838,148.631394 L379.225806,152.499623 Z" id="Fill-155" fill="#F95656"></path>
                            <path d="M378.523838,207.830396 C378.523838,207.830396 383.234542,206.133567 387.589722,210.364018" id="Stroke-157" stroke="#F95656" stroke-width="0.723" stroke-linecap="round" stroke-linejoin="round"></path>
                        </g>
                        <g id="Group-205" transform="translate(409.000000, 4.000000)">
                            <path d="M0.0337023988,48.6743843 C0.0337023988,48.6743843 44.4402162,28.3683306 79.1931401,32.7196278 C113.946064,37.070925 102.361756,57.6806026 89.8120891,58.7365174 C77.2624221,59.7943661 66.1607937,26.4344207 117.8075,26.9178982 C169.454206,27.4013757 217.722156,33.6865828 276.126375,45.7735195 C334.530595,57.8604562 377.006391,40.4455978 384.246583,26.9120965 C391.486776,13.380529 380.867827,-0.64031756 363.974044,0.326637378 C347.080262,1.29359232 341.019738,12.4348471 344.178393,25.0400717 C349.976339,48.1909068 420.930225,40.1864539 441.444104,78.9980912" id="Stroke-195" stroke="#00337F" stroke-width="0.723"></path>
                            <polygon id="Fill-197" fill="#FFB821" points="432.680382 68.2175106 458.969038 103.343116 448.456278 44.5348502"></polygon>
                            <polygon id="Fill-199" fill="#FF8F2B" points="432.680382 68.2175106 458.969038 103.343116 406.391725 75.1370401"></polygon>
                        </g>
                        <g id="Group-210" transform="translate(662.000000, 324.000000)" fill="#0073EC">
                            <path d="M134.107624,91.2260971 L134.107624,71.4730047 C134.107624,65.705835 137.842965,60.6212861 143.3032,58.9498406 L162.464188,53.0851537 C164.133129,52.5761137 164.133129,50.1869412 162.464188,49.6779012 L143.301271,43.811264 C137.842965,42.1417688 134.107624,37.0572199 134.107624,31.2900502 L134.107624,11.5369578 C134.107624,5.16518124 128.998541,0.000668137931 122.697082,0.000668137931 L18.7056471,0.000668137931 C12.4041882,0.000668137931 7.29510588,5.16518124 7.29510588,11.5369578 L7.29510588,91.2260971 C7.29510588,97.5978737 12.4041882,102.760436 18.7056471,102.760436 L122.697082,102.760436 C128.998541,102.760436 134.107624,97.5978737 134.107624,91.2260971" id="Fill-208"></path>
                        </g>
                        <g id="Group-247" transform="translate(167.000000, 29.000000)" fill="#FFB821">
                            <path d="M914.905775,81.6234755 L807.992092,81.6234755 C806.210069,81.6234755 805.270738,79.5098596 806.469062,78.1871576 L820.65567,62.4984424 C822.317861,60.6632901 823.235932,58.2750781 823.235932,55.7998464 L823.235932,13.8040583 C823.235932,6.19658808 829.401501,0.0278463576 837.005059,0.0278463576 L914.905775,0.0278463576 C922.511266,0.0278463576 928.674902,6.19658808 928.674902,13.8040583 L928.674902,67.8472636 C928.674902,75.4566675 922.511266,81.6234755 914.905775,81.6234755" id="Fill-213"></path>
                        </g>
                        <g id="Group-335">
                            <mask id="mask-21" fill="white">
                                <use xlink:href="#path-20"></use>
                            </mask>
                            <g id="Clip-327"></g>
                            <path d="M1043.62689,66.4589548 C1039.45411,66.4589548 1036.07025,63.0715155 1036.07025,58.894319 C1036.07025,54.7171224 1039.45411,51.3296831 1043.62689,51.3296831 C1047.79968,51.3296831 1051.18354,54.7171224 1051.18354,58.894319 C1051.18354,63.0715155 1047.79968,66.4589548 1043.62689,66.4589548 M1039.85437,40.4027718 C1032.46208,41.8390461 1026.52582,47.8280388 1025.13361,55.2378202 C1023.98696,61.3371466 1025.78137,67.0299803 1029.3354,71.1703989 C1030.03731,71.98532 1030.75082,72.7963698 1031.33671,73.6983965 C1037.68483,83.4735784 1041.1209,93.8372069 1042.64267,99.3306656 C1042.91918,100.325605 1044.3346,100.325605 1044.61111,99.3306656 C1046.13288,93.8391426 1049.56702,83.4813211 1055.91321,73.7100106 C1056.50103,72.8002411 1057.22228,71.9833844 1057.92806,71.1607205 C1060.7531,67.8642582 1062.4663,63.5805993 1062.4663,58.894319 C1062.4663,47.2453992 1051.91252,38.0625352 1039.85437,40.4027718" id="Fill-330" fill="#F95656" mask="url(#mask-21)"></path>
                        </g>
                    </g>
                </g>
            </g>
        </g>
    </g>
</svg>