<?xml version="1.0" encoding="UTF-8"?>
<svg width="417px" height="600px" viewBox="0 0 417 600" version="1.1" xmlns="http://www.w3.org/2000/svg" xmlns:xlink="http://www.w3.org/1999/xlink">
    <!-- Generator: Sketch 64 (93537) - https://sketch.com -->
    <title>Group 336</title>
    <desc>Created with Sketch.</desc>
    <defs>
        <path d="M204.922769,151.786448 C16.8148899,186.495539 65.7996652,396.717088 65.7996652,396.717088 L65.7996652,396.717088 C13.6282594,413.301094 0.0560754148,455.138636 0,494.048906 L0,494.048906 L0,494.542593 C0.0599426848,536.20202 15.5135535,574.361111 15.5135535,574.361111 L15.5135535,574.361111 L1281.19948,574.361111 C1281.29036,571.342845 1281.34256,568.380724 1281.34256,565.451515 L1281.34256,565.451515 L1281.34256,564.289899 C1281.03898,407.165825 1160.04371,377.852441 1160.04371,377.852441 L1160.04371,377.852441 C1169.26135,171.365488 908.220621,159.919697 908.220621,159.919697 L908.220621,159.919697 C838.000667,7.58728956 660.071442,67.0349327 660.071442,67.0349327 L660.071442,67.0349327 C575.614133,18.2741582 504.531777,0.162625642 445.4979,0.162625642 L445.4979,0.162625642 C274.734727,0.174242424 204.922769,151.786448 204.922769,151.786448" id="path-1"></path>
        <linearGradient x1="50.0000348%" y1="81.8563193%" x2="50.0000348%" y2="-31.227562%" id="linearGradient-3">
            <stop stop-color="#7EB2FF" offset="0%"></stop>
            <stop stop-color="#FFFFFF" offset="100%"></stop>
        </linearGradient>
        <path d="M38.9058333,0.286529943 C17.7308333,2.05604594 22.7086111,49.0082363 15.1466667,58.3088433 L15.1466667,58.3088433 C7.58277778,67.6113864 11.5863889,75.1405414 8.33138889,96.6670714 L8.33138889,96.6670714 C5.07833333,118.189729 -0.893055556,108.378015 0.213333333,128.498999 L0.213333333,128.498999 C1.32166667,148.618048 6.69222222,176.574077 38.9058333,176.574077 L38.9058333,176.574077 C71.1136111,176.574077 75.6480556,139.365841 75.6480556,121.033733 L75.6480556,121.033733 C75.6480556,102.701624 66.7502778,104.37434 68.9727778,82.6696965 L68.9727778,82.6696965 C71.1972222,60.9669893 61.4108333,60.0802953 60.9655556,43.2485972 L60.9655556,43.2485972 C60.5338889,26.9299426 60.0361111,0.205217391 40.7725,0.207153404 L40.7725,0.207153404 C40.1697222,0.207153404 39.5455556,0.232321575 38.9058333,0.286529943" id="path-4"></path>
        <path d="M54.8913185,0.447599715 C38.4791386,0.79902849 34.4943439,27.2455 32.2528969,40.3221453 L32.2528969,40.3221453 C30.0133806,53.396849 29.1774232,75.1485427 14.1166756,83.2061638 L14.1166756,83.2061638 C-0.940210751,91.2637849 6.1683231,126.866821 8.63372173,137.432983 L8.63372173,137.432983 C11.0991203,148.001087 14.2904312,163.390172 5.0910385,172.606926 L5.0910385,172.606926 C-4.1122154,181.825621 1.80126618,193.673236 7.00041927,210.514635 L7.00041927,210.514635 C12.1976417,227.354093 2.90751004,263.605621 57.043957,260.846614 L57.043957,260.846614 C111.178473,258.087607 85.5263579,225.631897 96.8011644,208.759433 L96.8011644,208.759433 C108.07211,191.886969 108.971778,172.17395 101.509941,164.291073 L101.509941,164.291073 C94.0500344,156.408195 95.5964591,136.889336 98.3398666,115.364809 L98.3398666,115.364809 C101.085205,93.8402821 89.6578795,86.1612721 83.0957104,67.3996353 L83.0957104,67.3996353 C76.5682924,48.7409031 79.846481,0.443716524 55.2967481,0.443716524 L55.2967481,0.443716524 C55.1635355,0.443716524 55.0283923,0.443716524 54.8913185,0.447599715" id="path-6"></path>
        <path d="M448.725913,53.4092553 C431.965665,59.217766 400.414005,58.8382766 380.39106,101.666362 L380.39106,101.666362 C374.588989,114.077213 348.851005,104.942362 332.040472,138.602681 L332.040472,138.602681 C328.172425,146.347362 307.544131,141.506936 296.584019,155.22083 L296.584019,155.22083 C285.623908,168.934723 291.425979,202.908702 284.335849,208.511979 L284.335849,208.511979 C277.452659,213.948745 271.768564,220.185149 268.500064,245.916851 L268.500064,245.916851 C269.194378,238.598128 269.811332,216.581936 253.391472,208.511979 L253.391472,208.511979 C253.391472,208.511979 252.074402,170.710191 236.534524,167.805936 L236.534524,167.805936 C220.996579,164.901681 220.996579,180.875085 213.258551,186.683596 L213.258551,186.683596 C205.524391,192.492106 191.500786,188.135723 184.731704,204.109128 L184.731704,204.109128 C177.962622,220.082532 182.79768,225.891043 173.611069,233.151681 L173.611069,233.151681 C164.426391,240.412319 162.973939,242.563404 160.55641,254.315957 L160.55641,254.315957 C160.152199,256.286979 159.908512,257.53 159.780867,258.258 L159.780867,258.258 C157.005543,263.189426 140.077035,264.56217 136.38305,313.018702 L136.38305,313.018702 C136.38305,313.018702 129.677791,279.180255 113.172834,278.651681 L113.172834,278.651681 C107.140615,278.46 102.481552,279.311915 98.7392167,280.165766 L98.7392167,280.165766 C92.2428317,281.646936 88.5043643,283.128106 85.1294933,279.135723 L85.1294933,279.135723 C79.8128626,272.84317 83.6809097,252.513383 71.1097569,251.545298 L71.1097569,251.545298 C58.53667,250.577213 58.0550982,280.911191 48.8684865,296.720021 L48.8684865,296.720021 C39.6818749,312.53466 -0.932618771,333.636979 0.032458959,363.746362 L0.032458959,363.746362 L1122.7344,363.746362 C1122.7344,363.746362 1123.5512,327.880745 1084.05263,313.502745 L1084.05263,313.502745 C1073.41744,309.630404 1071.48342,293.172957 1048.2732,280.587851 L1048.2732,280.587851 C1025.06492,268.002745 1010.56168,277.083383 997.990523,257.535809 L997.990523,257.535809 C985.417436,237.992106 957.374095,227.34317 933.198801,229.27934 L933.198801,229.27934 C909.023507,231.215511 894.518331,238.960191 869.377959,215.726149 L869.377959,215.726149 C844.23372,192.492106 856.766192,179.084128 816.190379,173.062638 L816.190379,173.062638 C768.808737,166.030468 757.527578,151.187787 747.534478,139.247426 L747.534478,139.247426 C737.96493,127.81434 734.338636,98.7446809 687.79636,95.6835957 L687.79636,95.6835957 C673.074573,94.7155106 658.890445,93.4240851 629.880092,81.809 L629.880092,81.809 C600.871674,70.1900426 591.843652,35.3389787 568.637304,32.7580638 L568.637304,32.7580638 C545.429022,30.1771489 528.02281,48.2474255 528.02281,48.2474255 L528.02281,48.2474255 C528.02281,48.2474255 522.218806,1.78321277 496.43247,0.168446809 L496.43247,0.168446809 C496.014721,0.141340426 495.602774,0.129723404 495.196629,0.129723404 L495.196629,0.129723404 C470.475941,0.129723404 465.215397,47.695617 448.725913,53.4092553" id="path-8"></path>
        <path d="M0.221006977,31.6465731 L25.1556791,130.67633 L25.1556791,130.678268 C24.7117093,135.646913 27.3129419,140.369355 31.7135233,142.790672 L31.7135233,142.790672 C40.9136721,147.850431 50.6516698,156.039098 57.9840163,162.853295 L57.9840163,162.853295 C57.0041535,146.280161 55.9871302,127.696694 54.9779302,107.081569 L54.9779302,107.081569 L54.9759744,107.07963 C22.1065651,80.7475593 12.6326023,0.144242687 9.18450233,0.144242687 L9.18450233,0.144242687 C5.59753953,0.144242687 4.62158837,13.0689219 0.221006977,31.6465731" id="path-10"></path>
        <path d="M7.04494875,0.159768519 C7.04494875,0.159768519 3.67065655,5.41709259 0.664398521,13.8585093 L0.664398521,13.8585093 C9.42167466,16.0633148 32.9894204,21.8337778 42.4672687,22.5066852 L42.4672687,22.5066852 C50.091387,23.0498981 61.7251407,26.7922407 70.6180084,28.8447963 L70.6180084,28.8447963 C68.8301372,21.7172407 67.6911683,17.9993333 67.6911683,17.9993333 L67.6911683,17.9993333 L67.6911683,0.159768519 L7.04494875,0.159768519 Z" id="path-12"></path>
        <polygon id="path-14" points="0 697 1281.34256 697 1281.34256 -0.00144251282 0 -0.00144251282"></polygon>
    </defs>
    <g id="Page-1" stroke="none" stroke-width="1" fill="none" fill-rule="evenodd" opacity="0.49983724">
        <g id="Web" transform="translate(-1503.000000, -5406.000000)">
            <g id="get-in-touch" transform="translate(0.000000, 5142.000000)">
                <g id="Group-336-+-Group-336-Mask">
                    <g id="Group-336" transform="translate(1503.000000, 250.000000)">
                        <g id="Group-3" transform="translate(0.000000, 13.000000)">
                            <mask id="mask-2" fill="white">
                                <use xlink:href="#path-1"></use>
                            </mask>
                            <g id="Clip-2"></g>
                            <path d="M204.922769,151.786448 C16.8148899,186.495539 65.7996652,396.717088 65.7996652,396.717088 L65.7996652,396.717088 C13.6282594,413.301094 0.0560754148,455.138636 0,494.048906 L0,494.048906 L0,494.542593 C0.0599426848,536.20202 15.5135535,574.361111 15.5135535,574.361111 L15.5135535,574.361111 L1281.19948,574.361111 C1281.29036,571.342845 1281.34256,568.380724 1281.34256,565.451515 L1281.34256,565.451515 L1281.34256,564.289899 C1281.03898,407.165825 1160.04371,377.852441 1160.04371,377.852441 L1160.04371,377.852441 C1169.26135,171.365488 908.220621,159.919697 908.220621,159.919697 L908.220621,159.919697 C838.000667,7.58728956 660.071442,67.0349327 660.071442,67.0349327 L660.071442,67.0349327 C575.614133,18.2741582 504.531777,0.162625642 445.4979,0.162625642 L445.4979,0.162625642 C274.734727,0.174242424 204.922769,151.786448 204.922769,151.786448" id="Fill-1" fill="url(#linearGradient-3)" mask="url(#mask-2)"></path>
                        </g>
                        <g id="Group-34" transform="translate(345.000000, 170.000000)">
                            <mask id="mask-5" fill="white">
                                <use xlink:href="#path-4"></use>
                            </mask>
                            <g id="Clip-33"></g>
                            <path d="M38.9058333,0.286529943 C17.7308333,2.05604594 22.7086111,49.0082363 15.1466667,58.3088433 L15.1466667,58.3088433 C7.58277778,67.6113864 11.5863889,75.1405414 8.33138889,96.6670714 L8.33138889,96.6670714 C5.07833333,118.189729 -0.893055556,108.378015 0.213333333,128.498999 L0.213333333,128.498999 C1.32166667,148.618048 6.69222222,176.574077 38.9058333,176.574077 L38.9058333,176.574077 C71.1136111,176.574077 75.6480556,139.365841 75.6480556,121.033733 L75.6480556,121.033733 C75.6480556,102.701624 66.7502778,104.37434 68.9727778,82.6696965 L68.9727778,82.6696965 C71.1972222,60.9669893 61.4108333,60.0802953 60.9655556,43.2485972 L60.9655556,43.2485972 C60.5338889,26.9299426 60.0361111,0.205217391 40.7725,0.207153404 L40.7725,0.207153404 C40.1697222,0.207153404 39.5455556,0.232321575 38.9058333,0.286529943" id="Fill-32" mask="url(#mask-5)"></path>
                        </g>
                        <g id="Group-45" transform="translate(359.000000, 210.000000)" stroke="#00337F" stroke-width="0.8">
                            <line x1="25.8164074" y1="0.0569309356" x2="25.8164074" y2="212.796112" id="Stroke-35"></line>
                            <line x1="38.9984568" y1="8.12648828" x2="25.8171811" y2="36.4252788" id="Stroke-37"></line>
                            <path d="M4.42541152,24.1351867 C4.42541152,24.1351867 9.73273663,46.6078125 25.8171811,57.480353" id="Stroke-39"></path>
                            <path d="M49.8780864,59.4029293 C49.8780864,59.4029293 45.7563992,83.5899298 25.8171811,98.5858701" id="Stroke-41"></path>
                            <path d="M0.0735596708,79.2362697 C0.0735596708,79.2362697 12.3922016,109.71189 25.8171811,119.62856" id="Stroke-43"></path>
                        </g>
                        <g id="Group-48" transform="translate(110.000000, 208.000000)">
                            <mask id="mask-7" fill="white">
                                <use xlink:href="#path-6"></use>
                            </mask>
                            <g id="Clip-47"></g>
                            <path d="M54.8913185,0.447599715 C38.4791386,0.79902849 34.4943439,27.2455 32.2528969,40.3221453 L32.2528969,40.3221453 C30.0133806,53.396849 29.1774232,75.1485427 14.1166756,83.2061638 L14.1166756,83.2061638 C-0.940210751,91.2637849 6.1683231,126.866821 8.63372173,137.432983 L8.63372173,137.432983 C11.0991203,148.001087 14.2904312,163.390172 5.0910385,172.606926 L5.0910385,172.606926 C-4.1122154,181.825621 1.80126618,193.673236 7.00041927,210.514635 L7.00041927,210.514635 C12.1976417,227.354093 2.90751004,263.605621 57.043957,260.846614 L57.043957,260.846614 C111.178473,258.087607 85.5263579,225.631897 96.8011644,208.759433 L96.8011644,208.759433 C108.07211,191.886969 108.971778,172.17395 101.509941,164.291073 L101.509941,164.291073 C94.0500344,156.408195 95.5964591,136.889336 98.3398666,115.364809 L98.3398666,115.364809 C101.085205,93.8402821 89.6578795,86.1612721 83.0957104,67.3996353 L83.0957104,67.3996353 C76.5682924,48.7409031 79.846481,0.443716524 55.2967481,0.443716524 L55.2967481,0.443716524 C55.1635355,0.443716524 55.0283923,0.443716524 54.8913185,0.447599715" id="Fill-46" mask="url(#mask-7)"></path>
                        </g>
                        <g id="Group-81" transform="translate(78.000000, 146.000000)">
                            <line x1="90.2767949" y1="86.0744461" x2="90.2767949" y2="436.340256" id="Stroke-49" stroke="#00337F"></line>
                            <path d="M73.9888824,97.9966161 C73.9888824,97.9966161 78.5035194,110.477598 90.2767949,128.357277" id="Stroke-51" stroke="#00337F"></path>
                            <path d="M114.626421,150.103026 C114.626421,150.103026 101.72497,175.780178 90.2767949,187.344948" id="Stroke-53" stroke="#00337F"></path>
                            <line x1="105.434597" y1="147.203619" x2="107.023331" y2="163.91387" id="Stroke-55" stroke="#00337F"></line>
                            <path d="M44.478289,168.724374 C44.478289,168.724374 57.2171897,201.32531 90.2767949,239.984076" id="Stroke-57" stroke="#00337F"></path>
                            <line x1="62.8619373" y1="168.724374" x2="57.5809925" y2="194.368666" id="Stroke-59" stroke="#00337F"></line>
                            <path d="M125.753366,228.870261 C125.753366,228.870261 107.046552,258.053762 90.2767949,271.489616" id="Stroke-61" stroke="#00337F"></path>
                            <path d="M31.6863659,327.261264 C23.3034222,332.779803 19.9672738,337.254555 15.8512717,348.496524 C11.7352696,337.254555 8.39912118,332.779803 0.0161775152,327.261264 C8.39912118,321.742725 11.7352696,317.267973 15.8512717,306.027937 C19.9672738,317.267973 23.3034222,321.742725 31.6863659,327.261264" id="Fill-63" fill="#F0A900"></path>
                            <path d="M268.227609,206.065648 C264.036137,208.825884 262.368063,211.062294 260.311029,216.683278 C258.25206,211.062294 256.583986,208.825884 252.392514,206.065648 C256.583986,203.305412 258.25206,201.069003 260.311029,195.449951 C262.368063,201.069003 264.036137,203.305412 268.227609,206.065648" id="Fill-69" fill="#F0A900"></path>
                        </g>
                        <g id="Group-84" transform="translate(78.000000, 237.000000)">
                            <mask id="mask-9" fill="white">
                                <use xlink:href="#path-8"></use>
                            </mask>
                            <g id="Clip-83"></g>
                            <path d="M448.725913,53.4092553 C431.965665,59.217766 400.414005,58.8382766 380.39106,101.666362 L380.39106,101.666362 C374.588989,114.077213 348.851005,104.942362 332.040472,138.602681 L332.040472,138.602681 C328.172425,146.347362 307.544131,141.506936 296.584019,155.22083 L296.584019,155.22083 C285.623908,168.934723 291.425979,202.908702 284.335849,208.511979 L284.335849,208.511979 C277.452659,213.948745 271.768564,220.185149 268.500064,245.916851 L268.500064,245.916851 C269.194378,238.598128 269.811332,216.581936 253.391472,208.511979 L253.391472,208.511979 C253.391472,208.511979 252.074402,170.710191 236.534524,167.805936 L236.534524,167.805936 C220.996579,164.901681 220.996579,180.875085 213.258551,186.683596 L213.258551,186.683596 C205.524391,192.492106 191.500786,188.135723 184.731704,204.109128 L184.731704,204.109128 C177.962622,220.082532 182.79768,225.891043 173.611069,233.151681 L173.611069,233.151681 C164.426391,240.412319 162.973939,242.563404 160.55641,254.315957 L160.55641,254.315957 C160.152199,256.286979 159.908512,257.53 159.780867,258.258 L159.780867,258.258 C157.005543,263.189426 140.077035,264.56217 136.38305,313.018702 L136.38305,313.018702 C136.38305,313.018702 129.677791,279.180255 113.172834,278.651681 L113.172834,278.651681 C107.140615,278.46 102.481552,279.311915 98.7392167,280.165766 L98.7392167,280.165766 C92.2428317,281.646936 88.5043643,283.128106 85.1294933,279.135723 L85.1294933,279.135723 C79.8128626,272.84317 83.6809097,252.513383 71.1097569,251.545298 L71.1097569,251.545298 C58.53667,250.577213 58.0550982,280.911191 48.8684865,296.720021 L48.8684865,296.720021 C39.6818749,312.53466 -0.932618771,333.636979 0.032458959,363.746362 L0.032458959,363.746362 L1122.7344,363.746362 C1122.7344,363.746362 1123.5512,327.880745 1084.05263,313.502745 L1084.05263,313.502745 C1073.41744,309.630404 1071.48342,293.172957 1048.2732,280.587851 L1048.2732,280.587851 C1025.06492,268.002745 1010.56168,277.083383 997.990523,257.535809 L997.990523,257.535809 C985.417436,237.992106 957.374095,227.34317 933.198801,229.27934 L933.198801,229.27934 C909.023507,231.215511 894.518331,238.960191 869.377959,215.726149 L869.377959,215.726149 C844.23372,192.492106 856.766192,179.084128 816.190379,173.062638 L816.190379,173.062638 C768.808737,166.030468 757.527578,151.187787 747.534478,139.247426 L747.534478,139.247426 C737.96493,127.81434 734.338636,98.7446809 687.79636,95.6835957 L687.79636,95.6835957 C673.074573,94.7155106 658.890445,93.4240851 629.880092,81.809 L629.880092,81.809 C600.871674,70.1900426 591.843652,35.3389787 568.637304,32.7580638 L568.637304,32.7580638 C545.429022,30.1771489 528.02281,48.2474255 528.02281,48.2474255 L528.02281,48.2474255 C528.02281,48.2474255 522.218806,1.78321277 496.43247,0.168446809 L496.43247,0.168446809 C496.014721,0.141340426 495.602774,0.129723404 495.196629,0.129723404 L495.196629,0.129723404 C470.475941,0.129723404 465.215397,47.695617 448.725913,53.4092553" id="Fill-82" mask="url(#mask-9)"></path>
                        </g>
                        <g id="Group-205" transform="translate(409.000000, 4.000000)" stroke="#00337F" stroke-width="0.723">
                            <path d="M0.0337023988,48.6743843 C0.0337023988,48.6743843 44.4402162,28.3683306 79.1931401,32.7196278 C113.946064,37.070925 102.361756,57.6806026 89.8120891,58.7365174 C77.2624221,59.7943661 66.1607937,26.4344207 117.8075,26.9178982 C169.454206,27.4013757 217.722156,33.6865828 276.126375,45.7735195 C334.530595,57.8604562 377.006391,40.4455978 384.246583,26.9120965 C391.486776,13.380529 380.867827,-0.64031756 363.974044,0.326637378 C347.080262,1.29359232 341.019738,12.4348471 344.178393,25.0400717 C349.976339,48.1909068 420.930225,40.1864539 441.444104,78.9980912" id="Stroke-195"></path>
                        </g>
                        <g id="Group-247" transform="translate(167.000000, 29.000000)">
                            <path d="M242.049051,81.6234755 L138.989333,81.6234755 C137.340671,81.6234755 136.472853,79.6684291 137.580336,78.4462834 L150.694251,63.9468397 C152.228879,62.2489854 153.077369,60.0425483 153.077369,57.7548927 L153.077369,18.9401642 C153.077369,11.9089589 158.777139,6.20625695 165.804729,6.20625695 L242.049051,6.20625695 C249.078573,6.20625695 254.77641,11.9089589 254.77641,18.9401642 L254.77641,68.891502 C254.77641,75.9227073 249.078573,81.6234755 242.049051,81.6234755" id="Fill-211" fill="#0073EC"></path>
                            <path d="M230.513637,43.9158331 C230.513637,57.3787735 219.605025,68.2929987 206.149007,68.2929987 C192.69299,68.2929987 181.784377,57.3787735 181.784377,43.9158331 C181.784377,30.4528927 192.69299,19.5386675 206.149007,19.5386675 C219.605025,19.5386675 230.513637,30.4528927 230.513637,43.9158331" id="Fill-215" fill="#FFB821"></path>
                            <path d="M202.639271,33.7258066 C200.820525,33.1688795 199.463713,34.6520848 199.463713,34.6520848 C199.463713,34.6520848 198.106901,33.1688795 196.288155,33.7258066 C194.467476,34.2827338 194.336047,36.5123762 195.402941,38.0555285 C196.512357,39.6547603 197.828581,40.5442967 199.463713,41.4396344 C201.096913,40.5442967 202.415069,39.6547603 203.524485,38.0555285 C204.59138,36.5123762 204.458018,34.2827338 202.639271,33.7258066" id="Fill-217" fill="#F95656"></path>
                            <path d="M216.00928,33.7258066 C214.190534,33.1688795 212.833722,34.6520848 212.833722,34.6520848 C212.833722,34.6520848 211.47691,33.1688795 209.658163,33.7258066 C207.837484,34.2827338 207.706055,36.5123762 208.77295,38.0555285 C209.882366,39.6547603 211.198589,40.5442967 212.833722,41.4396344 C214.466921,40.5442967 215.785077,39.6547603 216.892561,38.0555285 C217.961388,36.5123762 217.828026,34.2827338 216.00928,33.7258066" id="Fill-219" fill="#F95656"></path>
                            <path d="M190.590705,46.9356159 C192.146593,54.1041192 198.517037,59.4761457 206.147654,59.4761457 C213.780204,59.4761457 220.148716,54.1041192 221.706537,46.9356159 L190.590705,46.9356159 Z" id="Fill-221" fill="#FFFFFF"></path>
                            <path d="M121.660797,220.615475 L121.660797,238.968932 C121.660797,238.968932 140.099522,300.923211 145.176936,405.436005 C150.256283,509.946866 155.484454,562.514601 155.484454,562.514601 C155.484454,562.514601 163.53835,570.064058 171.511069,571.272668 C179.483789,572.481277 182.141362,574.415052 177.551008,577.073992 C172.960655,579.732932 157.498411,578.282601 152.908058,577.073992 C148.317704,575.865383 141.552973,577.315714 141.79457,573.931608 C142.036168,570.547502 143.485753,561.845515 143.485753,561.845515 C143.485753,561.845515 131.361422,527.118787 124.882742,507.216376 C112.157315,468.138654 115.702035,428.819211 115.702035,428.819211 L91.0590842,330.034257 C91.0590842,330.034257 64.9665485,429.865383 56.9938292,456.454787 C49.02111,483.044191 18.3382207,569.822336 18.3382207,569.822336 C18.3382207,569.822336 31.142891,576.83227 34.5252568,577.073992 C37.9076225,577.315714 42.9811711,579.249489 41.5315858,582.150151 C40.0820005,585.050813 20.2710011,583.117038 15.1974525,582.150151 C10.1239039,581.183264 0.460001741,579.491211 0.460001741,579.491211 C0.460001741,579.491211 0.943196848,571.514389 5.77514791,565.954787 C5.77514791,565.954787 8.432721,459.113727 34.5252568,421.405118 C34.5252568,421.405118 53.3563364,286.943952 50.9538904,271.054125 C46.8003452,243.606125 61.1473743,220.615475 61.1473743,220.615475 L121.660797,220.615475 Z" id="Fill-243" fill="#F37F7F"></path>
                            <path d="M145.177903,405.435425 C140.098556,300.924564 121.661763,238.968352 121.661763,238.968352 L121.661763,220.614895 L61.146408,220.614895 C61.146408,220.614895 46.8013116,243.605544 50.952924,271.055478 C53.3573028,286.945306 34.5242904,421.406472 34.5242904,421.406472 C23.2909705,437.640511 11.439161,466.691611 6.28830112,494.512829 C5.44367607,499.076538 9.01158874,503.268962 13.6502618,503.268962 L41.5132244,503.268962 C47.9783749,484.387584 54.0415071,466.299054 56.9928628,456.45614 C64.9655821,429.866736 91.0581178,330.035611 91.0581178,330.035611 L115.701068,428.81863 C115.701068,428.81863 108.464738,460.602154 116.526366,495.41977 C117.585529,499.998948 121.630839,503.268962 126.329428,503.268962 L150.821621,503.268962 C149.12464,478.429624 147.141607,445.831981 145.177903,405.435425" id="Fill-245" fill="#006BDD"></path>
                        </g>
                        <g id="Group-250" transform="translate(256.000000, 329.000000)">
                            <mask id="mask-11" fill="white">
                                <use xlink:href="#path-10"></use>
                            </mask>
                            <g id="Clip-249"></g>
                            <path d="M0.221006977,31.6465731 L25.1556791,130.67633 L25.1556791,130.678268 C24.7117093,135.646913 27.3129419,140.369355 31.7135233,142.790672 L31.7135233,142.790672 C40.9136721,147.850431 50.6516698,156.039098 57.9840163,162.853295 L57.9840163,162.853295 C57.0041535,146.280161 55.9871302,127.696694 54.9779302,107.081569 L54.9779302,107.081569 L54.9759744,107.07963 C22.1065651,80.7475593 12.6326023,0.144242687 9.18450233,0.144242687 L9.18450233,0.144242687 C5.59753953,0.144242687 4.62158837,13.0689219 0.221006977,31.6465731" id="Fill-248" mask="url(#mask-11)"></path>
                        </g>
                        <path d="M259,362 C259,362 267.065101,314.868242 270,302" id="Stroke-251" stroke="#004493" stroke-width="0.723" stroke-linecap="round" stroke-linejoin="round"></path>
                        <g id="Group-255" transform="translate(220.000000, 250.000000)">
                            <mask id="mask-13" fill="white">
                                <use xlink:href="#path-12"></use>
                            </mask>
                            <g id="Clip-254"></g>
                            <path d="M7.04494875,0.159768519 C7.04494875,0.159768519 3.67065655,5.41709259 0.664398521,13.8585093 L0.664398521,13.8585093 C9.42167466,16.0633148 32.9894204,21.8337778 42.4672687,22.5066852 L42.4672687,22.5066852 C50.091387,23.0498981 61.7251407,26.7922407 70.6180084,28.8447963 L70.6180084,28.8447963 C68.8301372,21.7172407 67.6911683,17.9993333 67.6911683,17.9993333 L67.6911683,17.9993333 L67.6911683,0.159768519 L7.04494875,0.159768519 Z" id="Fill-253" mask="url(#mask-13)"></path>
                        </g>
                        <g id="Group-335">
                            <path d="M286.274661,158.84507 C286.274661,158.84507 297.675373,159.530301 304.56298,170.015877 C310.294275,178.741921 327.000881,232.520907 327.000881,232.520907 C327.000881,232.520907 373.046531,182.001605 373.893463,178.830962 C374.738462,175.662255 376.310507,165.257977 377.03562,160.29683 C377.760733,155.337619 378.244142,152.554112 379.694368,152.916084 C381.144594,153.279991 379.694368,163.806217 381.022775,164.774057 C382.353116,165.741897 386.82368,151.828232 388.757315,152.190204 C390.69095,152.554112 384.286751,165.136029 386.098567,166.103869 C387.912317,167.071709 392.382881,159.08703 393.591403,159.932922 C394.799925,160.78075 387.307089,167.917601 388.63743,169.1274 C389.965837,170.3372 394.316516,164.410149 394.438335,166.949761 C394.55822,169.491308 388.515611,172.03092 387.187204,174.936375 C385.856863,177.839894 385.978682,180.137546 381.869707,182.195173 C381.869707,182.195173 354.798817,263.24982 325.067246,263.24982 C295.337608,263.24982 278.420235,191.387716 278.420235,191.387716 L286.274661,158.84507 Z" id="Fill-256" fill="#F37F7F"></path>
                            <path d="M377.39721,171.789928 C377.39721,171.789928 383.561638,166.344861 384.528456,168.524436 C385.493339,170.702076 380.055958,172.1519 379.572549,174.571499 C379.08914,176.993034 380.539367,178.322846 377.39721,180.620498" id="Stroke-258" stroke="#F95656" stroke-width="0.723" stroke-linecap="round" stroke-linejoin="round"></path>
                            <path d="M317.847246,217.551522 C319.773147,215.058367 320.34937,211.79094 319.355481,208.800315 C314.171406,193.198737 307.711132,174.809781 304.563174,170.015103 C297.675566,159.529527 286.274854,158.844296 286.274854,158.844296 L278.418495,191.388877 C278.418495,191.388877 285.24616,220.33503 297.83219,241.4862 C299.671077,237.152214 302.608269,231.87168 306.860332,228.892669 C310.721801,226.186589 314.722492,221.599028 317.847246,217.551522" id="Fill-260" fill="#F95656"></path>
                            <path d="M327.001848,232.521875 C327.001848,232.521875 323.295069,235.675097 321.844843,240.429126" id="Stroke-262" stroke="#F95656" stroke-width="0.723" stroke-linecap="round" stroke-linejoin="round"></path>
                            <path d="M288.208296,106.097801 C289.294998,110.49373 285.431596,115.305829 286.032956,120.009531 C286.355873,122.5414 287.340094,126.172734 286.717463,131.261636 C286.230187,135.254943 282.285572,140.576126 275.761487,140.456114 L275.761487,154.319451 C275.761487,155.533123 276.641291,156.56484 277.838211,156.754536 L279.628757,157.037146 C279.992281,157.095216 280.189511,157.490095 280.005816,157.809482 C278.814697,159.878723 274.417611,166.103869 264.641152,166.103869 C252.919457,166.103869 245.668326,155.819603 245.668326,155.819603 L249.057988,154.915641 C250.299382,154.58464 251.219792,153.539373 251.391885,152.267631 L253.524685,136.584755 C253.524685,136.584755 250.019005,122.620762 250.502413,113.573396 C250.985822,104.52603 257.51184,95.4515637 268.750127,96.6613635 C279.990347,97.8711632 288.208296,106.097801 288.208296,106.097801" id="Fill-264" fill="#F37F7F"></path>
                            <path d="M261.862519,133.318296 C258.842181,129.810844 255.939795,134.890068 261.862519,138.883375 C267.243825,142.512774 269.34762,149.305073 275.759554,147.251317 L275.759554,140.457082 C268.871946,140.335134 264.882857,136.825747 261.862519,133.318296" id="Fill-266" fill="#F95656"></path>
                            <path d="M277.694155,157.87723 C277.694155,157.87723 277.332566,155.215671 279.505971,155.337619 C280.768635,155.407303 283.247555,155.821539 285.107712,156.158347 C286.575341,156.423535 287.78773,157.430089 288.317546,158.823778 C290.081021,163.461666 294.263474,174.187267 297.152324,179.411666 C300.897775,186.186544 307.665498,198.888474 302.953229,214.011939 C298.239027,229.133468 288.570852,239.901653 290.382668,248.490263 C292.196418,257.080809 287.72392,254.781222 281.197902,255.265142 C274.673817,255.749062 232.617256,256.474942 225.244306,255.991022 C217.87329,255.507102 224.641012,187.034372 224.641012,187.034372 C224.641012,187.034372 230.091929,169.224184 229.678131,160.949154 C229.596919,159.294148 230.625612,157.795932 232.168653,157.192 C235.964379,155.707334 242.244825,153.355483 243.493953,153.521951 C245.305769,153.763911 247.670605,155.577643 250.984855,159.449002 C254.301039,163.322297 273.463362,165.016017 277.694155,157.87723" id="Fill-268" fill="#00337F"></path>
                            <path d="M317.750951,207.858026 L302.484903,208.075121 C300.618945,208.101922 299.28087,206.282383 299.862894,204.505429 L309.693494,174.484974 C310.055084,173.379701 311.076043,172.626722 312.236224,172.611236 L327.504206,172.394141 C329.370164,172.367341 330.708239,174.18688 330.126215,175.961898 L320.295615,205.984288 C319.934025,207.089561 318.913066,207.842541 317.750951,207.858026" id="Fill-270" fill="#0073EC"></path>
                            <path d="M314.861907,177.183892 C314.567995,178.080112 313.605044,178.817606 312.709771,178.831156 C311.814498,178.84277 311.325289,178.126568 311.619201,177.228413 C311.913114,176.332193 312.877998,175.594699 313.773271,175.583085 C314.668544,175.569536 315.15582,176.287673 314.861907,177.183892" id="Fill-272" fill="#00337F"></path>
                            <path d="M321.693826,177.805826 L316.710849,177.875511 C316.31252,177.881318 316.094019,177.563866 316.225506,177.163181 C316.356994,176.766366 316.784327,176.437301 317.182656,176.433429 L322.167567,176.361809 C322.563962,176.356002 322.780529,176.675389 322.650976,177.074139 C322.519488,177.472889 322.092155,177.800019 321.693826,177.805826" id="Fill-274" fill="#00337F"></path>
                            <path d="M309.840837,591.590439 C309.840837,591.590439 308.390611,600.300997 308.148906,603.688436 C307.907202,607.075875 314.674925,605.624116 319.267308,606.833915 C323.859691,608.043715 339.328771,609.495475 343.921154,606.833915 C348.513537,604.172356 345.854789,602.236676 337.878544,601.026877 C329.9023,599.817077 321.844843,592.260184 321.844843,592.260184 C314.640119,599.286701 309.840837,591.590439 309.840837,591.590439" id="Fill-276" fill="#00337F"></path>
                            <path d="M181.495814,611.915074 C186.571606,612.882914 206.391365,614.818594 207.841591,611.915074 C209.291817,609.011555 204.216026,607.075875 200.832164,606.833915 C197.448303,606.591955 184.637971,599.575117 184.637971,599.575117 C172.889205,602.327653 172.069344,595.703758 172.069344,595.703758 C167.235256,601.268837 166.751848,609.253515 166.751848,609.253515 C166.751848,609.253515 176.420023,610.947235 181.495814,611.915074" id="Fill-278" fill="#00337F"></path>
                            <path d="M232.927798,156.897196 C232.927798,156.897196 215.886673,159.452293 210.499566,182.314605 C203.490139,212.069871 214.989466,259.290775 217.508993,267.242547 C221.457475,279.704452 236.926555,282.768633 250.139083,270.509974 C263.353545,258.249379 306.697907,205.664708 306.697907,205.664708 C306.697907,205.664708 313.628055,206.390587 315.882673,203.082511 C320.71676,201.388791 321.362595,198.889829 321.362595,198.889829 C321.362595,198.889829 324.98816,197.921989 325.148652,194.453251 C328.130317,191.63103 328.693005,186.952493 327.242779,187.033791 C325.792552,187.113154 322.571116,192.84083 321.200169,193.888033 C319.831156,194.937171 313.628055,197.598731 311.69442,196.712189 C309.760785,195.823712 309.356655,194.855873 310.323472,191.468433 C311.29029,188.080994 313.707334,187.839034 313.144646,186.710533 C312.580024,185.582032 310.485898,186.145315 308.873246,188.404253 C307.262528,190.663191 302.186736,200.583549 302.186736,200.583549 L240.517316,240.429513 C240.517316,240.429513 233.509822,200.477086 231.924242,191.363907 C231.725077,190.21992 231.786954,189.060448 232.115671,187.945497 C233.42861,183.483755 236.605572,170.288227 232.927798,156.897196" id="Fill-280" fill="#F37F7F"></path>
                            <path d="M240.516929,240.4299 C240.516929,240.4299 233.704733,244.862606 230.079167,248.492006" id="Stroke-282" stroke="#F95656" stroke-width="0.723" stroke-linecap="round" stroke-linejoin="round"></path>
                            <path d="M230.078394,271.477426 C230.078394,271.477426 232.857027,274.984878 239.383045,271.477426" id="Stroke-284" stroke="#F95656" stroke-width="0.723" stroke-linecap="round" stroke-linejoin="round"></path>
                            <path d="M288.208296,106.097801 L269.597059,106.097801 C269.597059,106.097801 268.388537,112.38876 262.345928,119.163639 C262.345928,119.163639 260.532178,115.170332 257.51184,117.227959 C254.491502,119.283651 254.008094,128.116157 258.478658,127.874197 L253.524685,136.584755 C253.524685,136.584755 247.72378,129.931824 247.118552,115.654252 C246.515258,101.378615 254.733207,88.4347252 271.650579,90.8543247 C282.710971,92.4357749 287.241478,101.862535 288.208296,106.097801" id="Fill-286" fill="#510F0E"></path>
                            <path d="M251.961148,102.200891 C246.508297,106.664568 239.270701,106.832973 235.794025,102.576413 C232.319283,98.3217894 233.922267,91.2546232 239.375117,86.7909461 C244.829902,82.327269 252.067497,82.1588648 255.54224,86.4154242 C259.016982,90.670048 257.413998,97.7372142 251.961148,102.200891" id="Fill-288" fill="#510F0E"></path>
                            <mask id="mask-15" fill="white">
                                <use xlink:href="#path-14"></use>
                            </mask>
                            <g id="Clip-327"></g>
                        </g>
                    </g>
                </g>
            </g>
        </g>
    </g>
</svg>