<?xml version="1.0" encoding="UTF-8"?>
<svg width="539px" height="545px" viewBox="0 0 539 545" version="1.1" xmlns="http://www.w3.org/2000/svg" xmlns:xlink="http://www.w3.org/1999/xlink">
    <!-- Generator: Sketch 64 (93537) - https://sketch.com -->
    <title>Group</title>
    <desc>Created with Sketch.</desc>
    <defs>
        <polygon id="path-1" points="0.119874272 0.0524959063 477.449136 0.0524959063 477.449136 422.947921 0.119874272 422.947921"></polygon>
        <polygon id="path-3" points="0 490.820144 501.017211 490.820144 501.017211 0.41294964 0 0.41294964"></polygon>
        <polygon id="path-5" points="0.000117924528 0.41294964 499.927123 0.41294964 499.927123 490.820144 0.000117924528 490.820144"></polygon>
    </defs>
    <g id="Page-1" stroke="none" stroke-width="1" fill="none" fill-rule="evenodd">
        <g id="Web" transform="translate(-198.000000, -270.000000)">
            <g id="introduction">
                <g id="Group" transform="translate(198.000000, 270.000000)">
                    <path d="M282.5,526 C423.608754,526 538,496.608754 538,355.5 C538,214.391246 473.608754,0 332.5,0 C191.391246,0 0,129.391246 0,270.5 C0,411.608754 141.391246,526 282.5,526 Z" id="Oval" fill="#D8D8D8"></path>
                    <g id="Group-207" opacity="0.902483259" transform="translate(38.000000, 54.000000)">
                        <g id="Group-34">
                            <g id="Group-3" transform="translate(23.568075, 33.035971)">
                                <mask id="mask-2" fill="white">
                                    <use xlink:href="#path-1"></use>
                                </mask>
                                <g id="Clip-2"></g>
                                <path d="M45.0887915,107.998955 C45.0887915,107.998955 215.26797,-44.108095 293.138069,12.7963655 C371.008167,69.7008259 307.105688,130.705286 340.945909,131.875704 C374.784951,133.046121 442.808308,70.9550129 472.717374,137.736049 C502.625261,204.517085 380.11605,285.018668 401.968369,288.44379 C423.81951,291.868912 460.596313,279.800164 460.596313,304.892164 C460.596313,329.986524 356.318186,429.467272 285.869674,422.609948 C215.421162,415.750265 317.131547,347.790553 275.908627,353.976538 C234.685707,360.162524 164.264299,455.711991 108.410317,397.613517 C52.5563362,339.516222 157.621637,232.342812 111.022838,247.44615 C34.3393925,272.299819 -56.0206075,206.205459 45.0887915,107.998955" id="Fill-1" fill="#D6ECE1" mask="url(#mask-2)"></path>
                            </g>
                            <path d="M284.573548,143.822101 C295.870905,136.810216 290.516238,119.659827 279.58183,113.596547 C268.646243,107.533266 274.036262,105.187712 274.533548,91.3633381 C275.374928,68.0080863 261.24351,67.109036 261.24351,67.109036 C261.24351,67.109036 247.953473,66.3456691 247.953473,91.3633381 C247.953473,105.197151 253.841956,107.533266 242.907548,113.596547 C231.971961,119.659827 226.617294,136.810216 237.914651,143.822101 C251.526393,152.269871 222.732097,156.493755 227.622473,180.210043 C230.943215,196.30564 248.459008,195.997698 261.24351,196.30564 C274.029191,195.997698 291.544985,196.30564 294.864548,180.210043 C299.756102,156.493755 270.960628,152.269871 284.573548,143.822101" id="Fill-4" fill="#70CACD"></path>
                            <path d="M260.858172,191.333137 C261.153952,190.296043 262.46905,116.700158 260.858172,103.015007 C260.276041,98.0666906 258.363492,200.090029 260.858172,191.333137" id="Fill-6" fill="#008EA7"></path>
                            <path d="M246.145919,120.657632 C246.145919,120.657632 258.619323,139.495214 260.627323,139.053948 C262.634145,138.611502 275.984281,121.223963 274.613797,120.26474 C274.156577,119.944999 260.412854,137.07061 260.412854,137.07061 C260.412854,137.07061 245.288041,117.256106 246.145919,120.657632" id="Fill-8" fill="#008EA7"></path>
                            <path d="M246.145919,138.16764 C246.145919,138.16764 258.619323,157.005223 260.627323,156.563957 C262.634145,156.121511 275.984281,138.733971 274.613797,137.774748 C274.156577,137.455007 260.412854,154.580619 260.412854,154.580619 C260.412854,154.580619 245.288041,134.766115 246.145919,138.16764" id="Fill-10" fill="#008EA7"></path>
                            <path d="M246.145919,160.310708 C246.145919,160.310708 258.619323,179.148291 260.627323,178.707024 C262.634145,178.264578 275.984281,160.877039 274.613797,159.917816 C274.156577,159.598075 260.412854,176.723686 260.412854,176.723686 C260.412854,176.723686 245.288041,156.909183 246.145919,160.310708" id="Fill-12" fill="#008EA7"></path>
                            <path d="M349.657259,313.364711 C348.820592,313.364711 347.990996,313.335214 347.166113,313.28802 C348.781705,306.658409 349.657259,299.737373 349.657259,292.609862 L349.657259,226.842322 C373.482226,226.842322 392.865789,246.249776 392.865789,270.102927 C392.865789,293.957258 373.482226,313.364711 349.657259,313.364711 M176.25986,313.364711 C152.436071,313.364711 133.052508,293.957258 133.052508,270.102927 C133.052508,246.249776 152.436071,226.842322 176.25986,226.842322 L176.25986,285.767876 C176.084277,288.028481 175.967615,290.304423 175.967615,292.609862 C175.967615,299.745632 176.844348,306.672567 178.463475,313.309258 C177.734043,313.345833 176.998719,313.364711 176.25986,313.364711 M349.657259,207.964624 L349.657259,179.761344 L176.25986,179.761344 L176.25986,207.964624 C142.037836,207.964624 114.198047,235.839905 114.198047,270.102927 C114.198047,304.367128 142.037836,332.242409 176.25986,332.242409 C179.291892,332.242409 182.270897,332.013517 185.187446,331.589948 C197.479376,356.080222 220.97439,373.952682 248.950874,378.446754 L248.950874,448.256481 L224.734677,448.256481 C212.209423,448.256481 202.056296,458.422121 202.056296,470.962812 L248.950874,470.962812 L248.950874,471.496106 L276.675179,471.496106 L276.675179,470.962812 L323.568578,470.962812 C323.568578,458.422121 313.415451,448.256481 300.890198,448.256481 L276.675179,448.256481 L276.675179,378.446754 C304.663446,373.950322 328.169066,356.062524 340.455104,331.555732 C343.458855,332.005258 346.530954,332.242409 349.657259,332.242409 C383.879282,332.242409 411.720249,304.367128 411.720249,270.102927 C411.720249,235.839905 383.879282,207.964624 349.657259,207.964624" id="Fill-14" fill="#FAB217"></path>
                            <path d="M176.260449,313.364711 C152.435482,313.364711 133.051918,293.957258 133.051918,270.102927 C133.051918,246.249776 152.435482,226.842322 176.260449,226.842322 L176.260449,285.767876 C176.084867,288.028481 175.967026,290.304423 175.967026,292.609862 C175.967026,299.745632 176.844937,306.672567 178.464064,313.309258 C177.733454,313.345833 176.999308,313.364711 176.260449,313.364711 M203.691331,235.06002 C203.691331,214.975329 208.919909,196.116509 218.076106,179.761344 L176.260449,179.761344 L176.260449,207.964624 C142.038425,207.964624 114.197458,235.839905 114.197458,270.102927 C114.197458,304.367128 142.038425,332.242409 176.260449,332.242409 C179.292482,332.242409 182.271486,332.013517 185.188036,331.589948 C197.479965,356.080222 220.974979,373.952682 248.950285,378.446754 L248.950285,448.256481 L224.735266,448.256481 C212.208834,448.256481 202.055707,458.422121 202.055707,470.962812 L248.950285,470.962812 L248.950285,471.496106 L276.675768,471.496106 L276.675768,470.962812 L323.569167,470.962812 C323.569167,458.422121 313.41604,448.256481 300.890787,448.256481 L276.675768,448.256481 L276.675768,378.446754 C298.129787,374.999214 316.943003,363.679675 330.095167,347.545142 C325.739787,348.05484 321.310167,348.325027 316.816914,348.325027 C254.340303,348.325027 203.691331,297.614812 203.691331,235.06002" id="Fill-16" fill="#F58A28"></path>
                            <path d="M164.519541,200.369301 L130.454245,246.492236 C123.805691,255.495718 130.224456,268.240524 141.407508,268.240524 L209.536921,268.240524 C220.719973,268.240524 227.138738,255.495718 220.490184,246.492236 L186.424888,200.369301 C180.979485,192.99638 169.964945,192.99638 164.519541,200.369301" id="Fill-18" fill="#FFFAEF"></path>
                            <mask id="mask-4" fill="white">
                                <use xlink:href="#path-3"></use>
                            </mask>
                            <g id="Clip-21"></g>
                            <polygon id="Fill-20" fill="#FFFAEF" mask="url(#mask-4)" points="166.012343 220.792374 184.931615 220.792374 184.931615 134.72541 166.012343 134.72541"></polygon>
                            <path d="M184.02884,132.429056 L166.916061,132.429056 C163.74969,132.429056 161.159558,135.02238 161.159558,138.192653 C161.159558,141.362927 163.74969,143.95743 166.916061,143.95743 L184.02884,143.95743 C187.195211,143.95743 189.785342,141.362927 189.785342,138.192653 C189.785342,135.02238 187.195211,132.429056 184.02884,132.429056" id="Fill-22" fill="#FFFAEF" mask="url(#mask-4)"></path>
                            <path d="M209.105036,245.741376 L194.918233,226.533318 L156.026196,226.533318 L141.839393,245.741376 C136.872421,252.467735 141.667346,261.989174 150.022229,261.989174 L200.9222,261.989174 C209.277083,261.989174 214.072008,252.467735 209.105036,245.741376" id="Fill-23" fill="#605575" mask="url(#mask-4)"></path>
                            <path d="M57.5167089,339.338889 C68.8140657,332.328184 63.4582207,315.176616 52.5238122,309.114515 C41.5894038,303.050055 46.9794225,300.705681 47.4767089,286.880127 C48.3180892,263.524875 34.1866714,262.625824 34.1866714,262.625824 C34.1866714,262.625824 20.8966338,261.863637 20.8966338,286.880127 C20.8966338,300.71394 26.783939,303.050055 15.8495305,309.114515 C4.91512207,315.176616 -0.440723005,332.328184 10.8566338,339.338889 C24.469554,347.787839 -4.32474178,352.010544 0.565633803,375.726832 C3.88519718,391.823609 21.402169,391.515666 34.1866714,391.823609 C46.9723521,391.515666 64.4881455,391.823609 67.8077089,375.726832 C72.6980845,352.010544 43.9049671,347.787839 57.5167089,339.338889" id="Fill-24" fill="#70CACD" mask="url(#mask-4)"></path>
                            <path d="M33.8019225,386.849925 C34.0965235,385.812832 35.4128005,312.216947 33.8019225,298.531796 C33.2186127,293.583479 31.3060634,395.607997 33.8019225,386.849925" id="Fill-25" fill="#008EA7" mask="url(#mask-4)"></path>
                            <path d="M19.0886089,316.17501 C19.0886089,316.17501 31.5620127,335.013773 33.5700127,334.571327 C35.5768343,334.13006 48.9269704,316.741341 47.5564869,315.782118 C47.0992662,315.462377 33.3555432,332.587988 33.3555432,332.587988 C33.3555432,332.587988 18.230731,312.773485 19.0886089,316.17501" id="Fill-26" fill="#008EA7" mask="url(#mask-4)"></path>
                            <path d="M19.0886089,333.685019 C19.0886089,333.685019 31.5620127,352.523781 33.5700127,352.081335 C35.5768343,351.640069 48.9269704,334.25135 47.5564869,333.292127 C47.0992662,332.972386 33.3555432,350.097997 33.3555432,350.097997 C33.3555432,350.097997 18.230731,330.282314 19.0886089,333.685019" id="Fill-27" fill="#008EA7" mask="url(#mask-4)"></path>
                            <path d="M19.0886089,355.828086 C19.0886089,355.828086 31.5620127,374.666849 33.5700127,374.224403 C35.5768343,373.783137 48.9269704,356.394417 47.5564869,355.435194 C47.0992662,355.115453 33.3555432,372.241065 33.3555432,372.241065 C33.3555432,372.241065 18.230731,352.426561 19.0886089,355.828086" id="Fill-28" fill="#008EA7" mask="url(#mask-4)"></path>
                            <polygon id="Fill-29" fill="#FFFAEF" mask="url(#mask-4)" points="49.1936432 471.488201 225.495808 471.488201 225.495808 268.87859 49.1936432 268.87859"></polygon>
                            <polygon id="Fill-30" fill="#F05757" mask="url(#mask-4)" points="49.1936432 297.808662 225.495808 297.808662 225.495808 266.273468 49.1936432 266.273468"></polygon>
                            <polygon id="Fill-31" fill="#D6ECE1" mask="url(#mask-4)" points="49.1936432 311.6 225.495808 311.6 225.495808 298.15436 49.1936432 298.15436"></polygon>
                            <path d="M202.556529,286.069094 L202.556529,286.069094 C198.816275,286.069094 195.755961,283.003827 195.755961,279.260144 L195.755961,260.532288 C195.755961,256.787424 198.816275,253.723338 202.556529,253.723338 C206.297961,253.723338 209.358275,256.787424 209.358275,260.532288 L209.358275,279.260144 C209.358275,283.003827 206.297961,286.069094 202.556529,286.069094" id="Fill-32" fill="#383A45" mask="url(#mask-4)"></path>
                            <path d="M72.1328042,286.069094 L72.1328042,286.069094 C68.3913723,286.069094 65.3310577,283.003827 65.3310577,279.260144 L65.3310577,260.532288 C65.3310577,256.787424 68.3913723,253.723338 72.1328042,253.723338 C75.8730577,253.723338 78.9333723,256.787424 78.9333723,260.532288 L78.9333723,279.260144 C78.9333723,283.003827 75.8730577,286.069094 72.1328042,286.069094" id="Fill-33" fill="#383A45" mask="url(#mask-4)"></path>
                        </g>
                        <text id="25" font-family="LucidaGrande, Lucida Grande" font-size="114.0808" font-weight="normal" fill="#383A45">
                            <tspan x="65" y="382">25</tspan>
                        </text>
                        <g id="Group-206">
                            <mask id="mask-6" fill="white">
                                <use xlink:href="#path-5"></use>
                            </mask>
                            <g id="Clip-36"></g>
                            <polygon id="Fill-35" fill="#70CACD" mask="url(#mask-6)" points="231.45283 471.49646 419.739387 471.49646 419.739387 416.410158 231.45283 416.410158"></polygon>
                            <polygon id="Fill-37" fill="#008EA7" mask="url(#mask-6)" points="406.481132 439.453928 409.115566 439.453928 409.115566 416.410158 406.481132 416.410158"></polygon>
                            <polygon id="Fill-38" fill="#008EA7" mask="url(#mask-6)" points="386.673349 439.453928 389.306604 439.453928 389.306604 416.410158 386.673349 416.410158"></polygon>
                            <polygon id="Fill-39" fill="#008EA7" mask="url(#mask-6)" points="413.09316 427.71318 415.727594 427.71318 415.727594 416.410158 413.09316 416.410158"></polygon>
                            <polygon id="Fill-40" fill="#008EA7" mask="url(#mask-6)" points="400.193396 427.71318 402.826651 427.71318 402.826651 416.410158 400.193396 416.410158"></polygon>
                            <polygon id="Fill-41" fill="#008EA7" mask="url(#mask-6)" points="393.510613 427.71318 396.143868 427.71318 396.143868 416.410158 393.510613 416.410158"></polygon>
                            <polygon id="Fill-42" fill="#008EA7" mask="url(#mask-6)" points="366.152123 439.453928 368.785377 439.453928 368.785377 416.410158 366.152123 416.410158"></polygon>
                            <polygon id="Fill-43" fill="#008EA7" mask="url(#mask-6)" points="379.670991 427.71318 382.304245 427.71318 382.304245 416.410158 379.670991 416.410158"></polygon>
                            <polygon id="Fill-44" fill="#008EA7" mask="url(#mask-6)" points="372.988208 427.71318 375.621462 427.71318 375.621462 416.410158 372.988208 416.410158"></polygon>
                            <polygon id="Fill-45" fill="#008EA7" mask="url(#mask-6)" points="345.25 439.453928 347.884434 439.453928 347.884434 416.410158 345.25 416.410158"></polygon>
                            <polygon id="Fill-46" fill="#008EA7" mask="url(#mask-6)" points="358.771226 427.71318 361.404481 427.71318 361.404481 416.410158 358.771226 416.410158"></polygon>
                            <polygon id="Fill-47" fill="#008EA7" mask="url(#mask-6)" points="352.087264 427.71318 354.720519 427.71318 354.720519 416.410158 352.087264 416.410158"></polygon>
                            <polygon id="Fill-48" fill="#008EA7" mask="url(#mask-6)" points="324.729953 439.453928 327.363208 439.453928 327.363208 416.410158 324.729953 416.410158"></polygon>
                            <polygon id="Fill-49" fill="#008EA7" mask="url(#mask-6)" points="338.248821 427.71318 340.882075 427.71318 340.882075 416.410158 338.248821 416.410158"></polygon>
                            <polygon id="Fill-50" fill="#008EA7" mask="url(#mask-6)" points="331.564858 427.71318 334.199292 427.71318 334.199292 416.410158 331.564858 416.410158"></polygon>
                            <polygon id="Fill-51" fill="#008EA7" mask="url(#mask-6)" points="303.051887 439.453928 305.685142 439.453928 305.685142 416.410158 303.051887 416.410158"></polygon>
                            <polygon id="Fill-52" fill="#008EA7" mask="url(#mask-6)" points="316.571934 427.71318 319.206368 427.71318 319.206368 416.410158 316.571934 416.410158"></polygon>
                            <polygon id="Fill-53" fill="#008EA7" mask="url(#mask-6)" points="309.889151 427.71318 312.522406 427.71318 312.522406 416.410158 309.889151 416.410158"></polygon>
                            <polygon id="Fill-54" fill="#008EA7" mask="url(#mask-6)" points="282.529481 439.453928 285.163915 439.453928 285.163915 416.410158 282.529481 416.410158"></polygon>
                            <polygon id="Fill-55" fill="#008EA7" mask="url(#mask-6)" points="296.050708 427.71318 298.683962 427.71318 298.683962 416.410158 296.050708 416.410158"></polygon>
                            <polygon id="Fill-56" fill="#008EA7" mask="url(#mask-6)" points="289.366745 427.71318 292 427.71318 292 416.410158 289.366745 416.410158"></polygon>
                            <polygon id="Fill-57" fill="#008EA7" mask="url(#mask-6)" points="261.430425 439.453928 264.063679 439.453928 264.063679 416.410158 261.430425 416.410158"></polygon>
                            <polygon id="Fill-58" fill="#008EA7" mask="url(#mask-6)" points="274.950472 427.71318 277.584906 427.71318 277.584906 416.410158 274.950472 416.410158"></polygon>
                            <polygon id="Fill-59" fill="#008EA7" mask="url(#mask-6)" points="268.267689 427.71318 270.900943 427.71318 270.900943 416.410158 268.267689 416.410158"></polygon>
                            <polygon id="Fill-60" fill="#008EA7" mask="url(#mask-6)" points="240.909198 439.453928 243.542453 439.453928 243.542453 416.410158 240.909198 416.410158"></polygon>
                            <polygon id="Fill-61" fill="#008EA7" mask="url(#mask-6)" points="254.429245 427.71318 257.0625 427.71318 257.0625 416.410158 254.429245 416.410158"></polygon>
                            <polygon id="Fill-62" fill="#008EA7" mask="url(#mask-6)" points="247.745283 427.71318 250.378538 427.71318 250.378538 416.410158 247.745283 416.410158"></polygon>
                            <path d="M480.793986,327.802964 C492.09941,320.792259 486.739741,303.640691 475.798703,297.57741 C464.855307,291.514129 470.249175,289.168576 470.746816,275.344201 C471.587618,251.98895 457.447288,251.089899 457.447288,251.089899 C457.447288,251.089899 444.148939,250.326532 444.148939,275.344201 C444.148939,289.178014 450.040448,291.514129 439.098231,297.57741 C428.154835,303.640691 422.795165,320.792259 434.10059,327.802964 C447.723231,336.250734 418.908373,340.474619 423.802241,364.190906 C427.124175,380.286504 444.653656,379.978561 457.447288,380.286504 C470.242099,379.978561 487.770401,380.286504 491.092335,364.190906 C495.987382,340.474619 467.171344,336.250734 480.793986,327.802964" id="Fill-63" fill="#70CACD" mask="url(#mask-6)"></path>
                            <path d="M457.061675,375.314118 C457.357665,374.277024 458.673703,300.68114 457.061675,286.995988 C456.479127,282.047672 454.565212,384.07101 457.061675,375.314118" id="Fill-64" fill="#008EA7" mask="url(#mask-6)"></path>
                            <path d="M442.338443,304.639085 C442.338443,304.639085 454.821934,323.476668 456.830189,323.035401 C458.838443,322.592955 472.198113,305.205416 470.826651,304.246193 C470.370283,303.926452 456.614387,321.050883 456.614387,321.050883 C456.614387,321.050883 441.479953,301.23638 442.338443,304.639085" id="Fill-65" fill="#008EA7" mask="url(#mask-6)"></path>
                            <path d="M442.338443,322.149094 C442.338443,322.149094 454.821934,340.986676 456.830189,340.54541 C458.838443,340.102964 472.198113,322.715424 470.826651,321.756201 C470.370283,321.435281 456.614387,338.560892 456.614387,338.560892 C456.614387,338.560892 441.479953,318.746388 442.338443,322.149094" id="Fill-66" fill="#008EA7" mask="url(#mask-6)"></path>
                            <path d="M442.338443,344.292161 C442.338443,344.292161 454.821934,363.129744 456.830189,362.688478 C458.838443,362.246032 472.198113,344.858492 470.826651,343.899269 C470.370283,343.579528 456.614387,360.70396 456.614387,360.70396 C456.614387,360.70396 441.479953,340.889456 442.338443,344.292161" id="Fill-67" fill="#008EA7" mask="url(#mask-6)"></path>
                            <path d="M389.887382,343.137672 L371.37441,343.137672 C368.204599,343.137672 365.612618,345.732176 365.612618,348.902449 C365.612618,351.35419 367.163325,353.454334 369.330778,354.283773 L369.330778,432.330075 C369.330778,438.573873 374.389741,443.634276 380.630307,443.634276 C386.870873,443.634276 391.929835,438.573873 391.929835,432.330075 L391.929835,354.283773 C394.096108,353.454334 395.649175,351.35419 395.649175,348.902449 C395.649175,345.732176 393.057193,343.137672 389.887382,343.137672" id="Fill-68" fill="#FFFAEF" mask="url(#mask-6)"></path>
                            <path d="M380.63066,439.793727 L380.63066,439.793727 C376.018632,439.793727 372.243868,436.018187 372.243868,431.40377 L372.243868,393.880806 C372.243868,389.266388 376.018632,385.490849 380.63066,385.490849 C385.242689,385.490849 389.016274,389.266388 389.016274,393.880806 L389.016274,431.40377 C389.016274,436.018187 385.242689,439.793727 380.63066,439.793727" id="Fill-69" fill="#F05757" mask="url(#mask-6)"></path>
                            <polygon id="Fill-70" fill="#F05757" mask="url(#mask-6)" points="372.242925 393.386446 389.016509 393.386446 389.016509 364.964892 372.242925 364.964892"></polygon>
                            <path d="M423.928774,343.137672 L405.415802,343.137672 C402.245991,343.137672 399.654009,345.732176 399.654009,348.902449 C399.654009,351.35419 401.204717,353.454334 403.37217,354.283773 L403.37217,432.330075 C403.37217,438.573873 408.431132,443.634276 414.671698,443.634276 C420.912264,443.634276 425.971226,438.573873 425.971226,432.330075 L425.971226,354.283773 C428.1375,353.454334 429.690566,351.35419 429.690566,348.902449 C429.690566,345.732176 427.098585,343.137672 423.928774,343.137672" id="Fill-71" fill="#FFFAEF" mask="url(#mask-6)"></path>
                            <path d="M414.67217,439.793727 L414.67217,439.793727 C410.060142,439.793727 406.285377,436.018187 406.285377,431.40377 L406.285377,418.400576 C406.285377,413.786158 410.060142,410.010619 414.67217,410.010619 C419.284198,410.010619 423.057783,413.786158 423.057783,418.400576 L423.057783,431.40377 C423.057783,436.018187 419.284198,439.793727 414.67217,439.793727" id="Fill-72" fill="#70CACD" mask="url(#mask-6)"></path>
                            <polygon id="Fill-73" fill="#70CACD" mask="url(#mask-6)" points="406.284198 428.785669 423.057783 428.785669 423.057783 400.362935 406.284198 400.362935"></polygon>
                            <path d="M458.318042,343.137672 L439.803892,343.137672 C436.635259,343.137672 434.042099,345.732176 434.042099,348.902449 C434.042099,351.35419 435.593986,353.454334 437.761439,354.283773 L437.761439,432.330075 C437.761439,438.573873 442.820401,443.634276 449.060967,443.634276 C455.300354,443.634276 460.359316,438.573873 460.359316,432.330075 L460.359316,354.283773 C462.526769,353.454334 464.079835,351.35419 464.079835,348.902449 C464.079835,345.732176 461.486675,343.137672 458.318042,343.137672" id="Fill-74" fill="#FFFAEF" mask="url(#mask-6)"></path>
                            <path d="M449.061439,439.793727 L449.061439,439.793727 C444.448231,439.793727 440.674646,436.018187 440.674646,431.40377 L440.674646,418.400576 C440.674646,413.786158 444.448231,410.010619 449.061439,410.010619 C453.673467,410.010619 457.447052,413.786158 457.447052,418.400576 L457.447052,431.40377 C457.447052,436.018187 453.673467,439.793727 449.061439,439.793727" id="Fill-75" fill="#FAB217" mask="url(#mask-6)"></path>
                            <polygon id="Fill-76" fill="#FAB217" mask="url(#mask-6)" points="440.673349 428.785669 457.446934 428.785669 457.446934 369.352777 440.673349 369.352777"></polygon>
                            <polygon id="Fill-77" fill="#605575" mask="url(#mask-6)" points="337.238208 470.638705 359.055425 470.638705 359.055425 349.114705 337.238208 349.114705"></polygon>
                            <polygon id="Fill-78" fill="#605575" mask="url(#mask-6)" points="472.400943 470.638705 494.216981 470.638705 494.216981 349.114705 472.400943 349.114705"></polygon>
                            <polygon id="Fill-79" fill="#605575" mask="url(#mask-6)" points="347.347877 397.922993 490.325472 397.922993 490.325472 376.095655 347.347877 376.095655"></polygon>
                            <path d="M493.724292,458.719799 L472.894104,458.719799 C469.468396,458.719799 466.690094,464.440921 466.690094,471.49646 L499.927123,471.49646 C499.927123,464.440921 497.15,458.719799 493.724292,458.719799" id="Fill-80" fill="#605575" mask="url(#mask-6)"></path>
                            <path d="M358.5625,458.719799 L337.732311,458.719799 C334.306604,458.719799 331.528302,464.440921 331.528302,471.49646 L364.76533,471.49646 C364.76533,464.440921 361.987028,458.719799 358.5625,458.719799" id="Fill-81" fill="#605575" mask="url(#mask-6)"></path>
                            <path d="M176.954127,425.863519 L21.3762972,425.863519 C9.57087264,425.863519 0.000117924528,416.288987 0.000117924528,404.476268 C0.000117924528,392.663548 9.57087264,383.089016 21.3762972,383.089016 L176.954127,383.089016 L176.954127,425.863519 Z" id="Fill-82" fill="#605575" mask="url(#mask-6)"></path>
                            <polygon id="Fill-83" fill="#FFFAEF" mask="url(#mask-6)" points="15.6167453 418.621209 176.902123 418.621209 176.902123 390.331799 15.6167453 390.331799"></polygon>
                            <polygon id="Fill-84" fill="#D6ECE1" mask="url(#mask-6)" points="15.6167453 406.232719 176.902123 406.232719 176.902123 390.596086 15.6167453 390.596086"></polygon>
                            <path d="M239.093042,390.27434 C239.093042,390.27434 238.551769,387.97716 236.764033,389.011894 C234.976297,390.045447 236.627241,393.012786 238.447995,393.71362 C240.26875,394.414455 239.093042,390.27434 239.093042,390.27434" id="Fill-85" fill="#E57373" mask="url(#mask-6)"></path>
                            <path d="M251.631132,389.914837 C251.631132,389.914837 252.172406,387.616478 253.960142,388.651212 C255.746698,389.684765 254.096934,392.652104 252.275,393.352938 C250.454245,394.053773 251.631132,389.914837 251.631132,389.914837" id="Fill-86" fill="#E57373" mask="url(#mask-6)"></path>
                            <path d="M252.159788,383.49937 C252.412146,384.384262 251.664505,397.789787 246.06191,399.176118 C240.458137,400.562449 238.112618,390.104204 238.502948,384.056262 C238.894458,378.008319 250.052476,376.121729 252.159788,383.49937" id="Fill-87" fill="#E57373" mask="url(#mask-6)"></path>
                            <path d="M262.926179,476.48796 L268.708019,478.131499 C268.555896,479.095442 266.288208,489.283499 265.62783,489.289401 C264.968632,489.294118 265.219811,481.094118 265.219811,481.094118 C265.219811,481.094118 262.715094,480.737801 262.399057,480.539586 C262.108962,480.356708 262.926179,476.48796 262.926179,476.48796" id="Fill-88" fill="#383A45" mask="url(#mask-6)"></path>
                            <path d="M220.944929,477.887859 L215.263325,479.852319 C215.469693,480.808003 218.306958,490.850938 218.966156,490.820332 C219.624175,490.789586 218.91191,482.616722 218.91191,482.616722 C218.91191,482.616722 221.393042,482.117643 221.698467,481.901729 C221.977948,481.703514 220.944929,477.887859 220.944929,477.887859" id="Fill-89" fill="#383A45" mask="url(#mask-6)"></path>
                            <path d="M239.348113,457.339485 C239.348113,457.339485 269.282075,444.003571 283.60283,455.16501 C302.263208,469.707917 220.941274,482.888089 220.941274,482.888089 L218.756132,478.089614 C218.756132,478.089614 273.927123,456.859283 265.282075,460.221873 C256.637028,463.585643 229.263208,469.35278 239.348113,457.339485" id="Fill-90" fill="#027878" mask="url(#mask-6)"></path>
                            <path d="M247.38467,454.749347 C247.38467,454.749347 213.922406,444.699332 199.514387,455.752224 C185.106368,466.803937 262.548585,484.48998 262.548585,484.48998 L265.521462,476.77844 C265.521462,476.77844 211.25967,456.713807 219.845755,460.222699 C233.497877,465.801059 257.469575,466.762642 247.38467,454.749347" id="Fill-91" fill="#027878" mask="url(#mask-6)"></path>
                            <path d="M233.497406,416.768127 C233.497406,416.768127 208.235613,430.370688 212.796934,440.701508 C217.359434,451.033508 228.727358,456.935148 230.168396,459.096645 C231.608255,461.259321 232.353538,464.606573 232.353538,464.606573 C232.353538,464.606573 231.225,463.421997 227.33467,462.219724 C223.44434,461.01863 204.690802,450.973335 204.690802,438.032673 C204.690802,425.093191 225.653066,408.343954 229.447877,406.289824 C233.242689,404.234515 233.497406,416.768127 233.497406,416.768127" id="Fill-92" fill="#E57373" mask="url(#mask-6)"></path>
                            <path d="M258.254127,416.331344 C258.254127,416.331344 280.205778,432.634596 275.643278,442.965416 C271.080778,453.296236 261.880307,456.934912 260.440448,459.096409 C258.99941,461.259085 258.254127,464.606337 258.254127,464.606337 C258.254127,464.606337 259.383844,463.421761 263.274175,462.220668 C267.164505,461.018394 284.34375,451.358912 284.34375,438.42061 C284.34375,425.479948 264.955778,408.343718 261.160967,406.289588 C257.364976,404.234279 258.254127,416.331344 258.254127,416.331344" id="Fill-93" fill="#E57373" mask="url(#mask-6)"></path>
                            <path d="M225.228302,459.77636 L262.016038,459.77636 C262.016038,459.77636 264.23066,407.29164 261.352123,405.721252 C251.904009,400.565281 229.491274,403.363899 228.35684,405.721252 C227.221226,408.079784 225.228302,459.77636 225.228302,459.77636" id="Fill-94" fill="#605575" mask="url(#mask-6)"></path>
                            <path d="M225.148821,443.601712 C225.148821,443.601712 223.776179,468.978058 225.148821,469.484216 C226.521462,469.991554 260.541509,469.957338 261.787972,469.484216 C263.036792,469.011094 262.688915,443.601712 262.688915,443.601712 C262.688915,443.601712 235.381132,442.171727 225.148821,443.601712" id="Fill-95" fill="#D6ECE1" mask="url(#mask-6)"></path>
                            <path d="M225.148821,467.674671 C225.148821,467.674671 223.776179,470.662066 225.148821,470.722239 C226.521462,470.782412 260.541509,470.778872 261.787972,470.722239 C263.036792,470.666786 262.688915,467.674671 262.688915,467.674671 C262.688915,467.674671 235.381132,467.505951 225.148821,467.674671" id="Fill-96" fill="#9BD5CA" mask="url(#mask-6)"></path>
                            <path d="M248.677358,392.884063 C248.677358,392.884063 250.430896,402.853847 249.774057,403.934596 C249.116038,405.016524 247.338915,407.299545 245.70566,407.299545 C244.071226,407.299545 242.232783,403.939315 242.110142,403.396581 C241.988679,402.853847 242.110142,391.321934 242.110142,391.321934 C242.110142,391.321934 246.812972,389.038912 248.677358,392.884063" id="Fill-97" fill="#E57373" mask="url(#mask-6)"></path>
                            <path d="M239.908962,380.330748 C239.908962,380.330748 241.015094,375.468561 244.029245,375.948763 C247.042217,376.428964 251.551651,375.604245 252.992689,377.188791 C254.432547,378.772158 255.071698,382.227957 251.949057,382.870978 C248.825236,383.51282 241.539858,379.847007 240.625943,382.765971 C238.25684,390.334748 241.516274,393.973424 241.516274,393.973424 C243.387736,394.453626 248.720283,394.060734 249.920755,393.364619 C252.201415,392.04318 249.906604,381.590835 250.986792,381.71236 C252.06816,381.831525 252.906604,382.340043 252.7875,384.969942 C252.667217,387.597482 252.059906,399.640273 249.779245,400.565281 C248.234434,401.192964 242.582311,400.938115 241.681368,400.122835 C239.946698,398.554806 236.578774,386.637079 237.539858,383.753511 C238.499764,380.871122 238.517453,380.440475 239.908962,380.330748" id="Fill-98" fill="#383A45" mask="url(#mask-6)"></path>
                            <path d="M232.444222,418.806328 C232.444222,418.806328 223.560967,426.314932 221.93125,427.698904 C220.302712,429.082875 212.796816,421.233292 212.796816,419.821004 C212.796816,418.411076 227.18125,406.422558 228.356958,405.720544 C229.531486,405.018529 233.328656,412.483479 232.444222,418.806328" id="Fill-99" fill="#605575" mask="url(#mask-6)"></path>
                            <path d="M257.263679,418.806328 C257.263679,418.806328 266.146934,426.314932 267.776651,427.698904 C269.406368,429.082875 276.911085,421.233292 276.911085,419.821004 C276.911085,418.411076 262.52783,406.422558 261.352123,405.720544 C260.177594,405.018529 256.380425,412.483479 257.263679,418.806328" id="Fill-100" fill="#605575" mask="url(#mask-6)"></path>
                            <path d="M102.661675,169.217796 C102.661675,169.217796 78.7005896,180.770947 59.3244104,172.757364 C40.0685142,164.793335 37.803184,164.877105 34.8550708,166.161968 C31.9069575,167.448012 39.2241745,159.189019 54.0178066,166.161968 C58.5402123,168.295148 82.4270047,168.332904 100.958844,155.522026 C100.958844,155.522026 107.006014,165.686486 102.661675,169.217796" id="Fill-101" fill="#E57373" mask="url(#mask-6)"></path>
                            <path d="M146.394458,102.839917 C146.394458,102.839917 149.657429,100.738593 152.005307,101.214075 C154.354363,101.688377 154.747052,99.0337007 154.747052,99.0337007 C154.747052,99.0337007 155.258844,101.926708 152.005307,102.839917 C148.752948,103.753125 146.099646,103.192694 146.394458,109.815226 C146.689269,116.436578 161.165684,155.37065 130.192807,163.950564 C130.192807,163.950564 124.283608,153.246909 125.168042,150.622909 C126.052476,147.997729 139.650354,141.114449 139.927476,129.660406 C140.20342,118.206363 140.782429,104.465758 146.394458,102.839917" id="Fill-102" fill="#E57373" mask="url(#mask-6)"></path>
                            <path d="M94.1679245,198.668066 C94.1679245,198.668066 87.8943396,214.318858 71.3165094,216.18185 C54.7375,218.046023 41.8884434,200.390656 41.8884434,200.390656 L35.7870283,204.242886 C35.7870283,204.242886 43.9497642,225.331635 65.7528302,230.047519 C87.5582547,234.763404 102.8625,218.294973 102.8625,218.294973 C102.8625,218.294973 107.459198,220.766771 105.692689,239.613793 C103.478066,263.265188 101.26816,276.910224 101.26816,276.910224 L108.559434,276.910224 C108.559434,276.910224 119.015802,251.8548 120.764623,233.902109 C122.801179,212.997419 119.261085,202.317361 119.261085,202.317361 L94.1679245,198.668066 Z" id="Fill-103" fill="#383A45" mask="url(#mask-6)"></path>
                            <path d="M41.7450472,201.991603 L38.0752358,197.734682 C37.3181604,198.24438 29.5799528,204.181416 29.8346698,204.744207 C30.090566,205.305819 36.9384434,201.860639 36.9384434,201.860639 C36.9384434,201.860639 38.2285377,203.843977 38.5209906,204.035114 C38.7898585,204.209732 41.7450472,201.991603 41.7450472,201.991603" id="Fill-104" fill="#383A45" mask="url(#mask-6)"></path>
                            <path d="M102.929953,275.873249 L103.404009,281.475206 C104.315566,281.507062 114.064387,281.243954 114.187028,280.638688 C114.30967,280.033422 106.744811,278.801652 106.744811,278.801652 C106.744811,278.801652 106.863915,276.4384 106.738915,276.11158 C106.623349,275.813076 102.929953,275.873249 102.929953,275.873249" id="Fill-105" fill="#383A45" mask="url(#mask-6)"></path>
                            <path d="M90.5179245,204.805914 C90.5179245,204.805914 100.080425,180.15636 100.252594,160.853914 C100.378774,146.69564 128.986085,149.486 129.971934,155.780532 C132.170047,169.81964 121.824528,215.966173 121.824528,215.966173 L90.5179245,204.805914 Z" id="Fill-106" fill="#FAB217" mask="url(#mask-6)"></path>
                            <path d="M120.143632,151.010138 C120.143632,151.010138 131.651887,144.322714 132.212028,143.985275 C132.770991,143.649016 144.557547,155.523088 144.557547,155.523088 C144.557547,155.523088 133.864151,166.558282 128.140094,167.053822 C122.417217,167.550541 117.292217,151.427807 120.143632,151.010138" id="Fill-107" fill="#FAB217" mask="url(#mask-6)"></path>
                            <path d="M83.06875,162.262544 C83.06875,162.262544 84.0545991,174.641594 85.0404481,175.286976 C86.0262972,175.932357 103.351769,171.986918 104.759788,170.436587 C106.167807,168.886256 108.093514,152.114601 107.173703,152.553508 C106.253892,152.991235 84.4779481,161.55817 83.06875,162.262544" id="Fill-108" fill="#FAB217" mask="url(#mask-6)"></path>
                            <path d="M114.970637,138.072544 C114.970637,138.072544 114.855071,134.702875 113.286675,135.022616 C111.719458,135.342357 110.587382,138.653033 111.429363,139.873004 C112.270165,141.092976 115.000118,140.89004 114.970637,138.072544" id="Fill-109" fill="#E57373" mask="url(#mask-6)"></path>
                            <path d="M125.406486,134.174063 C125.406486,134.174063 128.648231,143.491387 123.037382,145.062955 C117.425354,146.635704 118.447759,140.686869 118.672995,141.810092 C118.897052,142.932135 120.325118,152.185747 120.325118,152.185747 C120.325118,152.185747 117.483137,155.810265 112.125825,152.673027 C111.273231,152.172768 114.408844,137.73015 115.058608,130.397344 C115.341627,127.194035 123.38408,130.397344 125.406486,134.174063" id="Fill-110" fill="#E57373" mask="url(#mask-6)"></path>
                            <path d="M115.60342,127.519557 C115.60342,127.519557 116.86875,123.157629 119.559788,124.178204 C122.249646,125.19878 121.879363,126.684219 123.827476,125.848881 C125.77559,125.013542 127.770873,128.076449 126.739033,130.026751 C125.386439,132.58114 125.405307,133.368104 121.694222,132.532765 C117.983137,131.697427 116.033844,130.397226 115.198939,131.882665 C114.364033,133.368104 115.848703,137.174319 114.735495,137.638003 C113.622288,138.101686 113.714269,135.131988 112.879363,136.245773 C112.044458,137.359557 110.746108,140.20537 112.972524,139.850233 C115.198939,139.493917 113.553892,142.467154 112.706014,142.372765 C111.859316,142.278377 107.986675,139.105744 108.426533,134.852363 C108.704835,132.161111 111.530307,133.553341 110.746108,131.604219 C109.960731,129.655096 111.740212,125.478406 115.60342,127.519557" id="Fill-111" fill="#383A45" mask="url(#mask-6)"></path>
                            <path d="M177.363443,468.524993 L21.7856132,468.524993 C9.98018868,468.524993 0.409433962,458.949281 0.409433962,447.137741 C0.409433962,435.325022 9.98018868,425.750489 21.7856132,425.750489 L177.363443,425.750489 L177.363443,468.524993 Z" id="Fill-112" fill="#FAB217" mask="url(#mask-6)"></path>
                            <path d="M176.954127,425.863519 L21.1145047,425.863519 C9.67936321,425.863519 0.409316038,435.137188 0.409316038,446.579433 L176.954127,446.579433 L176.954127,425.863519 Z" id="Fill-113" fill="#F58A28" mask="url(#mask-6)"></path>
                            <polygon id="Fill-114" fill="#605575" mask="url(#mask-6)" points="25.5884434 468.799309 42.3667453 468.799309 42.3667453 425.751079 25.5884434 425.751079"></polygon>
                            <polygon id="Fill-115" fill="#605575" mask="url(#mask-6)" points="149.623821 468.799309 166.402123 468.799309 166.402123 425.751079 149.623821 425.751079"></polygon>
                            <polygon id="Fill-116" fill="#605575" mask="url(#mask-6)" points="54.6745283 457.810129 134.830189 457.810129 134.830189 433.36705 54.6745283 433.36705"></polygon>
                            <path d="M404.351533,249.167442 L388.103892,238.346981 C383.46592,235.259298 382.197052,228.936449 385.284316,224.296075 L404.597995,195.265715 C407.68408,190.625341 414.003656,189.356996 418.640448,192.444679 L434.889269,203.26514 C439.526061,206.352823 440.794929,212.675672 437.707665,217.314866 L418.393986,246.346406 C415.307901,250.98678 408.989505,252.256305 404.351533,249.167442" id="Fill-117" fill="#70CACD" mask="url(#mask-6)"></path>
                            <path d="M339.489505,354.15623 L317.392807,339.439885 C314.363325,337.423511 313.534316,333.294014 315.550825,330.264144 L338.758373,295.380518 C340.773703,292.349468 344.901061,291.521209 347.929363,293.537583 L370.027241,308.253928 C373.055542,310.271482 373.884552,314.400978 371.868042,317.430849 L348.661675,352.313295 C346.645165,355.344345 342.517807,356.173784 339.489505,354.15623" id="Fill-118" fill="#F05757" mask="url(#mask-6)"></path>
                            <polygon id="Fill-119" fill="#FFFAEF" mask="url(#mask-6)" points="358.103774 470.531338 390.016509 470.531338 390.016509 412.552029 358.103774 412.552029"></polygon>
                            <polygon id="Fill-120" fill="#383A45" mask="url(#mask-6)" points="358.103774 439.164863 390.016509 439.164863 390.016509 417.759914 358.103774 417.759914"></polygon>
                            <path d="M406.864269,451.947188 L341.25342,451.947188 C330.463325,451.947188 321.715684,460.700541 321.715684,471.496224 L426.403184,471.496224 C426.403184,460.700541 417.655542,451.947188 406.864269,451.947188" id="Fill-121" fill="#383A45" mask="url(#mask-6)"></path>
                            <path d="M369.870047,428.157632 C341.887736,428.157632 316.734434,412.58825 304.227358,387.525747 C301.899528,382.861776 303.792217,377.193747 308.452594,374.864711 C313.111792,372.533315 318.779245,374.429344 321.107075,379.092135 C330.399528,397.712624 349.08467,409.279934 369.870047,409.279934 C399.901887,409.279934 424.33467,384.834495 424.33467,354.787099 C424.33467,324.739704 399.901887,300.294265 369.870047,300.294265 C364.660142,300.294265 360.436085,296.06802 360.436085,290.855416 C360.436085,285.642812 364.660142,281.416567 369.870047,281.416567 C410.305189,281.416567 443.202594,314.329833 443.202594,354.787099 C443.202594,395.244365 410.305189,428.157632 369.870047,428.157632" id="Fill-122" fill="#FFFAEF" mask="url(#mask-6)"></path>
                            <polygon id="Fill-123" fill="#383A45" mask="url(#mask-6)" points="266.240566 388.084173 367.247642 388.084173 367.247642 372.561986 266.240566 372.561986"></polygon>
                            <path d="M352.00059,346.340863 L318.635024,324.120633 C315.860259,322.272978 315.100825,318.488 316.947524,315.710619 L389.567807,206.550331 C391.415684,203.77295 395.198703,203.013122 397.973467,204.861957 L431.339033,227.081007 C434.116156,228.929842 434.87441,232.71482 433.027712,235.492201 L360.407429,344.651309 C358.559552,347.429871 354.776533,348.188518 352.00059,346.340863" id="Fill-124" fill="#383A45" mask="url(#mask-6)"></path>
                            <path d="M405.817453,291.758596 C405.817453,301.196265 398.171226,308.845272 388.739623,308.845272 C379.308019,308.845272 371.661792,301.196265 371.661792,291.758596 C371.661792,282.322106 379.308019,274.673099 388.739623,274.673099 C398.171226,274.673099 405.817453,282.322106 405.817453,291.758596" id="Fill-125" fill="#70CACD" mask="url(#mask-6)"></path>
                            <path d="M397.278302,291.126075 C397.278302,295.844319 393.455189,299.669413 388.739387,299.669413 C384.023585,299.669413 380.200472,295.844319 380.200472,291.126075 C380.200472,286.40783 384.023585,282.583917 388.739387,282.583917 C393.455189,282.583917 397.278302,286.40783 397.278302,291.126075" id="Fill-126" fill="#383A45" mask="url(#mask-6)"></path>
                            <path d="M205.675118,108.622273 C205.675118,114.026014 201.29658,118.40682 195.895637,118.40682 C190.493514,118.40682 186.114976,114.026014 186.114976,108.622273 C186.114976,103.218532 190.493514,98.8377266 195.895637,98.8377266 C201.29658,98.8377266 205.675118,103.218532 205.675118,108.622273" id="Fill-127" fill="#605575" mask="url(#mask-6)"></path>
                            <path d="M221.680778,83.4380086 C221.680778,90.2422388 216.167807,95.7568863 209.368278,95.7568863 C202.567571,95.7568863 197.054599,90.2422388 197.054599,83.4380086 C197.054599,76.6337784 202.567571,71.1191309 209.368278,71.1191309 C216.167807,71.1191309 221.680778,76.6337784 221.680778,83.4380086" id="Fill-128" fill="#605575" mask="url(#mask-6)"></path>
                            <path d="M488.705542,276.910224 C488.705542,283.715635 483.192571,289.230282 476.393042,289.230282 C469.592335,289.230282 464.079363,283.715635 464.079363,276.910224 C464.079363,270.105994 469.592335,264.591347 476.393042,264.591347 C483.192571,264.591347 488.705542,270.105994 488.705542,276.910224" id="Fill-129" fill="#605575" mask="url(#mask-6)"></path>
                            <path d="M405.420165,327.715419 C405.420165,333.366929 400.841156,337.948311 395.192571,337.948311 C389.543986,337.948311 384.964976,333.366929 384.964976,327.715419 C384.964976,322.063908 389.543986,317.482527 395.192571,317.482527 C400.841156,317.482527 405.420165,322.063908 405.420165,327.715419" id="Fill-130" fill="#F05757" mask="url(#mask-6)"></path>
                            <path d="M441.130425,286.821488 C441.130425,292.472999 436.551415,297.05438 430.90283,297.05438 C425.254245,297.05438 420.675236,292.472999 420.675236,286.821488 C420.675236,281.169977 425.254245,276.588596 430.90283,276.588596 C436.551415,276.588596 441.130425,281.169977 441.130425,286.821488" id="Fill-131" fill="#FAB217" mask="url(#mask-6)"></path>
                            <path d="M163.270165,35.7897554 C165.96592,50.9804029 155.842099,65.4808345 140.659316,68.1779856 C125.476533,70.8739568 110.983608,60.7448921 108.287854,45.5542446 C105.593278,30.3635971 115.71592,15.8631655 130.899882,13.1671942 C146.082665,10.471223 160.57441,20.5991079 163.270165,35.7897554" id="Fill-132" fill="#FFCC05" mask="url(#mask-6)"></path>
                            <path d="M143.035259,81.5697065 L135.779363,40.672354 L108.288797,45.5545986 C108.288797,45.5545986 110.524646,59.0757496 121.835967,65.887059 C130.307665,70.987577 132.516392,83.4374187 132.516392,83.4374187 L143.035259,81.5697065 Z" id="Fill-133" fill="#FFCC05" mask="url(#mask-6)"></path>
                            <path d="M142.846934,81.6030964 L135.591038,40.7057439 L163.081604,35.8234993 C163.081604,35.8234993 165.633491,49.2880173 157.355189,59.5787223 C151.157075,67.2843626 153.365802,79.7353842 153.365802,79.7353842 L142.846934,81.6030964 Z" id="Fill-134" fill="#FFCC05" mask="url(#mask-6)"></path>
                            <path d="M141.625708,52.3970561 C141.610377,52.4230129 141.517217,52.6294878 141.604481,53.1828403 C141.722406,53.9273295 142.056132,54.792164 142.448821,55.5732288 C142.538443,54.0052 141.960613,52.5008835 141.625708,52.3970561 M138.234198,53.152164 C138.151651,53.4483079 138.128066,54.0948691 138.422877,54.9833007 C138.569104,55.4269266 138.784906,55.8858906 139.066745,56.292941 C139.078538,54.9278475 138.579717,53.6005094 138.234198,53.152164 M135.087972,83.5806532 C134.767217,83.6372863 134.460613,83.4237324 134.404009,83.1028115 L129.250708,54.0571137 C129.2,53.7739482 129.361557,53.4955022 129.631604,53.398754 C129.90283,53.3055453 130.203538,53.4129122 130.343868,53.6618619 C132.099764,56.7613439 134.203538,59.4466964 134.853302,59.4219194 C134.84033,59.4124806 134.998349,59.2520201 135.112736,58.6101784 C134.99717,58.4308403 134.889858,58.2349842 134.790802,58.0226101 C134.020755,56.3873295 133.611557,53.152164 134.593868,52.5504374 C134.863915,52.3840777 135.188208,52.406495 135.441745,52.6023511 C136.188208,53.1816604 136.54316,56.2693439 136.339151,58.2951568 C136.757783,58.785977 137.210613,58.9216604 137.776651,58.7328835 C138.236557,58.5747827 138.576179,58.2538619 138.791981,57.7748403 C137.991274,57.0232719 137.464151,55.9743799 137.203538,55.0269554 C136.899292,53.9155309 136.859198,52.5362791 137.663443,52.0018043 C137.98066,51.7929698 138.35684,51.7929698 138.7,52.0018043 C139.66816,52.5905525 140.416981,55.0257755 140.211792,56.9182647 C140.196462,57.0574878 140.176415,57.1919914 140.151651,57.3229554 C140.453538,57.4928547 140.790802,57.6002216 141.158726,57.6190993 C141.514858,57.637977 141.799057,57.4940345 142.011321,57.1896317 C141.119811,55.7702647 140.330896,53.8223223 140.392217,52.6271281 C140.438208,51.7493151 140.913443,51.4248547 141.191745,51.3092288 C141.66816,51.1145525 142.16934,51.2384374 142.571462,51.6549266 C143.490094,52.6058906 143.983019,55.3054014 143.358019,57.0976029 C143.569104,57.3925669 143.764858,57.6167396 143.915802,57.7394446 C144.325,56.9359626 144.769575,53.7857468 144.946462,51.069718 C144.966509,50.7723942 145.204717,50.536423 145.503066,50.5187252 C145.800236,50.5033871 146.063208,50.7110417 146.116274,51.0048259 L150.940566,78.2028691 C150.998349,78.5237899 150.784906,78.8293727 150.464151,78.8860058 C150.142217,78.9438187 149.836792,78.7290849 149.780189,78.408164 L145.688208,55.3478763 C145.431132,56.9973151 145.056132,58.4426388 144.514858,58.8390705 C144.378066,58.9405381 144.005425,59.1411137 143.486557,58.8614878 C143.253066,58.7352432 142.992453,58.4957324 142.721226,58.1759914 C142.296698,58.6125381 141.742453,58.8296317 141.098585,58.7965957 C140.610377,58.7718187 140.166981,58.6491137 139.766038,58.4544374 C139.409906,59.1281353 138.863915,59.6071568 138.158726,59.8490273 C137.392217,60.1085957 136.677594,60.0201065 136.05967,59.6106964 C135.756604,60.3776029 135.289623,60.5758187 134.937028,60.598236 C133.789623,60.6761065 132.21533,58.7718187 130.953538,56.8993871 L135.565566,82.8963367 C135.62217,83.2172576 135.408726,83.5228403 135.087972,83.5806532" id="Fill-135" fill="#FFFAEF" mask="url(#mask-6)"></path>
                            <path d="M156.851651,38.4208345 C156.787972,38.4314532 156.723113,38.4408921 156.657075,38.4456115 C155.366981,38.5506187 154.195991,37.4368345 154.041509,35.957295 C152.780896,23.8531511 144.204245,22.8974676 143.839858,22.8632518 C142.54033,22.7393669 141.525,21.4415252 141.570991,19.9643453 C141.616981,18.4859856 142.703066,17.3863597 144.006132,17.5137842 C148.488443,17.9408921 157.329245,22.2662446 158.716038,35.5785612 C158.862264,36.9825899 158.039151,38.2096403 156.851651,38.4208345" id="Fill-136" fill="#FFFAEF" mask="url(#mask-6)"></path>
                            <polygon id="Fill-137" fill="#383A45" mask="url(#mask-6)" points="156.51533 94.4184576 134.891509 98.2588892 131.698113 80.2578245 153.321934 76.4173928"></polygon>
                            <polygon id="Fill-138" fill="#383A45" mask="url(#mask-6)" points="151.827712 86.575482 136.114269 89.3658417 138.373703 102.097669 154.087146 99.3073094"></polygon>
                            <path d="M139.978892,18.0458993 C140.227712,19.4522878 139.291392,20.7961439 137.884552,21.0450935 C136.478892,21.295223 135.13691,20.3560576 134.88691,18.9496691 C134.63691,17.5432806 135.57441,16.2006043 136.98125,15.9504748 C138.38691,15.7003453 139.728892,16.6395108 139.978892,18.0458993" id="Fill-139" fill="#FFFAEF" mask="url(#mask-6)"></path>
                            <path d="M81.3430425,327.858299 C81.3430425,327.858299 91.5057783,329.300083 98.2298349,338.005062 L92.0045991,343.969235 C92.0045991,343.969235 81.7038915,340.348256 81.7038915,337.666443 C81.7038915,336.631709 81.3430425,327.858299 81.3430425,327.858299" id="Fill-140" fill="#605575" mask="url(#mask-6)"></path>
                            <path d="M84.0971698,320.067119 C84.3330189,319.65181 84.7339623,318.141594 87.170283,319.046544 C89.6066038,319.950314 89.7728774,316.29158 90.2693396,316.647896 C90.7669811,317.004213 90.8919811,318.882544 89.8436321,319.694285 C88.7941038,320.504846 84.9851415,320.621652 85.3695755,322.632127 C85.7528302,324.643781 104.406132,337.516012 102.833019,341.074458 C101.258726,344.631724 97.5417453,345.222832 94.3860849,342.780529 C91.2304245,340.338227 80.9379717,325.628961 84.0971698,320.067119" id="Fill-141" fill="#E57373" mask="url(#mask-6)"></path>
                            <path d="M73.8023585,313.176996 C73.8023585,313.176996 73.6867925,309.808506 72.1183962,310.127068 C70.5511792,310.447988 69.4191038,313.757485 70.2610849,314.977456 C71.1018868,316.198607 73.8318396,315.995672 73.8023585,313.176996" id="Fill-142" fill="#E57373" mask="url(#mask-6)"></path>
                            <path d="M117.603774,404.537384 L118.275943,410.118104 C119.188679,410.118104 128.920991,409.510478 129.022406,408.901672 C129.123821,408.292866 121.520047,407.328924 121.520047,407.328924 C121.520047,407.328924 121.555425,404.962132 121.418632,404.641212 C121.292453,404.346247 117.603774,404.537384 117.603774,404.537384" id="Fill-143" fill="#383A45" mask="url(#mask-6)"></path>
                            <path d="M102.89717,414.03617 L101.424292,419.461148 C102.269811,419.804486 111.518632,422.898069 111.840566,422.371853 C112.1625,421.846817 105.478538,418.094875 105.478538,418.094875 C105.478538,418.094875 106.399528,415.91686 106.393632,415.566443 C106.387736,415.245522 102.89717,414.03617 102.89717,414.03617" id="Fill-144" fill="#383A45" mask="url(#mask-6)"></path>
                            <path d="M74.9700472,327.266129 C74.9700472,327.266129 67.7872642,326.816604 64.195283,329.511396 C60.6044811,332.206187 61.7271226,384.09036 61.7271226,384.09036 L84.8462264,378.700777 C84.8462264,378.700777 86.4169811,330.859971 83.4995283,328.837698 C80.5808962,326.816604 74.9700472,327.266129 74.9700472,327.266129" id="Fill-145" fill="#605575" mask="url(#mask-6)"></path>
                            <path d="M61.7266509,377.121894 C61.7266509,377.121894 99.6606132,346.355965 112.455425,359.829922 C125.249057,373.305059 121.882311,406.542786 121.882311,406.542786 L116.495519,406.542786 C116.495519,406.542786 114.474292,368.813347 105.720755,366.791073 C96.967217,364.76998 87.8268868,375.624656 87.8268868,375.624656 C87.8268868,375.624656 101.231368,372.855534 108.639387,379.816685 C113.810377,384.677692 107.067453,417.320771 107.067453,417.320771 L101.68066,417.320771 C101.68066,417.320771 105.957783,383.87185 98.4318396,384.090124 C90.9070755,384.308397 61.7266509,384.090124 61.7266509,384.090124 L61.7266509,377.121894 Z" id="Fill-146" fill="#F05757" mask="url(#mask-6)"></path>
                            <polygon id="Fill-147" fill="#F9B57C" mask="url(#mask-6)" points="41.7496462 378.388233 114.718986 324.853442 136.023231 318.875111 121.657665 335.718737 47.5857311 389.616924"></polygon>
                            <polygon id="Fill-148" fill="#FAB217" mask="url(#mask-6)" points="114.718986 324.853324 111.852241 330.54259 117.60342 330.962619 116.706014 335.371741 121.657665 335.718619 47.6600236 390.596086 41.7496462 378.388115"></polygon>
                            <polygon id="Fill-149" fill="#383A45" mask="url(#mask-6)" points="124.269811 322.173399 128.465566 327.73642 136.023349 318.874521"></polygon>
                            <path d="M56.0699292,348.114069 C56.0699292,348.114069 54.4579009,366.55876 58.7267689,366.714501 C62.9956368,366.869062 77.635967,358.881436 79.073467,358.612429 C81.4543632,358.167623 83.8965802,359.938587 84.1489387,359.729753 C84.4024764,359.519738 83.8494104,356.416717 78.7362028,355.656889 C74.5262972,355.031565 63.4649764,359.525637 62.6253538,357.725177 C61.7857311,355.923537 65.260967,329.511278 65.260967,329.511278 C65.260967,329.511278 55.7714767,332.642616 56.0699292,348.114069" id="Fill-150" fill="#E57373" mask="url(#mask-6)"></path>
                            <path d="M53.5358491,345.451252 C53.5358491,345.451252 62.5606132,349.515856 63.8200472,348.114187 C65.0794811,346.710158 69.2834906,327.600029 69.2834906,327.600029 C69.2834906,327.600029 57.3212264,327.735712 53.5358491,345.451252" id="Fill-151" fill="#605575" mask="url(#mask-6)"></path>
                            <path d="M83.5017689,305.411065 C83.5017689,305.411065 87.4805425,318.597137 81.8685142,320.168705 C76.2564858,321.740273 77.2800708,315.791439 77.5041274,316.914662 C77.728184,318.037885 79.1574292,327.291496 79.1574292,327.291496 C79.1574292,327.291496 76.3154481,330.914835 70.9581368,327.777597 C70.1043632,327.277338 73.2399764,312.835899 73.8897406,305.501914 C74.1727594,302.298604 81.4805425,301.634345 83.5017689,305.411065" id="Fill-152" fill="#E57373" mask="url(#mask-6)"></path>
                            <path d="M55.3041274,317.799554 C58.5470519,312.594029 64.2145047,315.035151 64.3383255,310.105712 C64.4621462,305.176273 70.0482311,297.717223 80.0706368,300.592532 C84.8701651,301.969424 84.6814858,305.093683 80.2239387,304.988676 C75.7663915,304.883669 75.6142689,308.345367 75.2428066,310.105712 C74.8713443,311.867237 73.7227594,313.832878 73.4149764,312.897252 C72.2439858,309.343525 70.8112028,311.167583 70.8112028,311.167583 C70.8112028,311.167583 69.1048349,313.957942 70.8112028,314.770863 C72.51875,315.582604 73.196816,314.610403 73.4149764,315.777281 C73.6319575,316.945338 74.8701651,323.98436 69.9857311,324.189655 C65.1001179,324.396129 66.76875,327.352849 61.4090802,328.466633 C56.0505896,329.581597 52.3524764,322.536676 55.3041274,317.799554" id="Fill-153" fill="#383A45" mask="url(#mask-6)"></path>
                            <path d="M379.017335,174.771378 L379.585731,180.363896 C380.498467,180.380414 390.241392,179.952127 390.35342,179.345681 C390.466627,178.739235 382.881722,177.634889 382.881722,177.634889 C382.881722,177.634889 382.960731,175.269278 382.829835,174.945997 C382.709552,174.648673 379.017335,174.771378 379.017335,174.771378" id="Fill-154" fill="#383A45" mask="url(#mask-6)"></path>
                            <path d="M359.177476,221.231753 L358.040684,226.738141 C358.90625,227.027206 368.327241,229.547378 368.616156,229.002285 C368.90625,228.458371 362.002948,225.125278 362.002948,225.125278 C362.002948,225.125278 362.789505,222.89299 362.761203,222.543753 C362.736439,222.224012 359.177476,221.231753 359.177476,221.231753" id="Fill-155" fill="#383A45" mask="url(#mask-6)"></path>
                            <path d="M341.793868,152.060328 C341.793868,152.060328 356.29033,123.841709 372.94717,125.808529 C389.604009,127.77535 384.685377,175.243321 384.685377,175.243321 L378.157075,175.243321 C378.157075,175.243321 376.740802,140.411609 371.052123,140.494199 C365.362264,140.575609 346.324528,167.21322 346.324528,167.21322 C346.324528,167.21322 371.128774,165.104817 374.453066,182.009796 C378.49316,202.55935 364.35283,223.781422 364.35283,223.781422 L356.354009,223.475839 C356.354009,223.475839 371.599292,187.598774 363.004953,182.347235 C349.775,174.26286 324.285613,188.78335 314.185377,169.733393 L341.793868,152.060328 Z" id="Fill-156" fill="#007F86" mask="url(#mask-6)"></path>
                            <path d="M323.218514,114.393068 C323.218514,114.393068 341.285731,121.150104 350.520401,117.284895 C359.75625,113.419686 370.167807,94.2894993 376.060495,94.0653266 C381.952005,93.8423338 382.180778,91.7374705 382.180778,91.7374705 C382.180778,91.7374705 381.722052,97.0090676 377.888325,97.2155424 C374.054599,97.424377 369.486203,119.361442 354.729127,125.226506 C339.970873,131.091571 324.597052,126.373327 324.597052,126.373327 C324.597052,126.373327 321.160731,116.838909 323.218514,114.393068" id="Fill-157" fill="#E57373" mask="url(#mask-6)"></path>
                            <path d="M331.233726,113.620498 C331.233726,113.620498 299.990802,102.146397 314.185377,169.733275 C314.185377,169.733275 346.632311,159.365879 341.793868,152.06021 C338.427123,146.97621 337.135849,150.388354 336.463679,142.176555 C335.789151,133.964757 354.265566,132.9548 331.233726,113.620498" id="Fill-158" fill="#605575" mask="url(#mask-6)"></path>
                            <path d="M317.735731,87.4557727 C317.891392,87.0086072 323.282901,78.8286647 331.929127,84.1875712 C335.577712,86.4493554 335.629599,90.7428518 340.116627,91.8554561 C344.604835,92.9680604 351.133137,88.6486072 353.453892,96.0828806 C355.775825,103.517154 353.124882,105.540607 357.147288,106.374765 C361.170873,107.208924 364.226297,106.708665 363.247524,112.429787 C361.838325,120.654564 349.246344,120.894075 347.703892,116.220665 C343.801769,104.403226 337.148467,118.39042 333.777005,107.876722 C332.069458,102.555571 309.635495,110.713096 317.735731,87.4557727" id="Fill-159" fill="#383A45" mask="url(#mask-6)"></path>
                            <path d="M328.38809,99.0203683 C328.38809,99.0203683 330.072052,95.9704403 331.640448,96.2901813 C333.207665,96.6099223 332.772524,99.6020374 331.930542,100.820829 C331.088561,102.04198 328.359788,101.837865 328.38809,99.0203683" id="Fill-160" fill="#E57373" mask="url(#mask-6)"></path>
                            <path d="M317.021698,94.1183022 C317.021698,94.1183022 314.710377,104.439683 320.322406,106.012432 C325.934434,107.584 324.910849,101.635165 324.686792,102.758388 C324.462736,103.880432 323.033491,113.134043 323.033491,113.134043 C323.033491,113.134043 325.875472,116.758561 331.233962,113.620144 C332.085377,113.121065 328.950943,98.678446 328.301179,91.3456403 C328.016981,88.1435108 318.943868,87.5311655 317.021698,94.1183022" id="Fill-161" fill="#E57373" mask="url(#mask-6)"></path>
                            <path d="M326.559316,125.715203 C326.559316,125.715203 343.735024,134.494512 353.351769,131.711232 C362.968514,128.927951 375.496816,111.114483 381.375354,111.565188 C387.255071,112.017073 387.722052,109.952325 387.722052,109.952325 C387.722052,109.952325 386.665448,115.136613 382.832901,114.904181 C379.000354,114.67175 371.955542,135.943376 356.624175,140.082311 C341.292807,144.220066 326.559316,137.775692 326.559316,137.775692 C326.559316,137.775692 324.235024,127.909735 326.559316,125.715203" id="Fill-162" fill="#E57373" mask="url(#mask-6)"></path>
                            <path d="M331.233726,113.620498 C331.233726,113.620498 339.131132,118.264412 340.348113,118.345822 C341.562736,118.427232 340.348113,126.564699 340.348113,126.564699 C340.348113,126.564699 329.339858,121.100786 331.233726,113.620498" id="Fill-163" fill="#605575" mask="url(#mask-6)"></path>
                            <path d="M324.200825,122.631295 C324.200825,122.631295 334.656014,126.69236 335.336439,128.16718 C336.018042,129.64318 334.171344,142.090662 331.378892,141.308417 C328.587618,140.526173 319.153656,138.952245 318.957901,132.857108 C318.760967,126.760791 320.704363,121.203669 324.200825,122.631295" id="Fill-164" fill="#605575" mask="url(#mask-6)"></path>
                            <path d="M408.627476,86.4228086 C408.627476,101.036506 396.786675,112.883442 382.180542,112.883442 C367.57441,112.883442 355.733608,101.036506 355.733608,86.4228086 C355.733608,71.8091108 367.57441,59.9621755 382.180542,59.9621755 C396.786675,59.9621755 408.627476,71.8091108 408.627476,86.4228086" id="Fill-165" fill="#F05757" mask="url(#mask-6)"></path>
                            <path d="M374.049292,86.4088863 C374.063443,86.8005986 374.06816,87.1946705 374.071698,87.5887424 L381.590566,87.5887424 L381.590566,86.4088863 L374.049292,86.4088863 Z" id="Fill-166" fill="#FFFAEF" mask="url(#mask-6)"></path>
                            <path d="M382.769222,86.4088863 L382.769222,87.5887424 L390.290448,87.5887424 C390.293986,87.1946705 390.297524,86.8005986 390.311675,86.4088863 L382.769222,86.4088863 Z" id="Fill-167" fill="#FFFAEF" mask="url(#mask-6)"></path>
                            <path d="M408.598585,87.5887424 C408.615094,87.2017496 408.626887,86.813577 408.626887,86.4230446 L408.626887,86.4088863 L391.492453,86.4088863 C391.478302,86.8005986 391.472406,87.1946705 391.470047,87.5887424 L408.598585,87.5887424 Z" id="Fill-168" fill="#FFFAEF" mask="url(#mask-6)"></path>
                            <path d="M355.733019,86.4088863 L355.733019,86.4230446 C355.733019,86.813577 355.745991,87.2017496 355.7625,87.5887424 L372.892217,87.5887424 C372.888679,87.1946705 372.882783,86.8005986 372.867453,86.4088863 L355.733019,86.4088863 Z" id="Fill-169" fill="#FFFAEF" mask="url(#mask-6)"></path>
                            <path d="M382.769222,59.9768058 C382.573467,59.9720863 382.377712,59.9614676 382.180778,59.9614676 C381.982665,59.9614676 381.78691,59.9720863 381.589976,59.9768058 L381.589976,86.4091223 L381.589976,87.5889784 L381.589976,112.868576 C381.78691,112.873295 381.982665,112.883914 382.180778,112.883914 C382.377712,112.883914 382.573467,112.873295 382.769222,112.868576 L382.769222,87.5889784 L382.769222,86.4091223 L382.769222,59.9768058 Z" id="Fill-170" fill="#FFFAEF" mask="url(#mask-6)"></path>
                            <path d="M391.463915,87.8924374 C391.463915,87.7909698 391.468632,87.690682 391.469811,87.5892144 C391.47217,87.1939626 391.479245,86.7998906 391.492217,86.4093583 C391.801179,78.0760345 394.685613,70.7231712 399.008726,66.009646 C398.711557,65.764236 398.407311,65.525905 398.099528,65.2934734 C393.608962,70.2299914 390.621934,77.8211856 390.311792,86.4093583 C390.297642,86.7998906 390.294104,87.1939626 390.290566,87.5892144 C390.289387,87.690682 390.28467,87.7909698 390.28467,87.8924374 C390.28467,96.0535022 392.703302,103.419344 396.56533,108.622509 C396.889623,108.411315 397.208019,108.194222 397.522877,107.970049 C393.8,102.970999 391.463915,95.8222504 391.463915,87.8924374" id="Fill-171" fill="#FFFAEF" mask="url(#mask-6)"></path>
                            <path d="M366.262146,65.2931194 C365.953184,65.5255511 365.648939,65.7627022 365.351769,66.0092921 C369.674882,70.7228173 372.560495,78.0756806 372.868278,86.4090043 C372.882429,86.8007165 372.888325,87.1936086 372.891863,87.5888604 C372.891863,87.6903281 372.89658,87.7906158 372.89658,87.8920835 C372.89658,95.8218964 370.561675,102.971824 366.838797,107.969695 C367.152476,108.193868 367.470873,108.412141 367.796344,108.622155 C371.658373,103.41899 374.075825,96.0531482 374.075825,87.8920835 C374.075825,87.7906158 374.071108,87.6903281 374.071108,87.5888604 C374.067571,87.1936086 374.062854,86.8007165 374.049882,86.4090043 C373.739741,77.8208317 370.752712,70.2296374 366.262146,65.2931194" id="Fill-172" fill="#FFFAEF" mask="url(#mask-6)"></path>
                            <path d="M128.825,1.20581295 C127.946462,1.36155396 127.35566,2.20869065 127.5125,3.0865036 L128.233019,7.15346763 C128.388679,8.03128058 129.235377,8.62238849 130.112736,8.46664748 C130.991274,8.30972662 131.582075,7.46376978 131.426415,6.58595683 L130.704717,2.52017266 C130.549057,1.64117986 129.703538,1.05007194 128.825,1.20581295" id="Fill-173" fill="#FFCC05" mask="url(#mask-6)"></path>
                            <path d="M141.025118,0.429821583 C140.143042,0.30003741 139.315212,0.915922302 139.184316,1.79845468 L138.581722,5.88311655 C138.452005,6.76564892 139.067571,7.59508777 139.949646,7.72487194 C140.831722,7.85465612 141.660731,7.23995108 141.790448,6.35741871 L142.393042,2.27157698 C142.522759,1.3890446 141.908373,0.560785612 141.025118,0.429821583" id="Fill-174" fill="#FFCC05" mask="url(#mask-6)"></path>
                            <path d="M153.20283,2.71237122 C152.454009,2.22863022 151.444575,2.44572374 150.961085,3.19611223 L148.724057,6.66606906 C148.240566,7.4152777 148.458726,8.42523453 149.207547,8.90897554 C149.957547,9.39271655 150.965802,9.17444317 151.449292,8.42523453 L153.686321,4.9552777 C154.169811,4.20488921 153.95283,3.19611223 153.20283,2.71237122" id="Fill-175" fill="#FFCC05" mask="url(#mask-6)"></path>
                            <path d="M161.509906,9.28051223 C160.845991,8.68586475 159.81533,8.7436777 159.220991,9.40911655 L156.470991,12.488541 C155.876651,13.1539799 155.934434,14.1851741 156.599528,14.7798216 C157.264623,15.3744691 158.294104,15.3154763 158.888443,14.6512173 L161.638443,11.5717928 C162.232783,10.906354 162.175,9.87515971 161.509906,9.28051223" id="Fill-176" fill="#FFCC05" mask="url(#mask-6)"></path>
                            <path d="M169.438679,18.9204086 C169.086085,18.1015885 168.127358,17.7181353 167.308962,18.0709122 L163.517689,19.7026532 C162.698113,20.0542504 162.314858,21.0134734 162.667453,21.8334734 C163.020047,22.6534734 163.978774,23.0357468 164.79717,22.6829698 L168.589623,21.0524086 C169.409198,20.6996317 169.791274,19.7404086 169.438679,18.9204086" id="Fill-177" fill="#FFCC05" mask="url(#mask-6)"></path>
                            <path d="M174.820755,27.9392288 C174.707547,27.0543367 173.891509,26.4219338 173.007075,26.5352 L168.912736,27.0578763 C168.028302,27.1711424 167.396226,27.9876029 167.509434,28.872495 C167.622642,29.7573871 168.438679,30.3897899 169.323113,30.2765237 L173.417453,29.7538475 C174.301887,29.6405813 174.933962,28.8241209 174.820755,27.9392288" id="Fill-178" fill="#FFCC05" mask="url(#mask-6)"></path>
                            <path d="M176.652948,38.5020086 C176.636439,37.6100374 175.892335,36.8938647 175.002005,36.9103827 L170.874646,36.9870734 C169.983137,37.0035914 169.267335,37.7469007 169.283844,38.6400518 C169.300354,39.532023 170.044458,40.2481957 170.934788,40.2316777 L175.062146,40.1538072 C175.953656,40.1372892 176.669458,39.3939799 176.652948,38.5020086" id="Fill-179" fill="#FFCC05" mask="url(#mask-6)"></path>
                            <path d="M175.979245,48.5746763 C176.186792,47.707482 175.647877,46.8273094 174.781132,46.6184748 L170.76816,45.6545324 C169.900236,45.4468777 169.020519,45.9860719 168.812972,46.854446 C168.604245,47.7216403 169.14434,48.6018129 170.011085,48.8094676 L174.024057,49.7734101 C174.891981,49.9810647 175.771698,49.4418705 175.979245,48.5746763" id="Fill-180" fill="#FFCC05" mask="url(#mask-6)"></path>
                            <path d="M173.541274,58.7675712 C173.975236,57.9876863 173.692217,56.9954273 172.913915,56.5600604 L169.307783,54.5519453 C168.529481,54.1177583 167.536557,54.3997439 167.102594,55.1796288 C166.668632,55.9595137 166.950472,56.9517727 167.729953,57.3859597 L171.334906,59.3952547 C172.114387,59.8294417 173.107311,59.5474561 173.541274,58.7675712" id="Fill-181" fill="#FFCC05" mask="url(#mask-6)"></path>
                            <path d="M166.840684,65.7418187 C167.575354,65.2356604 167.762854,64.2209842 167.258137,63.4859338 L164.918514,60.0832288 C164.412618,59.3481784 163.398467,59.1605813 162.663797,59.6667396 C161.929127,60.171718 161.741627,61.1875741 162.246344,61.9226245 L164.585967,65.3241496 C165.090684,66.0603799 166.106014,66.2467971 166.840684,65.7418187" id="Fill-182" fill="#FFCC05" mask="url(#mask-6)"></path>
                            <path d="M118.491038,4.43201151 C119.275236,4.00608345 120.264623,4.29868777 120.69033,5.08329209 L122.662028,8.71016978 C123.086557,9.4947741 122.794104,10.4846734 122.011085,10.9106014 C121.228066,11.3377094 120.2375,11.0439252 119.811792,10.2605007 L117.841274,6.63244317 C117.415566,5.84901871 117.708019,4.85793957 118.491038,4.43201151" id="Fill-183" fill="#FFCC05" mask="url(#mask-6)"></path>
                            <path d="M107.842689,10.7685468 C108.380425,10.0559137 109.401651,9.91315108 110.113915,10.4499856 L113.408726,12.9383022 C114.119811,13.4751367 114.2625,14.4980719 113.725943,15.210705 C113.188208,15.9221583 112.166981,16.0661007 111.454717,15.5280863 L108.161085,13.0409496 C107.448821,12.5029353 107.304953,11.4811799 107.842689,10.7685468" id="Fill-184" fill="#FFCC05" mask="url(#mask-6)"></path>
                            <path d="M102.302948,19.7960978 C102.722759,19.0091338 103.709788,18.7082705 104.496344,19.1282993 L108.137854,21.0727022 C108.92441,21.4927309 109.225118,22.4802705 108.805307,23.2672345 C108.385495,24.0553784 107.398467,24.3550619 106.610731,23.9350331 L102.969222,21.9906302 C102.182665,21.5706014 101.883137,20.5830619 102.302948,19.7960978" id="Fill-185" fill="#FFCC05" mask="url(#mask-6)"></path>
                            <path d="M98.1744104,31.5773151 C98.2239387,30.6865237 98.9916274,29.9974878 99.8819575,30.0458619 L104.00342,30.2723942 C104.89375,30.3207683 105.582429,31.0900345 105.53408,31.9808259 C105.485731,32.8716173 104.716863,33.5606532 103.826533,33.5122791 L99.7050708,33.2857468 C98.8147406,33.2373727 98.1260613,32.4681065 98.1744104,31.5773151" id="Fill-186" fill="#FFCC05" mask="url(#mask-6)"></path>
                            <path d="M96.2241745,41.8982245 C96.0260613,41.0286705 96.5744104,40.1543971 97.4435142,39.9561813 L101.468278,39.0358935 C102.337382,38.8376777 103.211203,39.3874906 103.409316,40.2570446 C103.607429,41.1265986 103.05908,42.0008719 102.189976,42.1990878 L98.1652123,43.1193755 C97.2961085,43.3175914 96.4222877,42.7677784 96.2241745,41.8982245" id="Fill-187" fill="#FFCC05" mask="url(#mask-6)"></path>
                            <path d="M98.1370283,52.4466101 C97.8457547,51.6030129 98.2974057,50.6744662 99.140566,50.3830417 L103.041509,49.0344662 C103.88467,48.7430417 104.812736,49.1949266 105.10283,50.0385237 C105.394104,50.880941 104.942453,51.8094878 104.100472,52.1020921 L100.199528,53.4506676 C99.3563679,53.7420921 98.4283019,53.2902072 98.1370283,52.4466101" id="Fill-188" fill="#FFCC05" mask="url(#mask-6)"></path>
                            <path d="M102.234434,61.6716691 C101.741509,60.9295396 101.94434,59.917223 102.687264,59.4228633 L106.123585,57.1351223 C106.866509,56.6419424 107.878302,56.8448777 108.371226,57.5881871 C108.86533,58.3303165 108.6625,59.3426331 107.919575,59.8369928 L104.483255,62.1247338 C103.74033,62.6179137 102.728538,62.4149784 102.234434,61.6716691" id="Fill-189" fill="#FFCC05" mask="url(#mask-6)"></path>
                            <path d="M108.029835,70.4024863 C107.354127,69.8196374 107.277476,68.7908029 107.860024,68.1147453 L110.554599,64.9857669 C111.137146,64.3097094 112.165448,64.2330187 112.841156,64.8158676 C113.516863,65.3987165 113.593514,66.4287309 113.010967,67.1047885 L110.316392,70.2325871 C109.735024,70.9086446 108.705542,70.9853353 108.029835,70.4024863" id="Fill-190" fill="#FFCC05" mask="url(#mask-6)"></path>
                            <path d="M116.720401,74.6432432 C115.857193,74.4214302 115.33125,73.5329986 115.552948,72.668164 L116.578892,68.6684518 C116.80059,67.8047971 117.688561,67.2785813 118.551769,67.5003942 C119.416156,67.7222072 119.94092,68.6106388 119.719222,69.4754734 L118.694458,73.4751856 C118.472759,74.3388403 117.583608,74.8650561 116.720401,74.6432432" id="Fill-191" fill="#FFCC05" mask="url(#mask-6)"></path>
                            <path d="M287.583137,367.169217 L287.538325,372.791232 C286.630307,372.892699 276.892099,373.374081 276.723467,372.780613 C276.553656,372.187145 284.002948,370.380786 284.002948,370.380786 C284.002948,370.380786 283.70342,368.032872 283.803656,367.697793 C283.895637,367.38985 287.583137,367.169217 287.583137,367.169217" id="Fill-192" fill="#383A45" mask="url(#mask-6)"></path>
                            <path d="M301.457783,367.180662 L301.234906,372.797957 C300.324528,372.871108 290.574528,373.044547 290.425943,372.44636 C290.276179,371.846993 297.777358,370.277784 297.777358,370.277784 C297.777358,370.277784 297.552123,367.921612 297.662972,367.590072 C297.764387,367.285669 301.457783,367.180662 301.457783,367.180662" id="Fill-193" fill="#383A45" mask="url(#mask-6)"></path>
                            <path d="M308.08184,297.896443 C308.08184,297.896443 315.03467,247.999148 308.091274,240.912932 C297.230425,229.828184 278.271698,238.128472 277.505189,239.399177 C274.391981,244.563407 274.105425,296.622199 274.105425,296.622199 L308.08184,297.896443 Z" id="Fill-194" fill="#7DD0E6" mask="url(#mask-6)"></path>
                            <path d="M274.105896,296.622081 C274.105896,296.622081 257.868868,317.492555 260.563443,328.008613 C263.25684,338.523491 281.783962,368.595663 281.783962,368.595663 L289.645991,368.595663 C289.645991,368.595663 272.833491,331.400699 274.105896,327.550829 C275.377123,323.700958 291.097642,308.198829 291.097642,308.198829 C291.097642,308.198829 292.009198,349.486714 296.825236,368.595663 L302.312264,368.595663 C302.312264,368.595663 308.142453,322.440872 308.09091,295.764325 L274.105896,296.622081 Z" id="Fill-195" fill="#383A45" mask="url(#mask-6)"></path>
                            <path d="M301.454245,236.606694 L300.411792,327.623154 L309.336321,327.623154 C309.336321,327.623154 312.397642,246.382981 311.174764,241.930204 C309.950708,237.477427 301.454245,236.606694 301.454245,236.606694" id="Fill-196" fill="#FBE4D3" mask="url(#mask-6)"></path>
                            <path d="M261.342689,316.548317 L266.592689,320.548029 C266.592689,320.548029 282.214151,298.365554 281.783726,295.765151 C281.353302,293.165928 283.90283,236.607165 283.90283,236.607165 C283.90283,236.607165 278.236557,236.856115 277.095047,241.166129 C273.696462,254.012403 274.10566,293.780633 274.10566,293.780633 C274.10566,293.780633 265.93467,306.695338 261.342689,316.548317" id="Fill-197" fill="#FBE4D3" mask="url(#mask-6)"></path>
                            <path d="M293.832901,220.7276 C293.832901,220.7276 293.949646,217.357931 295.518042,217.677672 C297.085259,217.997413 298.217335,221.308089 297.375354,222.52806 C296.533373,223.749212 293.804599,223.545096 293.832901,220.7276" id="Fill-198" fill="#E57373" mask="url(#mask-6)"></path>
                            <path d="M283.398231,216.829709 C283.398231,216.829709 280.156486,226.147033 285.767335,227.718601 C291.379363,229.29135 290.355778,223.342515 290.131722,224.465738 C289.907665,225.587781 288.851061,236.346889 288.851061,236.346889 C288.851061,236.346889 291.320401,238.465911 296.678892,235.327494 C296.678892,235.327494 294.395873,220.385796 293.746108,213.05299 C293.46191,209.849681 285.420637,213.05299 283.398231,216.829709" id="Fill-199" fill="#E57373" mask="url(#mask-6)"></path>
                            <path d="M293.200708,210.175203 C293.200708,210.175203 291.935377,205.812095 289.245519,206.832671 C286.553302,207.854426 286.925943,209.339865 284.976651,208.504527 C283.028538,207.669188 281.033255,210.732095 282.066274,212.681217 C283.417689,215.236786 283.398821,216.02375 287.111085,215.188412 C290.820991,214.353073 292.770283,213.052872 293.605189,214.538311 C294.440094,216.02375 292.955425,219.828786 294.068632,220.293649 C295.183019,220.757332 295.089858,217.786455 295.924764,218.901419 C296.75967,220.014023 298.058019,222.859836 295.831604,222.504699 C293.605189,222.149563 295.250236,225.12162 296.098113,225.028412 C296.944811,224.934023 300.817453,221.76139 300.377594,217.508009 C300.100472,214.816757 297.273821,216.208987 298.058019,214.258685 C298.843396,212.310742 297.063915,208.132872 293.200708,210.175203" id="Fill-200" fill="#383A45" mask="url(#mask-6)"></path>
                            <path d="M311.462854,297.896443 C311.462854,297.896443 306.617335,294.447724 312.961675,287.663551 C318.274175,281.986083 331.287146,267.99417 326.795401,262.881853 C322.302476,257.768357 311.462854,253.792242 311.462854,253.792242 L309.235259,239.29417 C309.235259,239.29417 333.15625,248.580817 338.020637,261.854199 C342.617335,274.393709 316.330778,289.373163 314.119693,291.256213 C311.150354,293.784645 311.462854,297.896443 311.462854,297.896443" id="Fill-201" fill="#E57373" mask="url(#mask-6)"></path>
                            <path d="M277.505425,239.399059 C277.505425,239.399059 252.23066,247.396124 251.051415,265.098685 C249.87217,282.801246 274.18467,289.399001 272.62217,292.382858 C271.347406,294.82162 267.266038,295.620383 268.445283,295.449304 C269.624528,295.277045 276.09033,297.77244 274.18467,289.399001 C272.27783,281.026742 254.098585,274.832498 262.254245,263.914109 C266.612736,258.082081 275.408726,254.966081 275.408726,254.966081 C275.408726,254.966081 276.348585,243.258368 277.505425,239.399059" id="Fill-202" fill="#E57373" mask="url(#mask-6)"></path>
                            <path d="M310.113208,254.966435 L321.806604,259.199758 C321.806604,259.199758 328.95283,250.550233 328.487028,250.183298 C328.022406,249.815183 316.365566,239.67078 303.903302,237.04678 C303.903302,237.04678 307.165094,252.45924 310.113208,254.966435" id="Fill-203" fill="#FBE4D3" mask="url(#mask-6)"></path>
                            <path d="M279.058962,254.966435 C279.058962,254.966435 270.411557,257.527902 266.481132,261.264506 C266.481132,261.264506 257.354953,251.668737 257.580189,251.431586 C257.806604,251.195614 265.939858,241.901888 281.576651,237.04678 L279.058962,254.966435 Z" id="Fill-204" fill="#FBE4D3" mask="url(#mask-6)"></path>
                            <path d="M282.064741,224.351292 C282.064741,224.351292 283.81592,222.900069 285.879599,224.351292 C287.943278,225.801335 293.65908,223.859292 293.431486,219.754573 L295.114269,218.79063 C295.114269,218.79063 293.692099,229.193422 287.943278,229.930832 C282.194458,230.668242 281.179127,224.819695 282.064741,224.351292" id="Fill-205" fill="#383A45" mask="url(#mask-6)"></path>
                        </g>
                    </g>
                </g>
            </g>
        </g>
    </g>
</svg>