<?xml version="1.0" encoding="UTF-8"?>
<svg width="406px" height="1281px" viewBox="0 0 406 1281" version="1.1" xmlns="http://www.w3.org/2000/svg" xmlns:xlink="http://www.w3.org/1999/xlink">
    <!-- Generator: Sketch 64 (93537) - https://sketch.com -->
    <title>Oval 2</title>
    <desc>Created with Sketch.</desc>
    <defs>
        <linearGradient x1="49.9999915%" y1="2.44984954%" x2="49.9999915%" y2="99.5045348%" id="linearGradient-1">
            <stop stop-color="#59C6EF" offset="0%"></stop>
            <stop stop-color="#AAE6F6" offset="100%"></stop>
        </linearGradient>
        <polygon id="path-2" points="0 1178 549.188993 1178 549.188993 0.29185667 0 0.29185667"></polygon>
        <linearGradient x1="50.0002424%" y1="-2.91479888%" x2="50.0002424%" y2="100.935407%" id="linearGradient-4">
            <stop stop-color="#59C6EF" offset="0%"></stop>
            <stop stop-color="#AAE6F6" offset="100%"></stop>
        </linearGradient>
        <path d="M111.58225,2.69172455 C108.76345,4.5726887 106.92475,7.19549861 105.1387,12.9397361 L105.1387,12.9397361 C102.65605,20.9176185 101.0968,32.0331437 90.9151,30.0913725 L90.9151,30.0913725 C86.78005,29.3049349 84.2974,25.105196 80.09755,28.8711781 L80.09755,28.8711781 C77.47315,31.2304909 78.31555,37.3557858 75.69925,40.3637069 L75.69925,40.3637069 C74.41135,41.8473984 72.78325,43.4770268 70.78255,43.882407 L70.78255,43.882407 C67.76935,44.4945311 65.4811,41.7379458 63.6505,39.7840132 L63.6505,39.7840132 C61.24075,37.2098489 58.2802,34.4005641 54.40435,34.9235045 L54.40435,34.9235045 C53.68345,35.0248496 52.9585,35.1464636 52.24975,35.3207771 L52.24975,35.3207771 C51.2089,35.5761667 50.19235,35.8437176 49.19605,36.2612592 L49.19605,36.2612592 C47.00095,37.1855261 44.84635,38.5435498 42.8416,39.8204974 L42.8416,39.8204974 C39.05485,42.2162944 35.36935,44.7661359 31.59475,47.1619329 L31.59475,47.1619329 C28.22515,49.3023404 24.27235,50.8590003 20.31145,51.377887 L20.31145,51.377887 C17.20915,51.787321 2.96935,51.4873396 0.13435,50.9035922 L0.13435,50.9035922 C15.9577,55.2695369 46.7134,70.564532 61.747,68.3268333 L61.747,68.3268333 C74.34655,66.4539768 81.81475,61.9542565 92.2597,72.7171009 L92.2597,72.7171009 C95.90875,76.483083 100.1167,82.8272832 104.2153,85.9608722 L104.2153,85.9608722 C106.9045,88.0161498 113.63155,91.1537926 120.3667,91.1578464 L120.3667,91.1578464 C127.10185,91.1537926 133.83295,88.0161498 136.5181,85.9608722 L136.5181,85.9608722 C140.6167,82.8272832 144.82465,76.483083 148.47775,72.7171009 L148.47775,72.7171009 C158.91865,61.9542565 166.38685,66.4539768 178.9864,68.3268333 L178.9864,68.3268333 C194.02,70.564532 224.7757,55.2695369 240.59905,50.9035922 L240.59905,50.9035922 C237.76405,51.4873396 223.52425,51.787321 220.42195,51.377887 L220.42195,51.377887 C216.46105,50.8590003 212.50825,49.3023404 209.13865,47.1619329 L209.13865,47.1619329 C205.36405,44.7661359 201.67855,42.2162944 197.89585,39.8204974 L197.89585,39.8204974 C195.883,38.5435498 193.73245,37.1855261 191.53735,36.2612592 L191.53735,36.2612592 C190.5451,35.8437176 189.52855,35.5761667 188.48365,35.3207771 L188.48365,35.3207771 C187.7749,35.1464636 187.04995,35.0248496 186.32905,34.9235045 L186.32905,34.9235045 C182.45725,34.4005641 179.49265,37.2098489 177.0829,39.7840132 L177.0829,39.7840132 C175.25635,41.7379458 172.9681,44.4945311 169.9549,43.882407 L169.9549,43.882407 C167.9542,43.4770268 166.3261,41.8473984 165.03415,40.3637069 L165.03415,40.3637069 C162.4219,37.3557858 163.2643,31.2304909 160.63585,28.8711781 L160.63585,28.8711781 C156.436,25.105196 153.9574,29.3049349 149.82235,30.0913725 L149.82235,30.0913725 C139.64065,32.0331437 138.07735,20.9176185 135.59875,12.9397361 L135.59875,12.9397361 C133.80865,7.19549861 131.974,4.5726887 129.15115,2.69172455 L129.15115,2.69172455 C126.51865,0.932374468 123.44065,0.0567532285 120.3667,0.0526994265 L120.3667,0.0526994265 C117.29275,0.0567532285 114.21475,0.932374468 111.58225,2.69172455" id="path-5"></path>
        <polygon id="path-7" points="0 1178 549.188993 1178 549.188993 0.29185667 0 0.29185667"></polygon>
    </defs>
    <g id="Page-1" stroke="none" stroke-width="1" fill="none" fill-rule="evenodd">
        <g id="Web" transform="translate(0.000000, -3861.000000)">
            <g id="photos" transform="translate(-144.000000, 2356.000000)">
                <g id="Oval-2" transform="translate(0.000000, 1505.000000)">
                    <path d="M183.806859,1281 C274.759633,1281 384.49068,1281 513,1281 L503.997307,170.910893 L493.674672,0 C244.682233,288.011188 152.371339,472.191828 216.741992,552.54192 C313.297971,673.067058 47.3776979,1281 183.806859,1281 Z" id="Oval" fill="#D8D8D8" transform="translate(328.500000, 640.500000) scale(-1, 1) translate(-328.500000, -640.500000) "></path>
                    <g id="Group-189" opacity="0.905064174" transform="translate(0.000000, 103.000000)">
                        <polygon id="Fill-1" fill="#FFFFFF" points="485 134.650539 483.045267 1032.62979 341 1032.32138 342.958797 134.342128"></polygon>
                        <polygon id="Fill-2" fill="#262C66" points="422 134.378661 420.090007 1032.62979 404 1032.59325 405.909993 134.342128"></polygon>
                        <polygon id="Fill-3" fill="#262C66" points="380 134.378661 378.090428 1032.62979 362 1032.59325 363.913542 134.342128"></polygon>
                        <polygon id="Fill-4" fill="#262C66" points="465 135.381214 463.090428 1033.63234 447 1033.59581 448.913542 135.344681"></polygon>
                        <polygon id="Fill-5" fill="#E7E7E7" points="411.070211 0 342 135.03561 484 135.344681 411.074273 0"></polygon>
                        <polygon id="Fill-6" fill="#FD425F" points="411.451536 0 374 73.0197362 451 73.186383 411.455608 0"></polygon>
                        <path d="M54,521.080065 L54,282.967594 C54,279.509394 56.8057707,276.704681 60.2693342,276.704681 L198.734726,276.704681 C202.194229,276.704681 205,279.509394 205,282.971653 L205,521.080065 C205,524.542324 202.194229,527.342979 198.734726,527.342979 L60.2693342,527.342979 C56.8057707,527.342979 54,524.542324 54,521.080065" id="Fill-7" fill="#1B0C41"></path>
                        <polygon id="Fill-9" fill="url(#linearGradient-1)" points="66 506.289362 195 506.289362 195 286.730213 66 286.730213"></polygon>
                        <g id="Group-105">
                            <path d="M176.056249,299.742234 L172.713786,299.742234 C171.887286,299.742234 171.218793,299.07259 171.218793,298.244667 L171.218793,296.105866 C171.218793,295.282002 171.887286,294.612358 172.713786,294.612358 L176.056249,294.612358 C176.882749,294.612358 177.551242,295.282002 177.551242,296.105866 L177.551242,298.244667 C177.551242,299.07259 176.882749,299.742234 176.056249,299.742234" id="Fill-17" fill="#FFFFFF"></path>
                            <path d="M156.697107,299.742234 L153.350593,299.742234 C152.528144,299.742234 151.859651,299.07259 151.859651,298.244667 L151.859651,296.105866 C151.859651,295.282002 152.528144,294.612358 153.350593,294.612358 L156.697107,294.612358 C157.519556,294.612358 158.1921,295.282002 158.1921,296.105866 L158.1921,298.244667 C158.1921,299.07259 157.519556,299.742234 156.697107,299.742234" id="Fill-19" fill="#FFFFFF"></path>
                            <path d="M188.187162,299.742234 L184.844699,299.742234 C184.018199,299.742234 183.349707,299.07259 183.349707,298.244667 L183.349707,296.105866 C183.349707,295.282002 184.018199,294.612358 184.844699,294.612358 L188.187162,294.612358 C189.013662,294.612358 189.682155,295.282002 189.682155,296.105866 L189.682155,298.244667 C189.682155,299.07259 189.013662,299.742234 188.187162,299.742234" id="Fill-21" fill="#FFFFFF"></path>
                            <mask id="mask-3" fill="white">
                                <use xlink:href="#path-2"></use>
                            </mask>
                            <g id="Clip-24"></g>
                            <polygon id="Fill-23" fill="#FFFFFF" mask="url(#mask-3)" points="74.9562574 466.339395 183.661265 466.339395 183.661265 440.937584 74.9562574 440.937584"></polygon>
                            <polygon id="Fill-25" fill="#D3E9FF" mask="url(#mask-3)" points="97.2352941 451.7574 174.346934 451.7574 174.346934 447.013077 97.2352941 447.013077"></polygon>
                            <polygon id="Fill-26" fill="#D3E9FF" mask="url(#mask-3)" points="97.2352941 460.430298 157.825037 460.430298 157.825037 455.685975 97.2352941 455.685975"></polygon>
                            <polygon id="Fill-28" fill="#FFFFFF" mask="url(#mask-3)" points="74.9562574 429.411599 183.661265 429.411599 183.661265 404.013846 74.9562574 404.013846"></polygon>
                            <polygon id="Fill-29" fill="#D3E9FF" mask="url(#mask-3)" points="97.2352941 414.829604 174.346934 414.829604 174.346934 410.085281 97.2352941 410.085281"></polygon>
                            <polygon id="Fill-30" fill="#D3E9FF" mask="url(#mask-3)" points="97.2352941 423.502502 157.825037 423.502502 157.825037 418.758179 97.2352941 418.758179"></polygon>
                            <polygon id="Fill-32" fill="#FFFFFF" mask="url(#mask-3)" points="74.9562574 392.483802 183.661265 392.483802 183.661265 367.081992 74.9562574 367.081992"></polygon>
                            <polygon id="Fill-33" fill="#D3E9FF" mask="url(#mask-3)" points="97.2352941 377.901807 174.346934 377.901807 174.346934 373.153426 97.2352941 373.153426"></polygon>
                            <polygon id="Fill-34" fill="#D3E9FF" mask="url(#mask-3)" points="97.2352941 386.574706 157.825037 386.574706 157.825037 381.830383 97.2352941 381.830383"></polygon>
                            <path d="M80.6056279,326.342097 C78.0288926,326.342097 75.9383338,328.440314 75.9383338,331.021485 L75.9383338,344.215492 C75.9383338,346.800722 78.0288926,348.898938 80.6056279,348.898938 L177.695069,348.898938 C180.275856,348.898938 182.366415,346.800722 182.366415,344.215492 L182.366415,331.021485 C182.366415,328.440314 180.275856,326.342097 177.695069,326.342097 L80.6056279,326.342097 Z M177.695069,350.863226 L80.6056279,350.863226 C76.9512015,350.863226 73.9733706,347.880268 73.9733706,344.215492 L73.9733706,331.021485 C73.9733706,327.356709 76.9512015,324.37781 80.6056279,324.37781 L177.695069,324.37781 C181.349496,324.37781 184.327326,327.356709 184.327326,331.021485 L184.327326,344.215492 C184.327326,347.880268 181.349496,350.863226 177.695069,350.863226 L177.695069,350.863226 Z" id="Fill-36" fill="#FFFFFF" mask="url(#mask-3)"></path>
                            <path d="M141.899921,336.484153 L145.25859,338.931396 L143.978326,342.884322 L147.336995,340.437079 L150.695664,342.884322 L149.411348,338.931396 L152.77812,336.484153 L148.621311,336.484153 L147.336995,332.527168 L146.048627,336.484153 L141.899921,336.484153 Z M152.190657,344.941953 L147.336995,341.411106 L142.483333,344.941953 L144.342958,339.231721 L139.485245,335.700873 L145.485473,335.700873 L147.336995,329.982523 L149.188517,335.700873 L155.184693,335.700873 L150.331032,339.231721 L152.190657,344.941953 Z" id="Fill-40" fill="#FFFFFF" mask="url(#mask-3)"></path>
                            <path d="M162.212374,336.484153 L165.571043,338.931396 L164.290779,342.884322 L167.653499,340.437079 L171.008117,342.884322 L169.723801,338.931396 L173.090573,336.484153 L168.933764,336.484153 L167.653499,332.527168 L166.36108,336.484153 L162.212374,336.484153 Z M172.50311,344.941953 L167.653499,341.411106 L162.795786,344.941953 L164.655411,339.231721 L159.801749,335.700873 L165.797926,335.700873 L167.653499,329.982523 L169.50097,335.700873 L175.501198,335.700873 L170.643485,339.231721 L172.50311,344.941953 Z" id="Fill-41" fill="#FFFFFF" mask="url(#mask-3)"></path>
                            <path d="M147.755512,494.614991 L111.486747,494.614991 C106.183372,494.614991 101.884762,490.304922 101.884762,484.996475 L101.884762,484.801669 C101.884762,479.489164 106.183372,475.183153 111.486747,475.183153 L147.755512,475.183153 C153.058887,475.183153 157.353446,479.489164 157.353446,484.801669 L157.353446,484.996475 C157.353446,490.304922 153.058887,494.614991 147.755512,494.614991" id="Fill-42" fill="#FD425F" mask="url(#mask-3)"></path>
                            <path d="M176.586587,334.219134 C176.586587,334.219134 175.533204,340.13229 175.606131,339.937484 C175.675006,339.742679 171.826109,339.020276 171.627587,339.11362 C171.433116,339.206964 168.491749,339.730504 167.260101,339.750796 C166.032506,339.771088 164.930506,339.162321 164.496999,339.016217 C164.010822,338.849821 163.111396,338.180177 163.706962,337.843326 C164.233653,337.551118 165.043947,338.188294 165.445043,338.261346 C165.85019,338.338457 167.138557,338.054365 167.138557,338.054365 C167.138557,338.054365 166.607815,337.940729 165.582793,337.770274 C164.338991,337.563294 162.503675,337.262969 162.090425,336.99917 C161.693381,336.747546 161.620454,336.029201 162.540138,336.000792 C163.650241,335.968324 164.736035,336.248357 164.926454,336.260533 C165.116874,336.272708 166.931932,336.516215 166.931932,336.516215 C166.931932,336.516215 165.359962,336.276766 164.796807,336.159071 C164.160726,336.025143 162.430749,335.74511 161.324697,335.517837 C160.25916,335.294623 160.234851,334.146082 161.138329,334.016212 C161.814925,333.918809 164.302528,334.637154 164.679315,334.67368 C165.05205,334.714265 166.749616,335.083583 166.749616,335.083583 C166.749616,335.083583 164.719829,334.64933 164.367351,334.511343 C164.010822,334.373355 161.798719,334.04868 161.425984,333.488614 C161.243668,333.216698 161.243668,332.591698 161.985087,332.551113 C162.839947,332.50647 164.136418,332.705334 164.744138,332.867672 C165.238418,332.997542 168.463388,333.752413 169.111624,333.634718 C169.699087,333.533257 170.327065,333.330335 170.17716,332.595756 L170.768675,330.525949 C170.768675,330.525949 171.514146,330.704521 172.235307,332.303548 C172.620197,333.172055 174.398793,333.99592 176.586587,334.219134" id="Fill-45" fill="#F88667" mask="url(#mask-3)"></path>
                            <path d="M242.37153,342.427341 C241.370817,337.910291 237.011435,334.955742 232.400861,335.260126 C224.836765,335.763373 210.774111,336.652173 206.467398,336.60753 C200.471221,336.542595 175.449339,333.876196 175.449339,333.876196 L174.254155,340.60104 C174.254155,340.60104 202.411876,347.784489 207.18856,347.78043 C211.969295,347.776372 237.214008,350.950076 241.176346,347.329943 C242.566001,346.059649 242.776677,344.265816 242.37153,342.427341" id="Fill-46" fill="#FD425F" mask="url(#mask-3)"></path>
                            <path d="M242.37153,342.427341 C241.370817,337.910291 237.011435,334.955742 232.400861,335.260126 C224.836765,335.763373 210.774111,336.652173 206.467398,336.60753 C200.471221,336.542595 175.449339,333.876196 175.449339,333.876196 L174.254155,340.60104 C174.254155,340.60104 202.411876,347.784489 207.18856,347.78043 C211.969295,347.776372 237.214008,350.950076 241.176346,347.329943 C242.566001,346.059649 242.776677,344.265816 242.37153,342.427341" id="Fill-47" fill="#CA0045" mask="url(#mask-3)"></path>
                            <polygon id="Fill-48" fill="#110239" mask="url(#mask-3)" points="259.823645 407.917259 258.320549 403.400209 190.887873 403.400209 192.330196 407.917259"></polygon>
                            <polygon id="Fill-49" fill="#110239" mask="url(#mask-3)" points="267.835428 431.996423 266.316126 427.430671 198.530972 427.430671 199.981399 431.996423"></polygon>
                            <polygon id="Fill-50" fill="#110239" mask="url(#mask-3)" points="249.679168 383.840125 248.176072 379.319017 180.747447 379.319017 182.185719 383.840125"></polygon>
                            <polygon id="Fill-51" fill="#110239" mask="url(#mask-3)" points="275.938369 456.333297 274.39881 451.714786 206.253075 451.714786 207.719707 456.333297"></polygon>
                            <polygon id="Fill-52" fill="#110239" mask="url(#mask-3)" points="284.124771 480.933565 282.573057 476.266353 214.054587 476.266353 215.537425 480.933565"></polygon>
                            <polygon id="Fill-53" fill="#110239" mask="url(#mask-3)" points="292.40152 505.799661 290.829549 501.079689 221.942395 501.079689 223.441439 505.799661"></polygon>
                            <polygon id="Fill-54" fill="#110239" mask="url(#mask-3)" points="300.769832 530.934832 299.181656 526.1621 229.921766 526.1621 231.437016 530.934832"></polygon>
                            <path d="M308.504495,567.11628 L308.824561,567.11628 C310.951583,567.11628 312.45873,565.022122 311.786186,562.996958 L248.461701,372.992712 C248.032245,371.71836 246.841113,370.857969 245.500076,370.857969 L241.136642,370.857969 L305.546921,564.977479 C305.968274,566.251831 307.163458,567.11628 308.504495,567.11628" id="Fill-55" fill="#110239" mask="url(#mask-3)"></path>
                            <path d="M239.918365,567.11628 L240.266791,567.11628 C242.377607,567.11628 243.880703,565.05459 243.236519,563.037542 L182.695394,373.033296 C182.278093,371.738652 181.082909,370.857969 179.725666,370.857969 L179.656791,370.857969 C177.541924,370.857969 176.042879,372.915601 176.683012,374.932649 L236.948637,564.936895 C237.357835,566.231539 238.561122,567.11628 239.918365,567.11628" id="Fill-56" fill="#110239" mask="url(#mask-3)"></path>
                            <polygon id="Fill-57" fill="#110239" mask="url(#mask-3)" points="300.92784 531.236374 299.384229 526.60163 230.286399 526.60163 231.765185 531.236374"></polygon>
                            <polygon id="Fill-58" fill="#110239" mask="url(#mask-3)" points="309.13774 555.908071 307.577924 551.228683 238.119512 551.228683 239.606401 555.908071"></polygon>
                            <polygon id="Fill-59" fill="#110239" mask="url(#mask-3)" points="290.534197 506.56062 288.990587 501.925875 219.896807 501.925875 221.371543 506.56062"></polygon>
                            <polygon id="Fill-60" fill="#110239" mask="url(#mask-3)" points="317.438393 580.84519 315.862371 576.117101 246.031224 576.117101 247.534319 580.84519"></polygon>
                            <polygon id="Fill-61" fill="#110239" mask="url(#mask-3)" points="325.830204 606.051789 324.237976 601.27094 254.02599 601.27094 255.545292 606.051789"></polygon>
                            <polygon id="Fill-62" fill="#110239" mask="url(#mask-3)" points="334.312768 631.531928 332.704334 626.702378 262.11151 626.702378 263.651069 631.531928"></polygon>
                            <polygon id="Fill-63" fill="#110239" mask="url(#mask-3)" points="342.886895 657.293723 341.258204 652.403296 270.28049 652.403296 271.836255 657.293723"></polygon>
                            <path d="M350.811571,694.366811 L351.13974,694.366811 C353.319432,694.366811 354.863042,692.223952 354.17024,690.150087 L289.277836,495.44616 C288.844329,494.139341 287.624836,493.258658 286.247336,493.258658 L281.778564,493.258658 L347.781071,692.175251 C348.214579,693.48207 349.434071,694.366811 350.811571,694.366811" id="Fill-64" fill="#110239" mask="url(#mask-3)"></path>
                            <path d="M280.531926,694.366811 L280.884404,694.366811 C283.04789,694.366811 284.587449,692.25642 283.93111,690.190671 L221.88689,495.486745 C221.469588,494.159633 220.23389,493.258658 218.844235,493.258658 L218.779412,493.258658 C216.615926,493.258658 215.076368,495.364992 215.732706,497.43074 L277.485221,692.134666 C277.906574,693.461778 279.138221,694.366811 280.531926,694.366811" id="Fill-65" fill="#110239" mask="url(#mask-3)"></path>
                            <path d="M239.768055,315.591681 C239.630305,315.741843 239.50471,315.896064 239.358857,316.042168 C238.038077,317.373339 236.648423,318.728859 235.080504,319.77188 C234.124357,320.409056 232.64557,320.818959 231.827173,321.484544 C231.499004,321.752401 231.154629,321.995908 230.802151,322.211006 C231.276173,324.885521 232.459202,331.918807 232.272835,334.662317 C232.272835,334.662317 240.813335,334.057608 243.924864,330.599813 C243.924864,330.599813 240.383879,321.074641 239.768055,315.591681" id="Fill-66" fill="#F88667" mask="url(#mask-3)"></path>
                            <path d="M235.186652,329.889179 C235.778167,327.454112 237.143513,325.071804 239.076064,323.444367 C239.740505,322.880243 240.413049,322.376996 241.122057,321.92245 C240.502182,319.698422 239.97549,317.421634 239.768865,315.591275 C239.631115,315.741438 239.501468,315.895659 239.359667,316.041763 C238.038888,317.372933 236.649233,318.728454 235.081314,319.771474 C234.125167,320.40865 232.64638,320.818553 231.827983,321.484138 C231.499814,321.751995 231.155439,321.995502 230.802961,322.2106 C231.276983,324.885115 232.460013,331.918402 232.273645,334.661911 C232.273645,334.661911 233.744329,334.552333 235.672829,334.191131 C235.048902,332.884312 234.826071,331.382687 235.186652,329.889179" id="Fill-67" fill="#E45940" mask="url(#mask-3)"></path>
                            <path d="M235.039989,468.207497 C235.039989,468.207497 234.805004,476.73835 233.47207,477.903124 C232.143187,479.067898 215.203989,479.575203 213.749511,478.01676 C212.295033,476.462376 213.149893,473.844678 216.784062,472.834125 C220.681577,471.75052 222.58982,472.813833 225.032857,471.795163 C227.475893,470.776493 226.827658,466.92097 226.827658,466.92097 L235.039989,468.207497 Z" id="Fill-68" fill="#110239" mask="url(#mask-3)"></path>
                            <path d="M277.034697,467.91813 C277.034697,467.91813 278.339271,476.225768 277.054954,477.443302 C275.770638,478.656777 258.523528,480.012298 257.004226,478.514731 C255.488976,477.017165 256.24255,474.367 259.836204,473.21846 C263.689153,471.984693 265.552829,472.763914 268.036381,471.858881 C269.993241,471.144594 268.676513,467.18761 268.676513,467.18761 L277.034697,467.91813 Z" id="Fill-69" fill="#110239" mask="url(#mask-3)"></path>
                            <path d="M264.52011,420.114511 C264.892845,396.522767 262.202668,380.297102 260.983176,372.699692 C258.167404,372.805211 255.339477,373.056835 252.527757,374.339304 C247.35808,376.697261 242.155992,378.953757 236.966058,381.222428 C241.183639,389.960261 250.41694,418.487075 251.527043,424.457048 C252.912646,431.884004 268.40547,469.765534 268.40547,469.765534 L277.776521,468.584527 C277.626617,462.476566 264.483646,422.159968 264.52011,420.114511" id="Fill-70" fill="#0400A3" mask="url(#mask-3)"></path>
                            <path d="M245.283322,377.709031 C242.560734,379.040201 239.744962,380.08728 236.917035,381.118126 C241.053587,389.689563 248.601476,413.407118 250.303094,419.713943 C251.619822,415.736666 257.980631,406.122209 260.419616,395.598659 C262.05641,388.561315 262.335962,381.276405 261.213704,374.145716 C261.209653,374.113248 261.205601,374.084839 261.197499,374.060489 C255.93869,374.417632 250.845991,374.993931 245.283322,377.709031" id="Fill-71" fill="#04006C" mask="url(#mask-3)"></path>
                            <path d="M252.29034,376.418851 C248.639965,377.656677 241.987451,379.42616 236.967679,381.224051 C233.467208,390.071462 223.144061,410.96434 222.605215,420.408343 C222.009649,430.83449 225.615458,470.319106 225.615458,470.319106 L236.343752,470.319106 C236.343752,470.319106 237.340414,425.810134 238.84351,422.952988 C243.794407,413.521161 249.271995,406.049562 252.383524,400.176992 C257.60587,390.33932 259.376363,384.016262 260.296046,379.405867 C260.697142,377.372586 262.475738,370.554398 259.027936,368.419655 C256.175701,369.231344 255.349201,375.383948 252.29034,376.418851" id="Fill-72" fill="#0400A3" mask="url(#mask-3)"></path>
                            <path d="M233.05801,383.366504 C233.05801,383.366504 242.072532,387.015047 250.945252,386.158715 C257.516737,385.525597 260.915921,385.424136 264.760767,383.346212 C264.760767,383.346212 260.652576,351.260142 255.912355,341.146495 C251.172135,331.02879 243.38926,329.092912 243.38926,329.092912 C243.38926,329.092912 237.251282,332.664344 232.239612,332.583175 C232.239612,332.583175 232.361157,352.299104 232.746046,360.16843 C233.126885,368.041814 233.05801,383.366504 233.05801,383.366504" id="Fill-73" fill="#FD425F" mask="url(#mask-3)"></path>
                            <path d="M232.630579,357.289774 C232.602219,356.425325 232.573859,355.508116 232.54955,354.53409 C232.545499,354.420453 232.545499,354.2987 232.545499,354.181005 C232.52119,353.255679 232.500932,352.293828 232.480675,351.311684 C232.476624,351.149346 232.472572,350.987008 232.468521,350.82467 C232.448263,349.72889 232.428006,348.616876 232.407749,347.50892 L232.407749,347.45616 C232.816947,347.45616 233.222094,347.452102 233.619138,347.374992 C236.754976,346.762166 239.477565,345.008918 242.187999,343.405832 C242.645815,343.137974 243.131991,342.91476 243.610065,342.675312 C244.152962,346.892037 242.260925,352.038146 241.446579,355.386363 C239.181807,364.655853 237.958263,376.388819 239.898918,385.34175 C235.896065,384.485418 233.055984,383.365287 233.055984,383.365287 C233.055984,383.365287 233.124859,368.040596 232.744021,360.167212 C232.711609,359.473218 232.679197,358.65747 232.650837,357.79708 C232.642734,357.630684 232.638682,357.460229 232.630579,357.289774" id="Fill-74" fill="#CA0045" mask="url(#mask-3)"></path>
                            <path d="M241.698986,304.036475 C241.698986,304.036475 236.018824,297.78241 231.464971,299.474782 C226.907067,301.163095 224.148015,302.823 224.066986,304.803521 C223.985957,306.788101 224.427567,312.055963 223.787435,314.243465 C223.147302,316.430968 221.299832,319.604672 221.603692,320.416361 C221.903501,321.22805 224.654449,320.716686 224.901589,321.012953 C225.148729,321.301102 228.389905,326.901757 229.552677,327.238608 C230.711398,327.571401 238.591508,321.394446 239.17492,318.318145 C239.758332,315.241843 243.518096,308.634694 241.698986,304.036475" id="Fill-75" fill="#F88667" mask="url(#mask-3)"></path>
                            <path d="M232.420713,307.577874 C231.975051,307.748329 231.492926,308.21505 231.152603,308.389563 C230.508419,308.718298 229.823721,308.986155 229.171434,309.310831 C227.86686,309.960182 226.537978,310.585183 225.038934,310.548657 C222.822779,310.48778 222.875449,308.300278 221.53036,307.176088 C220.869971,306.632257 219.917875,306.920406 219.196713,306.311639 C218.512015,305.731282 218.054199,304.736962 217.815162,303.888747 C217.211493,301.749947 219.221022,300.930141 220.728169,300.037282 C222.490559,298.990204 222.283934,297.898482 222.762007,296.181759 C223.949088,291.936625 228.616382,295.930136 231.027007,294.87494 C232.262706,294.335166 233.352551,293.097341 234.811081,293.430133 C236.062985,293.718283 237.027235,294.598965 238.036051,295.341661 C239.081331,296.112766 239.701206,295.483707 240.916647,295.572992 C241.803919,295.633869 242.922125,296.133058 243.687853,296.616013 C245.401625,297.691501 246.904721,299.663906 247.087037,301.709362 C247.245044,303.446377 246.191662,304.732904 246.645426,306.478036 C247.006007,307.866024 247.589419,309.538104 247.297713,310.991027 C246.868257,313.101419 244.785801,313.990218 243.712162,315.662298 C242.691191,317.253209 240.997676,318.693957 239.008404,318.823827 C238.429044,317.59006 237.902353,315.386324 238.838243,314.40418 C239.215029,314.010511 239.753875,313.799471 240.288669,313.004016 C241.273176,311.559209 239.705257,309.132259 237.37161,310.203689 C235.96575,310.848981 236.504596,315.061648 234.709794,314.887135 C233.3485,314.757265 234.20336,312.28973 234.333007,311.498333 C234.503169,310.455312 234.041301,308.077063 232.947404,307.569757 C232.785346,307.492647 232.607081,307.508881 232.420713,307.577874" id="Fill-76" fill="#110239" mask="url(#mask-3)"></path>
                            <path d="M193.642873,383.541018 C193.148593,383.500433 192.557079,383.382738 192.382865,383.443615 C191.56852,383.711472 190.199123,383.317803 189.627865,383.102705 C188.327343,382.611634 186.33402,381.743126 184.992983,381.978516 C184.215101,382.116503 179.547807,383.204167 180.694373,385.123811 C180.848329,385.383552 181.419586,385.785338 181.581645,385.724461 C182.06377,385.54589 183.408858,385.054818 183.408858,385.054818 C183.408858,385.054818 182.379785,385.428195 182.165057,385.582416 C181.98274,385.712286 181.638365,385.866507 181.520873,386.053195 C181.261579,386.450923 181.654571,387.303197 182.059718,387.445242 C182.456762,387.583229 182.768726,387.177385 183.104998,386.994755 C183.100946,386.998813 183.092843,387.00693 183.08474,387.00693 C182.756571,387.266671 182.059718,387.445242 182.493226,388.431444 C182.979402,389.535342 183.311623,388.837289 183.781593,388.719594 C183.943652,388.683068 184.113814,388.601899 184.283976,388.524789 C184.105711,388.622191 183.453424,388.934692 183.319726,389.052387 C182.886218,389.441997 183.850468,390.7407 184.713432,390.63518 C185.248226,390.566187 186.504182,389.799141 186.80399,389.88031 C187.140262,389.973654 187.537307,389.969595 187.881682,390.006121 C188.947218,390.103524 190.057321,389.815374 191.033726,389.373004 C191.471285,389.178198 192.342351,388.833231 192.771807,388.601899 C193.857601,388.021541 195.052785,387.096216 195.368799,386.832417 C194.647637,385.456604 193.49702,385.107578 193.642873,383.541018" id="Fill-77" fill="#F88667" mask="url(#mask-3)"></path>
                            <path d="M195.265082,389.4144 L191.493163,381.938743 C191.493163,381.938743 210.186648,369.954153 217.017427,363.046679 C223.852258,356.143263 231.238089,342.096983 236.444229,341.212242 C241.65442,340.327501 246.901074,343.204939 243.882729,350.469556 C240.864383,357.730115 225.582236,367.360807 222.470707,370.558862 C219.359177,373.756917 198.31989,387.693619 195.265082,389.4144" id="Fill-78" fill="#FD425F" mask="url(#mask-3)"></path>
                            <polygon id="Fill-79" fill="#FFFFFF" mask="url(#mask-3)" points="173.96326 324.994693 170.361502 331.496323 175.417738 336.93464 168.137245 335.514184 164.535488 342.015814 163.63201 334.633502 156.347465 333.213046 163.072907 330.071809 162.177532 322.693555 167.233767 328.131872"></polygon>
                            <polygon id="Fill-80" fill="#E7E7E7" mask="url(#mask-3)" points="0 817.853541 262.053169 817.853541 262.053169 527.463643 0 527.463643"></polygon>
                            <polygon id="Fill-81" fill="#FD425F" mask="url(#mask-3)" points="0 550.199055 262.053169 550.199055 262.053169 527.459585 0 527.459585"></polygon>
                            <polygon id="Fill-82" fill="#FFFFFF" mask="url(#mask-3)" points="22.6072059 584.399576 157.517125 584.399576 157.517125 570.698264 22.6072059 570.698264"></polygon>
                            <polygon id="Fill-83" fill="#FFFFFF" mask="url(#mask-3)" points="22.6072059 610.763239 157.517125 610.763239 157.517125 597.061926 22.6072059 597.061926"></polygon>
                            <polygon id="Fill-84" fill="#FFFFFF" mask="url(#mask-3)" points="22.6072059 668.449984 157.517125 668.449984 157.517125 654.75273 22.6072059 654.75273"></polygon>
                            <polygon id="Fill-85" fill="#FFFFFF" mask="url(#mask-3)" points="22.6072059 694.813646 157.517125 694.813646 157.517125 681.116393 22.6072059 681.116393"></polygon>
                            <polygon id="Fill-86" fill="#FFFFFF" mask="url(#mask-3)" points="180.800926 620.154482 237.967176 620.154482 237.967176 562.889815 180.800926 562.889815"></polygon>
                            <path d="M208.155646,594.161761 C207.511462,594.145527 199.04794,574.535118 197.17616,575.156061 C194.546756,576.036743 190.677601,577.148757 190.499337,580.152007 C190.325124,583.159315 205.011704,609.015672 207.466896,609.015672 C212.632521,609.015672 234.328146,580.32652 232.573859,577.075705 C230.819572,573.820832 225.232594,571.560278 224.004999,572.785928 C223.097469,573.69502 208.714749,594.177995 208.155646,594.161761" id="Fill-87" fill="#01D9CF" mask="url(#mask-3)"></path>
                            <polygon id="Fill-88" fill="#FFFFFF" mask="url(#mask-3)" points="180.800926 702.650505 237.967176 702.650505 237.967176 645.385838 180.800926 645.385838"></polygon>
                            <path d="M208.155646,676.658596 C207.511462,676.642362 199.04794,657.031953 197.17616,657.656954 C194.546756,658.533578 190.677601,659.645592 190.499337,662.648842 C190.325124,665.65615 205.011704,691.512507 207.466896,691.512507 C212.632521,691.512507 234.328146,662.823355 232.573859,659.57254 C230.819572,656.317667 225.232594,654.057113 224.004999,655.282763 C223.097469,656.191855 208.714749,676.67483 208.155646,676.658596" id="Fill-89" fill="#01D9CF" mask="url(#mask-3)"></path>
                            <polygon id="Fill-90" fill="#FFFFFF" mask="url(#mask-3)" points="22.6072059 753.425717 157.517125 753.425717 157.517125 739.724405 22.6072059 739.724405"></polygon>
                            <polygon id="Fill-91" fill="#FFFFFF" mask="url(#mask-3)" points="22.6072059 779.78938 157.517125 779.78938 157.517125 766.088067 22.6072059 766.088067"></polygon>
                            <polygon id="Fill-92" fill="#FFFFFF" mask="url(#mask-3)" points="180.800926 787.618121 237.967176 787.618121 237.967176 730.353454 180.800926 730.353454"></polygon>
                            <path d="M208.155646,761.628241 C207.511462,761.612008 199.04794,742.001599 197.17616,742.626599 C194.546756,743.507282 190.677601,744.615238 190.499337,747.622546 C190.325124,750.625796 205.011704,776.482152 207.466896,776.482152 C212.632521,776.482152 234.328146,747.797059 232.573859,744.542186 C230.819572,741.291371 225.232594,739.026758 224.004999,740.252409 C223.097469,741.161501 208.714749,761.644475 208.155646,761.628241" id="Fill-93" fill="#01D9CF" mask="url(#mask-3)"></path>
                            <path d="M366.542621,837.093819 C393.432232,829.1555 414.86046,822.041045 413.045401,792.584847 C412.101408,777.333208 404.444129,767.174919 387.756121,759.60186 C374.333599,753.506074 367.555489,751.541787 363.50807,738.315313 C357.03382,717.178928 365.54596,695.381017 350.462335,675.55551 C333.717607,653.542502 301.407129,666.460534 284.500342,646.842008 C269.408614,629.325757 260.009202,605.892292 231.721835,608.619568 C208.142276,610.892297 200.711879,637.154498 212.242364,654.045749 C218.749026,663.579038 229.290952,669.873687 234.233746,680.271424 C238.957761,690.206499 235.408673,698.834754 232.390327,708.392393 C225.737813,729.463843 225.478518,750.726039 249.45107,763.010954 C263.870254,770.401383 275.109033,776.996357 271.405989,792.552379 C267.520629,808.863272 265.948658,818.120586 285.999386,829.39089 C301.083011,837.856807 314.144952,836.586514 330.828908,836.606806 C346.560768,836.631156 368.013305,840.14577 382.440592,832.613295 L366.542621,837.093819 Z" id="Fill-94" fill="#8494AB" mask="url(#mask-3)"></path>
                            <path d="M357.573476,834.533752 C359.826093,831.599496 361.244108,828.563778 361.819417,825.471243 C364.282711,812.118957 350.771057,799.50125 338.572079,788.113251 C332.438152,782.39896 326.595932,776.944409 323.674821,772.183853 C315.713682,759.245528 312.683182,747.484153 312.589998,728.774719 C312.492763,706.570963 305.917226,697.918357 287.077887,684.533604 C271.281204,673.295768 255.62227,660.864749 250.432336,647.829022 C250.03124,646.810352 248.698307,646.351748 247.454505,646.794118 C246.218807,647.23243 245.530057,648.413438 245.935204,649.423991 C251.477615,663.279524 267.659189,676.092037 283.937998,687.609905 C302.15341,700.479236 308.125277,708.283627 308.263027,729.387544 C308.364314,745.321001 310.394101,758.997963 319.846182,774.27801 C322.973917,779.347009 328.974145,784.915196 335.262027,790.755299 C347.027498,801.676576 360.077285,813.791037 357.881387,825.7391 C357.038682,830.345436 354.000079,834.659564 348.587314,838.933107 C347.712196,839.65551 347.481262,840.710706 348.129498,841.319473 C348.773682,841.924181 350.025586,841.843012 350.920961,841.132784 C353.623292,838.989925 355.843498,836.794306 357.573476,834.533752" id="Fill-95" fill="#FFFFFF" mask="url(#mask-3)"></path>
                            <path d="M313.465926,749.722386 C313.733323,749.373359 313.89133,748.967515 313.883524,748.553553 C313.838661,747.575468 312.850102,746.934233 311.663021,747.133097 C301.295308,748.910696 292.900661,741.057604 283.878036,732.624154 C275.908793,725.172848 267.558713,717.368458 256.919551,715.781605 C255.712213,715.598975 254.407639,716.305145 254.034904,717.340048 C253.645963,718.374952 254.310404,719.361154 255.517742,719.539726 C264.840176,720.915539 272.78511,728.305968 280.365411,735.35143 C289.712154,744.040562 299.204749,752.879856 311.792668,750.712646 C312.48547,750.590893 313.089139,750.209399 313.465926,749.722386" id="Fill-96" fill="#FFFFFF" mask="url(#mask-3)"></path>
                            <path d="M324.101036,776.443191 C324.25094,776.244327 324.368433,776.025171 324.44136,775.797898 C325.251654,773.099032 325.49069,770.822244 325.721624,768.606333 C326.09436,765.034901 326.42658,761.946424 329.173477,757.892037 C330.632007,755.74106 332.305264,753.853883 333.925852,752.019466 C337.320985,748.127416 340.845764,744.166374 342.069308,738.034062 C343.819543,729.26782 342.770213,718.549465 338.921315,706.094096 C338.386521,704.357081 337.28047,701.954481 336.105543,699.393602 C334.420132,695.700417 331.251882,688.801059 331.973043,687.169564 C332.414654,686.18742 331.96494,685.128166 330.903455,684.852192 C329.854124,684.564042 328.610323,685.042939 328.116043,685.988556 C326.576485,688.797001 328.60222,693.634668 332.098639,701.195552 C333.237102,703.667145 334.310742,706.000752 334.80097,707.551078 C337.369602,715.818131 339.978749,727.741844 337.924654,738.054355 C336.915838,743.200464 334.055499,746.439103 330.729242,750.205341 C329.019521,752.141219 327.25308,754.162325 325.620338,756.552749 C322.298132,761.431001 321.905139,765.266232 321.520249,768.971593 C321.309573,771.037342 321.086742,773.172084 320.361529,775.574684 C320.065771,776.552769 320.738315,777.405043 321.868676,777.465919 C322.723536,777.514621 323.606757,777.084426 324.101036,776.443191" id="Fill-97" fill="#FFFFFF" mask="url(#mask-3)"></path>
                            <path d="M379.599296,880.92422 C415.560149,874.386064 449.227869,877.153924 463.780751,837.722067 C475.299082,806.520737 448.445935,777.117299 475.469244,755.676531 C491.731847,742.770674 517.385759,735.031218 523.057818,712.969508 C528.968913,689.99059 499.616009,675.424828 504.895075,653.379352 C509.254457,635.152873 534.495119,633.943456 527.907428,610.213725 C522.065207,589.162568 503.582399,583.85818 488.887715,588.062729 C469.238082,593.683676 467.609391,611.686941 454.571759,624.191012 C445.865149,632.535176 433.536524,624.150427 420.766288,622.612276 C408.048722,621.078184 391.765862,622.214549 380.997053,627.835496 C346.008553,646.086325 374.048781,684.747078 367.696075,716.216265 C361.549994,746.642431 318.786722,728.253614 296.690001,751.106721 C270.886185,777.795059 290.357553,823.951761 315.784582,845.733438 C332.723781,860.24644 355.298575,885.347925 379.599296,880.92422" id="Fill-98" fill="#B3B2DA" mask="url(#mask-3)"></path>
                            <path d="M344.896829,872.977783 C345.071043,873.075186 345.265513,873.156355 345.47619,873.200998 C346.638962,873.472914 347.842249,872.778919 348.162315,871.666905 C348.401351,870.855216 371.802646,792.515041 428.770374,740.924081 C460.845866,711.889962 468.470734,681.893991 474.430447,658.456468 C477.902557,644.775448 480.868234,633.131767 487.69091,626.837118 C488.237859,626.325754 488.181138,625.298967 487.55316,624.531921 C486.908976,623.736466 485.964984,623.561953 485.418035,624.061141 C478.056513,630.810336 474.985499,642.81116 471.375638,656.9102 C465.452388,680.035223 457.88019,709.637525 426.234153,738.062877 C368.119859,790.27478 344.208079,869.85278 343.969043,870.684762 C343.693543,871.597912 344.102741,872.527296 344.896829,872.977783" id="Fill-99" fill="#FFFFFF" mask="url(#mask-3)"></path>
                            <path d="M426.471974,738.652975 C427.213393,739.213041 428.193849,739.18869 428.765107,738.567748 C429.393085,737.889988 429.299901,736.733331 428.550379,735.998752 C417.019893,724.614812 409.528724,702.674855 417.040151,688.85179 C417.923371,687.220295 418.956496,685.487338 420.034188,683.677272 C425.147143,675.11801 431.386408,664.64722 428.137129,654.444288 C426.548952,649.4524 422.777033,644.93535 417.003688,640.9946 C416.096158,640.377716 415.038724,640.52382 414.625474,641.319275 C414.220327,642.110672 414.61332,643.178043 415.520849,643.863921 C420.50821,647.248664 423.522504,650.803863 424.818974,654.842016 C427.582077,663.531148 421.679085,673.360703 416.861886,681.396425 C415.751783,683.243018 414.694349,685.0125 413.782768,686.672404 C405.16529,702.431349 413.657173,726.092086 426.253195,738.466287 C426.326121,738.539339 426.399048,738.600216 426.471974,738.652975" id="Fill-100" fill="#FFFFFF" mask="url(#mask-3)"></path>
                            <path d="M435.338618,745.861992 C441.395566,750.180178 447.314765,752.168817 453.007081,751.807615 C461.823081,751.255666 469.861199,744.956959 476.282779,733.755649 C476.910757,732.663927 477.60761,731.373341 478.357132,729.961002 C482.611176,722.05515 488.923368,710.301892 496.649522,709.222346 C499.165485,708.873319 501.632831,709.689067 504.197412,711.710173 C504.910471,712.270238 505.809897,712.148485 506.190735,711.438257 C506.567522,710.732087 506.316331,709.705301 505.611375,709.137118 L505.599221,709.124943 C502.358044,706.560005 499.060147,705.4764 495.774404,705.914712 C486.8085,707.132246 480.091162,719.559206 475.569721,727.927721 C474.816147,729.311651 474.131449,730.573828 473.511574,731.653374 C467.531603,742.014586 460.247059,747.805988 452.419618,748.264592 C445.580735,748.654203 438.227316,745.00566 430.586243,737.363607 C429.816463,736.580327 428.714463,736.564093 428.078382,737.233737 C427.446353,737.911497 427.523331,739.064096 428.272853,739.81085 C430.647015,742.176924 433.004971,744.193971 435.338618,745.861992" id="Fill-101" fill="#FFFFFF" mask="url(#mask-3)"></path>
                            <path d="M348.765984,835.128314 C351.038859,836.504127 353.49405,837.474096 356.123454,837.920525 C357.286226,838.11533 358.380124,837.38481 358.582697,836.276854 C358.781219,835.172957 358.051954,834.129936 356.864874,833.918897 C343.102028,831.520356 334.002425,809.409945 332.843704,797.741914 C332.365631,792.89613 334.022682,786.893689 335.785072,780.582806 C338.872293,769.434256 342.036491,758.021907 334.184741,749.746736 C333.362293,748.801118 331.960484,748.703716 331.089418,749.39771 C330.202146,750.095763 330.157579,751.374173 331.000285,752.246739 C337.243601,758.805187 334.334646,769.194807 331.506719,779.328746 C329.638991,786.013006 327.864447,792.368532 328.419499,797.957011 C329.448572,808.48056 336.380638,827.640482 348.765984,835.128314" id="Fill-102" fill="#FFFFFF" mask="url(#mask-3)"></path>
                            <path d="M365.173629,844.112901 C367.401938,845.464363 369.926004,846.442449 372.721519,847.055274 C388.044181,850.387258 407.511497,841.612898 416.667821,835.111269 C421.464762,831.698116 425.686394,825.26548 430.098446,818.544694 C436.981894,808.061729 443.950424,797.440777 452.72996,798.780064 C453.66585,798.922109 454.484247,798.236232 454.557174,797.254088 C454.634151,796.276003 453.925144,795.366911 453.001409,795.208632 C442.179931,793.520318 434.2431,805.533317 427.084151,816.369367 C422.834159,822.814179 418.766482,828.966782 414.504335,831.965973 C406.190718,837.818252 387.558004,846.227351 373.637151,843.142932 C368.102843,841.909165 363.909571,838.938383 361.255857,834.319872 C360.688651,833.35802 359.412438,832.984643 358.383365,833.520358 C357.366446,834.06419 356.99371,835.293899 357.560916,836.276042 C359.497519,839.599909 362.045894,842.217607 365.173629,844.112901" id="Fill-103" fill="#FFFFFF" mask="url(#mask-3)"></path>
                            <path d="M354.835492,961.554169 L65.8805581,961.554169 C61.9992493,961.554169 58.8431537,958.400757 58.8431537,954.508708 L58.8431537,765.068586 C58.8431537,761.176537 61.9992493,758.023124 65.8846096,758.023124 L354.835492,758.023124 C358.720852,758.023124 361.868845,761.176537 361.868845,765.068586 L361.868845,954.504649 C361.868845,958.396699 358.720852,961.554169 354.835492,961.554169" id="Fill-104" fill="#1B0C41" mask="url(#mask-3)"></path>
                        </g>
                        <polygon id="Fill-106" fill="url(#linearGradient-4)" points="73 945.40766 334 945.40766 334 770.963404 73 770.963404"></polygon>
                        <path d="M352,859.689362 C352,862.7337 349.539741,865.203404 346.497967,865.203404 C343.460259,865.203404 341,862.7337 341,859.689362 C341,856.645023 343.460259,854.175319 346.497967,854.175319 C349.539741,854.175319 352,856.645023 352,859.689362" id="Fill-108" fill="#FFFFFF"></path>
                        <g id="Group-112" transform="translate(87.000000, 816.078298)">
                            <mask id="mask-6" fill="white">
                                <use xlink:href="#path-5"></use>
                            </mask>
                            <g id="Clip-111"></g>
                            <path d="M111.58225,2.69172455 C108.76345,4.5726887 106.92475,7.19549861 105.1387,12.9397361 L105.1387,12.9397361 C102.65605,20.9176185 101.0968,32.0331437 90.9151,30.0913725 L90.9151,30.0913725 C86.78005,29.3049349 84.2974,25.105196 80.09755,28.8711781 L80.09755,28.8711781 C77.47315,31.2304909 78.31555,37.3557858 75.69925,40.3637069 L75.69925,40.3637069 C74.41135,41.8473984 72.78325,43.4770268 70.78255,43.882407 L70.78255,43.882407 C67.76935,44.4945311 65.4811,41.7379458 63.6505,39.7840132 L63.6505,39.7840132 C61.24075,37.2098489 58.2802,34.4005641 54.40435,34.9235045 L54.40435,34.9235045 C53.68345,35.0248496 52.9585,35.1464636 52.24975,35.3207771 L52.24975,35.3207771 C51.2089,35.5761667 50.19235,35.8437176 49.19605,36.2612592 L49.19605,36.2612592 C47.00095,37.1855261 44.84635,38.5435498 42.8416,39.8204974 L42.8416,39.8204974 C39.05485,42.2162944 35.36935,44.7661359 31.59475,47.1619329 L31.59475,47.1619329 C28.22515,49.3023404 24.27235,50.8590003 20.31145,51.377887 L20.31145,51.377887 C17.20915,51.787321 2.96935,51.4873396 0.13435,50.9035922 L0.13435,50.9035922 C15.9577,55.2695369 46.7134,70.564532 61.747,68.3268333 L61.747,68.3268333 C74.34655,66.4539768 81.81475,61.9542565 92.2597,72.7171009 L92.2597,72.7171009 C95.90875,76.483083 100.1167,82.8272832 104.2153,85.9608722 L104.2153,85.9608722 C106.9045,88.0161498 113.63155,91.1537926 120.3667,91.1578464 L120.3667,91.1578464 C127.10185,91.1537926 133.83295,88.0161498 136.5181,85.9608722 L136.5181,85.9608722 C140.6167,82.8272832 144.82465,76.483083 148.47775,72.7171009 L148.47775,72.7171009 C158.91865,61.9542565 166.38685,66.4539768 178.9864,68.3268333 L178.9864,68.3268333 C194.02,70.564532 224.7757,55.2695369 240.59905,50.9035922 L240.59905,50.9035922 C237.76405,51.4873396 223.52425,51.787321 220.42195,51.377887 L220.42195,51.377887 C216.46105,50.8590003 212.50825,49.3023404 209.13865,47.1619329 L209.13865,47.1619329 C205.36405,44.7661359 201.67855,42.2162944 197.89585,39.8204974 L197.89585,39.8204974 C195.883,38.5435498 193.73245,37.1855261 191.53735,36.2612592 L191.53735,36.2612592 C190.5451,35.8437176 189.52855,35.5761667 188.48365,35.3207771 L188.48365,35.3207771 C187.7749,35.1464636 187.04995,35.0248496 186.32905,34.9235045 L186.32905,34.9235045 C182.45725,34.4005641 179.49265,37.2098489 177.0829,39.7840132 L177.0829,39.7840132 C175.25635,41.7379458 172.9681,44.4945311 169.9549,43.882407 L169.9549,43.882407 C167.9542,43.4770268 166.3261,41.8473984 165.03415,40.3637069 L165.03415,40.3637069 C162.4219,37.3557858 163.2643,31.2304909 160.63585,28.8711781 L160.63585,28.8711781 C156.436,25.105196 153.9574,29.3049349 149.82235,30.0913725 L149.82235,30.0913725 C139.64065,32.0331437 138.07735,20.9176185 135.59875,12.9397361 L135.59875,12.9397361 C133.80865,7.19549861 131.974,4.5726887 129.15115,2.69172455 L129.15115,2.69172455 C126.51865,0.932374468 123.44065,0.0567532285 120.3667,0.0526994265 L120.3667,0.0526994265 C117.29275,0.0567532285 114.21475,0.932374468 111.58225,2.69172455" id="Fill-110" mask="url(#mask-6)"></path>
                        </g>
                        <g id="Group-188">
                            <g id="Group-141" transform="translate(88.080882, 804.609540)" fill="#FFFFFF">
                                <path d="M68.9127926,70.3223852 C68.6008294,70.3223852 68.3455868,70.0707616 68.3455868,69.7542028 L68.3455868,40.6023883 C68.3455868,40.289888 68.6008294,40.034206 68.9127926,40.034206 C69.2288074,40.034206 69.48405,40.289888 69.48405,40.6023883 L69.48405,69.7542028 C69.48405,70.0707616 69.2288074,70.3223852 68.9127926,70.3223852" id="Fill-121"></path>
                                <path d="M85.6372632,78.518416 C85.3253,78.518416 85.0660059,78.2667924 85.0660059,77.9502337 L85.0660059,32.4063575 C85.0660059,32.0938572 85.3253,31.8381751 85.6372632,31.8381751 C85.9492265,31.8381751 86.2044691,32.0938572 86.2044691,32.4063575 L86.2044691,77.9502337 C86.2044691,78.2667924 85.9492265,78.518416 85.6372632,78.518416" id="Fill-123"></path>
                                <path d="M102.361329,90.8564964 C102.049365,90.8564964 101.794123,90.6048728 101.794123,90.288314 L101.794123,20.0690888 C101.794123,19.7525301 102.049365,19.5009065 102.361329,19.5009065 C102.677343,19.5009065 102.932586,19.7525301 102.932586,20.0690888 L102.932586,90.288314 C102.932586,90.6048728 102.677343,90.8564964 102.361329,90.8564964" id="Fill-125"></path>
                                <path d="M119.085394,110.352051 C118.773431,110.352051 118.514137,110.100428 118.514137,109.783869 L118.514137,0.57109881 C118.514137,0.254540055 118.773431,0.00291643033 119.085394,0.00291643033 C119.397357,0.00291643033 119.6526,0.254540055 119.6526,0.57109881 L119.6526,109.783869 C119.6526,110.100428 119.397357,110.352051 119.085394,110.352051" id="Fill-127"></path>
                                <path d="M135.805813,90.8564964 C135.49385,90.8564964 135.238607,90.6048728 135.238607,90.288314 L135.238607,20.0690888 C135.238607,19.7525301 135.49385,19.5009065 135.805813,19.5009065 C136.117776,19.5009065 136.377071,19.7525301 136.377071,20.0690888 L136.377071,90.288314 C136.377071,90.6048728 136.117776,90.8564964 135.805813,90.8564964" id="Fill-129"></path>
                                <path d="M152.53393,78.518416 C152.221967,78.518416 151.962673,78.2667924 151.962673,77.9502337 L151.962673,32.4063575 C151.962673,32.0938572 152.221967,31.8381751 152.53393,31.8381751 C152.845893,31.8381751 153.101136,32.0938572 153.101136,32.4063575 L153.101136,77.9502337 C153.101136,78.2667924 152.845893,78.518416 152.53393,78.518416" id="Fill-131"></path>
                                <path d="M169.253944,81.1978018 C168.941981,81.1978018 168.686738,80.9461782 168.686738,80.6296194 L168.686738,29.7245367 C168.686738,29.4120364 168.941981,29.1604128 169.253944,29.1604128 C169.569959,29.1604128 169.825201,29.4120364 169.825201,29.7245367 L169.825201,80.6296194 C169.825201,80.9461782 169.569959,81.1978018 169.253944,81.1978018" id="Fill-133"></path>
                                <path d="M185.978415,96.7298788 C185.666451,96.7298788 185.407157,96.4782552 185.407157,96.1616964 L185.407157,14.1932714 C185.407157,13.8767126 185.666451,13.625089 185.978415,13.625089 C186.290378,13.625089 186.545621,13.8767126 186.545621,14.1932714 L186.545621,96.1616964 C186.545621,96.4782552 186.290378,96.7298788 185.978415,96.7298788" id="Fill-135"></path>
                                <path d="M202.70248,79.1486926 C202.390517,79.1486926 202.135274,78.897069 202.135274,78.5805102 L202.135274,31.6161782 C202.135274,31.3036779 202.390517,31.0479958 202.70248,31.0479958 C203.014443,31.0479958 203.273738,31.3036779 203.273738,31.6161782 L203.273738,78.5805102 C203.273738,78.897069 203.014443,79.1486926 202.70248,79.1486926" id="Fill-137"></path>
                                <path d="M219.426546,70.3223852 C219.110531,70.3223852 218.855288,70.0707616 218.855288,69.7542028 L218.855288,40.6023883 C218.855288,40.289888 219.110531,40.034206 219.426546,40.034206 C219.738509,40.034206 219.993751,40.289888 219.993751,40.6023883 L219.993751,69.7542028 C219.993751,70.0707616 219.738509,70.3223852 219.426546,70.3223852" id="Fill-139"></path>
                            </g>
                            <path d="M232.432868,866.716008 C232.432868,880.689236 221.121162,892.024474 207.167897,892.024474 C193.210581,892.024474 181.898875,880.689236 181.898875,866.716008 C181.898875,852.738721 193.210581,841.403483 207.167897,841.403483 C221.121162,841.403483 232.432868,852.738721 232.432868,866.716008" id="Fill-142" fill="#005B98"></path>
                            <path d="M207.166276,842.500075 C193.836938,842.500075 182.991151,853.364533 182.991151,866.716819 C182.991151,880.065047 193.836938,890.929506 207.166276,890.929506 C220.491563,890.929506 231.33735,880.065047 231.33735,866.716819 C231.33735,853.364533 220.491563,842.500075 207.166276,842.500075 M207.166276,893.125125 C192.6296,893.125125 180.803357,881.278522 180.803357,866.716819 C180.803357,852.155117 192.6296,840.308514 207.166276,840.308514 C221.702953,840.308514 233.529196,852.155117 233.529196,866.716819 C233.529196,881.278522 221.702953,893.125125 207.166276,893.125125" id="Fill-144" fill="#FFFFFF"></path>
                            <path d="M207.201929,873.691258 L207.129003,873.691258 C205.196451,873.691258 203.624481,872.116581 203.624481,870.180703 L203.624481,856.414455 C203.624481,854.478577 205.196451,852.907958 207.129003,852.907958 L207.201929,852.907958 C209.138532,852.907958 210.706451,854.478577 210.706451,856.414455 L210.706451,870.180703 C210.706451,872.116581 209.138532,873.691258 207.201929,873.691258" id="Fill-146" fill="#FFFFFF"></path>
                            <mask id="mask-8" fill="white">
                                <use xlink:href="#path-7"></use>
                            </mask>
                            <g id="Clip-149"></g>
                            <polygon id="Fill-148" fill="#FFFFFF" mask="url(#mask-8)" points="202.974625 880.524057 211.361169 880.524057 211.361169 878.989965 202.974625 878.989965"></polygon>
                            <polygon id="Fill-150" fill="#FFFFFF" mask="url(#mask-8)" points="206.398118 879.683959 207.929574 879.683959 207.929574 873.328433 206.398118 873.328433"></polygon>
                            <path d="M212.551086,868.523233 C212.518674,869.992391 212.239123,872.167718 210.946704,873.527297 C210.059432,874.468856 208.811579,874.866584 207.166682,874.769181 C205.521785,874.866584 204.273932,874.468856 203.382608,873.527297 C202.09424,872.167718 201.814689,869.992391 201.782277,868.523233 L200.023939,868.523233 C200.060402,870.28054 200.420983,872.946939 202.110446,874.732655 C203.24891,875.938013 204.79252,876.550839 206.700762,876.550839 C206.850667,876.550839 207.008674,876.538663 207.166682,876.530546 C207.324689,876.538663 207.478645,876.550839 207.632601,876.550839 C209.540843,876.550839 211.080402,875.938013 212.222917,874.732655 C213.91238,872.946939 214.26891,870.28054 214.305373,868.523233 L212.551086,868.523233 Z" id="Fill-151" fill="#FFFFFF" mask="url(#mask-8)"></path>
                            <path d="M284.239427,790.972832 C284.239427,792.080788 283.340001,792.981763 282.233949,792.981763 C281.123846,792.981763 280.228471,792.080788 280.228471,790.972832 C280.228471,789.864877 281.123846,788.963902 282.233949,788.963902 C283.340001,788.963902 284.239427,789.864877 284.239427,790.972832" id="Fill-152" fill="#FFFFFF" mask="url(#mask-8)"></path>
                            <path d="M292.22366,790.972832 C292.22366,792.080788 291.324234,792.981763 290.218182,792.981763 C289.108079,792.981763 288.212704,792.080788 288.212704,790.972832 C288.212704,789.864877 289.108079,788.963902 290.218182,788.963902 C291.324234,788.963902 292.22366,789.864877 292.22366,790.972832" id="Fill-153" fill="#FFFFFF" mask="url(#mask-8)"></path>
                            <path d="M300.203842,790.972832 C300.203842,792.080788 299.304415,792.981763 298.198364,792.981763 C297.088261,792.981763 296.192886,792.080788 296.192886,790.972832 C296.192886,789.864877 297.088261,788.963902 298.198364,788.963902 C299.304415,788.963902 300.203842,789.864877 300.203842,790.972832" id="Fill-154" fill="#FFFFFF" mask="url(#mask-8)"></path>
                            <path d="M148.443857,921.528562 C148.443857,922.636517 147.54443,923.537492 146.438379,923.537492 C145.328276,923.537492 144.432901,922.636517 144.432901,921.528562 C144.432901,920.420606 145.328276,919.519631 146.438379,919.519631 C147.54443,919.519631 148.443857,920.420606 148.443857,921.528562" id="Fill-156" fill="#FFFFFF" mask="url(#mask-8)"></path>
                            <path d="M156.42809,921.528562 C156.42809,922.636517 155.528663,923.537492 154.422612,923.537492 C153.312509,923.537492 152.417134,922.636517 152.417134,921.528562 C152.417134,920.420606 153.312509,919.519631 154.422612,919.519631 C155.528663,919.519631 156.42809,920.420606 156.42809,921.528562" id="Fill-157" fill="#FFFFFF" mask="url(#mask-8)"></path>
                            <polygon id="Fill-158" fill="#FFFFFF" mask="url(#mask-8)" points="320.568154 1012.41177 318.044088 1005.16744 204.967543 1005.16744 207.378168 1012.41177"></polygon>
                            <polygon id="Fill-159" fill="#FFFFFF" mask="url(#mask-8)" points="334.004451 1051.01043 331.456076 1043.68899 217.779914 1043.68899 220.214848 1051.01043"></polygon>
                            <polygon id="Fill-160" fill="#FFFFFF" mask="url(#mask-8)" points="347.591057 1090.02548 345.010271 1082.62288 230.726388 1082.62288 233.189682 1090.02548"></polygon>
                            <polygon id="Fill-161" fill="#FFFFFF" mask="url(#mask-8)" points="361.320276 1129.45653 358.71518 1121.97275 243.815474 1121.97275 246.299026 1129.45653"></polygon>
                            <polygon id="Fill-162" fill="#FFFFFF" mask="url(#mask-8)" points="375.199399 1169.31574 372.569994 1161.75485 257.04231 1161.75485 259.558274 1169.31574"></polygon>
                            <path d="M378.760641,1177.99959 L301.511251,956.428759 C300.798193,954.383302 298.800818,953.007489 296.5482,953.007489 L289.231244,953.007489 L367.331443,1177.99959 L378.760641,1177.99959 Z" id="Fill-163" fill="#FFFFFF" mask="url(#mask-8)"></path>
                            <path d="M253.627731,1177.99959 L265.056929,1177.99959 L191.222929,956.493694 C190.530128,954.41577 188.516547,953.007489 186.235569,953.007489 L186.130231,953.007489 C182.589246,953.007489 180.069231,956.302947 181.138819,959.533469 L253.627731,1177.99959 Z" id="Fill-164" fill="#FFFFFF" mask="url(#mask-8)"></path>
                            <path d="M485.922443,949.283865 C485.922443,949.283865 483.835936,958.602056 485.172921,961.179169 C486.586885,963.902386 514.311098,964.697841 515.992458,962.863424 C517.669767,961.033065 514.874252,957.839068 513.399517,957.10449 C511.932885,956.365853 492.93959,949.283865 492.93959,949.283865 L485.922443,949.283865 Z" id="Fill-165" fill="#110239" mask="url(#mask-8)"></path>
                            <path d="M449.771982,946.771281 L457.31582,946.771281 C457.31582,946.771281 458.211195,957.067558 457.546754,958.954735 C456.882313,960.841912 448.106827,970.630884 443.23696,970.630884 C440.575143,970.630884 437.301555,970.643058 436.787018,968.276984 C436.357563,966.300521 438.302268,962.136556 439.910702,959.904411 C443.455739,954.989634 449.771982,946.771281 449.771982,946.771281" id="Fill-166" fill="#110239" mask="url(#mask-8)"></path>
                            <path d="M487.414195,834.799174 C487.414195,834.799174 470.199496,839.71801 459.475254,834.511024 C459.475254,834.511024 452.984798,839.965575 451.955724,851.114125 C451.63971,854.54757 444.731952,951.304971 444.731952,951.304971 L459.406379,951.304971 C459.406379,951.304971 464.349173,901.012714 465.455224,894.669363 C466.565327,888.326013 473.379901,858.492379 473.379901,858.492379 C473.379901,858.492379 479.303151,885.026496 480.939945,894.67748 C481.191136,896.158813 484.20543,950.781431 484.20543,950.781431 L498.39368,950.740847 C498.39368,950.740847 496.448974,891.23186 496.448974,894.421798 C496.448974,895.724559 494.800026,852.640101 487.414195,834.799174" id="Fill-167" fill="#FD425F" mask="url(#mask-8)"></path>
                            <path d="M518.749889,762.095774 L529.016315,784.924531 C529.016315,784.924531 526.010124,788.313333 525.009411,787.558462 C524.008698,786.807649 508.605007,768.280845 507.101911,767.318994 C505.598815,766.361201 518.749889,762.095774 518.749889,762.095774" id="Fill-168" fill="#0400A3" mask="url(#mask-8)"></path>
                            <path d="M510.397782,770.308039 C512.767893,768.989044 515.474275,768.700895 517.99429,767.759335 C518.974746,767.394075 519.878224,766.992289 520.793856,766.643263 L518.751915,762.097804 C518.751915,762.097804 505.59679,766.359171 507.103937,767.321023 C507.456415,767.548296 508.598929,768.769888 510.134437,770.490669 C510.223569,770.429792 510.296496,770.364857 510.397782,770.308039" id="Fill-169" fill="#04006C" mask="url(#mask-8)"></path>
                            <path d="M493.285586,764.937498 C493.285586,764.937498 493.326101,771.500004 497.333005,773.005688 C497.333005,773.005688 517.86991,764.482952 522.006461,763.667205 C526.13491,762.84334 541.161814,762.721587 541.161814,762.721587 L526.009314,735.623346 C526.009314,735.623346 518.749079,750.176931 512.108718,754.941547 C505.47241,759.71022 493.285586,764.937498 493.285586,764.937498" id="Fill-170" fill="#FFFFFF" mask="url(#mask-8)"></path>
                            <path d="M506.607226,769.245944 C508.227815,768.600651 509.925381,767.931007 511.594587,767.285715 C509.074572,764.444803 507.769999,760.491877 507.271668,757.999991 C505.711851,758.892849 504.099366,759.75324 502.53955,760.552753 C503.236403,764.107952 504.735447,767.066559 506.607226,769.245944" id="Fill-171" fill="#110239" mask="url(#mask-8)"></path>
                            <path d="M546.75811,742.592508 C551.036463,752.929369 549.525265,763.375808 543.383235,765.92857 C537.237154,768.477274 528.789838,762.166391 524.515537,751.829531 C520.233132,741.49267 521.744331,731.046231 527.890412,728.497527 C534.032441,725.944765 542.479757,732.255648 546.75811,742.592508" id="Fill-172" fill="#FEE08D" mask="url(#mask-8)"></path>
                            <path d="M545.931205,742.93707 C549.565374,751.731722 548.281058,760.615659 543.054661,762.790986 C537.832315,764.958196 530.645007,759.592931 527.006786,750.79828 C523.368565,742.007686 524.652882,733.115632 529.879279,730.948422 C535.101624,728.777154 542.292985,734.146477 545.931205,742.93707" id="Fill-173" fill="#110239" mask="url(#mask-8)"></path>
                            <path d="M517.400749,778.535726 C516.910521,778.239459 517.048271,776.400983 517.149558,775.922087 C517.303514,775.175333 517.822102,774.201306 517.303514,773.482961 C516.38383,772.216726 515.099514,775.621762 514.929352,776.112834 C514.609286,777.06251 514.491793,777.703744 514.694367,778.385563 C514.860477,778.953746 515.877396,780.719169 516.65933,781.356345 C516.566146,781.693196 516.460808,782.046281 516.331161,782.423717 C517.311617,782.853912 517.854514,783.129886 518.80661,783.677776 C519.79922,784.250017 519.746551,784.960245 520.674338,785.597421 L521.598073,783.462679 C521.209132,782.979724 518.215095,779.026798 517.400749,778.535726" id="Fill-174" fill="#F88667" mask="url(#mask-8)"></path>
                            <path d="M523.976286,771.060881 C523.089014,770.107146 521.707463,770.472406 520.633823,771.259745 C519.847838,771.827927 517.591168,773.662344 518.198889,774.989456 C518.705323,776.089295 521.610227,773.650169 521.610227,773.650169 C520.540639,774.571436 518.547315,775.310073 519.045646,776.23134 C519.608801,777.262186 522.145021,775.797087 522.700073,775.383125 C522.128815,775.533288 519.296838,777.254069 520.431249,778.155044 C521.209132,778.771927 523.291587,777.477283 523.915514,777.038971 C523.07686,777.294653 521.942448,778.037349 522.165279,779.198064 C522.529911,779.831182 523.789918,779.413162 524.494874,779.125012 C525.55636,778.694817 526.557073,778.528421 526.638102,777.205367 C526.65836,776.957802 526.690771,776.742704 526.678617,776.487022 C526.629999,775.533288 526.196492,774.449683 525.746779,773.613643 C525.240345,772.6802 524.656933,771.795459 523.976286,771.060881" id="Fill-175" fill="#F88667" mask="url(#mask-8)"></path>
                            <path d="M460.019366,765.639203 C460.019366,765.639203 464.929749,784.807242 462.122079,786.312925 C462.122079,786.312925 472.145418,807.136809 476.585829,806.158724 C481.026241,805.184697 478.684491,787.412764 478.684491,787.412764 C478.684491,787.412764 477.169241,787.153023 475.260999,785.444418 C474.414241,784.685488 471.258146,772.863236 471.258146,772.863236 L460.019366,765.639203 Z" id="Fill-176" fill="#F88667" mask="url(#mask-8)"></path>
                            <path d="M468.415229,797.42089 C466.839207,795.310499 465.579199,792.238255 465.931677,789.559681 C466.458368,785.566171 470.388295,783.674935 473.961692,782.20172 C473.256736,778.260969 471.259361,772.863236 471.259361,772.863236 L460.020582,765.639203 C460.020582,765.639203 464.930964,784.807242 462.119243,786.312925 C462.119243,786.312925 472.146633,807.136809 476.587045,806.158724 C477.737663,805.9071 478.430464,804.506936 478.823457,802.595409 C474.581567,803.370572 470.890677,800.732582 468.415229,797.42089" id="Fill-177" fill="#E45940" mask="url(#mask-8)"></path>
                            <path d="M415.864819,778.642869 C415.358385,777.867706 414.977547,776.982964 414.677738,776.110399 C414.414393,775.351469 414.228025,774.576306 413.960628,773.821435 C413.713488,773.090915 413.413679,772.364453 413.450143,771.577115 C413.478503,771.090101 413.604099,770.684257 413.729694,770.209419 C413.879599,769.625003 414.094326,769.060879 414.211819,768.468346 C414.317157,767.944806 414.26854,767.433442 414.369826,766.909903 C414.556194,765.939934 414.779025,764.900972 415.273304,764.036523 C415.662246,763.358763 416.083599,762.798697 416.598135,762.214281 C416.865532,761.909898 417.055951,761.650157 417.376018,761.3823 C417.671775,761.138793 417.963481,760.874994 418.093128,760.497559 C418.275444,759.974019 417.995893,759.495123 417.477304,759.365252 C416.565724,759.129862 415.1234,759.551941 414.568349,760.318987 C413.794518,761.386358 413.425834,762.689119 412.570974,763.715906 C409.933466,766.86526 407.462069,763.163957 404.387003,761.828729 C403.503782,761.451293 402.183003,760.489442 401.417275,759.913142 C400.870326,759.499181 398.508319,757.250802 397.390113,757.839277 C396.571716,758.269472 398.18015,760.156649 398.953981,760.619312 C399.261893,760.801942 401.895349,762.940743 402.239724,763.042204 C401.461841,762.912334 399.444209,761.577105 397.823621,760.302753 C396.656797,759.389603 395.526437,758.492686 394.890356,759.012167 C392.937547,760.619312 400.606981,764.292205 401.21065,764.629056 C400.570518,764.685874 394.562187,760.420448 393.994981,761.987008 C393.678966,762.847399 394.926819,763.703731 395.94779,764.259738 C397.224003,764.953732 399.371282,765.452921 399.857459,765.830356 C398.949929,766.134739 394.971385,763.427756 394.971385,765.079544 C394.971385,766.163149 397.438731,766.974838 398.370569,767.25487 C399.326716,767.551137 402.138437,769.466723 403.033812,769.89286 C405.999488,771.309258 407.227084,771.142861 408.397959,772.928577 C409.147481,774.060884 410.476363,780.063325 411.554054,782.344171 L415.864819,778.642869 Z" id="Fill-178" fill="#F88667" mask="url(#mask-8)"></path>
                            <path d="M515.742888,781.607563 C513.097277,789.326727 507.433321,802.991513 505.561542,802.029661 C502.05702,800.23177 494.513182,794.050757 488.869483,790.268286 C484.501998,787.338088 482.314204,786.485815 482.314204,786.485815 L486.240079,805.130314 C486.240079,805.130314 504.848483,819.282113 508.741946,817.114903 C511.80891,815.406298 519.356799,793.884361 522.018615,784.963898 C522.018615,784.963898 515.787454,781.640031 515.742888,781.607563" id="Fill-179" fill="#110239" mask="url(#mask-8)"></path>
                            <path d="M497.317204,808.201339 C495.218543,805.474064 487.22094,797.62503 485.057454,795.948892 L485.681381,804.792245 C485.681381,804.792245 504.435638,818.915636 508.584344,817.15427 C505.010947,814.853132 499.865579,811.513031 497.317204,808.201339" id="Fill-180" fill="#330045" mask="url(#mask-8)"></path>
                            <path d="M482.314204,786.486221 L475.260593,785.4432 C475.260593,785.4432 473.165983,787.914793 470.459601,787.801157 C467.753218,787.695637 462.923865,784.42453 462.923865,784.42453 C462.923865,784.42453 456.251093,787.216741 452.377887,789.680217 C452.377887,789.680217 453.856674,802.038184 452.985608,803.661562 L450.664115,846.518747 C450.664115,846.518747 466.687682,848.426217 474.794674,847.955437 C488.83302,847.135631 491.673101,845.93839 491.673101,845.93839 C491.673101,845.93839 490.178108,810.289004 486.892365,799.46513 C485.595895,795.195645 482.314204,786.486221 482.314204,786.486221" id="Fill-181" fill="#110239" mask="url(#mask-8)"></path>
                            <path d="M455.473211,788.804811 C455.473211,788.804811 427.862439,796.722838 425.370785,796.073487 C422.883182,795.424135 414.58577,771.791807 414.58577,771.791807 L407.653704,774.608368 C407.653704,774.608368 415.05574,808.695252 419.82027,810.290221 C424.584799,811.88519 452.985608,803.66278 452.985608,803.66278 C452.985608,803.66278 458.179593,796.722838 455.473211,788.804811" id="Fill-182" fill="#110239" mask="url(#mask-8)"></path>
                            <path d="M535.086229,749.230908 C534.036898,745.996327 530.888905,744.121325 528.052876,745.04665 C527.080523,745.359151 526.286435,745.976034 525.686817,746.763373 C526.019038,748.094543 526.444442,749.446005 527.007596,750.797468 C527.967795,753.118899 529.183236,755.196823 530.536427,756.966305 C530.973986,756.950071 531.411545,756.897311 531.841001,756.755266 C534.67703,755.833999 536.131508,752.465489 535.086229,749.230908" id="Fill-183" fill="#6CD3FE" mask="url(#mask-8)"></path>
                            <path d="M459.663242,756.242278 C459.663242,756.242278 463.098889,752.362404 468.057889,752.524742 C473.02094,752.68708 475.929896,753.409483 477.449198,757.334 C478.968499,761.258517 481.678933,771.230118 481.678933,771.230118 C481.678933,771.230118 481.419639,780.345387 473.187051,777.865676 C464.958514,775.385966 456.101999,770.162747 457.199948,766.461444 C458.289793,762.756084 459.663242,756.242278 459.663242,756.242278" id="Fill-184" fill="#F88667" mask="url(#mask-8)"></path>
                            <path d="M460.850323,754.621335 C460.850323,754.621335 465.262374,755.956564 465.217808,757.993903 C465.16919,760.031243 464.245455,763.838065 465.906558,768.038556 C465.906558,768.038556 464.72758,769.077518 463.779536,768.233362 C462.831492,767.389205 463.362235,763.679786 460.923249,764.256085 C458.480213,764.832384 459.055521,769.191155 461.757852,769.584824 C461.757852,769.584824 464.06719,772.328333 466.745213,772.141645 C469.423235,771.954956 472.773801,768.94359 474.110786,768.675732 C475.451823,768.403816 479.981367,768.192777 480.929411,768.716317 C480.929411,768.716317 484.664867,779.085645 480.378411,781.049933 C476.096007,783.01422 465.618904,780.031263 460.076492,774.26827 C460.076492,774.26827 453.942565,774.475251 454.550286,766.037743 C455.012154,759.6741 450.92422,758.257702 454.295043,753.72036 C456.697565,750.485779 460.850323,754.621335 460.850323,754.621335" id="Fill-185" fill="#110239" mask="url(#mask-8)"></path>
                            <path d="M455.956146,752.913135 C455.956146,752.913135 457.033838,748.197222 464.164426,747.154201 C471.295014,746.107122 472.05669,750.181802 474.746867,750.400958 C477.432992,750.620114 477.983992,749.03732 476.963021,748.461021 C476.963021,748.461021 478.660588,746.728064 481.678933,750.543003 C484.693227,754.362001 480.682271,760.384734 475.070985,761.094962 C468.345543,761.947235 461.08936,760.425318 455.956146,752.913135" id="Fill-186" fill="#110239" mask="url(#mask-8)"></path>
                            <path d="M478.66626,772.495541 C478.66626,772.495541 475.882899,773.765835 473.37909,773.35999 C473.37909,773.35999 473.946296,774.800738 476.883613,774.549115 C478.552818,774.403011 478.66626,772.495541 478.66626,772.495541" id="Fill-187" fill="#FFFFFF" mask="url(#mask-8)"></path>
                        </g>
                    </g>
                </g>
            </g>
        </g>
    </g>
</svg>