<?xml version="1.0" encoding="UTF-8"?>
<svg width="564px" height="777px" viewBox="0 0 564 777" version="1.1" xmlns="http://www.w3.org/2000/svg" xmlns:xlink="http://www.w3.org/1999/xlink">
    <!-- Generator: Sketch 64 (93537) - https://sketch.com -->
    <title>Group 263</title>
    <desc>Created with Sketch.</desc>
    <defs>
        <polygon id="path-1" points="0.275742646 0.252886158 527.596196 0.252886158 527.596196 341.758829 0.275742646 341.758829"></polygon>
        <linearGradient x1="50.0000433%" y1="5.79531073%" x2="50.0000433%" y2="99.700025%" id="linearGradient-3">
            <stop stop-color="#59C6EF" offset="0%"></stop>
            <stop stop-color="#AAE6F6" offset="100%"></stop>
        </linearGradient>
        <path d="M19.9099535,7.87306913 C17.972093,5.9552048 14.5730233,2.51376761 11.4044651,3.61242442 L11.4044651,3.61242442 C9.06418605,4.42014772 8.23981395,7.08065812 9.5252093,8.8377434 L9.5252093,8.8377434 C7.44669767,7.3065144 3.80539535,6.06239083 1.85190698,7.70846201 L1.85190698,7.70846201 C-0.937674419,10.0627266 0.761860465,13.148153 3.63348837,13.4390866 L3.63348837,13.4390866 C12.9906977,13.4390866 22.4846512,13.9290798 31.8262326,13.4390866 L31.8262326,13.4390866 C35.3151628,13.2553391 43.1564651,11.9384821 41.4764651,6.53707182 L41.4764651,6.53707182 C39.9449302,1.6103425 32.5646512,4.37803893 31.1659535,7.96111479 L31.1659535,7.96111479 C30.9276279,2.73962389 27.2550698,0.408327734 24.0122791,0.408327734 L24.0122791,0.408327734 C20.5077209,0.408327734 17.5110698,3.13391536 19.9099535,7.87306913" id="path-4"></path>
        <linearGradient x1="50.0024306%" y1="5.80441633%" x2="50.0024306%" y2="99.6992972%" id="linearGradient-6">
            <stop stop-color="#59C6EF" offset="0%"></stop>
            <stop stop-color="#AAE6F6" offset="100%"></stop>
        </linearGradient>
        <path d="M16.555,6.76681693 C14.9411111,5.08246503 12.11,2.07068341 9.47333333,3.02514949 L9.47333333,3.02514949 C7.52111111,3.73899387 6.83277778,6.069014 7.90611111,7.61300325 L7.90611111,7.61300325 C6.17166667,6.26953209 3.14222222,5.18272407 1.51277778,6.62645428 L1.51277778,6.62645428 C-0.808888889,8.68778018 0.606666667,11.3947743 3.00222222,11.6514375 L3.00222222,11.6514375 C10.7877778,11.6514375 18.7094444,12.0765358 26.4872222,11.6514375 L26.4872222,11.6514375 C29.3922222,11.491023 35.9255556,10.3320285 34.5294444,5.59178096 L34.5294444,5.59178096 C33.25,1.27262144 27.1016667,3.70290061 25.9388889,6.84301381 L25.9388889,6.84301381 C25.7405556,2.26318077 22.68,0.221906679 19.9772222,0.221906679 L19.9772222,0.221906679 C17.0566667,0.221906679 14.5561111,2.61208224 16.555,6.76681693" id="path-7"></path>
        <linearGradient x1="49.9992051%" y1="5.80517949%" x2="49.9992051%" y2="99.6934494%" id="linearGradient-9">
            <stop stop-color="#59C6EF" offset="0%"></stop>
            <stop stop-color="#AAE6F6" offset="100%"></stop>
        </linearGradient>
        <path d="M13.2627436,5.73105748 C11.9679535,4.4790727 9.70502249,2.24580254 7.59951274,2.96014821 L7.59951274,2.96014821 C6.03710645,3.48650818 5.48613193,5.21221694 6.34407796,6.35517002 L6.34407796,6.35517002 C4.95483508,5.3626055 2.53054723,4.55802669 1.23182159,5.62202577 L1.23182159,5.62202577 C-0.625749625,7.1522294 0.507683658,9.15239729 2.42035232,9.35166213 L2.42035232,9.35166213 C8.65029985,9.35166213 14.9786357,9.65995869 21.2046477,9.35166213 L21.2046477,9.35166213 C23.5266117,9.22759157 28.7529985,8.37037676 27.6353073,4.86256353 L27.6353073,4.86256353 C26.612069,1.65928714 21.6965892,3.46019018 20.7638681,5.78745319 L20.7638681,5.78745319 C20.6064468,2.39243139 18.1585457,0.881026331 15.9979385,0.881026331 L15.9979385,0.881026331 C13.6641679,0.881026331 11.6649175,2.64809194 13.2627436,5.73105748" id="path-10"></path>
        <linearGradient x1="49.9994022%" y1="5.78812473%" x2="49.9994022%" y2="99.6836375%" id="linearGradient-12">
            <stop stop-color="#59C6EF" offset="0%"></stop>
            <stop stop-color="#AAE6F6" offset="100%"></stop>
        </linearGradient>
        <polygon id="path-13" points="0 757.802579 790.873326 757.802579 790.873326 0.150995654 0 0.150995654"></polygon>
    </defs>
    <g id="Page-1" stroke="none" stroke-width="1" fill="none" fill-rule="evenodd">
        <g id="Web" transform="translate(-1356.000000, -2356.000000)">
            <g id="photos" transform="translate(-144.000000, 2356.000000)">
                <g id="Group-263" transform="translate(1417.000000, 0.000000)">
                    <path d="M209.990558,769 C299.032664,769 482.035812,769 759,769 L757.774137,81.8633338 C694.186175,27.2149387 637.222172,-0.0728392587 586.882126,0 C240.200748,0.501272851 39.8511728,386.16169 134.378776,506.676715 C228.90638,627.19174 76.4273988,769 209.990558,769 Z" id="Oval" fill="#D8D8D8"></path>
                    <g id="Group-55" opacity="0.898088728" transform="translate(83.000000, 19.000000)">
                        <path d="M368.185113,458.941438 C334.855018,450.193835 310.546102,442.382042 308.360457,390.394457 C307.320608,365.669829 313.2811,347.53201 328.156823,330.261721 C340.219068,316.256722 346.564107,310.754327 347.937493,290.359321 C350.01719,259.41739 338.229622,236.122582 348.243561,206.606454 C358.940269,175.070103 391.673923,173.041848 402.65708,143.473507 C412.160905,117.885366 414.30731,90.8513391 442.308671,77.1355167 C467.104158,64.9860694 486.237375,85.3449284 480.814466,109.908902 C477.663528,124.182996 468.387292,137.489151 467.237573,152.325534 C466.107473,166.900855 474.210445,175.540016 482.466452,186.082924 C502.094087,211.140908 514.968592,242.954387 488.795795,275.551053 C473.166672,295.022299 461.457583,311.557597 474.575373,337.595569 C489.560967,367.324564 497.714951,385.699348 474.084878,417.480696 C456.372134,441.305661 436.862218,442.639088 413.848207,447.79206 C393.117939,452.43094 367.266907,465.700948 348.110147,454.089691 L368.185113,458.941438 Z" id="Fill-1" fill="#8494AB"></path>
                        <path d="M386.306341,422.394293 C385.317504,422.542898 384.324743,422.647323 383.32021,422.698018 C382.005684,422.755765 380.883432,421.719547 380.816725,420.366039 C380.76179,419.020563 381.60544,417.819675 383.096544,417.799593 C398.863006,417.100749 412.769511,400.143735 419.773775,385.909804 C425.365414,374.543545 423.375968,365.378243 420.856787,353.779035 L418.832025,344.200049 C413.605314,319.142065 409.100611,297.506008 425.369338,274.733325 C443.376379,249.51067 446.590101,235.136167 441.022005,204.792672 C440.574674,202.322619 440.041016,199.724043 439.503433,197.061205 C437.525759,187.265337 435.273407,176.168172 435.744282,166.641399 C436.011111,161.255479 437.639554,155.901689 439.220908,150.720602 C441.253518,144.037402 443.176258,137.71969 442.352227,131.518451 C442.175648,130.181008 443.074235,128.960039 444.365217,128.763238 C444.373065,128.759221 444.384837,128.759221 444.392684,128.759221 C445.70721,128.574469 446.911865,129.510278 447.088443,130.847721 C448.065509,138.13739 445.883788,145.278453 443.776623,152.17452 C442.22666,157.295361 440.755176,162.123009 440.519738,166.894429 C440.076331,175.786619 442.258052,186.55846 444.188639,196.061135 C444.737993,198.76012 445.263803,201.394843 445.72683,203.897026 C451.530363,235.509687 447.983106,251.354173 429.230513,277.621078 C414.221375,298.622552 418.317987,318.290599 423.509383,343.183913 L425.514525,352.710687 C428.143576,364.767758 430.4077,375.178127 424.043041,388.114778 C416.544358,403.340747 402.865442,419.843914 386.306341,422.394293" id="Fill-3" fill="#FFFFFF"></path>
                        <path d="M430.251919,346.98177 C427.332494,347.427585 423.643974,346.809067 419.657234,343.26665 C418.668396,342.383054 418.558525,340.836761 419.42572,339.812592 C420.285067,338.800473 421.799714,338.675966 422.800323,339.571612 C425.700128,342.154122 428.474366,342.840917 431.236832,341.648063 C440.752429,337.595569 448.400222,314.168222 448.9535,305.762009 C450.578019,280.945006 454.953231,267.735243 476.589933,255.127932 C477.720033,254.44917 479.195441,254.858837 479.850742,256.043659 C480.506043,257.220449 480.097951,258.710513 478.952155,259.381243 C458.166952,271.490527 455.196517,283.471288 453.717185,306.091349 C453.230614,313.581835 445.841802,340.724303 433.081092,346.170468 C432.245289,346.523907 431.295691,346.821116 430.251919,346.98177" id="Fill-5" fill="#FFFFFF"></path>
                        <path d="M285.900509,487.667551 C261.320839,514.74174 230.996496,539.51858 188.90028,508.331652 C167.714833,492.639787 166.694604,470.284804 165.474253,443.106189 C164.520732,421.919963 165.533113,412.39319 150.202211,396.625014 C126.348473,372.097188 84.9389495,375.760096 69.0351498,344.344236 C52.1582085,311.008562 94.3368278,277.054371 80.5637369,247.690864 C68.7604727,222.516406 47.869323,199.346104 65.7625692,177.473083 C80.2145047,159.809192 112.351717,169.568914 125.485202,189.3695 C133.081984,200.816087 135.14991,213.877245 144.732214,224.954328 C154.039841,235.714119 165.886269,238.288597 178.639131,241.983636 C206.981876,250.193048 233.115433,264.563534 237.973292,296.196277 C241.010435,315.944652 244.526301,332.367491 266.598562,340.49256 C290.004969,349.111639 303.150226,354.714442 310.291829,385.515801 C315.863849,409.557649 308.529972,423.5506 301.32951,443.262827 C294.360562,462.336455 289.714596,492.402823 271.789958,503.769083 L285.900509,487.667551 Z" id="Fill-7" fill="#0400A3"></path>
                        <path d="M286.303107,474.026031 C280.990069,474.118407 275.920316,473.098255 271.164479,470.957542 C250.803064,461.804289 239.564849,434.280268 229.751032,410.250469 C224.948108,398.462493 220.423785,387.389426 215.475674,380.252379 C202.275481,361.174735 188.482771,348.675865 164.621185,334.080463 C136.902349,317.143531 129.705811,304.146635 123.345076,276.20893 C118.177224,253.616983 111.73801,231.089297 99.518806,217.97191 C98.5731323,216.963807 98.7340145,215.505873 99.8680383,214.714653 C100.99029,213.919417 102.677592,214.088103 103.611494,215.096206 C116.611565,229.004813 123.301912,252.203229 128.630647,275.401645 C134.795184,302.303132 141.289334,314.026846 167.587697,330.092231 C187.835318,342.454545 204.543529,355.29882 220.125564,377.762244 C225.399363,385.353139 230.033557,396.667186 234.965971,408.704176 C244.407013,431.770052 255.217516,458.173512 273.401135,466.334728 C280.456411,469.507641 288.127748,469.704442 296.79577,466.925131 C298.24371,466.507431 299.891772,467.182177 300.488214,468.539702 C301.084655,469.897227 300.405811,471.367209 298.95787,471.829089 C294.606201,473.214729 290.387947,473.94972 286.303107,474.026031" id="Fill-9" fill="#FFFFFF"></path>
                        <path d="M190.989787,351.25707 C190.401193,351.264802 189.800828,351.112181 189.271094,350.778824 C188.027199,349.963506 187.693663,348.421229 188.537314,347.324766 C195.914354,337.874304 189.973482,323.254803 183.726542,307.876214 C178.319328,294.570059 172.770852,280.886367 175.949258,269.672728 C176.302414,268.407579 177.781746,267.672588 179.210067,268.046108 C180.654083,268.407579 181.536973,269.720925 181.179893,270.986074 C178.417427,280.810056 183.702998,293.786871 188.843382,306.402215 C195.298292,322.262766 202.02788,338.765932 193.096952,350.264732 C192.594686,350.895298 191.80597,351.240704 190.989787,351.25707" id="Fill-11" fill="#FFFFFF"></path>
                        <path d="M220.959797,384.211292 C220.626261,384.219324 220.273105,384.167112 219.93172,384.054654 C215.933208,382.745325 212.778346,381.142803 209.717659,379.592493 C204.797016,377.094326 200.543446,374.941565 193.829555,374.656404 C190.270526,374.511815 186.94301,374.805009 183.713593,375.090169 C176.889831,375.640409 169.881642,376.279008 161.264632,372.648231 C149.010112,367.48321 135.864855,357.807832 122.229102,343.955453 C120.349527,342.043673 117.948065,339.02338 115.40534,335.830385 C111.752136,331.255767 104.995081,322.769227 102.597543,322.275217 C101.157451,321.978007 100.113678,320.724907 100.356963,319.439676 C100.588477,318.166494 101.848067,317.266833 103.272464,317.479699 C107.545654,318.029939 112.372121,323.73315 119.819793,333.075172 C122.27619,336.147676 124.607021,339.063544 126.286475,340.774507 C135.295881,349.911695 149.092516,362.121387 163.4542,368.165988 C170.658586,371.214395 176.352248,370.720385 182.968041,370.138014 C186.362264,369.844821 189.893826,369.555644 193.845251,369.704249 C201.90506,370.029573 207.159239,372.700443 212.25646,375.278938 C215.105253,376.724822 218.056069,378.218903 221.60725,379.379627 C223.059115,379.84954 223.871374,381.287392 223.408347,382.584671 C223.059115,383.568676 222.058505,384.19121 220.959797,384.211292" id="Fill-13" fill="#FFFFFF"></path>
                        <path d="M292.530035,475.238164 C254.734477,451.441313 212.00258,438.103027 212.932557,381.536807 C213.705577,334.702193 263.45351,315.054228 240.094191,268.368219 C225.171381,238.546848 193.218595,206.400013 197.138628,169.951671 C201.333339,131.005162 251.27747,138.640236 256.417855,102.127633 C260.753828,71.2941428 225.332263,41.8061288 248.832845,13.4949043 C269.555264,-11.4626711 314.763179,2.24110223 331.173169,24.720592 C352.127102,53.4334512 328.473486,80.7928016 337.408337,110.553927 C343.184403,129.808291 362.046867,129.832389 377.228658,139.118181 C391.912107,148.090699 408.471208,163.075687 416.550636,178.667143 C441.393211,226.57412 394.376352,252.579962 385.021638,293.896116 C376.200581,332.838609 426.356606,336.766595 435.456264,373.26715 C445.493747,413.551102 407.462751,452.425317 374.034557,464.390013 C350.945991,472.651637 316.419089,490.283397 292.530035,475.238164" id="Fill-15" fill="#B3B2DA"></path>
                        <path d="M332.861648,481.211676 C332.641906,481.247823 332.406469,481.255856 332.171031,481.211676 C330.86043,481.026924 329.953995,479.785873 330.146269,478.452446 C330.27576,477.472457 343.244439,379.469593 305.841276,283.085317 C282.152345,222.068985 288.689658,175.824774 293.943837,138.665539 C297.071231,116.555553 299.763066,97.4658597 294.465724,81.7498969 C294.038012,80.4726988 294.693313,79.0750103 295.941132,78.6332123 C297.232114,78.1632997 298.558411,78.8782094 298.986123,80.1473748 C304.660165,96.9919308 301.885927,116.623831 298.672206,139.3684 C293.504354,175.945265 287.061216,221.474566 310.279272,281.281977 C348.17293,378.903288 335.011977,478.147204 334.874638,479.131208 C334.721604,480.231687 333.877953,481.055038 332.861648,481.211676" id="Fill-17" fill="#FFFFFF"></path>
                        <path d="M309.705197,281.853503 C308.551554,282.030222 307.41753,281.327362 307.064374,280.150572 C306.679826,278.869358 307.382215,277.495768 308.645729,277.094133 C327.802489,271.02945 347.516452,249.244788 346.311797,226.504236 C346.166611,223.789186 345.915477,220.825122 345.644724,217.712454 C344.353742,202.872055 342.756692,184.416944 351.911284,173.950346 C356.384596,168.84557 363.039628,166.186748 371.562464,165.961127 C372.888761,165.929702 373.979621,166.99805 374.007089,168.347543 C374.038481,169.697035 373.037872,170.733252 371.676258,170.853743 C364.346306,171.042511 359.076431,173.09888 355.46639,177.211619 C347.708726,186.099793 349.203754,203.382131 350.404485,217.278689 C350.683086,220.447586 350.938143,223.471895 351.087253,226.231124 C352.456714,252.080329 330.851404,275.190385 310.05443,281.76916 C309.936711,281.809323 309.815068,281.837438 309.705197,281.853503" id="Fill-19" fill="#FFFFFF"></path>
                        <path d="M295.526762,284.700691 C286.007241,285.917644 277.755158,284.278975 270.900004,279.776651 C260.085578,272.691816 253.093085,258.506081 250.675927,238.737625 C250.44049,236.793713 250.220748,234.520461 249.985311,232.038359 C248.61585,217.973115 246.555772,196.718611 236.663475,188.533297 C233.394819,185.830296 229.533644,184.78203 224.852363,185.324237 C223.545685,185.468825 222.356726,184.504902 222.207616,183.167459 C222.066353,181.838048 222.992407,180.629128 224.291237,180.464458 C224.299085,180.460441 224.306933,180.460441 224.318705,180.460441 C230.247805,179.777662 235.411733,181.207482 239.669227,184.725801 C251.111487,194.196345 253.293207,216.679851 254.7333,231.552382 C254.972661,233.986287 255.188479,236.21536 255.419992,238.12714 C257.656648,256.405532 263.89574,269.386363 273.481969,275.659896 C281.706583,281.045816 292.509238,281.604088 305.548549,277.378892 C306.859151,276.937094 308.154057,277.688151 308.554301,278.965349 C308.95062,280.258612 308.260004,281.632203 307.004337,282.045886 C302.990129,283.347182 299.168194,284.234795 295.526762,284.700691" id="Fill-21" fill="#FFFFFF"></path>
                        <path d="M346.614727,438.529964 C343.659987,438.983812 340.697399,438.91955 337.785822,438.188575 C336.498764,437.863251 335.713973,436.545889 336.027889,435.228528 C336.34573,433.915183 337.593548,433.103881 338.915922,433.429205 C354.01531,437.208587 373.391813,417.460212 380.019377,405.342896 C382.773995,400.298365 384.010042,392.920337 385.308871,385.100511 C387.639702,371.191904 390.041164,356.805352 401.601143,351.929507 C402.845038,351.327055 404.230195,351.993769 404.724613,353.246869 C405.230804,354.499969 404.653982,355.933804 403.433631,356.439864 C394.31043,360.295556 392.140482,373.332616 390.025468,385.919845 C388.652083,394.165404 387.349329,401.957116 384.182696,407.736638 C378.249672,418.61692 362.50283,436.088026 346.614727,438.529964" id="Fill-23" fill="#FFFFFF"></path>
                        <path d="M325.43909,440.820487 C322.449034,441.27835 319.309868,441.194007 316.037288,440.567457 C297.783037,437.045121 280.066369,417.256583 272.606926,404.821975 C268.639805,398.186972 266.811241,388.162171 264.864958,377.559017 C261.792499,360.746592 258.621941,343.371878 246.971712,339.492088 C245.723893,339.074388 245.037201,337.692765 245.441368,336.403518 C245.84946,335.122303 247.211073,334.439524 248.462815,334.833126 C262.800956,339.620611 266.399225,359.296691 269.569783,376.659356 C271.417967,386.816695 273.179824,396.403714 276.691766,402.259547 C283.433125,413.509332 300.317914,432.542797 316.924102,435.751858 C323.394708,436.996925 329.217861,435.667514 334.185591,431.803789 C335.229364,431.004537 336.728316,431.197321 337.540575,432.269686 C338.32929,433.358115 338.129168,434.884327 337.081472,435.707678 C333.51067,438.466908 329.614181,440.177871 325.43909,440.820487" id="Fill-25" fill="#FFFFFF"></path>
                        <path d="M156.021047,727.118498 C127.925512,718.648023 105.53541,711.049096 107.434606,679.601105 C108.419519,663.318838 116.420468,652.474703 133.858535,644.381765 C147.886683,637.879301 154.965503,635.778752 159.195529,621.657279 C165.956508,599.093445 157.068744,575.818719 172.823433,554.656591 C190.32036,531.148916 224.086014,544.945066 241.747747,523.995804 C257.518132,505.295696 267.339798,480.273859 296.89897,483.18571 C321.533575,485.611583 329.299087,513.653712 317.248613,531.691123 C310.456243,541.864528 299.43777,548.587892 294.273842,559.685056 C289.337504,570.292227 293.045643,579.505725 296.200505,589.711261 C303.149834,612.210832 303.424511,634.907205 278.373966,648.024591 C263.30597,655.912695 251.561565,662.957367 255.430587,679.564958 C259.491883,696.979836 261.136021,706.86808 240.182088,718.893021 C224.423475,727.933816 210.772026,726.576291 193.341807,726.600389 C176.900425,726.624487 154.48678,730.379771 139.414859,722.343062 L156.021047,727.118498 Z" id="Fill-27" fill="#8494AB"></path>
                        <path d="M166.572569,711.382855 C164.394773,708.479036 163.017464,705.474809 162.460262,702.414354 C160.074495,689.196558 173.160894,676.713754 184.97593,665.443887 C190.916801,659.788871 196.575148,654.390902 199.404322,649.679728 C207.114898,636.875616 210.050018,625.236245 210.144193,606.716872 C210.234444,584.747458 216.603027,576.180592 234.84943,562.938698 C250.14894,551.817436 265.315036,539.515367 270.341625,526.614863 C270.730097,525.60676 272.021079,525.152913 273.229658,525.590695 C274.426465,526.02446 275.093538,527.193217 274.701142,528.193287 C269.333168,541.905093 253.656958,554.584698 237.890497,565.983089 C220.252308,578.714906 214.46447,586.442357 214.331056,607.327357 C214.232957,623.095532 212.270978,636.630619 203.112461,651.752162 C200.083166,656.768579 194.271785,662.279006 188.181803,668.058528 C176.78663,678.866516 164.147563,690.855309 166.274348,702.679432 C167.090531,707.237985 170.0335,711.507361 175.275907,715.736574 C176.123482,716.451484 176.351071,717.495734 175.723238,718.098186 C175.095405,718.696621 173.886826,718.616294 173.015707,717.913434 C170.398428,715.792803 168.248099,713.615943 166.572569,711.382855" id="Fill-29" fill="#FFFFFF"></path>
                        <path d="M209.295441,627.45126 C209.032536,627.101837 208.883426,626.700203 208.890979,626.294552 C208.930513,625.326612 209.887959,624.69203 211.037678,624.888831 C221.079086,626.64799 229.209526,618.87636 237.948179,610.530393 C245.666603,603.156381 253.75388,595.432948 264.058192,593.862556 C265.227532,593.681821 266.49497,594.380665 266.85205,595.400817 C267.22875,596.429001 266.589145,597.404974 265.415881,597.581693 C256.390779,598.943234 248.691975,606.257001 241.35025,613.229378 C232.29768,621.828375 223.103848,630.571961 210.916036,628.431248 C210.241115,628.310758 209.656445,627.933221 209.295441,627.45126" id="Fill-31" fill="#FFFFFF"></path>
                        <path d="M198.991129,653.890867 C198.845942,653.698082 198.736072,653.481199 198.66544,653.256284 C197.876725,650.585414 197.645211,648.332244 197.421546,646.139319 C197.060542,642.604934 196.738777,639.548494 194.078334,635.536165 C192.665709,633.407501 191.045115,631.5399 189.475532,629.720495 C186.191179,625.872836 182.777336,621.952882 181.592301,615.884182 C179.893228,607.208875 180.909533,596.601704 184.637292,584.275538 C185.155255,582.556542 186.230419,580.174848 187.368367,577.64455 C189.000733,573.989675 192.069268,567.161886 191.366879,565.543299 C190.939168,564.57536 191.374727,563.527093 192.402804,563.253982 C193.419109,562.968821 194.623764,563.438734 195.102487,564.378559 C196.593591,567.15787 194.631612,571.945355 191.245237,579.427808 C190.142605,581.869746 189.102756,584.183162 188.631881,585.717406 C186.140168,593.894687 183.617063,605.698728 185.602586,615.904264 C186.579651,620.996991 189.349965,624.202036 192.575458,627.929205 C194.227444,629.845002 195.93829,631.845142 197.523569,634.21077 C200.73729,639.034402 201.117914,642.833866 201.494614,646.50079 C201.694736,648.54511 201.910553,650.657708 202.612942,653.035385 C202.903314,654.003324 202.248014,654.846757 201.153229,654.907002 C200.325274,654.955199 199.469852,654.529466 198.991129,653.890867" id="Fill-33" fill="#FFFFFF"></path>
                        <path d="M145.239974,757.292102 C110.414851,750.817752 77.8067644,753.560916 63.7079851,714.538096 C52.5521739,683.660427 78.5601642,654.561998 52.3873676,633.343641 C36.6366022,620.57166 11.7901033,612.912488 6.29656279,591.07963 C0.571508784,568.335061 29.0005809,553.924411 23.8915882,532.107618 C19.66941,514.070207 -4.78076925,512.873336 1.59958565,489.38976 C7.25793237,468.552956 25.1629505,463.307608 39.3951443,467.468542 C58.4224143,473.031182 59.9998452,490.847694 72.6310644,503.21804 C81.0597251,511.479664 93.0003278,503.177876 105.368642,501.659698 C117.685944,500.141519 133.45633,501.266096 143.890133,506.828735 C177.773506,524.890244 150.61972,563.149958 156.772485,594.292707 C162.725129,624.403254 204.1425,606.20519 225.53984,628.821235 C250.531526,655.232728 231.67691,700.910634 207.050153,722.466364 C190.640162,736.828818 168.775871,761.669919 145.239974,757.292102" id="Fill-35" fill="#B3B2DA"></path>
                        <path d="M178.85024,749.428096 C178.685434,749.520472 178.497084,749.604815 178.289114,749.648995 C177.166862,749.91809 175.997523,749.231295 175.68753,748.130816 C175.456016,747.327547 152.795162,669.800016 97.6164714,618.744223 C66.5504999,590.011282 59.1656118,560.326467 53.3934704,537.132067 C50.0306388,523.592964 47.1583019,512.070067 40.5503574,505.840714 C40.0245471,505.334654 40.0755586,504.318519 40.683772,503.559429 C41.3076812,502.772225 42.2219633,502.599523 42.7516976,503.093533 C49.8776044,509.768701 52.8558882,521.645036 56.3521343,535.60184 C62.0889602,558.48698 69.4228368,587.78221 100.072869,615.912699 C156.358115,667.582993 179.517312,746.335509 179.75275,747.15886 C180.015655,748.062538 179.619335,748.982282 178.85024,749.428096" id="Fill-37" fill="#FFFFFF"></path>
                        <path d="M99.8441021,616.496675 C99.1220939,617.050931 98.1764202,617.026833 97.6231422,616.412332 C97.0149288,615.741602 97.1051798,614.596944 97.8311119,613.869985 C108.998695,602.604134 116.250168,580.891766 108.979075,567.212091 C108.123652,565.59752 107.123043,563.88254 106.075347,562.091249 C101.127236,553.620775 95.0843417,543.258602 98.2274316,533.161508 C99.7695469,528.221402 103.422751,523.751208 109.010467,519.851336 C109.889433,519.240852 110.91751,519.38544 111.31383,520.172644 C111.71015,520.955831 111.329526,522.01213 110.450559,522.690893 C105.620168,526.040526 102.700743,529.558845 101.445077,533.555109 C98.7689378,542.154107 104.48222,551.881697 109.151729,559.834063 C110.226894,561.6615 111.251047,563.412627 112.130013,565.051297 C120.480195,580.650785 112.251656,604.066084 100.052072,616.311923 C99.9853646,616.384218 99.9147334,616.444463 99.8441021,616.496675" id="Fill-39" fill="#FFFFFF"></path>
                        <path d="M91.2549515,623.630911 C85.3886351,627.904303 79.6557331,629.872313 74.1425728,629.514858 C65.6040413,628.968635 57.8189096,622.735266 51.599437,611.65015 C50.9912236,610.569753 50.3202268,609.292555 49.5903707,607.894867 C45.4702154,600.071024 39.3566896,588.439685 31.8776266,587.371337 C29.436925,587.025932 27.0472349,587.833217 24.5633698,589.833358 C23.8727532,590.387613 23.0055586,590.267123 22.6327827,589.564262 C22.2678546,588.865418 22.5150639,587.849283 23.1939086,587.286994 C23.1978326,587.282978 23.2056805,587.278961 23.2096044,587.274945 C26.3448465,584.736614 29.5428718,583.66425 32.7212774,584.098015 C41.4049954,585.302919 47.9109169,597.600971 52.2939775,605.882677 C53.0199096,607.252251 53.6830584,608.501335 54.2834239,609.569683 C60.0751852,619.823415 67.1304608,625.554741 74.7154706,626.008588 C81.335187,626.394157 88.4571698,622.783462 95.8577537,615.220682 C96.6072296,614.445527 97.6706221,614.429462 98.2866834,615.092159 C98.9027447,615.762889 98.8242656,616.903531 98.1022574,617.642539 C95.7988943,619.984069 93.519075,621.980193 91.2549515,623.630911" id="Fill-41" fill="#FFFFFF"></path>
                        <path d="M175.102468,711.971249 C172.901128,713.332791 170.523209,714.292698 167.976561,714.734496 C166.854309,714.92728 165.790917,714.204338 165.598643,713.107875 C165.402445,712.015429 166.108757,710.983228 167.258477,710.774378 C180.592084,708.400718 189.401369,686.519663 190.523621,674.972668 C190.986648,670.177151 189.381749,664.236975 187.678752,657.991556 C184.688696,646.958653 181.624085,635.664688 189.224791,627.475358 C190.021354,626.539549 191.382968,626.443157 192.226618,627.129952 C193.085965,627.820763 193.125205,629.085913 192.309022,629.949427 C186.262203,636.439842 189.079605,646.721689 191.818527,656.746489 C193.627471,663.365428 195.346165,669.655026 194.808583,675.185534 C193.811897,685.59992 187.098006,704.561091 175.102468,711.971249" id="Fill-43" fill="#FFFFFF"></path>
                        <path d="M159.213187,720.862637 C157.05501,722.20008 154.610385,723.168019 151.89893,723.774488 C137.062447,727.071908 118.207831,718.388567 109.339687,711.954381 C104.693721,708.576634 100.604957,702.210725 96.3278438,695.559656 C89.664964,685.185433 82.915757,674.674655 74.4086172,676.000049 C73.5061069,676.140622 72.7134675,675.461859 72.6389123,674.485887 C72.5643571,673.521964 73.2549737,672.622302 74.149636,672.465665 C84.6305265,670.794865 92.3175592,682.68325 99.2472682,693.406894 C103.367424,699.780835 107.307077,705.873633 111.43508,708.841712 C119.483117,714.633284 137.529398,722.955153 151.01604,719.898714 C156.376166,718.681761 160.433538,715.741795 163.007654,711.171193 C163.553084,710.219319 164.793054,709.849815 165.785816,710.375957 C166.774653,710.918163 167.135657,712.135116 166.582379,713.107072 C164.710651,716.39646 162.242482,718.987003 159.213187,720.862637" id="Fill-45" fill="#FFFFFF"></path>
                        <polygon id="Fill-47" fill="#1B0C41" points="470.445408 704.377544 363.972745 704.377544 372.727094 573.006875 461.698907 573.006875"></polygon>
                        <path d="M382.160288,671.729067 C408.788264,662.680239 440.270175,656.185807 466.356644,642.976044 L461.698907,573.007277 L372.727094,573.007277 L365.785613,677.175232 C371.279154,675.36386 376.753075,673.564537 382.160288,671.729067" id="Fill-49" fill="#060D24"></path>
                        <path d="M484.401748,683.34675 C483.110766,681.374724 480.940817,680.189902 478.617834,680.189902 L419.656449,680.189902 L414.767198,680.189902 L355.801888,680.189902 C353.478905,680.189902 351.312881,681.374724 350.017975,683.34675 L333.929749,707.910723 C330.833747,712.645996 334.145567,718.999855 339.713662,718.999855 L414.767198,718.999855 L419.656449,718.999855 L494.70606,718.999855 C500.274156,718.999855 503.585976,712.645996 500.489973,707.910723 L484.401748,683.34675 Z" id="Fill-51" fill="#1B0C41"></path>
                        <path d="M677.905434,607.930612 L156.513504,607.930612 C139.962251,607.930612 126.550165,594.198724 126.550165,577.257776 L126.550165,239.744121 C126.550165,222.803173 139.962251,209.071285 156.513504,209.071285 L677.905434,209.071285 C694.456686,209.071285 707.872697,222.803173 707.872697,239.744121 L707.872697,577.257776 C707.872697,594.198724 694.456686,607.930612 677.905434,607.930612" id="Fill-53" fill="#1B0C41"></path>
                    </g>
                    <g id="Group-58" opacity="0.898088728" transform="translate(237.000000, 254.000000)">
                        <mask id="mask-2" fill="white">
                            <use xlink:href="#path-1"></use>
                        </mask>
                        <g id="Clip-57"></g>
                        <polygon id="Fill-56" fill="url(#linearGradient-3)" mask="url(#mask-2)" points="0.275742646 341.758829 527.596196 341.758829 527.596196 0.252886158 0.275742646 0.252886158"></polygon>
                    </g>
                    <g id="Group-67" opacity="0.898088728" transform="translate(362.000000, 291.000000)">
                        <polygon id="Fill-59" fill="#1B0C41" points="0.207085237 187.286514 255.892846 187.286514 255.892846 0.417700617 0.207085237 0.417700617"></polygon>
                        <polygon id="Fill-61" fill="#01D9CF" points="11.5352094 170.397754 244.564722 170.397754 244.564722 40.3804039 11.5352094 40.3804039"></polygon>
                        <path d="M231.338212,132.868558 C219.935302,135.804512 207.654639,141.656337 195.657376,141.274783 C182.585555,140.853066 171.28892,138.16211 159.008257,133.390684 C140.894279,126.350019 130.621033,123.875946 112.235463,134.061415 C91.8306699,145.371462 73.456909,153.673262 50.4778996,145.961866 C36.6070485,141.31093 27.5933569,132.069304 11.8764702,131.643571 C11.762323,131.639554 11.6521119,131.643571 11.5340286,131.639554 L11.5340286,170.397352 L244.563541,170.397352 L244.563541,133.495109 C240.324351,132.145615 235.939524,131.687751 231.338212,132.868558" id="Fill-62" fill="#01D9CF"></path>
                        <path d="M22.5283707,88.6730214 C24.4688728,92.8299458 22.4378402,98.3403809 23.6108009,102.73427 C26.6573499,114.132677 40.0479957,102.931071 46.829913,104.152042 C55.0485104,105.646125 56.8591209,117.205187 62.2201026,122.249725 C69.6632863,129.250227 76.3428648,118.7314 82.1289463,114.855621 C86.5728143,111.875487 90.6545603,112.847445 95.5668254,111.574261 C101.274185,110.10026 106.06443,105.469406 110.024157,101.220105 C116.380974,94.4123885 120.411551,88.8899044 130.440759,89.0867057 C135.250685,89.1790818 140.064547,90.4121019 144.831176,90.9061132 C149.523019,91.3961081 155.580693,90.4884125 159.646694,93.4524804 C164.137795,96.7298237 163.405679,101.706084 164.342473,106.614066 C166.845839,119.699341 178.177899,114.574476 186.510644,111.750981 C197.84664,107.915364 202.062214,123.040946 212.370886,121.996695 C218.861531,121.338013 218.774936,116.072575 220.971286,111.401558 C222.722855,107.674383 227.257253,104.007454 231.268149,107.07193 C234.287145,109.3733 233.803004,113.140638 238.526336,113.261129 C239.081327,113.277194 239.608766,113.220965 240.112588,113.112524 C242.068835,112.686791 243.61179,111.365411 244.564328,109.67051 L244.564328,96.9547394 L244.564328,96.938674 C244.406884,91.5487295 244.564328,86.1226378 244.564328,80.7246606 L244.564328,40.3804039 L11.5348158,40.3804039 L11.5348158,85.5764139 C11.5348158,84.3192957 21.0956267,85.6005121 22.5283707,88.6730214" id="Fill-63" fill="#DBDBDB"></path>
                        <path d="M170.38637,149.581402 C170.154139,149.942874 170.004567,150.240084 170.004567,150.408771 C170.004567,150.705981 170.142331,150.37664 170.38637,149.581402" id="Fill-64" fill="#DBDBDB"></path>
                        <path d="M69.6081808,67.9518577 C85.9587812,82.6075265 98.5228439,133.450528 121.635681,123.927757 C134.707502,118.545845 180.366376,67.9076778 194.544244,66.505971 C206.332893,65.3412289 213.386402,70.1528187 223.565182,77.571021 C232.559193,84.1176749 244.564328,96.1948456 244.564328,96.1948456 L244.564328,30.0294613 L11.5348158,30.0294613 L11.5348158,79.1213329 C35.4191305,60.6179988 45.7002495,46.5125703 69.6081808,67.9518577" id="Fill-65" fill="#FFFFFF"></path>
                        <path d="M140.308193,79.0952266 C140.308193,87.3729282 133.730953,94.0802362 125.622567,94.0802362 C117.510244,94.0802362 110.933005,87.3729282 110.933005,79.0952266 C110.933005,70.8135086 117.510244,64.1102169 125.622567,64.1102169 C133.730953,64.1102169 140.308193,70.8135086 140.308193,79.0952266" id="Fill-66" fill="#FFFFFF"></path>
                    </g>
                    <g id="Group-70" opacity="0.898088728" transform="translate(427.000000, 333.000000)">
                        <mask id="mask-5" fill="white">
                            <use xlink:href="#path-4"></use>
                        </mask>
                        <g id="Clip-69"></g>
                        <path d="M19.9099535,7.87306913 C17.972093,5.9552048 14.5730233,2.51376761 11.4044651,3.61242442 L11.4044651,3.61242442 C9.06418605,4.42014772 8.23981395,7.08065812 9.5252093,8.8377434 L9.5252093,8.8377434 C7.44669767,7.3065144 3.80539535,6.06239083 1.85190698,7.70846201 L1.85190698,7.70846201 C-0.937674419,10.0627266 0.761860465,13.148153 3.63348837,13.4390866 L3.63348837,13.4390866 C12.9906977,13.4390866 22.4846512,13.9290798 31.8262326,13.4390866 L31.8262326,13.4390866 C35.3151628,13.2553391 43.1564651,11.9384821 41.4764651,6.53707182 L41.4764651,6.53707182 C39.9449302,1.6103425 32.5646512,4.37803893 31.1659535,7.96111479 L31.1659535,7.96111479 C30.9276279,2.73962389 27.2550698,0.408327734 24.0122791,0.408327734 L24.0122791,0.408327734 C20.5077209,0.408327734 17.5110698,3.13391536 19.9099535,7.87306913" id="Fill-68" fill="url(#linearGradient-6)" mask="url(#mask-5)"></path>
                    </g>
                    <g id="Group-73" opacity="0.898088728" transform="translate(549.000000, 334.000000)">
                        <mask id="mask-8" fill="white">
                            <use xlink:href="#path-7"></use>
                        </mask>
                        <g id="Clip-72"></g>
                        <path d="M16.555,6.76681693 C14.9411111,5.08246503 12.11,2.07068341 9.47333333,3.02514949 L9.47333333,3.02514949 C7.52111111,3.73899387 6.83277778,6.069014 7.90611111,7.61300325 L7.90611111,7.61300325 C6.17166667,6.26953209 3.14222222,5.18272407 1.51277778,6.62645428 L1.51277778,6.62645428 C-0.808888889,8.68778018 0.606666667,11.3947743 3.00222222,11.6514375 L3.00222222,11.6514375 C10.7877778,11.6514375 18.7094444,12.0765358 26.4872222,11.6514375 L26.4872222,11.6514375 C29.3922222,11.491023 35.9255556,10.3320285 34.5294444,5.59178096 L34.5294444,5.59178096 C33.25,1.27262144 27.1016667,3.70290061 25.9388889,6.84301381 L25.9388889,6.84301381 C25.7405556,2.26318077 22.68,0.221906679 19.9772222,0.221906679 L19.9772222,0.221906679 C17.0566667,0.221906679 14.5561111,2.61208224 16.555,6.76681693" id="Fill-71" fill="url(#linearGradient-9)" mask="url(#mask-8)"></path>
                    </g>
                    <g id="Group-76" opacity="0.898088728" transform="translate(520.000000, 346.000000)">
                        <mask id="mask-11" fill="white">
                            <use xlink:href="#path-10"></use>
                        </mask>
                        <g id="Clip-75"></g>
                        <path d="M13.2627436,5.73105748 C11.9679535,4.4790727 9.70502249,2.24580254 7.59951274,2.96014821 L7.59951274,2.96014821 C6.03710645,3.48650818 5.48613193,5.21221694 6.34407796,6.35517002 L6.34407796,6.35517002 C4.95483508,5.3626055 2.53054723,4.55802669 1.23182159,5.62202577 L1.23182159,5.62202577 C-0.625749625,7.1522294 0.507683658,9.15239729 2.42035232,9.35166213 L2.42035232,9.35166213 C8.65029985,9.35166213 14.9786357,9.65995869 21.2046477,9.35166213 L21.2046477,9.35166213 C23.5266117,9.22759157 28.7529985,8.37037676 27.6353073,4.86256353 L27.6353073,4.86256353 C26.612069,1.65928714 21.6965892,3.46019018 20.7638681,5.78745319 L20.7638681,5.78745319 C20.6064468,2.39243139 18.1585457,0.881026331 15.9979385,0.881026331 L15.9979385,0.881026331 C13.6641679,0.881026331 11.6649175,2.64809194 13.2627436,5.73105748" id="Fill-74" fill="url(#linearGradient-12)" mask="url(#mask-11)"></path>
                    </g>
                    <g id="Group-262" opacity="0.898088728" transform="translate(0.000000, 19.000000)">
                        <path d="M380.391023,282.708583 C377.446587,282.708583 375.062808,285.150522 375.062808,288.162782 C375.062808,291.179058 377.446587,293.625012 380.391023,293.625012 C383.331539,293.625012 385.715317,291.179058 385.715317,288.162782 C385.715317,285.150522 383.331539,282.708583 380.391023,282.708583" id="Fill-77" fill="#FFFFFF"></path>
                        <path d="M398.286611,282.708583 C395.346095,282.708583 392.962317,285.150522 392.962317,288.162782 C392.962317,291.179058 395.346095,293.625012 398.286611,293.625012 C401.227127,293.625012 403.610905,291.179058 403.610905,288.162782 C403.610905,285.150522 401.227127,282.708583 398.286611,282.708583" id="Fill-79" fill="#FFFFFF"></path>
                        <path d="M416.182591,282.708583 C413.242075,282.708583 410.858297,285.150522 410.858297,288.162782 C410.858297,291.179058 413.242075,293.625012 416.182591,293.625012 C419.123107,293.625012 421.506885,291.179058 421.506885,288.162782 C421.506885,285.150522 419.123107,282.708583 416.182591,282.708583" id="Fill-81" fill="#FFFFFF"></path>
                        <path d="M600.240462,282.708583 C597.299946,282.708583 594.916168,285.150522 594.916168,288.162782 C594.916168,291.179058 597.299946,293.625012 600.240462,293.625012 C603.180978,293.625012 605.564756,291.179058 605.564756,288.162782 C605.564756,285.150522 603.180978,282.708583 600.240462,282.708583" id="Fill-83" fill="#FFFFFF"></path>
                        <path d="M408.486673,265.83511 C407.451611,265.389295 403.750482,266.823131 401.566659,268.277048 C400.31988,269.104415 397.595002,269.979979 395.47391,270.582431 C395.716992,271.795367 395.865979,273.028386 395.920868,274.26542 C395.916947,274.209191 399.316184,273.654936 399.672967,273.542478 C400.821728,273.168958 401.711724,272.253231 403.032996,272.610686 C403.617179,272.767323 404.299378,273.229203 404.82475,273.51838 C405.518712,273.903949 407.212449,275.630978 408.051477,275.297621 C409.313938,274.795578 407.259498,273.313546 407.028177,272.899863 C406.687077,272.281345 406.820381,271.152752 407.745663,271.405782 C409.019887,271.751188 411.191948,273.301497 412.560268,272.654865 C414.28537,271.835531 408.921869,270.265139 408.01227,269.67072 C409.462924,270.433826 414.238322,271.92389 414.62647,271.068409 C415.375322,269.421707 410.313714,268.558192 408.914028,267.847299 C410.388207,268.578274 412.148595,268.979909 412.905288,268.71483 C414.700963,268.084263 409.517814,266.276908 408.486673,265.83511" id="Fill-85" fill="#F88667"></path>
                        <path d="M344.442236,309.469498 C348.041427,312.493807 353.338277,312.104221 356.796323,308.915242 C362.481321,303.689976 373.071099,294.002549 376.517384,291.291515 C381.300623,287.51615 402.789913,273.728033 402.789913,273.728033 L399.559267,267.514746 C399.559267,267.514746 372.784889,279.644111 368.997504,282.696534 C365.21404,285.748957 343.234664,299.276012 342.344668,304.734226 C342.031013,306.650023 342.979819,308.23648 344.442236,309.469498" id="Fill-87" fill="#FD425F"></path>
                        <path d="M344.442236,309.469498 C348.041427,312.493807 353.338277,312.104221 356.796323,308.915242 C362.481321,303.689976 373.071099,294.002549 376.517384,291.291515 C381.300623,287.51615 402.789913,273.728033 402.789913,273.728033 L399.559267,267.514746 C399.559267,267.514746 372.784889,279.644111 368.997504,282.696534 C365.21404,285.748957 343.234664,299.276012 342.344668,304.734226 C342.031013,306.650023 342.979819,308.23648 344.442236,309.469498" id="Fill-89" fill="#CA0045"></path>
                        <polygon id="Fill-91" fill="#110239" points="328.10865 377.684729 329.625956 373.025767 397.571478 373.025767 396.120823 377.684729"></polygon>
                        <polygon id="Fill-93" fill="#110239" points="320.030072 402.496511 321.563061 397.789353 389.869286 397.789353 388.40687 402.496511"></polygon>
                        <polygon id="Fill-95" fill="#110239" points="338.327923 352.868931 339.845229 348.213985 407.790751 348.213985 406.344017 352.868931"></polygon>
                        <polygon id="Fill-97" fill="#110239" points="311.866808 427.57538 313.4194 422.81601 382.090249 422.81601 380.61215 427.57538"></polygon>
                        <polygon id="Fill-99" fill="#110239" points="303.61572 452.924549 305.180075 448.116983 374.22731 448.116983 372.733528 452.924549"></polygon>
                        <polygon id="Fill-101" fill="#110239" points="295.276809 478.548437 296.856846 473.688658 366.276547 473.688658 364.767082 478.548437"></polygon>
                        <polygon id="Fill-103" fill="#110239" points="286.845762 504.450657 288.445403 499.534649 358.241489 499.534649 356.712421 504.450657"></polygon>
                        <polygon id="Fill-105" fill="#110239" points="279.528974 530.301869 281.128615 525.385861 350.924701 525.385861 349.395633 530.301869"></polygon>
                        <polygon id="Fill-107" fill="#110239" points="272.210226 556.153483 273.809867 551.237475 343.605953 551.237475 342.080805 556.153483"></polygon>
                        <polygon id="Fill-109" fill="#110239" points="264.893438 582.004696 266.493079 577.088688 336.285245 577.088688 334.760097 582.004696"></polygon>
                        <path d="M252.524452,621.419109 L252.202955,621.419109 C250.058339,621.419109 248.541033,619.266348 249.223233,617.177848 L339.555882,341.69666 C339.987158,340.379299 341.186889,339.495703 342.539526,339.495703 L346.934617,339.495703 L255.508095,619.214135 C255.08074,620.531497 253.877089,621.419109 252.524452,621.419109" id="Fill-111" fill="#110239"></path>
                        <path d="M321.637946,621.419109 L321.289005,621.419109 C319.160072,621.419109 317.646686,619.298478 318.2936,617.218011 L405.830799,341.732807 C406.246392,340.39938 407.457884,339.495703 408.822284,339.495703 L408.888936,339.495703 C411.017869,339.495703 412.531255,341.612317 411.888262,343.688768 L324.633352,619.173972 C324.217759,620.511415 323.010187,621.419109 321.637946,621.419109" id="Fill-113" fill="#110239"></path>
                        <polygon id="Fill-115" fill="#110239" points="286.152584 504.32133 287.709097 499.529829 357.622804 499.529829 356.136864 504.32133"></polygon>
                        <polygon id="Fill-117" fill="#110239" points="277.842294 529.850833 279.418411 525.00712 349.704583 525.00712 348.199039 529.850833"></polygon>
                        <polygon id="Fill-119" fill="#110239" points="296.666693 478.791425 298.227127 473.999924 368.140834 473.999924 366.654893 478.791425"></polygon>
                        <polygon id="Fill-121" fill="#110239" points="269.443789 555.655055 271.035588 550.759129 341.702067 550.759129 340.176919 555.655055"></polygon>
                        <polygon id="Fill-123" fill="#110239" points="260.953539 581.742027 262.564942 576.793888 333.607807 576.793888 332.066976 581.742027"></polygon>
                        <polygon id="Fill-125" fill="#110239" points="252.371153 608.10693 254.002159 603.102562 325.429252 603.102562 323.872739 608.10693"></polygon>
                        <polygon id="Fill-127" fill="#110239" points="243.697023 634.7586 245.343712 629.70202 317.158953 629.70202 315.586757 634.7586"></polygon>
                        <polygon id="Fill-129" fill="#110239" points="236.167734 661.358861 237.814423 656.298265 309.629664 656.298265 308.057468 661.358861"></polygon>
                        <polygon id="Fill-131" fill="#110239" points="228.638445 687.955507 230.285134 682.898927 302.100374 682.898927 300.528179 687.955507"></polygon>
                        <path d="M219.85532,720.101941 L219.525982,720.101941 C217.318635,720.101941 215.758201,717.880901 216.456083,715.736172 L297.93582,467.293028 C298.374937,465.939519 299.609953,465.023792 301.005718,465.023792 L305.526272,465.023792 L222.925218,717.832705 C222.486101,719.186214 221.247164,720.101941 219.85532,720.101941" id="Fill-133" fill="#110239"></path>
                        <path d="M290.969541,720.101941 L290.612759,720.101941 C288.421094,720.101941 286.864581,717.917048 287.531098,715.780352 L366.125208,467.329175 C366.552563,465.959601 367.799342,465.023792 369.206869,465.023792 L369.277441,465.023792 C371.461264,465.023792 373.021698,467.204668 372.359102,469.341364 L294.051202,717.792542 C293.627768,719.170148 292.377068,720.101941 290.969541,720.101941" id="Fill-135" fill="#110239"></path>
                        <path d="M348.317052,282.539897 C348.454276,282.692518 348.579738,282.853172 348.724803,283.001777 C350.057837,284.375367 351.461443,285.777072 353.03756,286.849436 C353.998128,287.500084 355.491911,287.929833 356.315255,288.616629 C356.648513,288.88974 356.993534,289.138754 357.350317,289.359653 C356.871993,292.118883 355.680104,299.364371 355.868297,302.195895 C355.868297,302.195895 347.262387,301.569345 344.129757,298.010862 C344.129757,298.010862 347.693662,288.190896 348.317052,282.539897" id="Fill-137" fill="#F88667"></path>
                        <path d="M352.930917,297.275469 C352.334973,294.765253 350.958811,292.311266 349.01415,290.632433 C348.343712,290.050063 347.665433,289.531954 346.951868,289.062041 C347.575257,286.772724 348.112392,284.423162 348.316267,282.539495 C348.453492,282.692116 348.582874,282.85277 348.72794,283.001375 C350.060974,284.374965 351.460659,285.77667 353.036776,286.849035 C353.997344,287.499683 355.491126,287.929432 356.314471,288.616227 C356.647729,288.889339 356.99275,289.138352 357.349532,289.359251 C356.871209,292.118481 355.679319,299.367986 355.867512,302.195494 C355.867512,302.195494 354.389413,302.083036 352.444752,301.709516 C353.072062,300.36404 353.299462,298.81373 352.930917,297.275469" id="Fill-139" fill="#E45940"></path>
                        <path d="M353.079903,439.812785 C353.079903,439.812785 353.319065,448.600551 354.65602,449.801438 C356.000816,451.002326 373.06757,451.524451 374.533908,449.925945 C376.004166,448.319407 375.141614,445.620422 371.475771,444.580188 C367.547242,443.459628 365.626105,444.55609 363.163913,443.507824 C360.701721,442.455541 361.352555,438.483375 361.352555,438.483375 L353.079903,439.812785 Z" id="Fill-141" fill="#110239"></path>
                        <path d="M310.76039,439.514371 C310.76039,439.514371 309.446959,448.073205 310.740786,449.326305 C312.038534,450.579405 329.418944,451.98111 330.944091,450.434816 C332.47316,448.888523 331.716467,446.157408 328.093751,444.972585 C324.21227,443.70342 322.33034,444.506689 319.828941,443.574897 C317.860756,442.839906 319.182028,438.763314 319.182028,438.763314 L310.76039,439.514371 Z" id="Fill-143" fill="#110239"></path>
                        <path d="M323.37638,390.251475 C322.996073,365.936515 325.709189,349.220482 326.936364,341.392623 C329.778863,341.497048 332.621362,341.75811 335.456019,343.079488 C340.666613,345.509378 345.904652,347.834842 351.138771,350.172356 C346.888745,359.18102 337.588873,388.576658 336.467556,394.729701 C335.071792,402.38084 319.459612,441.415709 319.459612,441.415709 L310.010754,440.202773 C310.163661,433.909158 323.411666,392.360056 323.37638,390.251475" id="Fill-145" fill="#0400A3"></path>
                        <path d="M342.757516,346.554029 C345.501998,347.923603 348.344496,349.004001 351.186995,350.064316 C347.019304,358.896261 339.413169,383.339744 337.695908,389.834176 C336.370716,385.741519 329.960391,375.833193 327.502119,364.989059 C325.85543,357.735537 325.573141,350.228986 326.70622,342.879073 C326.71014,342.846942 326.714061,342.818827 326.721903,342.790713 C332.022673,343.160217 337.150932,343.754636 342.757516,346.554029" id="Fill-147" fill="#04006C"></path>
                        <path d="M335.697533,345.224619 C339.379059,346.493784 346.075594,348.321222 351.137202,350.172757 C354.661901,359.29388 365.071327,380.821495 365.612382,390.557119 C366.208327,401.296828 362.57777,441.990448 362.57777,441.990448 L351.768433,441.990448 C351.768433,441.990448 350.764737,396.123774 349.251352,393.175776 C344.260316,383.460235 338.739987,375.756883 335.607358,369.712282 C330.345794,359.566991 328.557961,353.052478 327.632678,348.305156 C327.224927,346.204607 325.433172,339.180018 328.910823,336.97906 C331.780766,337.81446 332.615873,344.156271 335.697533,345.224619" id="Fill-149" fill="#0400A3"></path>
                        <path d="M355.07867,352.382551 C355.07867,352.382551 345.998357,356.141851 337.051347,355.262271 C330.433226,354.607607 327.006544,354.499166 323.132905,352.362469 C323.132905,352.362469 327.269231,319.299907 332.048549,308.873472 C336.827868,298.451054 344.669244,296.45493 344.669244,296.45493 C344.669244,296.45493 350.852168,300.133903 355.902014,300.053576 C355.902014,300.053576 355.780473,320.364239 355.392325,328.477258 C355.008098,336.590278 355.07867,352.382551 355.07867,352.382551" id="Fill-151" fill="#FD425F"></path>
                        <path d="M355.507593,325.511588 C355.535038,324.615943 355.562483,323.676118 355.589928,322.672032 C355.589928,322.555557 355.589928,322.427034 355.593848,322.306544 C355.617373,321.35467 355.640897,320.362632 355.6605,319.350513 C355.664421,319.181827 355.668341,319.017156 355.672262,318.84847 C355.691866,317.719877 355.71539,316.571202 355.734993,315.430559 L355.734993,315.378347 C355.3194,315.378347 354.911649,315.37433 354.511739,315.289987 C351.351664,314.663437 348.607183,312.856081 345.874463,311.201347 C345.415743,310.924219 344.929577,310.695287 344.447333,310.454306 C343.898436,314.795977 345.803891,320.097554 346.627235,323.551611 C348.905155,333.102483 350.140171,345.187668 348.183748,354.417232 C352.218136,353.537652 355.080238,352.380945 355.080238,352.380945 C355.080238,352.380945 355.009666,336.592688 355.393893,328.475652 C355.425259,327.760742 355.456624,326.925342 355.48799,326.033713 C355.495831,325.86101 355.499752,325.688308 355.507593,325.511588" id="Fill-153" fill="#CA0045"></path>
                        <path d="M394.794847,352.562885 C395.296695,352.518705 395.884798,352.398215 396.061229,352.462476 C396.884573,352.739604 398.264655,352.329937 398.840997,352.109038 C400.154427,351.602978 402.161819,350.707333 403.510536,350.95233 C404.294673,351.096919 408.999499,352.217479 407.842896,354.193522 C407.689989,354.462617 407.113648,354.872284 406.948979,354.812039 C406.466735,354.627287 405.114097,354.121227 405.114097,354.121227 C405.114097,354.121227 406.149159,354.506797 406.360876,354.663434 C406.545148,354.79999 406.89409,354.960644 407.01171,355.153428 C407.274396,355.559079 406.878407,356.442675 406.470655,356.587264 C406.066824,356.727836 405.753169,356.314152 405.412069,356.121368 C405.419911,356.125384 405.431673,356.133417 405.435594,356.137433 C405.764931,356.402512 406.470655,356.587264 406.031538,357.6034 C405.541452,358.736009 405.204273,358.0211 404.73379,357.900609 C404.569122,357.856429 404.396611,357.776102 404.224101,357.695775 C404.400532,357.8002 405.063128,358.121508 405.196432,358.241999 C405.639469,358.64765 404.667139,359.985093 403.792825,359.868619 C403.255691,359.800341 401.989309,359.009121 401.687416,359.09748 C401.354157,359.189856 400.946406,359.189856 400.601385,359.221987 C399.531038,359.326412 398.409721,359.029202 397.425628,358.575355 C396.986511,358.366505 396.108277,358.013067 395.673081,357.776102 C394.579209,357.177667 393.379478,356.225793 393.057982,355.952681 C393.779388,354.534911 394.943833,354.17344 394.794847,352.562885" id="Fill-155" fill="#F88667"></path>
                        <path d="M393.15992,358.615117 L396.959066,350.911765 C396.959066,350.911765 378.124082,338.5615 371.239354,331.444535 C364.354626,324.331586 356.91316,309.852658 351.663359,308.944963 C346.413558,308.033253 341.12847,310.997316 344.170924,318.483786 C347.209457,325.966239 362.609919,335.89063 365.74647,339.184034 C368.88302,342.477438 390.08218,356.843908 393.15992,358.615117" id="Fill-157" fill="#FD425F"></path>
                        <path d="M345.732534,267.513942 C345.732534,267.513942 359.631373,265.883306 360.591941,268.273032 C361.556431,270.67079 361.764227,277.410219 362.662065,278.832006 C363.567743,280.257809 365.194829,281.96074 364.587122,282.876467 C363.975495,283.79621 363.305057,283.571295 362.924751,284.603496 C362.536603,285.635696 362.685589,291.459399 360.846786,292.330946 C359.015825,293.198476 349.653222,292.6884 346.261827,287.222153 C342.874353,281.759922 339.020316,268.015986 345.732534,267.513942" id="Fill-159" fill="#F88667"></path>
                        <path d="M342.248611,268.851386 L351.466148,273.22117 C351.466148,273.22117 351.172097,278.715532 353.826402,283.535147 C353.826402,283.535147 352.995216,284.832427 352.128744,284.101452 C351.258352,283.362445 350.697693,282.968843 350.497738,281.595252 C350.293862,280.225678 349.490121,276.546705 347.071057,278.358077 C344.655913,280.173466 347.212202,282.330244 348.439377,282.864418 C348.439377,282.864418 350.39188,290.029579 346.678988,289.519503 C346.678988,289.519503 343.252307,287.298464 340.300029,278.687418 C337.347751,270.080388 339.951088,267.236814 342.248611,268.851386" id="Fill-161" fill="#161415"></path>
                        <path d="M364.616135,265.717431 C364.616135,265.717431 367.913434,270.573193 360.25633,273.822417 C352.599227,277.067625 341.582094,268.512808 341.582094,268.512808 C341.582094,268.512808 341.860463,264.255481 347.972815,262.436076 C352.536496,261.070518 356.817887,261.263303 359.142855,263.97032 C363.10275,268.573053 364.616135,265.717431 364.616135,265.717431" id="Fill-163" fill="#161415"></path>
                        <polygon id="Fill-165" fill="#1B0C41" points="685.190007 577.176244 693.541073 503.78555 453.006868 475.41408 441.468284 577.176244"></polygon>
                        <polygon id="Fill-167" fill="#FFFFFF" points="674.392825 577.176244 678.64285 540.270039 459.421506 514.412802 452.266251 577.176244"></polygon>
                        <path d="M469.107958,487.330178 C466.32819,487.004853 463.815029,489.045157 463.497453,491.892747 C463.175957,494.73632 465.171587,497.306782 467.947434,497.636122 C470.727202,497.965462 473.240363,495.925158 473.557938,493.077569 C473.879435,490.233996 471.883805,487.659518 469.107958,487.330178" id="Fill-169" fill="#FFFFFF"></path>
                        <path d="M486.008083,489.326703 C483.232236,488.997363 480.719075,491.041683 480.397578,493.885256 C480.080003,496.732846 482.071712,499.303307 484.85148,499.628631 C487.627327,499.957972 490.140488,497.917668 490.461984,495.074095 C490.77956,492.226505 488.787851,489.652027 486.008083,489.326703" id="Fill-171" fill="#FFFFFF"></path>
                        <path d="M502.912521,491.319213 C500.132753,490.989872 497.619592,493.034192 497.302016,495.877766 C496.98052,498.725355 498.97615,501.295817 501.751997,501.625157 C504.531765,501.950481 507.044926,499.914194 507.366422,497.066604 C507.683998,494.219015 505.688368,491.644537 502.912521,491.319213" id="Fill-173" fill="#FFFFFF"></path>
                        <path d="M643.647574,575.289766 C642.153792,575.161243 640.722741,575.020671 639.511248,574.165189 C638.942749,573.759538 638.413456,573.349871 637.739098,573.205283 C637.049056,573.060694 636.300205,572.634961 635.614085,572.305621 C634.971092,571.996362 634.230082,571.534483 633.438103,571.638908 C632.489296,571.759398 633.222465,572.755452 633.802727,573.349871 C634.433958,573.992486 637.190201,574.438301 637.280377,575.402224 C637.366632,576.366147 634.053651,575.603041 633.394975,575.438371 C631.838462,575.056818 631.4856,573.884045 630.39957,572.904057 C629.768339,572.333735 629.309618,572.269474 629.211601,573.265528 C629.141029,574.008552 629.756577,574.611004 630.219218,575.100998 C631.156262,576.105085 632.430486,577.040893 633.759599,577.450561 C632.685331,577.25376 631.101373,576.297869 630.238822,575.61509 C629.642877,575.141162 627.447292,572.671109 626.63963,573.562737 C625.016465,575.362061 631.379742,579.157508 632.720617,579.257916 C631.387583,579.016936 630.234901,578.314075 629.058694,577.639329 C628.372574,577.241711 626.784695,576.237624 626.86703,577.687525 C626.988571,579.820205 631.242518,580.422657 633.097003,581.041174 C631.763969,581.057239 630.760273,580.635523 629.37627,580.278068 C627.745264,579.856352 628.015791,581.229942 629.607591,581.956901 C630.281949,582.262143 631.713,582.647713 632.030576,582.724023 C635.343557,583.515243 637.194122,583.121641 640.295386,582.049277 C641.408861,581.663708 643.843609,582.157718 644.353298,581.25404 C645.337391,579.514963 644.059246,576.944501 643.647574,575.289766" id="Fill-203" fill="#F88667"></path>
                        <path d="M640.856436,582.69872 L640.840754,574.119805 C640.840754,574.119805 665.66655,571.087463 676.173993,568.263972 C686.681437,565.444497 701.787847,555.905675 707.312097,558.070485 C712.832425,560.239312 716.255186,566.135308 709.221472,571.537294 C702.183837,576.931247 681.980532,577.513617 677.165927,578.847044 C672.343481,580.184487 644.781045,582.783063 640.856436,582.69872" id="Fill-205" fill="#B3B2DA"></path>
                        <path d="M622.48174,147.982258 C622.48174,147.982258 628.339248,169.626347 631.220954,173.168765 C634.102659,176.707166 643.51231,181.920383 643.51231,181.920383 L641.018753,186.446805 C641.018753,186.446805 623.912792,177.518468 620.944831,170.21675 C619.215807,165.96344 618.067046,162.288483 617.490705,158.999095 C617.016301,156.320192 615.083402,149.657074 616.047892,146.998253 C616.679122,145.267208 621.136945,144.343448 622.48174,147.982258" id="Fill-207" fill="#01D9CF"></path>
                        <path d="M622.48174,147.982258 C622.48174,147.982258 628.339248,169.626347 631.220954,173.168765 C634.102659,176.707166 643.51231,181.920383 643.51231,181.920383 L641.018753,186.446805 C641.018753,186.446805 623.912792,177.518468 620.944831,170.21675 C619.215807,165.96344 618.067046,162.288483 617.490705,158.999095 C617.016301,156.320192 615.083402,149.657074 616.047892,146.998253 C616.679122,145.267208 621.136945,144.343448 622.48174,147.982258" id="Fill-209" fill="#00A1CC"></path>
                        <path d="M641.112849,181.429184 C642.347866,181.091811 643.371166,180.670095 644.504245,180.035512 C645.413844,179.52142 646.292078,179.035442 647.38595,179.196095 C648.162246,179.31257 654.435347,181.987456 652.765134,183.184327 C652.224079,183.569897 650.867521,182.891134 650.330387,182.694333 C649.558011,182.413189 648.785636,182.023603 648.048546,181.68623 C648.718984,181.654099 652.1143,183.128098 651.757517,183.9394 C651.134128,185.365203 647.695684,183.457439 646.899785,182.999575 C647.507491,183.099984 649.632504,183.915302 649.628584,184.706522 C649.624663,185.955606 647.09974,184.911356 646.554764,184.626196 C646.147013,184.417346 645.84512,184.112103 645.402082,184.051858 C644.87671,183.979564 644.3631,184.224561 643.865172,184.333002 C642.9987,184.521771 642.069497,184.469558 641.191263,184.385215 C640.665891,184.333002 639.450478,184.449476 639.191712,183.987597 C638.913344,183.501619 639.12114,182.393107 639.528892,182.035652 C639.960167,181.658116 640.552191,181.581805 641.112849,181.429184" id="Fill-217" fill="#F88667"></path>
                        <path d="M641.112849,181.429184 C642.347866,181.091811 643.371166,180.670095 644.504245,180.035512 C645.413844,179.52142 646.292078,179.035442 647.38595,179.196095 C648.162246,179.31257 654.435347,181.987456 652.765134,183.184327 C652.224079,183.569897 650.867521,182.891134 650.330387,182.694333 C649.558011,182.413189 648.785636,182.023603 648.048546,181.68623 C648.718984,181.654099 652.1143,183.128098 651.757517,183.9394 C651.134128,185.365203 647.695684,183.457439 646.899785,182.999575 C647.507491,183.099984 649.632504,183.915302 649.628584,184.706522 C649.624663,185.955606 647.09974,184.911356 646.554764,184.626196 C646.147013,184.417346 645.84512,184.112103 645.402082,184.051858 C644.87671,183.979564 644.3631,184.224561 643.865172,184.333002 C642.9987,184.521771 642.069497,184.469558 641.191263,184.385215 C640.665891,184.333002 639.450478,184.449476 639.191712,183.987597 C638.913344,183.501619 639.12114,182.393107 639.528892,182.035652 C639.960167,181.658116 640.552191,181.581805 641.112849,181.429184" id="Fill-219" fill="#E45940"></path>
                        <mask id="mask-14" fill="white">
                            <use xlink:href="#path-13"></use>
                        </mask>
                        <g id="Clip-224"></g>
                        <polygon id="Fill-223" fill="#110239" mask="url(#mask-14)" points="632.45401 188.023623 657.566016 188.023623 657.566016 184.027358 632.45401 184.027358"></polygon>
                        <path d="M588.042026,165.442118 C591.398135,163.474108 591.962714,161.301265 590.100387,154.103972 C588.241981,146.902664 593.107554,139.436276 597.792777,137.46425 C601.23122,136.010333 604.25407,135.371734 606.347718,131.61645 C608.437444,127.861166 604.469708,119.844539 611.099591,113.912396 C615.925958,109.590807 622.857734,113.044865 622.857734,113.044865 C624.347596,112.197416 624.959223,121.101656 625.065082,127.796905 C616.67873,140.954455 619.066429,158.144417 622.124566,172.872358 C622.199059,173.23383 622.31668,173.547105 622.430379,173.86038 C621.775625,185.25877 621.246332,194.697184 621.246332,194.697184 C621.246332,194.697184 601.070472,206.3968 587.351985,196.380033 C573.633498,186.363265 581.310205,169.38617 588.042026,165.442118" id="Fill-225" fill="#110239" mask="url(#mask-14)"></path>
                        <path d="M647.353801,248.585304 L652.474219,251.60158 C652.474219,251.60158 658.74732,268.128845 657.594637,269.57473 C656.441955,271.016598 643.515447,256.457343 643.001837,254.224254 C642.488227,251.999199 645.848256,249.372508 647.353801,248.585304" id="Fill-226" fill="#110239" mask="url(#mask-14)"></path>
                        <path d="M640.821934,190.479619 C640.821934,190.479619 673.732189,192.84123 676.802087,195.857506 C679.875907,198.873782 651.937085,251.2871 651.937085,251.2871 L647.353801,248.584099 C647.353801,248.584099 654.269894,223.666687 656.061648,217.895198 C657.853403,212.123708 661.31145,205.171413 660.668457,204.25167 C660.025464,203.335943 626.864285,208.448752 627.123051,198.873782 C627.377896,189.298813 640.821934,190.479619 640.821934,190.479619" id="Fill-227" fill="#F88667" mask="url(#mask-14)"></path>
                        <path d="M624.595383,133.619 C624.595383,133.619 621.137337,143.258231 623.250587,150.439458 L611.727686,147.587852 C611.727686,147.587852 616.440352,131.45419 618.459507,128.698976 C620.47474,125.947779 624.595383,133.619 624.595383,133.619" id="Fill-228" fill="#F88667" mask="url(#mask-14)"></path>
                        <path d="M619.794109,142.277439 C616.018486,142.277439 614.062063,145.133062 613.881712,148.125239 L611.725333,147.587049 C611.725333,147.587049 616.441921,131.457403 618.457154,128.702189 C620.476309,125.946976 624.596952,133.618197 624.596952,133.618197 C624.596952,133.618197 623.044359,137.955851 622.656211,142.9803 C621.85247,142.546535 620.911505,142.277439 619.794109,142.277439" id="Fill-229" fill="#E45940" mask="url(#mask-14)"></path>
                        <path d="M625.786096,121.054263 C625.786096,121.054263 630.263522,123.243171 631.33387,125.094707 C632.400297,126.942226 631.467173,129.496622 631.557349,131.187504 C631.643604,132.87437 632.098404,135.384586 631.8514,135.794253 C631.600476,136.203921 629.949867,135.794253 629.68326,136.159741 C629.416653,136.525228 627.279878,137.894802 626.609441,139.449128 C625.942924,140.999438 625.052928,141.135994 623.492494,140.360839 C621.935981,139.585684 615.960852,131.504796 615.898121,127.717381 C615.827549,123.929967 621.351798,119.503953 625.786096,121.054263" id="Fill-230" fill="#F88667" mask="url(#mask-14)"></path>
                        <path d="M621.995575,115.914143 C621.995575,115.914143 624.081381,120.191552 624.30094,121.890466 C624.516577,123.58938 622.928699,128.605797 621.995575,129.27251 C621.058531,129.935207 621.85051,123.661675 619.470652,125.581488 C617.094715,127.497285 619.619638,131.116013 619.470652,131.851005 C619.329507,132.590012 618.247398,134.951624 615.800888,135.172523 C613.350458,135.397438 609.31607,122.922667 611.982138,119.826064 C614.648206,116.725445 619.184442,115.914143 621.995575,115.914143" id="Fill-231" fill="#110239" mask="url(#mask-14)"></path>
                        <path d="M621.585863,113.403926 C621.585863,113.403926 625.526155,110.379618 629.631115,113.77343 C633.736075,117.167243 633.59493,122.25997 636.978484,121.818172 C636.978484,121.818172 634.743692,127.718184 629.842832,126.316479 C624.945893,124.914775 619.880364,116.946344 621.585863,113.403926" id="Fill-232" fill="#110239" mask="url(#mask-14)"></path>
                        <path d="M608.173582,180.117044 L623.43682,178.936238 C623.43682,178.936238 631.380134,188.025229 639.22543,188.025229 L666.050777,188.025229 C666.050777,188.025229 664.600123,200.564262 658.138829,209.637188 C658.138829,209.637188 632.658278,210.456523 620.237539,209.408257 C607.816799,208.35999 596.007687,194.330893 608.173582,180.117044" id="Fill-233" fill="#FD425F" mask="url(#mask-14)"></path>
                        <path d="M606.749196,181.952514 C607.184392,181.342029 607.647034,180.731545 608.172406,180.117044 L623.435644,178.936238 C623.435644,178.936238 631.171161,187.764167 638.906678,188.001131 C629.559758,188.973087 611.697104,191.089702 606.749196,181.952514" id="Fill-234" fill="#CA0045" mask="url(#mask-14)"></path>
                        <path d="M613.189318,142.144097 C613.189318,142.144097 620.195587,144.967588 622.571524,145.228651 C622.571524,145.228651 627.50767,156.378028 629.428807,159.394304 C631.349944,162.41058 624.559313,173.953559 624.179006,178.937844 C624.179006,178.937844 620.09757,182.926076 607.73172,180.472089 C607.73172,180.472089 604.504994,149.160654 613.189318,142.144097" id="Fill-236" fill="#01D9CF" mask="url(#mask-14)"></path>
                        <path d="M611.31719,148.804002 C613.461806,147.799915 617.186459,148.8281 618.233283,151.029058 C619.523189,153.752141 618.197997,158.595854 618.354824,161.539836 C618.519493,164.640455 618.707686,168.761226 619.47222,171.781519 C620.068165,174.135098 621.569788,177.046949 623.498767,179.428642 C621.914809,180.40863 617.319763,182.37664 607.733681,180.472892 C607.733681,180.472892 605.765495,161.379182 609.03927,149.671533 C609.929266,149.358258 610.75261,149.065064 611.31719,148.804002" id="Fill-237" fill="#00A1CC" mask="url(#mask-14)"></path>
                        <path d="M638.712212,181.429184 C639.947229,181.091811 640.970529,180.670095 642.103607,180.035512 C643.013207,179.52142 643.891441,179.035442 644.985313,179.196095 C645.761609,179.31257 652.03471,181.987456 650.364497,183.184327 C649.823442,183.569897 648.470804,182.891134 647.92975,182.694333 C647.157374,182.413189 646.381078,182.023603 645.647909,181.68623 C646.318347,181.654099 649.713663,183.128098 649.35688,183.9394 C648.72957,185.365203 645.295047,183.457439 644.499148,182.999575 C645.106854,183.099984 647.231867,183.915302 647.227946,184.706522 C647.224026,185.955606 644.699103,184.911356 644.154127,184.626196 C643.746376,184.417346 643.444483,184.112103 643.001445,184.051858 C642.476073,183.979564 641.962463,184.224561 641.464535,184.333002 C640.598063,184.521771 639.66886,184.469558 638.790626,184.385215 C638.265254,184.333002 637.049841,184.449476 636.791075,183.987597 C636.512706,183.501619 636.720503,182.393107 637.128254,182.035652 C637.55953,181.658116 638.151554,181.581805 638.712212,181.429184" id="Fill-238" fill="#F88667" mask="url(#mask-14)"></path>
                        <path d="M639.768838,181.272145 L638.424042,186.445199 C638.424042,186.445199 605.388325,182.513196 604.61987,176.508758 C603.851416,170.508337 605.964666,142.574649 613.935425,145.474451 C621.902263,148.378269 614.033442,168.640736 615.280221,170.215144 C616.527,171.789551 639.768838,181.272145 639.768838,181.272145" id="Fill-239" fill="#01D9CF" mask="url(#mask-14)"></path>
                    </g>
                </g>
            </g>
        </g>
    </g>
</svg>